ISO-10303-21;
HEADER;
FILE_DESCRIPTION (( 'STEP AP214' ),
    '1' );
FILE_NAME ('A39C-T400A20S2a.STEP',
    '2025-12-24T10:06:50',
    ( '' ),
    ( '' ),
    'SwSTEP 2.0',
    'SolidWorks 2020',
    '' );
FILE_SCHEMA (( 'AUTOMOTIVE_DESIGN' ));
ENDSEC;

DATA;
#1 = LINE ( 'NONE', #162, #76 ) ;
#2 = SHAPE_DEFINITION_REPRESENTATION ( #32, #62 ) ;
#3 = ORIENTED_EDGE ( 'NONE', *, *, #91, .T. ) ;
#4 = STYLED_ITEM ( 'NONE', ( #122 ), #62 ) ;
#5 = UNCERTAINTY_MEASURE_WITH_UNIT (LENGTH_MEASURE( 1.000000000000000082E-05 ), #145, 'distance_accuracy_value', 'NONE');
#6 = CARTESIAN_POINT ( 'NONE',  ( -5.000000000000000000, 0.000000000000000000, -4.500000000000000000 ) ) ;
#7 = CARTESIAN_POINT ( 'NONE',  ( -5.000000000000000000, 2.000000000000000000, 4.500000000000000000 ) ) ;
#8 = SURFACE_STYLE_USAGE ( .BOTH. , #155 ) ;
#9 = DIRECTION ( 'NONE',  ( -1.000000000000000000, -0.000000000000000000, -0.000000000000000000 ) ) ;
#10 = CARTESIAN_POINT ( 'NONE',  ( 0.000000000000000000, 0.000000000000000000, 0.000000000000000000 ) ) ;
#11 =( NAMED_UNIT ( * ) PLANE_ANGLE_UNIT ( ) SI_UNIT ( $, .RADIAN. ) );
#12 = APPLICATION_CONTEXT ( 'automotive_design' ) ;
#13 = AXIS2_PLACEMENT_3D ( 'NONE', #95, #82, #147 ) ;
#14 = PLANE ( 'NONE',  #19 ) ;
#15 = DIRECTION ( 'NONE',  ( 1.000000000000000000, 0.000000000000000000, 0.000000000000000000 ) ) ;
#16 = EDGE_CURVE ( 'NONE', #80, #128, #146, .T. ) ;
#17 = PRODUCT_CONTEXT ( 'NONE', #12, 'mechanical' ) ;
#18 = EDGE_LOOP ( 'NONE', ( #64, #130, #99, #53 ) ) ;
#19 = AXIS2_PLACEMENT_3D ( 'NONE', #86, #179, #100 ) ;
#20 = EDGE_CURVE ( 'NONE', #125, #28, #1, .T. ) ;
#21 = ORIENTED_EDGE ( 'NONE', *, *, #66, .F. ) ;
#22 = ORIENTED_EDGE ( 'NONE', *, *, #148, .F. ) ;
#23 = DIRECTION ( 'NONE',  ( -0.000000000000000000, -1.000000000000000000, -0.000000000000000000 ) ) ;
#24 = ADVANCED_FACE ( 'NONE', ( #58 ), #175, .F. ) ;
#25 = CARTESIAN_POINT ( 'NONE',  ( 5.000000000000000000, 0.000000000000000000, -4.500000000000000000 ) ) ;
#26 = ORIENTED_EDGE ( 'NONE', *, *, #16, .F. ) ;
#27 = DIRECTION ( 'NONE',  ( 1.000000000000000000, 0.000000000000000000, 0.000000000000000000 ) ) ;
#28 = VERTEX_POINT ( 'NONE', #163 ) ;
#29 = VECTOR ( 'NONE', #9, 1000.000000000000000 ) ;
#30 = VECTOR ( 'NONE', #117, 1000.000000000000000 ) ;
#31 = DIRECTION ( 'NONE',  ( 1.000000000000000000, 0.000000000000000000, -0.000000000000000000 ) ) ;
#32 = PRODUCT_DEFINITION_SHAPE ( 'NONE', 'NONE',  #61 ) ;
#33 = LINE ( 'NONE', #136, #30 ) ;
#34 =( GEOMETRIC_REPRESENTATION_CONTEXT ( 3 ) GLOBAL_UNCERTAINTY_ASSIGNED_CONTEXT ( ( #193 ) ) GLOBAL_UNIT_ASSIGNED_CONTEXT ( ( #182, #11, #121 ) ) REPRESENTATION_CONTEXT ( 'NONE', 'WORKASPACE' ) );
#35 = MECHANICAL_DESIGN_GEOMETRIC_PRESENTATION_REPRESENTATION (  '', ( #4 ), #84 ) ;
#36 = EDGE_LOOP ( 'NONE', ( #3, #21, #63, #42 ) ) ;
#37 = PRODUCT_DEFINITION_CONTEXT ( 'detailed design', #118, 'design' ) ;
#38 = DIRECTION ( 'NONE',  ( 0.000000000000000000, 0.000000000000000000, 1.000000000000000000 ) ) ;
#39 = ORIENTED_EDGE ( 'NONE', *, *, #20, .T. ) ;
#40 = DIRECTION ( 'NONE',  ( -1.000000000000000000, -0.000000000000000000, -0.000000000000000000 ) ) ;
#41 = EDGE_LOOP ( 'NONE', ( #159, #126, #185, #132 ) ) ;
#42 = ORIENTED_EDGE ( 'NONE', *, *, #165, .T. ) ;
#43 = PLANE ( 'NONE',  #177 ) ;
#44 = VECTOR ( 'NONE', #149, 1000.000000000000000 ) ;
#45 = FACE_OUTER_BOUND ( 'NONE', #113, .T. ) ;
#46 = CARTESIAN_POINT ( 'NONE',  ( -5.000000000000000000, 2.000000000000000000, -4.500000000000000000 ) ) ;
#47 = EDGE_LOOP ( 'NONE', ( #39, #160, #133, #77 ) ) ;
#48 = EDGE_LOOP ( 'NONE', ( #81, #79, #26, #52 ) ) ;
#49 = SURFACE_STYLE_FILL_AREA ( #78 ) ;
#50 = EDGE_CURVE ( 'NONE', #80, #65, #85, .T. ) ;
#51 =( NAMED_UNIT ( * ) SI_UNIT ( $, .STERADIAN. ) SOLID_ANGLE_UNIT ( ) );
#52 = ORIENTED_EDGE ( 'NONE', *, *, #50, .T. ) ;
#53 = ORIENTED_EDGE ( 'NONE', *, *, #167, .T. ) ;
#54 = COLOUR_RGB ( '',1.000000000000000000, 1.000000000000000000, 1.000000000000000000 ) ;
#55 = CARTESIAN_POINT ( 'NONE',  ( 5.000000000000000000, 2.000000000000000000, -4.500000000000000000 ) ) ;
#56 = EDGE_CURVE ( 'NONE', #69, #80, #192, .T. ) ;
#57 = DIRECTION ( 'NONE',  ( 0.000000000000000000, 0.000000000000000000, 1.000000000000000000 ) ) ;
#58 = FACE_OUTER_BOUND ( 'NONE', #36, .T. ) ;
#59 = VECTOR ( 'NONE', #195, 1000.000000000000000 ) ;
#60 = LINE ( 'NONE', #92, #29 ) ;
#61 = PRODUCT_DEFINITION ( '未知', '', #199, #37 ) ;
#62 = ADVANCED_BREP_SHAPE_REPRESENTATION ( 'A39C-T400A20S2a', ( #150, #142 ), #123 ) ;
#63 = ORIENTED_EDGE ( 'NONE', *, *, #124, .F. ) ;
#64 = ORIENTED_EDGE ( 'NONE', *, *, #98, .T. ) ;
#65 = VERTEX_POINT ( 'NONE', #25 ) ;
#66 = EDGE_CURVE ( 'NONE', #115, #125, #96, .T. ) ;
#67 = CARTESIAN_POINT ( 'NONE',  ( -5.000000000000000000, 2.000000000000000000, -4.500000000000000000 ) ) ;
#68 = CARTESIAN_POINT ( 'NONE',  ( 5.000000000000000000, 2.000000000000000000, -4.500000000000000000 ) ) ;
#69 = VERTEX_POINT ( 'NONE', #143 ) ;
#70 = PRESENTATION_LAYER_ASSIGNMENT (  '', '', ( #158 ) ) ;
#71 = CARTESIAN_POINT ( 'NONE',  ( -5.000000000000000000, 2.000000000000000000, 4.500000000000000000 ) ) ;
#72 = DIRECTION ( 'NONE',  ( 1.000000000000000000, 0.000000000000000000, 0.000000000000000000 ) ) ;
#73 = FILL_AREA_STYLE ('',( #104 ) ) ;
#74 = CARTESIAN_POINT ( 'NONE',  ( 0.000000000000000000, 2.000000000000000000, 0.000000000000000000 ) ) ;
#75 =( LENGTH_UNIT ( ) NAMED_UNIT ( * ) SI_UNIT ( .MILLI., .METRE. ) );
#76 = VECTOR ( 'NONE', #27, 1000.000000000000000 ) ;
#77 = ORIENTED_EDGE ( 'NONE', *, *, #66, .T. ) ;
#78 = FILL_AREA_STYLE ('',( #187 ) ) ;
#79 = ORIENTED_EDGE ( 'NONE', *, *, #165, .F. ) ;
#80 = VERTEX_POINT ( 'NONE', #161 ) ;
#81 = ORIENTED_EDGE ( 'NONE', *, *, #148, .T. ) ;
#82 = DIRECTION ( 'NONE',  ( 1.000000000000000000, 0.000000000000000000, 0.000000000000000000 ) ) ;
#83 = VECTOR ( 'NONE', #40, 1000.000000000000000 ) ;
#84 =( GEOMETRIC_REPRESENTATION_CONTEXT ( 3 ) GLOBAL_UNCERTAINTY_ASSIGNED_CONTEXT ( ( #5 ) ) GLOBAL_UNIT_ASSIGNED_CONTEXT ( ( #145, #201, #51 ) ) REPRESENTATION_CONTEXT ( 'NONE', 'WORKASPACE' ) );
#85 = LINE ( 'NONE', #68, #138 ) ;
#86 = CARTESIAN_POINT ( 'NONE',  ( 5.000000000000000000, 2.000000000000000000, -4.500000000000000000 ) ) ;
#87 = EDGE_CURVE ( 'NONE', #115, #69, #152, .T. ) ;
#88 = FACE_OUTER_BOUND ( 'NONE', #48, .T. ) ;
#89 = CLOSED_SHELL ( 'NONE', ( #197, #184, #24, #144, #140, #169 ) ) ;
#90 = FACE_OUTER_BOUND ( 'NONE', #18, .T. ) ;
#91 = EDGE_CURVE ( 'NONE', #134, #125, #194, .T. ) ;
#92 = CARTESIAN_POINT ( 'NONE',  ( -5.000000000000000000, 0.000000000000000000, -4.500000000000000000 ) ) ;
#93 = PLANE ( 'NONE',  #166 ) ;
#94 = FACE_OUTER_BOUND ( 'NONE', #41, .T. ) ;
#95 = CARTESIAN_POINT ( 'NONE',  ( -5.000000000000000000, 2.000000000000000000, -4.500000000000000000 ) ) ;
#96 = LINE ( 'NONE', #71, #108 ) ;
#97 = DIRECTION ( 'NONE',  ( -0.000000000000000000, -1.000000000000000000, -0.000000000000000000 ) ) ;
#98 = EDGE_CURVE ( 'NONE', #28, #65, #114, .T. ) ;
#99 = ORIENTED_EDGE ( 'NONE', *, *, #56, .F. ) ;
#100 = DIRECTION ( 'NONE',  ( 0.000000000000000000, 0.000000000000000000, 1.000000000000000000 ) ) ;
#101 = VECTOR ( 'NONE', #57, 1000.000000000000000 ) ;
#102 = AXIS2_PLACEMENT_3D ( 'NONE', #103, #180, #31 ) ;
#103 = CARTESIAN_POINT ( 'NONE',  ( -5.000000000000000000, 2.000000000000000000, -4.500000000000000000 ) ) ;
#104 = FILL_AREA_STYLE_COLOUR ( '', #54 ) ;
#105 = DIRECTION ( 'NONE',  ( 0.000000000000000000, -0.000000000000000000, 1.000000000000000000 ) ) ;
#106 = PRODUCT_RELATED_PRODUCT_CATEGORY ( 'part', '', ( #186 ) ) ;
#107 = VECTOR ( 'NONE', #178, 1000.000000000000000 ) ;
#108 = VECTOR ( 'NONE', #97, 1000.000000000000000 ) ;
#109 = APPLICATION_PROTOCOL_DEFINITION ( 'draft international standard', 'automotive_design', 1998, #118 ) ;
#110 = CARTESIAN_POINT ( 'NONE',  ( -5.000000000000000000, 2.000000000000000000, -4.500000000000000000 ) ) ;
#111 = VECTOR ( 'NONE', #72, 1000.000000000000000 ) ;
#112 = CARTESIAN_POINT ( 'NONE',  ( -5.000000000000000000, 2.000000000000000000, -4.500000000000000000 ) ) ;
#113 = EDGE_LOOP ( 'NONE', ( #191, #170, #174, #22 ) ) ;
#114 = LINE ( 'NONE', #176, #107 ) ;
#115 = VERTEX_POINT ( 'NONE', #202 ) ;
#116 = DIRECTION ( 'NONE',  ( 0.000000000000000000, 1.000000000000000000, 0.000000000000000000 ) ) ;
#117 = DIRECTION ( 'NONE',  ( -0.000000000000000000, -1.000000000000000000, -0.000000000000000000 ) ) ;
#118 = APPLICATION_CONTEXT ( 'automotive_design' ) ;
#119 = PRESENTATION_STYLE_ASSIGNMENT (( #8 ) ) ;
#120 = PRESENTATION_LAYER_ASSIGNMENT (  '', '', ( #4 ) ) ;
#121 =( NAMED_UNIT ( * ) SI_UNIT ( $, .STERADIAN. ) SOLID_ANGLE_UNIT ( ) );
#122 = PRESENTATION_STYLE_ASSIGNMENT (( #172 ) ) ;
#123 =( GEOMETRIC_REPRESENTATION_CONTEXT ( 3 ) GLOBAL_UNCERTAINTY_ASSIGNED_CONTEXT ( ( #151 ) ) GLOBAL_UNIT_ASSIGNED_CONTEXT ( ( #75, #154, #139 ) ) REPRESENTATION_CONTEXT ( 'NONE', 'WORKASPACE' ) );
#124 = EDGE_CURVE ( 'NONE', #128, #115, #173, .T. ) ;
#125 = VERTEX_POINT ( 'NONE', #190 ) ;
#126 = ORIENTED_EDGE ( 'NONE', *, *, #16, .T. ) ;
#127 = VECTOR ( 'NONE', #38, 1000.000000000000000 ) ;
#128 = VERTEX_POINT ( 'NONE', #67 ) ;
#129 = APPLICATION_PROTOCOL_DEFINITION ( 'draft international standard', 'automotive_design', 1998, #12 ) ;
#130 = ORIENTED_EDGE ( 'NONE', *, *, #50, .F. ) ;
#131 = COLOUR_RGB ( '',1.000000000000000000, 1.000000000000000000, 1.000000000000000000 ) ;
#132 = ORIENTED_EDGE ( 'NONE', *, *, #87, .T. ) ;
#133 = ORIENTED_EDGE ( 'NONE', *, *, #87, .F. ) ;
#134 = VERTEX_POINT ( 'NONE', #188 ) ;
#135 = CARTESIAN_POINT ( 'NONE',  ( -5.000000000000000000, 2.000000000000000000, 4.500000000000000000 ) ) ;
#136 = CARTESIAN_POINT ( 'NONE',  ( 5.000000000000000000, 2.000000000000000000, 4.500000000000000000 ) ) ;
#137 = DIRECTION ( 'NONE',  ( -1.000000000000000000, 0.000000000000000000, -0.000000000000000000 ) ) ;
#138 = VECTOR ( 'NONE', #23, 1000.000000000000000 ) ;
#139 =( NAMED_UNIT ( * ) SI_UNIT ( $, .STERADIAN. ) SOLID_ANGLE_UNIT ( ) );
#140 = ADVANCED_FACE ( 'NONE', ( #94 ), #200, .T. ) ;
#141 = CARTESIAN_POINT ( 'NONE',  ( 0.000000000000000000, 0.000000000000000000, 0.000000000000000000 ) ) ;
#142 = AXIS2_PLACEMENT_3D ( 'NONE', #141, #171, #15 ) ;
#143 = CARTESIAN_POINT ( 'NONE',  ( 5.000000000000000000, 2.000000000000000000, 4.500000000000000000 ) ) ;
#144 = ADVANCED_FACE ( 'NONE', ( #164 ), #43, .F. ) ;
#145 =( LENGTH_UNIT ( ) NAMED_UNIT ( * ) SI_UNIT ( .MILLI., .METRE. ) );
#146 = LINE ( 'NONE', #112, #83 ) ;
#147 = DIRECTION ( 'NONE',  ( 0.000000000000000000, 0.000000000000000000, -1.000000000000000000 ) ) ;
#148 = EDGE_CURVE ( 'NONE', #65, #134, #60, .T. ) ;
#149 = DIRECTION ( 'NONE',  ( -0.000000000000000000, -0.000000000000000000, -1.000000000000000000 ) ) ;
#150 = MANIFOLD_SOLID_BREP ( '凸台-拉伸1', #89 ) ;
#151 = UNCERTAINTY_MEASURE_WITH_UNIT (LENGTH_MEASURE( 1.000000000000000082E-05 ), #75, 'distance_accuracy_value', 'NONE');
#152 = LINE ( 'NONE', #7, #111 ) ;
#153 = DIRECTION ( 'NONE',  ( 0.000000000000000000, 1.000000000000000000, 0.000000000000000000 ) ) ;
#154 =( NAMED_UNIT ( * ) PLANE_ANGLE_UNIT ( ) SI_UNIT ( $, .RADIAN. ) );
#155 = SURFACE_SIDE_STYLE ('',( #168 ) ) ;
#156 = PLANE ( 'NONE',  #102 ) ;
#157 = AXIS2_PLACEMENT_3D ( 'NONE', #74, #153, #196 ) ;
#158 = STYLED_ITEM ( 'NONE', ( #119 ), #150 ) ;
#159 = ORIENTED_EDGE ( 'NONE', *, *, #56, .T. ) ;
#160 = ORIENTED_EDGE ( 'NONE', *, *, #167, .F. ) ;
#161 = CARTESIAN_POINT ( 'NONE',  ( 5.000000000000000000, 2.000000000000000000, -4.500000000000000000 ) ) ;
#162 = CARTESIAN_POINT ( 'NONE',  ( -5.000000000000000000, 0.000000000000000000, 4.500000000000000000 ) ) ;
#163 = CARTESIAN_POINT ( 'NONE',  ( 5.000000000000000000, 0.000000000000000000, 4.500000000000000000 ) ) ;
#164 = FACE_OUTER_BOUND ( 'NONE', #47, .T. ) ;
#165 = EDGE_CURVE ( 'NONE', #128, #134, #183, .T. ) ;
#166 = AXIS2_PLACEMENT_3D ( 'NONE', #10, #116, #105 ) ;
#167 = EDGE_CURVE ( 'NONE', #69, #28, #33, .T. ) ;
#168 = SURFACE_STYLE_FILL_AREA ( #73 ) ;
#169 = ADVANCED_FACE ( 'NONE', ( #45 ), #93, .F. ) ;
#170 = ORIENTED_EDGE ( 'NONE', *, *, #20, .F. ) ;
#171 = DIRECTION ( 'NONE',  ( 0.000000000000000000, 0.000000000000000000, 1.000000000000000000 ) ) ;
#172 = SURFACE_STYLE_USAGE ( .BOTH. , #189 ) ;
#173 = LINE ( 'NONE', #110, #127 ) ;
#174 = ORIENTED_EDGE ( 'NONE', *, *, #91, .F. ) ;
#175 = PLANE ( 'NONE',  #13 ) ;
#176 = CARTESIAN_POINT ( 'NONE',  ( 5.000000000000000000, 0.000000000000000000, -4.500000000000000000 ) ) ;
#177 = AXIS2_PLACEMENT_3D ( 'NONE', #135, #198, #137 ) ;
#178 = DIRECTION ( 'NONE',  ( -0.000000000000000000, -0.000000000000000000, -1.000000000000000000 ) ) ;
#179 = DIRECTION ( 'NONE',  ( -1.000000000000000000, 0.000000000000000000, 0.000000000000000000 ) ) ;
#180 = DIRECTION ( 'NONE',  ( 0.000000000000000000, 0.000000000000000000, 1.000000000000000000 ) ) ;
#181 = MECHANICAL_DESIGN_GEOMETRIC_PRESENTATION_REPRESENTATION (  '', ( #158 ), #34 ) ;
#182 =( LENGTH_UNIT ( ) NAMED_UNIT ( * ) SI_UNIT ( .MILLI., .METRE. ) );
#183 = LINE ( 'NONE', #46, #59 ) ;
#184 = ADVANCED_FACE ( 'NONE', ( #88 ), #156, .F. ) ;
#185 = ORIENTED_EDGE ( 'NONE', *, *, #124, .T. ) ;
#186 = PRODUCT ( 'A39C-T400A20S2a', 'A39C-T400A20S2a', '', ( #17 ) ) ;
#187 = FILL_AREA_STYLE_COLOUR ( '', #131 ) ;
#188 = CARTESIAN_POINT ( 'NONE',  ( -5.000000000000000000, 0.000000000000000000, -4.500000000000000000 ) ) ;
#189 = SURFACE_SIDE_STYLE ('',( #49 ) ) ;
#190 = CARTESIAN_POINT ( 'NONE',  ( -5.000000000000000000, 0.000000000000000000, 4.500000000000000000 ) ) ;
#191 = ORIENTED_EDGE ( 'NONE', *, *, #98, .F. ) ;
#192 = LINE ( 'NONE', #55, #44 ) ;
#193 = UNCERTAINTY_MEASURE_WITH_UNIT (LENGTH_MEASURE( 1.000000000000000082E-05 ), #182, 'distance_accuracy_value', 'NONE');
#194 = LINE ( 'NONE', #6, #101 ) ;
#195 = DIRECTION ( 'NONE',  ( -0.000000000000000000, -1.000000000000000000, -0.000000000000000000 ) ) ;
#196 = DIRECTION ( 'NONE',  ( 0.000000000000000000, -0.000000000000000000, 1.000000000000000000 ) ) ;
#197 = ADVANCED_FACE ( 'NONE', ( #90 ), #14, .F. ) ;
#198 = DIRECTION ( 'NONE',  ( 0.000000000000000000, 0.000000000000000000, -1.000000000000000000 ) ) ;
#199 = PRODUCT_DEFINITION_FORMATION_WITH_SPECIFIED_SOURCE ( '任何', '', #186, .NOT_KNOWN. ) ;
#200 = PLANE ( 'NONE',  #157 ) ;
#201 =( NAMED_UNIT ( * ) PLANE_ANGLE_UNIT ( ) SI_UNIT ( $, .RADIAN. ) );
#202 = CARTESIAN_POINT ( 'NONE',  ( -5.000000000000000000, 2.000000000000000000, 4.500000000000000000 ) ) ;
ENDSEC;
END-ISO-10303-21;
