ISO-10303-21;
HEADER;
FILE_DESCRIPTION (( 'STEP AP214' ),
    '1' );
FILE_NAME ('C9A558E9-FC30-4FD0-A71D-8B47E24F10B4.STEP',
    '2025-12-24T06:49:43',
    ( '' ),
    ( '' ),
    'SwSTEP 2.0',
    'SolidWorks 2022',
    '' );
FILE_SCHEMA (( 'AUTOMOTIVE_DESIGN' ));
ENDSEC;

DATA;
#1 = FACE_OUTER_BOUND ( 'NONE', #499, .T. ) ;
#2 = EDGE_LOOP ( 'NONE', ( #264, #126, #709, #238 ) ) ;
#3 =( BOUNDED_CURVE ( )  B_SPLINE_CURVE ( 3, ( #729, #204, #89, #71 ),
 .UNSPECIFIED., .F., .T. ) 
 B_SPLINE_CURVE_WITH_KNOTS ( ( 4, 4 ),
 ( 4.712388980384689674, 6.283185307179586232 ),
 .UNSPECIFIED. ) 
 CURVE ( )  GEOMETRIC_REPRESENTATION_ITEM ( )  RATIONAL_B_SPLINE_CURVE ( ( 1.000000000000000000, 0.8047378541243649375, 0.8047378541243649375, 1.000000000000000000 ) ) 
 REPRESENTATION_ITEM ( '' )  );
#4 = SURFACE_STYLE_FILL_AREA ( #427 ) ;
#5 = PRESENTATION_LAYER_ASSIGNMENT (  '', '', ( #807 ) ) ;
#6 = ADVANCED_FACE ( 'NONE', ( #196 ), #721, .F. ) ;
#7 = LINE ( 'NONE', #887, #723 ) ;
#8 = ORIENTED_EDGE ( 'NONE', *, *, #849, .F. ) ;
#9 = FILL_AREA_STYLE ('',( #524 ) ) ;
#10 = EDGE_CURVE ( 'NONE', #728, #390, #341, .T. ) ;
#11 = DIRECTION ( 'NONE',  ( 0.0000000000000000000, -0.0000000000000000000, 1.000000000000000000 ) ) ;
#12 = PLANE ( 'NONE',  #576 ) ;
#13 = LINE ( 'NONE', #369, #364 ) ;
#14 = VECTOR ( 'NONE', #144, 1000.000000000000000 ) ;
#15 = AXIS2_PLACEMENT_3D ( 'NONE', #828, #22, #517 ) ;
#16 = ORIENTED_EDGE ( 'NONE', *, *, #469, .F. ) ;
#17 =( NAMED_UNIT ( * ) SI_UNIT ( $, .STERADIAN. ) SOLID_ANGLE_UNIT ( ) );
#18 = PLANE ( 'NONE',  #15 ) ;
#19 = CARTESIAN_POINT ( 'NONE',  ( -2.649999999999999911, 2.799999999999999822, -2.500000000000000000 ) ) ;
#20 = FACE_OUTER_BOUND ( 'NONE', #446, .T. ) ;
#21 = CARTESIAN_POINT ( 'NONE',  ( -2.699999999999999734, 2.800000000000000266, 2.499999999999999556 ) ) ;
#22 = DIRECTION ( 'NONE',  ( -1.000000000000000000, -2.018084652485880300E-17, 2.313050733330870660E-16 ) ) ;
#23 = ORIENTED_EDGE ( 'NONE', *, *, #286, .F. ) ;
#24 = VERTEX_POINT ( 'NONE', #143 ) ;
#25 = FILL_AREA_STYLE_COLOUR ( '', #250 ) ;
#26 = DIRECTION ( 'NONE',  ( 0.0000000000000000000, 0.0000000000000000000, -1.000000000000000000 ) ) ;
#27 = PRESENTATION_LAYER_ASSIGNMENT (  '', '', ( #608 ) ) ;
#28 = COLOUR_RGB ( '',0.7529411764705882248, 0.7529411764705882248, 0.7529411764705882248 ) ;
#29 = CYLINDRICAL_SURFACE ( 'NONE', #806, 0.1499999999999999667 ) ;
#30 = MECHANICAL_DESIGN_GEOMETRIC_PRESENTATION_REPRESENTATION (  '', ( #594 ), #87 ) ;
#31 = ADVANCED_FACE ( 'NONE', ( #74 ), #349, .F. ) ;
#32 = PRESENTATION_LAYER_ASSIGNMENT (  '', '', ( #488 ) ) ;
#33 = FILL_AREA_STYLE_COLOUR ( '', #658 ) ;
#34 = UNCERTAINTY_MEASURE_WITH_UNIT (LENGTH_MEASURE( 1.000000000000000082E-05 ), #269, 'distance_accuracy_value', 'NONE');
#35 = OPEN_SHELL ( 'NONE', ( #401, #31, #534, #958, #52, #64, #706, #419, #794 ) ) ;
#36 =( GEOMETRIC_REPRESENTATION_CONTEXT ( 3 ) GLOBAL_UNCERTAINTY_ASSIGNED_CONTEXT ( ( #116 ) ) GLOBAL_UNIT_ASSIGNED_CONTEXT ( ( #960, #560, #479 ) ) REPRESENTATION_CONTEXT ( 'NONE', 'WORKASPACE' ) );
#37 = VERTEX_POINT ( 'NONE', #82 ) ;
#38 = DIRECTION ( 'NONE',  ( 1.965969179678056521E-16, 1.000000000000000000, -4.473371011944573551E-31 ) ) ;
#39 = DIRECTION ( 'NONE',  ( 1.000000000000000000, -1.965969179678056521E-16, -2.275402411281505148E-15 ) ) ;
#40 = VERTEX_POINT ( 'NONE', #819 ) ;
#41 = CARTESIAN_POINT ( 'NONE',  ( -2.700000000000000622, 3.696409144715363211E-16, 2.500000000000000000 ) ) ;
#42 = EDGE_CURVE ( 'NONE', #885, #390, #883, .T. ) ;
#43 =( NAMED_UNIT ( * ) PLANE_ANGLE_UNIT ( ) SI_UNIT ( $, .RADIAN. ) );
#44 = ORIENTED_EDGE ( 'NONE', *, *, #131, .T. ) ;
#45 = FILL_AREA_STYLE_COLOUR ( '', #404 ) ;
#46 = PLANE ( 'NONE',  #340 ) ;
#47 = FILL_AREA_STYLE ('',( #54 ) ) ;
#48 = COLOUR_RGB ( '',0.6666666666666666297, 0.6666666666666666297, 0.6666666666666666297 ) ;
#49 = PRESENTATION_STYLE_ASSIGNMENT (( #919 ) ) ;
#50 = VERTEX_POINT ( 'NONE', #162 ) ;
#51 = CARTESIAN_POINT ( 'NONE',  ( -2.649999999999999467, 2.800000000000000266, 2.499999999999999556 ) ) ;
#52 = ADVANCED_FACE ( 'NONE', ( #909 ), #445, .T. ) ;
#53 = SURFACE_STYLE_USAGE ( .BOTH. , #784 ) ;
#54 = FILL_AREA_STYLE_COLOUR ( '', #901 ) ;
#55 =( NAMED_UNIT ( * ) PLANE_ANGLE_UNIT ( ) SI_UNIT ( $, .RADIAN. ) );
#56 = ORIENTED_EDGE ( 'NONE', *, *, #871, .T. ) ;
#57 = VERTEX_POINT ( 'NONE', #368 ) ;
#58 = CARTESIAN_POINT ( 'NONE',  ( 2.850000000000004530, 2.737867965644035895, 2.437867965644036516 ) ) ;
#59 =( NAMED_UNIT ( * ) SI_UNIT ( $, .STERADIAN. ) SOLID_ANGLE_UNIT ( ) );
#60 = CARTESIAN_POINT ( 'NONE',  ( 2.650000000000001243, 2.799999999999999822, -2.500000000000000000 ) ) ;
#61 = PRESENTATION_LAYER_ASSIGNMENT (  '', '', ( #893 ) ) ;
#62 = ORIENTED_EDGE ( 'NONE', *, *, #434, .F. ) ;
#63 = STYLED_ITEM ( 'NONE', ( #650 ), #732 ) ;
#64 = ADVANCED_FACE ( 'NONE', ( #583 ), #12, .F. ) ;
#65 =( LENGTH_UNIT ( ) NAMED_UNIT ( * ) SI_UNIT ( .MILLI., .METRE. ) );
#66 =( NAMED_UNIT ( * ) PLANE_ANGLE_UNIT ( ) SI_UNIT ( $, .RADIAN. ) );
#67 =( GEOMETRIC_REPRESENTATION_CONTEXT ( 3 ) GLOBAL_UNCERTAINTY_ASSIGNED_CONTEXT ( ( #847 ) ) GLOBAL_UNIT_ASSIGNED_CONTEXT ( ( #899, #757, #443 ) ) REPRESENTATION_CONTEXT ( 'NONE', 'WORKASPACE' ) );
#68 = OPEN_SHELL ( 'NONE', ( #267, #808, #388, #963, #242, #834, #732, #218, #888 ) ) ;
#69 = ORIENTED_EDGE ( 'NONE', *, *, #504, .T. ) ;
#70 = VERTEX_POINT ( 'NONE', #856 ) ;
#71 = CARTESIAN_POINT ( 'NONE',  ( 2.700000000000003730, 2.799999999999999822, -2.500000000000000000 ) ) ;
#72 = PRESENTATION_STYLE_ASSIGNMENT (( #725 ) ) ;
#73 = UNCERTAINTY_MEASURE_WITH_UNIT (LENGTH_MEASURE( 1.000000000000000082E-05 ), #156, 'distance_accuracy_value', 'NONE');
#74 = FACE_OUTER_BOUND ( 'NONE', #333, .T. ) ;
#75 = FILL_AREA_STYLE ('',( #579 ) ) ;
#76 =( GEOMETRIC_REPRESENTATION_CONTEXT ( 3 ) GLOBAL_UNCERTAINTY_ASSIGNED_CONTEXT ( ( #34 ) ) GLOBAL_UNIT_ASSIGNED_CONTEXT ( ( #269, #730, #282 ) ) REPRESENTATION_CONTEXT ( 'NONE', 'WORKASPACE' ) );
#77 = VERTEX_POINT ( 'NONE', #317 ) ;
#78 = SURFACE_STYLE_FILL_AREA ( #662 ) ;
#79 = EDGE_CURVE ( 'NONE', #57, #102, #104, .T. ) ;
#80 = COLOUR_RGB ( '',0.6666666666666666297, 0.6666666666666666297, 0.6666666666666666297 ) ;
#81 = AXIS2_PLACEMENT_3D ( 'NONE', #262, #802, #327 ) ;
#82 = CARTESIAN_POINT ( 'NONE',  ( -2.649999999999999467, 2.799999999999999822, 2.500000000000000000 ) ) ;
#83 = FACE_OUTER_BOUND ( 'NONE', #581, .T. ) ;
#84 = ORIENTED_EDGE ( 'NONE', *, *, #461, .F. ) ;
#85 = DIRECTION ( 'NONE',  ( -1.965969179678056521E-16, -1.000000000000000000, 4.473371011944573551E-31 ) ) ;
#86 = VECTOR ( 'NONE', #485, 1000.000000000000000 ) ;
#87 =( GEOMETRIC_REPRESENTATION_CONTEXT ( 3 ) GLOBAL_UNCERTAINTY_ASSIGNED_CONTEXT ( ( #231 ) ) GLOBAL_UNIT_ASSIGNED_CONTEXT ( ( #113, #226, #387 ) ) REPRESENTATION_CONTEXT ( 'NONE', 'WORKASPACE' ) );
#88 = COLOUR_RGB ( '',0.7529411764705882248, 0.7529411764705882248, 0.7529411764705882248 ) ;
#89 = CARTESIAN_POINT ( 'NONE',  ( 2.787867965644038826, 2.799999999999999822, -2.500000000000000000 ) ) ;
#90 = FACE_OUTER_BOUND ( 'NONE', #241, .T. ) ;
#91 = SURFACE_STYLE_USAGE ( .BOTH. , #748 ) ;
#92 =( NAMED_UNIT ( * ) PLANE_ANGLE_UNIT ( ) SI_UNIT ( $, .RADIAN. ) );
#93 = SURFACE_STYLE_USAGE ( .BOTH. , #584 ) ;
#94 = DIRECTION ( 'NONE',  ( 2.275402411281505148E-15, 0.0000000000000000000, 1.000000000000000000 ) ) ;
#95 = EDGE_LOOP ( 'NONE', ( #623, #246, #191, #945 ) ) ;
#96 = EDGE_CURVE ( 'NONE', #122, #885, #310, .T. ) ;
#97 = FILL_AREA_STYLE ('',( #889 ) ) ;
#98 = MECHANICAL_DESIGN_GEOMETRIC_PRESENTATION_REPRESENTATION (  '', ( #932 ), #610 ) ;
#99 = CARTESIAN_POINT ( 'NONE',  ( -2.700000000000011724, 3.696409144715362718E-16, -2.500000000000000000 ) ) ;
#100 = VECTOR ( 'NONE', #173, 1000.000000000000000 ) ;
#101 = SURFACE_STYLE_FILL_AREA ( #9 ) ;
#102 = VERTEX_POINT ( 'NONE', #544 ) ;
#103 = FILL_AREA_STYLE_COLOUR ( '', #356 ) ;
#104 = LINE ( 'NONE', #934, #263 ) ;
#105 = SURFACE_STYLE_USAGE ( .BOTH. , #458 ) ;
#106 = ORIENTED_EDGE ( 'NONE', *, *, #884, .T. ) ;
#107 = CARTESIAN_POINT ( 'NONE',  ( -2.787867965644035273, 2.799999999999999822, 2.500000000000000000 ) ) ;
#108 = VERTEX_POINT ( 'NONE', #170 ) ;
#109 = EDGE_CURVE ( 'NONE', #266, #728, #182, .T. ) ;
#110 = STYLED_ITEM ( 'NONE', ( #152 ), #834 ) ;
#111 = ORIENTED_EDGE ( 'NONE', *, *, #672, .F. ) ;
#112 =( NAMED_UNIT ( * ) SI_UNIT ( $, .STERADIAN. ) SOLID_ANGLE_UNIT ( ) );
#113 =( LENGTH_UNIT ( ) NAMED_UNIT ( * ) SI_UNIT ( .MILLI., .METRE. ) );
#114 = MECHANICAL_DESIGN_GEOMETRIC_PRESENTATION_REPRESENTATION (  '', ( #486 ), #466 ) ;
#115 = VECTOR ( 'NONE', #668, 1000.000000000000000 ) ;
#116 = UNCERTAINTY_MEASURE_WITH_UNIT (LENGTH_MEASURE( 1.000000000000000082E-05 ), #960, 'distance_accuracy_value', 'NONE');
#117 = ORIENTED_EDGE ( 'NONE', *, *, #160, .F. ) ;
#118 =( NAMED_UNIT ( * ) PLANE_ANGLE_UNIT ( ) SI_UNIT ( $, .RADIAN. ) );
#119 = CARTESIAN_POINT ( 'NONE',  ( -2.699999999999999734, 2.650000000000000355, 2.499999999999999556 ) ) ;
#120 = DIRECTION ( 'NONE',  ( -2.275402411281505148E-15, 0.0000000000000000000, -1.000000000000000000 ) ) ;
#121 = UNCERTAINTY_MEASURE_WITH_UNIT (LENGTH_MEASURE( 1.000000000000000082E-05 ), #600, 'distance_accuracy_value', 'NONE');
#122 = VERTEX_POINT ( 'NONE', #474 ) ;
#123 = PRESENTATION_STYLE_ASSIGNMENT (( #53 ) ) ;
#124 = PRESENTATION_STYLE_ASSIGNMENT (( #701 ) ) ;
#125 = FILL_AREA_STYLE_COLOUR ( '', #80 ) ;
#126 = ORIENTED_EDGE ( 'NONE', *, *, #672, .T. ) ;
#127 = CARTESIAN_POINT ( 'NONE',  ( 2.850000000000003197, 2.649999999999999911, -2.499999999999999556 ) ) ;
#128 =( NAMED_UNIT ( * ) SI_UNIT ( $, .STERADIAN. ) SOLID_ANGLE_UNIT ( ) );
#129 = FILL_AREA_STYLE_COLOUR ( '', #898 ) ;
#130 = ORIENTED_EDGE ( 'NONE', *, *, #884, .F. ) ;
#131 = EDGE_CURVE ( 'NONE', #122, #715, #697, .T. ) ;
#132 = CARTESIAN_POINT ( 'NONE',  ( 2.650000000000003020, -1.582640770849968068E-16, -2.500000000000000000 ) ) ;
#133 =( LENGTH_UNIT ( ) NAMED_UNIT ( * ) SI_UNIT ( .MILLI., .METRE. ) );
#134 = VERTEX_POINT ( 'NONE', #842 ) ;
#135 = FILL_AREA_STYLE ('',( #129 ) ) ;
#136 = EDGE_LOOP ( 'NONE', ( #767, #303, #679, #843 ) ) ;
#137 = PRESENTATION_STYLE_ASSIGNMENT (( #718 ) ) ;
#138 = SURFACE_STYLE_USAGE ( .BOTH. , #795 ) ;
#139 = UNCERTAINTY_MEASURE_WITH_UNIT (LENGTH_MEASURE( 1.000000000000000082E-05 ), #169, 'distance_accuracy_value', 'NONE');
#140 = STYLED_ITEM ( 'NONE', ( #361 ), #388 ) ;
#141 = SURFACE_SIDE_STYLE ('',( #415 ) ) ;
#142 = ORIENTED_EDGE ( 'NONE', *, *, #42, .F. ) ;
#143 = CARTESIAN_POINT ( 'NONE',  ( 2.650000000000003020, 2.799999999999999822, -2.500000000000000000 ) ) ;
#144 = DIRECTION ( 'NONE',  ( 2.018084652485875986E-17, -1.000000000000000000, 5.551115123125782702E-17 ) ) ;
#145 = CARTESIAN_POINT ( 'NONE',  ( 2.787867965644038826, 1.230521543815891622E-16, -2.499999999999999556 ) ) ;
#146 = CARTESIAN_POINT ( 'NONE',  ( -2.649999999999999911, 0.0000000000000000000, -2.500000000000000000 ) ) ;
#147 =( NAMED_UNIT ( * ) SI_UNIT ( $, .STERADIAN. ) SOLID_ANGLE_UNIT ( ) );
#148 =( NAMED_UNIT ( * ) SI_UNIT ( $, .STERADIAN. ) SOLID_ANGLE_UNIT ( ) );
#149 = EDGE_CURVE ( 'NONE', #411, #122, #674, .T. ) ;
#150 =( NAMED_UNIT ( * ) PLANE_ANGLE_UNIT ( ) SI_UNIT ( $, .RADIAN. ) );
#151 =( NAMED_UNIT ( * ) PLANE_ANGLE_UNIT ( ) SI_UNIT ( $, .RADIAN. ) );
#152 = PRESENTATION_STYLE_ASSIGNMENT (( #831 ) ) ;
#153 = DIRECTION ( 'NONE',  ( -2.275402411281505148E-15, 0.0000000000000000000, -1.000000000000000000 ) ) ;
#154 = MECHANICAL_DESIGN_GEOMETRIC_PRESENTATION_REPRESENTATION (  '', ( #659 ), #616 ) ;
#155 = MECHANICAL_DESIGN_GEOMETRIC_PRESENTATION_REPRESENTATION (  '', ( #438 ), #342 ) ;
#156 =( LENGTH_UNIT ( ) NAMED_UNIT ( * ) SI_UNIT ( .MILLI., .METRE. ) );
#157 = SURFACE_STYLE_USAGE ( .BOTH. , #743 ) ;
#158 = LINE ( 'NONE', #745, #938 ) ;
#159 = EDGE_LOOP ( 'NONE', ( #620, #858, #853, #16 ) ) ;
#160 = EDGE_CURVE ( 'NONE', #638, #922, #678, .T. ) ;
#161 = FILL_AREA_STYLE ('',( #531 ) ) ;
#162 = CARTESIAN_POINT ( 'NONE',  ( -2.650000000000011013, 2.800000000000000266, -2.500000000000000444 ) ) ;
#163 = DIRECTION ( 'NONE',  ( -2.018084652485881533E-17, 1.000000000000000000, -5.551115123125783935E-17 ) ) ;
#164 = LINE ( 'NONE', #832, #100 ) ;
#165 = ORIENTED_EDGE ( 'NONE', *, *, #822, .F. ) ;
#166 = PRESENTATION_STYLE_ASSIGNMENT (( #896 ) ) ;
#167 = PLANE ( 'NONE',  #273 ) ;
#168 = LINE ( 'NONE', #585, #630 ) ;
#169 =( LENGTH_UNIT ( ) NAMED_UNIT ( * ) SI_UNIT ( .MILLI., .METRE. ) );
#170 = CARTESIAN_POINT ( 'NONE',  ( -2.649999999999999467, 0.0000000000000000000, 2.500000000000000000 ) ) ;
#171 = CARTESIAN_POINT ( 'NONE',  ( -2.700000000000000622, 3.696409144715363211E-16, 2.500000000000000000 ) ) ;
#172 = ORIENTED_EDGE ( 'NONE', *, *, #787, .T. ) ;
#173 = DIRECTION ( 'NONE',  ( 2.018084652485875986E-17, -1.000000000000000000, 5.551115123125782702E-17 ) ) ;
#174 = ORIENTED_EDGE ( 'NONE', *, *, #434, .T. ) ;
#175 = FACE_OUTER_BOUND ( 'NONE', #372, .T. ) ;
#176 = SURFACE_STYLE_FILL_AREA ( #541 ) ;
#177 = EDGE_LOOP ( 'NONE', ( #130, #546, #613, #570 ) ) ;
#178 = LINE ( 'NONE', #844, #321 ) ;
#179 = ORIENTED_EDGE ( 'NONE', *, *, #109, .F. ) ;
#180 = VECTOR ( 'NONE', #220, 1000.000000000000000 ) ;
#181 = CARTESIAN_POINT ( 'NONE',  ( 2.850000000000003197, 0.1499999999999998279, -2.350000000000000089 ) ) ;
#182 = LINE ( 'NONE', #851, #386 ) ;
#183 = SURFACE_SIDE_STYLE ('',( #698 ) ) ;
#184 = VERTEX_POINT ( 'NONE', #229 ) ;
#185 = DIRECTION ( 'NONE',  ( 2.313050733330870660E-16, 0.0000000000000000000, 1.000000000000000000 ) ) ;
#186 = FACE_OUTER_BOUND ( 'NONE', #159, .T. ) ;
#187 = STYLED_ITEM ( 'NONE', ( #72 ), #580 ) ;
#188 = LINE ( 'NONE', #132, #339 ) ;
#189 = UNCERTAINTY_MEASURE_WITH_UNIT (LENGTH_MEASURE( 1.000000000000000082E-05 ), #133, 'distance_accuracy_value', 'NONE');
#190 = PRESENTATION_LAYER_ASSIGNMENT (  '', '', ( #379 ) ) ;
#191 = ORIENTED_EDGE ( 'NONE', *, *, #509, .T. ) ;
#192 =( BOUNDED_CURVE ( )  B_SPLINE_CURVE ( 3, ( #454, #245, #852, #619 ),
 .UNSPECIFIED., .F., .F. ) 
 B_SPLINE_CURVE_WITH_KNOTS ( ( 4, 4 ),
 ( 1.570796326794896114, 3.141592653589794892 ),
 .UNSPECIFIED. ) 
 CURVE ( )  GEOMETRIC_REPRESENTATION_ITEM ( )  RATIONAL_B_SPLINE_CURVE ( ( 1.000000000000000000, 0.8047378541243644934, 0.8047378541243644934, 1.000000000000000000 ) ) 
 REPRESENTATION_ITEM ( '' )  );
#193 = LINE ( 'NONE', #507, #538 ) ;
#194 = DIRECTION ( 'NONE',  ( 0.0000000000000000000, 0.0000000000000000000, 1.000000000000000000 ) ) ;
#195 = SURFACE_STYLE_USAGE ( .BOTH. , #141 ) ;
#196 = FACE_OUTER_BOUND ( 'NONE', #506, .T. ) ;
#197 = DIRECTION ( 'NONE',  ( 1.965969179678056521E-16, 1.000000000000000000, -4.473371011944573551E-31 ) ) ;
#198 = ORIENTED_EDGE ( 'NONE', *, *, #481, .T. ) ;
#199 = CARTESIAN_POINT ( 'NONE',  ( -2.649999999999999911, 2.799999999999999822, -2.500000000000000000 ) ) ;
#200 = FILL_AREA_STYLE_COLOUR ( '', #604 ) ;
#201 = SURFACE_SIDE_STYLE ('',( #408 ) ) ;
#202 = VECTOR ( 'NONE', #153, 1000.000000000000000 ) ;
#203 = DIRECTION ( 'NONE',  ( 1.000000000000000000, 2.018084652485879992E-17, 1.937099271637921358E-15 ) ) ;
#204 = CARTESIAN_POINT ( 'NONE',  ( 2.850000000000003197, 2.737867965644035895, -2.437867965644035628 ) ) ;
#205 = APPLICATION_PROTOCOL_DEFINITION ( 'draft international standard', 'automotive_design', 1998, #943 ) ;
#206 = EDGE_CURVE ( 'NONE', #733, #703, #301, .T. ) ;
#207 = DIRECTION ( 'NONE',  ( -1.000000000000000000, -2.018084652485880300E-17, -1.937099271637921358E-15 ) ) ;
#208 = DIRECTION ( 'NONE',  ( 8.673617379884035472E-17, 0.0000000000000000000, 1.000000000000000000 ) ) ;
#209 = SURFACE_STYLE_FILL_AREA ( #449 ) ;
#210 = DIRECTION ( 'NONE',  ( 0.0000000000000000000, 1.000000000000000000, 0.0000000000000000000 ) ) ;
#211 = DIRECTION ( 'NONE',  ( 1.000000000000000000, 0.0000000000000000000, 0.0000000000000000000 ) ) ;
#212 = PRODUCT_DEFINITION_SHAPE ( 'NONE', 'NONE',  #396 ) ;
#213 = DIRECTION ( 'NONE',  ( 0.0000000000000000000, 0.0000000000000000000, 1.000000000000000000 ) ) ;
#214 = FILL_AREA_STYLE_COLOUR ( '', #28 ) ;
#215 = AXIS2_PLACEMENT_3D ( 'NONE', #528, #347, #908 ) ;
#216 = COLOUR_RGB ( '',0.6666666666666666297, 0.6666666666666666297, 0.6666666666666666297 ) ;
#217 = AXIS2_PLACEMENT_3D ( 'NONE', #492, #406, #496 ) ;
#218 = ADVANCED_FACE ( 'NONE', ( #540 ), #457, .T. ) ;
#219 = MECHANICAL_DESIGN_GEOMETRIC_PRESENTATION_REPRESENTATION (  '', ( #807 ), #235 ) ;
#220 = DIRECTION ( 'NONE',  ( -2.018084652485875986E-17, 1.000000000000000000, -5.551115123125782702E-17 ) ) ;
#221 = PRESENTATION_STYLE_ASSIGNMENT (( #93 ) ) ;
#222 = CARTESIAN_POINT ( 'NONE',  ( 2.850000000000003197, 2.799999999999999822, -2.350000000000000089 ) ) ;
#223 = CARTESIAN_POINT ( 'NONE',  ( -2.750000000000005773, 3.794707603699265519E-16, -1.084202172485504434E-16 ) ) ;
#224 = DIRECTION ( 'NONE',  ( 2.018084652485875986E-17, -1.000000000000000000, 5.551115123125782702E-17 ) ) ;
#225 =( GEOMETRIC_REPRESENTATION_CONTEXT ( 3 ) GLOBAL_UNCERTAINTY_ASSIGNED_CONTEXT ( ( #765 ) ) GLOBAL_UNIT_ASSIGNED_CONTEXT ( ( #311, #43, #255 ) ) REPRESENTATION_CONTEXT ( 'NONE', 'WORKASPACE' ) );
#226 =( NAMED_UNIT ( * ) PLANE_ANGLE_UNIT ( ) SI_UNIT ( $, .RADIAN. ) );
#227 = EDGE_CURVE ( 'NONE', #102, #638, #188, .T. ) ;
#228 = PRESENTATION_LAYER_ASSIGNMENT (  '', '', ( #655 ) ) ;
#229 = CARTESIAN_POINT ( 'NONE',  ( -2.850000000000011191, 0.1500000000000003553, -2.349999999999999645 ) ) ;
#230 = SURFACE_STYLE_USAGE ( .BOTH. , #432 ) ;
#231 = UNCERTAINTY_MEASURE_WITH_UNIT (LENGTH_MEASURE( 1.000000000000000082E-05 ), #113, 'distance_accuracy_value', 'NONE');
#232 = ORIENTED_EDGE ( 'NONE', *, *, #374, .F. ) ;
#233 = DIRECTION ( 'NONE',  ( -0.0000000000000000000, -1.000000000000000000, -0.0000000000000000000 ) ) ;
#234 = CARTESIAN_POINT ( 'NONE',  ( 2.700000000000003286, 2.649999999999999911, -2.499999999999999556 ) ) ;
#235 =( GEOMETRIC_REPRESENTATION_CONTEXT ( 3 ) GLOBAL_UNCERTAINTY_ASSIGNED_CONTEXT ( ( #73 ) ) GLOBAL_UNIT_ASSIGNED_CONTEXT ( ( #156, #151, #823 ) ) REPRESENTATION_CONTEXT ( 'NONE', 'WORKASPACE' ) );
#236 = DIRECTION ( 'NONE',  ( 1.000000000000000000, -1.965969179678056521E-16, -1.069980663104970686E-16 ) ) ;
#237 = CARTESIAN_POINT ( 'NONE',  ( 2.850000000000003197, 2.799999999999999822, -2.499999999999999556 ) ) ;
#238 = ORIENTED_EDGE ( 'NONE', *, *, #691, .T. ) ;
#239 = LINE ( 'NONE', #551, #838 ) ;
#240 = SURFACE_STYLE_FILL_AREA ( #391 ) ;
#241 = EDGE_LOOP ( 'NONE', ( #543, #525, #172, #572 ) ) ;
#242 = ADVANCED_FACE ( 'NONE', ( #801 ), #398, .T. ) ;
#243 = DIRECTION ( 'NONE',  ( 2.313050733330870660E-16, -0.0000000000000000000, 1.000000000000000000 ) ) ;
#244 = AXIS2_PLACEMENT_3D ( 'NONE', #764, #26, #769 ) ;
#245 = CARTESIAN_POINT ( 'NONE',  ( -2.850000000000010747, 2.737867965644035895, -2.437867965644036072 ) ) ;
#246 = ORIENTED_EDGE ( 'NONE', *, *, #774, .F. ) ;
#247 =( NAMED_UNIT ( * ) PLANE_ANGLE_UNIT ( ) SI_UNIT ( $, .RADIAN. ) );
#248 = EDGE_CURVE ( 'NONE', #253, #77, #591, .T. ) ;
#249 = LINE ( 'NONE', #371, #880 ) ;
#250 = COLOUR_RGB ( '',0.6666666666666666297, 0.6666666666666666297, 0.6666666666666666297 ) ;
#251 = VECTOR ( 'NONE', #329, 1000.000000000000000 ) ;
#252 = MECHANICAL_DESIGN_GEOMETRIC_PRESENTATION_REPRESENTATION (  '', ( #467 ), #36 ) ;
#253 = VERTEX_POINT ( 'NONE', #895 ) ;
#254 = CARTESIAN_POINT ( 'NONE',  ( -2.649999999999999467, 0.0000000000000000000, 2.500000000000000000 ) ) ;
#255 =( NAMED_UNIT ( * ) SI_UNIT ( $, .STERADIAN. ) SOLID_ANGLE_UNIT ( ) );
#256 = LINE ( 'NONE', #127, #881 ) ;
#257 = SURFACE_SIDE_STYLE ('',( #864 ) ) ;
#258 =( LENGTH_UNIT ( ) NAMED_UNIT ( * ) SI_UNIT ( .MILLI., .METRE. ) );
#259 = EDGE_LOOP ( 'NONE', ( #848, #686, #174, #142 ) ) ;
#260 = PLANE ( 'NONE',  #820 ) ;
#261 = VERTEX_POINT ( 'NONE', #964 ) ;
#262 = CARTESIAN_POINT ( 'NONE',  ( -2.700000000000000178, 2.800000000000000266, 2.350000000000000089 ) ) ;
#263 = VECTOR ( 'NONE', #381, 1000.000000000000000 ) ;
#264 = ORIENTED_EDGE ( 'NONE', *, *, #10, .T. ) ;
#265 =( LENGTH_UNIT ( ) NAMED_UNIT ( * ) SI_UNIT ( .MILLI., .METRE. ) );
#266 = VERTEX_POINT ( 'NONE', #882 ) ;
#267 = ADVANCED_FACE ( 'NONE', ( #586 ), #423, .T. ) ;
#268 = ORIENTED_EDGE ( 'NONE', *, *, #666, .F. ) ;
#269 =( LENGTH_UNIT ( ) NAMED_UNIT ( * ) SI_UNIT ( .MILLI., .METRE. ) );
#270 = EDGE_LOOP ( 'NONE', ( #410, #805, #117, #437 ) ) ;
#271 = CARTESIAN_POINT ( 'NONE',  ( 2.650000000000004352, 2.799999999999999822, 2.500000000000000000 ) ) ;
#272 = DIRECTION ( 'NONE',  ( -1.965969179678056521E-16, -1.000000000000000000, 4.473371011944573551E-31 ) ) ;
#273 = AXIS2_PLACEMENT_3D ( 'NONE', #836, #163, #756 ) ;
#274 = VECTOR ( 'NONE', #793, 1000.000000000000000 ) ;
#275 = SURFACE_STYLE_FILL_AREA ( #161 ) ;
#276 = FILL_AREA_STYLE ('',( #125 ) ) ;
#277 = CARTESIAN_POINT ( 'NONE',  ( -2.649999999999999911, 0.0000000000000000000, -2.500000000000000000 ) ) ;
#278 = VECTOR ( 'NONE', #605, 1000.000000000000000 ) ;
#279 = ORIENTED_EDGE ( 'NONE', *, *, #774, .T. ) ;
#280 = VECTOR ( 'NONE', #483, 1000.000000000000000 ) ;
#281 = FILL_AREA_STYLE_COLOUR ( '', #88 ) ;
#282 =( NAMED_UNIT ( * ) SI_UNIT ( $, .STERADIAN. ) SOLID_ANGLE_UNIT ( ) );
#283 =( NAMED_UNIT ( * ) SI_UNIT ( $, .STERADIAN. ) SOLID_ANGLE_UNIT ( ) );
#284 = SURFACE_STYLE_FILL_AREA ( #907 ) ;
#285 = CARTESIAN_POINT ( 'NONE',  ( -2.649999999999999911, 2.799999999999999822, -2.500000000000000000 ) ) ;
#286 = EDGE_CURVE ( 'NONE', #77, #649, #3, .T. ) ;
#287 = CARTESIAN_POINT ( 'NONE',  ( -2.700000000000000178, 0.1500000000000003275, 2.499999999999999556 ) ) ;
#288 = PRODUCT_DEFINITION_FORMATION_WITH_SPECIFIED_SOURCE ( 'ANY', '', #648, .NOT_KNOWN. ) ;
#289 = SURFACE_STYLE_USAGE ( .BOTH. , #297 ) ;
#290 = SURFACE_SIDE_STYLE ('',( #510 ) ) ;
#291 = FACE_OUTER_BOUND ( 'NONE', #270, .T. ) ;
#292 = COLOUR_RGB ( '',0.6666666666666666297, 0.6666666666666666297, 0.6666666666666666297 ) ;
#293 = CARTESIAN_POINT ( 'NONE',  ( 2.850000000000004530, 2.649999999999999911, 2.350000000000000533 ) ) ;
#294 = EDGE_LOOP ( 'NONE', ( #23, #471, #69, #762 ) ) ;
#295 = CARTESIAN_POINT ( 'NONE',  ( -2.700000000000011724, 3.696409144715362718E-16, -2.500000000000000000 ) ) ;
#296 = SURFACE_SIDE_STYLE ('',( #209 ) ) ;
#297 = SURFACE_SIDE_STYLE ('',( #284 ) ) ;
#298 = PRESENTATION_LAYER_ASSIGNMENT (  '', '', ( #187 ) ) ;
#299 = ORIENTED_EDGE ( 'NONE', *, *, #149, .T. ) ;
#300 = SURFACE_SIDE_STYLE ('',( #845 ) ) ;
#301 = LINE ( 'NONE', #535, #403 ) ;
#302 = FILL_AREA_STYLE_COLOUR ( '', #316 ) ;
#303 = ORIENTED_EDGE ( 'NONE', *, *, #747, .F. ) ;
#304 = PRESENTATION_LAYER_ASSIGNMENT (  '', '', ( #594 ) ) ;
#305 = PRESENTATION_LAYER_ASSIGNMENT (  '', '', ( #612 ) ) ;
#306 = STYLED_ITEM ( 'NONE', ( #734 ), #534 ) ;
#307 = MECHANICAL_DESIGN_GEOMETRIC_PRESENTATION_REPRESENTATION (  '', ( #628 ), #615 ) ;
#308 = FILL_AREA_STYLE ('',( #33 ) ) ;
#309 = LINE ( 'NONE', #927, #500 ) ;
#310 = LINE ( 'NONE', #392, #705 ) ;
#311 =( LENGTH_UNIT ( ) NAMED_UNIT ( * ) SI_UNIT ( .MILLI., .METRE. ) );
#312 = EDGE_CURVE ( 'NONE', #455, #37, #653, .T. ) ;
#313 = ORIENTED_EDGE ( 'NONE', *, *, #900, .T. ) ;
#314 = CARTESIAN_POINT ( 'NONE',  ( -2.787867965644036161, 5.635909156269695748E-16, 2.499999999999999112 ) ) ;
#315 =( NAMED_UNIT ( * ) SI_UNIT ( $, .STERADIAN. ) SOLID_ANGLE_UNIT ( ) );
#316 = COLOUR_RGB ( '',0.6666666666666666297, 0.6666666666666666297, 0.6666666666666666297 ) ;
#317 = CARTESIAN_POINT ( 'NONE',  ( 2.850000000000003197, 2.649999999999999911, -2.350000000000000089 ) ) ;
#318 = ORIENTED_EDGE ( 'NONE', *, *, #495, .T. ) ;
#319 = FILL_AREA_STYLE ('',( #45 ) ) ;
#320 = CYLINDRICAL_SURFACE ( 'NONE', #453, 0.1499999999999999667 ) ;
#321 = VECTOR ( 'NONE', #38, 1000.000000000000000 ) ;
#322 = DIRECTION ( 'NONE',  ( -1.937099271637921358E-15, -4.376023528969689853E-32, 1.000000000000000000 ) ) ;
#323 = UNCERTAINTY_MEASURE_WITH_UNIT (LENGTH_MEASURE( 1.000000000000000082E-05 ), #925, 'distance_accuracy_value', 'NONE');
#324 = ORIENTED_EDGE ( 'NONE', *, *, #448, .T. ) ;
#325 = DIRECTION ( 'NONE',  ( -0.0000000000000000000, -1.000000000000000000, -0.0000000000000000000 ) ) ;
#326 = CARTESIAN_POINT ( 'NONE',  ( 2.700000000000004174, 2.799999999999999822, 2.500000000000000000 ) ) ;
#327 = DIRECTION ( 'NONE',  ( 1.000000000000000000, 0.0000000000000000000, -2.891205793294679017E-15 ) ) ;
#328 = FILL_AREA_STYLE ('',( #567 ) ) ;
#329 = DIRECTION ( 'NONE',  ( -1.000000000000000000, 1.965969179678056521E-16, 1.069980663104970686E-16 ) ) ;
#330 = VECTOR ( 'NONE', #399, 1000.000000000000000 ) ;
#331 = FACE_OUTER_BOUND ( 'NONE', #294, .T. ) ;
#332 = MECHANICAL_DESIGN_GEOMETRIC_PRESENTATION_REPRESENTATION (  '', ( #893 ), #225 ) ;
#333 = EDGE_LOOP ( 'NONE', ( #527, #798, #318, #815 ) ) ;
#334 = CARTESIAN_POINT ( 'NONE',  ( -2.849999999999999645, 2.800000000000000266, 2.500000000000000000 ) ) ;
#335 =( GEOMETRIC_REPRESENTATION_CONTEXT ( 3 ) GLOBAL_UNCERTAINTY_ASSIGNED_CONTEXT ( ( #941 ) ) GLOBAL_UNIT_ASSIGNED_CONTEXT ( ( #923, #247, #112 ) ) REPRESENTATION_CONTEXT ( 'NONE', 'WORKASPACE' ) );
#336 = VECTOR ( 'NONE', #582, 1000.000000000000000 ) ;
#337 = AXIS2_PLACEMENT_3D ( 'NONE', #287, #967, #667 ) ;
#338 = EDGE_CURVE ( 'NONE', #781, #108, #508, .T. ) ;
#339 = VECTOR ( 'NONE', #412, 1000.000000000000000 ) ;
#340 = AXIS2_PLACEMENT_3D ( 'NONE', #750, #452, #11 ) ;
#341 = LINE ( 'NONE', #804, #596 ) ;
#342 =( GEOMETRIC_REPRESENTATION_CONTEXT ( 3 ) GLOBAL_UNCERTAINTY_ASSIGNED_CONTEXT ( ( #873 ) ) GLOBAL_UNIT_ASSIGNED_CONTEXT ( ( #65, #796, #874 ) ) REPRESENTATION_CONTEXT ( 'NONE', 'WORKASPACE' ) );
#343 = DIRECTION ( 'NONE',  ( 1.000000000000000000, 0.0000000000000000000, -0.0000000000000000000 ) ) ;
#344 = DIRECTION ( 'NONE',  ( 1.937099271637921358E-15, 4.376023528969689853E-32, -1.000000000000000000 ) ) ;
#345 = EDGE_CURVE ( 'NONE', #37, #261, #735, .T. ) ;
#346 =( BOUNDED_CURVE ( )  B_SPLINE_CURVE ( 3, ( #707, #58, #863, #326 ),
 .UNSPECIFIED., .F., .T. ) 
 B_SPLINE_CURVE_WITH_KNOTS ( ( 4, 4 ),
 ( 1.570796326794896780, 3.141592653589796225 ),
 .UNSPECIFIED. ) 
 CURVE ( )  GEOMETRIC_REPRESENTATION_ITEM ( )  RATIONAL_B_SPLINE_CURVE ( ( 1.000000000000000000, 0.8047378541243643824, 0.8047378541243643824, 1.000000000000000000 ) ) 
 REPRESENTATION_ITEM ( '' )  );
#347 = DIRECTION ( 'NONE',  ( 2.018084652485875986E-17, -1.000000000000000000, 5.551115123125782702E-17 ) ) ;
#348 = SURFACE_STYLE_FILL_AREA ( #502 ) ;
#349 = PLANE ( 'NONE',  #385 ) ;
#350 = PRESENTATION_STYLE_ASSIGNMENT (( #948 ) ) ;
#351 = ORIENTED_EDGE ( 'NONE', *, *, #822, .T. ) ;
#352 =( NAMED_UNIT ( * ) SI_UNIT ( $, .STERADIAN. ) SOLID_ANGLE_UNIT ( ) );
#353 = COLOUR_RGB ( '',0.6666666666666666297, 0.6666666666666666297, 0.6666666666666666297 ) ;
#354 = DIRECTION ( 'NONE',  ( 1.000000000000000000, -1.965969179678056521E-16, -2.275402411281505148E-15 ) ) ;
#355 = SURFACE_STYLE_FILL_AREA ( #912 ) ;
#356 = COLOUR_RGB ( '',0.7529411764705882248, 0.7529411764705882248, 0.7529411764705882248 ) ;
#357 = CARTESIAN_POINT ( 'NONE',  ( -2.850000000000010747, 2.800000000000000266, -2.500000000000000000 ) ) ;
#358 = CYLINDRICAL_SURFACE ( 'NONE', #788, 0.1499999999999999667 ) ;
#359 =( NAMED_UNIT ( * ) SI_UNIT ( $, .STERADIAN. ) SOLID_ANGLE_UNIT ( ) );
#360 = LINE ( 'NONE', #19, #115 ) ;
#361 = PRESENTATION_STYLE_ASSIGNMENT (( #91 ) ) ;
#362 = FILL_AREA_STYLE ('',( #660 ) ) ;
#363 = DIRECTION ( 'NONE',  ( 0.0000000000000000000, -0.0000000000000000000, 1.000000000000000000 ) ) ;
#364 = VECTOR ( 'NONE', #890, 1000.000000000000000 ) ;
#365 = ORIENTED_EDGE ( 'NONE', *, *, #248, .T. ) ;
#366 =( GEOMETRIC_REPRESENTATION_CONTEXT ( 3 ) GLOBAL_UNCERTAINTY_ASSIGNED_CONTEXT ( ( #382 ) ) GLOBAL_UNIT_ASSIGNED_CONTEXT ( ( #258, #708, #955 ) ) REPRESENTATION_CONTEXT ( 'NONE', 'WORKASPACE' ) );
#367 = PRESENTATION_LAYER_ASSIGNMENT (  '', '', ( #932 ) ) ;
#368 = CARTESIAN_POINT ( 'NONE',  ( 2.700000000000003730, -1.572550347587538830E-16, -2.500000000000000000 ) ) ;
#369 = CARTESIAN_POINT ( 'NONE',  ( -2.850000000000000089, 3.991304521667071122E-16, 2.500000000000000000 ) ) ;
#370 = PRESENTATION_LAYER_ASSIGNMENT (  '', '', ( #306 ) ) ;
#371 = CARTESIAN_POINT ( 'NONE',  ( 2.850000000000004530, 2.799999999999999822, 2.500000000000000444 ) ) ;
#372 = EDGE_LOOP ( 'NONE', ( #727, #299, #44, #512 ) ) ;
#373 = PLANE ( 'NONE',  #854 ) ;
#374 = EDGE_CURVE ( 'NONE', #416, #455, #7, .T. ) ;
#375 = DIRECTION ( 'NONE',  ( -1.965969179678056521E-16, -1.000000000000000000, 4.473371011944573551E-31 ) ) ;
#376 = PRESENTATION_STYLE_ASSIGNMENT (( #105 ) ) ;
#377 = ORIENTED_EDGE ( 'NONE', *, *, #783, .T. ) ;
#378 = AXIS2_PLACEMENT_3D ( 'NONE', #785, #637, #944 ) ;
#379 = STYLED_ITEM ( 'NONE', ( #376 ), #958 ) ;
#380 = MECHANICAL_DESIGN_GEOMETRIC_PRESENTATION_REPRESENTATION (  '', ( #608 ), #366 ) ;
#381 = DIRECTION ( 'NONE',  ( -1.000000000000000000, -2.018084652485879992E-17, -1.937099271637921358E-15 ) ) ;
#382 = UNCERTAINTY_MEASURE_WITH_UNIT (LENGTH_MEASURE( 1.000000000000000082E-05 ), #258, 'distance_accuracy_value', 'NONE');
#383 = ORIENTED_EDGE ( 'NONE', *, *, #469, .T. ) ;
#384 = LINE ( 'NONE', #687, #719 ) ;
#385 = AXIS2_PLACEMENT_3D ( 'NONE', #755, #354, #431 ) ;
#386 = VECTOR ( 'NONE', #120, 1000.000000000000000 ) ;
#387 =( NAMED_UNIT ( * ) SI_UNIT ( $, .STERADIAN. ) SOLID_ANGLE_UNIT ( ) );
#388 = ADVANCED_FACE ( 'NONE', ( #741 ), #358, .T. ) ;
#389 = DIRECTION ( 'NONE',  ( -2.313050733330870660E-16, -0.0000000000000000000, -1.000000000000000000 ) ) ;
#390 = VERTEX_POINT ( 'NONE', #295 ) ;
#391 = FILL_AREA_STYLE ('',( #622 ) ) ;
#392 = CARTESIAN_POINT ( 'NONE',  ( -2.700000000000000178, 2.800000000000000266, 2.500000000000000000 ) ) ;
#393 = LINE ( 'NONE', #237, #330 ) ;
#394 = APPLICATION_CONTEXT ( 'automotive_design' ) ;
#395 = ORIENTED_EDGE ( 'NONE', *, *, #429, .F. ) ;
#396 = PRODUCT_DEFINITION ( 'UNKNOWN', '', #288, #693 ) ;
#397 = LINE ( 'NONE', #254, #86 ) ;
#398 = CYLINDRICAL_SURFACE ( 'NONE', #405, 0.1499999999999999667 ) ;
#399 = DIRECTION ( 'NONE',  ( -1.000000000000000000, -2.018084652485879992E-17, -1.937099271637921358E-15 ) ) ;
#400 = PLANE ( 'NONE',  #966 ) ;
#401 = ADVANCED_FACE ( 'NONE', ( #20 ), #29, .T. ) ;
#402 = CARTESIAN_POINT ( 'NONE',  ( 2.850000000000002753, 0.06213203435596434399, -2.437867965644035628 ) ) ;
#403 = VECTOR ( 'NONE', #835, 1000.000000000000000 ) ;
#404 = COLOUR_RGB ( '',0.6666666666666666297, 0.6666666666666666297, 0.6666666666666666297 ) ;
#405 = AXIS2_PLACEMENT_3D ( 'NONE', #417, #631, #940 ) ;
#406 = DIRECTION ( 'NONE',  ( -2.018084652485881533E-17, 1.000000000000000000, -5.551115123125783935E-17 ) ) ;
#407 = APPLICATION_PROTOCOL_DEFINITION ( 'draft international standard', 'automotive_design', 1998, #394 ) ;
#408 = SURFACE_STYLE_FILL_AREA ( #328 ) ;
#409 = LINE ( 'NONE', #575, #951 ) ;
#410 = ORIENTED_EDGE ( 'NONE', *, *, #79, .F. ) ;
#411 = VERTEX_POINT ( 'NONE', #468 ) ;
#412 = DIRECTION ( 'NONE',  ( 2.313050733330870660E-16, 0.0000000000000000000, 1.000000000000000000 ) ) ;
#413 = UNCERTAINTY_MEASURE_WITH_UNIT (LENGTH_MEASURE( 1.000000000000000082E-05 ), #902, 'distance_accuracy_value', 'NONE');
#414 = COLOUR_RGB ( '',0.6666666666666666297, 0.6666666666666666297, 0.6666666666666666297 ) ;
#415 = SURFACE_STYLE_FILL_AREA ( #135 ) ;
#416 = VERTEX_POINT ( 'NONE', #841 ) ;
#417 = CARTESIAN_POINT ( 'NONE',  ( 2.700000000000003286, 0.1499999999999998002, -2.499999999999999556 ) ) ;
#418 = SURFACE_SIDE_STYLE ('',( #348 ) ) ;
#419 = ADVANCED_FACE ( 'NONE', ( #175 ), #763, .T. ) ;
#420 = PRESENTATION_STYLE_ASSIGNMENT (( #792 ) ) ;
#421 =( NAMED_UNIT ( * ) PLANE_ANGLE_UNIT ( ) SI_UNIT ( $, .RADIAN. ) );
#422 = ORIENTED_EDGE ( 'NONE', *, *, #555, .T. ) ;
#423 = CYLINDRICAL_SURFACE ( 'NONE', #215, 0.1499999999999999667 ) ;
#424 = EDGE_LOOP ( 'NONE', ( #324, #56, #106, #639 ) ) ;
#425 = LINE ( 'NONE', #60, #274 ) ;
#426 = ORIENTED_EDGE ( 'NONE', *, *, #542, .F. ) ;
#427 = FILL_AREA_STYLE ('',( #281 ) ) ;
#428 = SHELL_BASED_SURFACE_MODEL ( 'NONE', ( #773, #68, #35 ) );
#429 = EDGE_CURVE ( 'NONE', #57, #922, #309, .T. ) ;
#430 = PRESENTATION_STYLE_ASSIGNMENT (( #818 ) ) ;
#431 = DIRECTION ( 'NONE',  ( -2.275402411281505148E-15, 0.0000000000000000000, -1.000000000000000000 ) ) ;
#432 = SURFACE_SIDE_STYLE ('',( #101 ) ) ;
#433 = DIRECTION ( 'NONE',  ( -1.000000000000000000, -0.0000000000000000000, -0.0000000000000000000 ) ) ;
#434 = EDGE_CURVE ( 'NONE', #184, #390, #444, .T. ) ;
#435 = PRESENTATION_LAYER_ASSIGNMENT (  '', '', ( #486 ) ) ;
#436 = SURFACE_STYLE_FILL_AREA ( #362 ) ;
#437 = ORIENTED_EDGE ( 'NONE', *, *, #227, .F. ) ;
#438 = STYLED_ITEM ( 'NONE', ( #561 ), #6 ) ;
#439 =( NAMED_UNIT ( * ) SI_UNIT ( $, .STERADIAN. ) SOLID_ANGLE_UNIT ( ) );
#440 = SURFACE_STYLE_FILL_AREA ( #521 ) ;
#441 = PRODUCT_RELATED_PRODUCT_CATEGORY ( 'part', '', ( #648 ) ) ;
#442 =( NAMED_UNIT ( * ) PLANE_ANGLE_UNIT ( ) SI_UNIT ( $, .RADIAN. ) );
#443 =( NAMED_UNIT ( * ) SI_UNIT ( $, .STERADIAN. ) SOLID_ANGLE_UNIT ( ) );
#444 =( BOUNDED_CURVE ( )  B_SPLINE_CURVE ( 3, ( #830, #447, #754, #99 ),
 .UNSPECIFIED., .F., .F. ) 
 B_SPLINE_CURVE_WITH_KNOTS ( ( 4, 4 ),
 ( 1.570796326794894782, 3.141592653589792672 ),
 .UNSPECIFIED. ) 
 CURVE ( )  GEOMETRIC_REPRESENTATION_ITEM ( )  RATIONAL_B_SPLINE_CURVE ( ( 1.000000000000000000, 0.8047378541243646044, 0.8047378541243646044, 1.000000000000000000 ) ) 
 REPRESENTATION_ITEM ( '' )  );
#445 = CYLINDRICAL_SURFACE ( 'NONE', #337, 0.1499999999999999667 ) ;
#446 = EDGE_LOOP ( 'NONE', ( #62, #956, #313, #111 ) ) ;
#447 = CARTESIAN_POINT ( 'NONE',  ( -2.850000000000011635, 0.06213203435596481583, -2.437867965644036516 ) ) ;
#448 = EDGE_CURVE ( 'NONE', #134, #40, #249, .T. ) ;
#449 = FILL_AREA_STYLE ('',( #670 ) ) ;
#450 =( BOUNDED_CURVE ( )  B_SPLINE_CURVE ( 3, ( #695, #472, #314, #41 ),
 .UNSPECIFIED., .F., .F. ) 
 B_SPLINE_CURVE_WITH_KNOTS ( ( 4, 4 ),
 ( 1.570796326794896780, 3.141592653589791340 ),
 .UNSPECIFIED. ) 
 CURVE ( )  GEOMETRIC_REPRESENTATION_ITEM ( )  RATIONAL_B_SPLINE_CURVE ( ( 1.000000000000000000, 0.8047378541243654926, 0.8047378541243654926, 1.000000000000000000 ) ) 
 REPRESENTATION_ITEM ( '' )  );
#451 = MECHANICAL_DESIGN_GEOMETRIC_PRESENTATION_REPRESENTATION (  '', ( #140 ), #684 ) ;
#452 = DIRECTION ( 'NONE',  ( 0.0000000000000000000, 1.000000000000000000, 0.0000000000000000000 ) ) ;
#453 = AXIS2_PLACEMENT_3D ( 'NONE', #119, #712, #513 ) ;
#454 = CARTESIAN_POINT ( 'NONE',  ( -2.850000000000010747, 2.650000000000000355, -2.350000000000000089 ) ) ;
#455 = VERTEX_POINT ( 'NONE', #939 ) ;
#456 = DIRECTION ( 'NONE',  ( -2.275402411281505148E-15, 0.0000000000000000000, -1.000000000000000000 ) ) ;
#457 = PLANE ( 'NONE',  #217 ) ;
#458 = SURFACE_SIDE_STYLE ('',( #176 ) ) ;
#459 = ORIENTED_EDGE ( 'NONE', *, *, #740, .T. ) ;
#460 = CARTESIAN_POINT ( 'NONE',  ( 2.650000000000001243, 0.0000000000000000000, -2.500000000000000000 ) ) ;
#461 = EDGE_CURVE ( 'NONE', #715, #266, #812, .T. ) ;
#462 = SURFACE_STYLE_USAGE ( .BOTH. , #758 ) ;
#463 = CARTESIAN_POINT ( 'NONE',  ( 2.700000000000003286, 2.799999999999999822, -2.499999999999999556 ) ) ;
#464 = UNCERTAINTY_MEASURE_WITH_UNIT (LENGTH_MEASURE( 1.000000000000000082E-05 ), #905, 'distance_accuracy_value', 'NONE');
#465 = LINE ( 'NONE', #624, #280 ) ;
#466 =( GEOMETRIC_REPRESENTATION_CONTEXT ( 3 ) GLOBAL_UNCERTAINTY_ASSIGNED_CONTEXT ( ( #139 ) ) GLOBAL_UNIT_ASSIGNED_CONTEXT ( ( #169, #673, #315 ) ) REPRESENTATION_CONTEXT ( 'NONE', 'WORKASPACE' ) );
#467 = STYLED_ITEM ( 'NONE', ( #137 ), #242 ) ;
#468 = CARTESIAN_POINT ( 'NONE',  ( -2.700000000000010836, 2.800000000000000266, -2.500000000000000000 ) ) ;
#469 = EDGE_CURVE ( 'NONE', #108, #733, #397, .T. ) ;
#470 = DIRECTION ( 'NONE',  ( 1.000000000000000000, 2.018084652485880300E-17, 1.937099271637921358E-15 ) ) ;
#471 = ORIENTED_EDGE ( 'NONE', *, *, #248, .F. ) ;
#472 = CARTESIAN_POINT ( 'NONE',  ( -2.850000000000000089, 0.06213203435596476032, 2.437867965644036516 ) ) ;
#473 = CARTESIAN_POINT ( 'NONE',  ( 2.700000000000003730, -1.572550347587538830E-16, -2.500000000000000000 ) ) ;
#474 = CARTESIAN_POINT ( 'NONE',  ( -2.700000000000000178, 2.800000000000000266, 2.500000000000000000 ) ) ;
#475 = LINE ( 'NONE', #632, #625 ) ;
#476 = ORIENTED_EDGE ( 'NONE', *, *, #589, .T. ) ;
#477 = AXIS2_PLACEMENT_3D ( 'NONE', #736, #213, #515 ) ;
#478 = SURFACE_SIDE_STYLE ('',( #78 ) ) ;
#479 =( NAMED_UNIT ( * ) SI_UNIT ( $, .STERADIAN. ) SOLID_ANGLE_UNIT ( ) );
#480 =( GEOMETRIC_REPRESENTATION_CONTEXT ( 3 ) GLOBAL_UNCERTAINTY_ASSIGNED_CONTEXT ( ( #557 ) ) GLOBAL_UNIT_ASSIGNED_CONTEXT ( ( #588, #601, #359 ) ) REPRESENTATION_CONTEXT ( 'NONE', 'WORKASPACE' ) );
#481 = EDGE_CURVE ( 'NONE', #703, #781, #409, .T. ) ;
#482 = ORIENTED_EDGE ( 'NONE', *, *, #42, .T. ) ;
#483 = DIRECTION ( 'NONE',  ( -1.965969179678056521E-16, -1.000000000000000000, 4.473371011944573551E-31 ) ) ;
#484 = VECTOR ( 'NONE', #272, 1000.000000000000000 ) ;
#485 = DIRECTION ( 'NONE',  ( 1.000000000000000000, 0.0000000000000000000, 0.0000000000000000000 ) ) ;
#486 = STYLED_ITEM ( 'NONE', ( #696 ), #401 ) ;
#487 = MECHANICAL_DESIGN_GEOMETRIC_PRESENTATION_REPRESENTATION (  '', ( #789 ), #646 ) ;
#488 = STYLED_ITEM ( 'NONE', ( #627 ), #706 ) ;
#489 = UNCERTAINTY_MEASURE_WITH_UNIT (LENGTH_MEASURE( 1.000000000000000082E-05 ), #954, 'distance_accuracy_value', 'NONE');
#490 = FILL_AREA_STYLE ('',( #654 ) ) ;
#491 = CARTESIAN_POINT ( 'NONE',  ( 2.700000000000004619, -1.572550347587538830E-16, 2.500000000000000000 ) ) ;
#492 = CARTESIAN_POINT ( 'NONE',  ( 2.750000000000003553, 2.799999999999999822, -1.554312234475219058E-16 ) ) ;
#493 = SURFACE_STYLE_USAGE ( .BOTH. , #201 ) ;
#494 = ORIENTED_EDGE ( 'NONE', *, *, #917, .T. ) ;
#495 = EDGE_CURVE ( 'NONE', #839, #184, #193, .T. ) ;
#496 = DIRECTION ( 'NONE',  ( -1.000000000000000000, -2.018084652485880300E-17, 2.313050733330871153E-16 ) ) ;
#497 = MECHANICAL_DESIGN_GEOMETRIC_PRESENTATION_REPRESENTATION (  '', ( #110 ), #480 ) ;
#498 = SURFACE_SIDE_STYLE ('',( #511 ) ) ;
#499 = EDGE_LOOP ( 'NONE', ( #866, #676, #351, #84 ) ) ;
#500 = VECTOR ( 'NONE', #243, 1000.000000000000000 ) ;
#501 = PRESENTATION_LAYER_ASSIGNMENT (  '', '', ( #628 ) ) ;
#502 = FILL_AREA_STYLE ('',( #200 ) ) ;
#503 = MECHANICAL_DESIGN_GEOMETRIC_PRESENTATION_REPRESENTATION (  '', ( #724 ), #67 ) ;
#504 = EDGE_CURVE ( 'NONE', #253, #57, #752, .T. ) ;
#505 = CARTESIAN_POINT ( 'NONE',  ( 2.650000000000003020, 0.0000000000000000000, 2.500000000000000000 ) ) ;
#506 = EDGE_LOOP ( 'NONE', ( #198, #426, #232, #476 ) ) ;
#507 = CARTESIAN_POINT ( 'NONE',  ( -2.850000000000010747, 2.800000000000000266, -2.350000000000000089 ) ) ;
#508 = LINE ( 'NONE', #146, #336 ) ;
#509 = EDGE_CURVE ( 'NONE', #554, #40, #346, .T. ) ;
#510 = SURFACE_STYLE_FILL_AREA ( #97 ) ;
#511 = SURFACE_STYLE_FILL_AREA ( #75 ) ;
#512 = ORIENTED_EDGE ( 'NONE', *, *, #636, .T. ) ;
#513 = DIRECTION ( 'NONE',  ( 1.000000000000000000, 0.0000000000000000000, -2.891205793294679017E-15 ) ) ;
#514 = DIRECTION ( 'NONE',  ( -1.000000000000000000, -0.0000000000000000000, -0.0000000000000000000 ) ) ;
#515 = DIRECTION ( 'NONE',  ( 1.000000000000000000, 0.0000000000000000000, 0.0000000000000000000 ) ) ;
#516 =( NAMED_UNIT ( * ) PLANE_ANGLE_UNIT ( ) SI_UNIT ( $, .RADIAN. ) );
#517 = DIRECTION ( 'NONE',  ( 2.313050733330870660E-16, 0.0000000000000000000, 1.000000000000000000 ) ) ;
#518 = COLOUR_RGB ( '',0.6666666666666666297, 0.6666666666666666297, 0.6666666666666666297 ) ;
#519 =( GEOMETRIC_REPRESENTATION_CONTEXT ( 3 ) GLOBAL_UNCERTAINTY_ASSIGNED_CONTEXT ( ( #323 ) ) GLOBAL_UNIT_ASSIGNED_CONTEXT ( ( #925, #55, #128 ) ) REPRESENTATION_CONTEXT ( 'NONE', 'WORKASPACE' ) );
#520 = LINE ( 'NONE', #821, #202 ) ;
#521 = FILL_AREA_STYLE ('',( #663 ) ) ;
#522 =( GEOMETRIC_REPRESENTATION_CONTEXT ( 3 ) GLOBAL_UNCERTAINTY_ASSIGNED_CONTEXT ( ( #121 ) ) GLOBAL_UNIT_ASSIGNED_CONTEXT ( ( #600, #92, #147 ) ) REPRESENTATION_CONTEXT ( 'NONE', 'WORKASPACE' ) );
#523 =( NAMED_UNIT ( * ) SI_UNIT ( $, .STERADIAN. ) SOLID_ANGLE_UNIT ( ) );
#524 = FILL_AREA_STYLE_COLOUR ( '', #414 ) ;
#525 = ORIENTED_EDGE ( 'NONE', *, *, #345, .T. ) ;
#526 = PRESENTATION_LAYER_ASSIGNMENT (  '', '', ( #438 ) ) ;
#527 = ORIENTED_EDGE ( 'NONE', *, *, #747, .T. ) ;
#528 = CARTESIAN_POINT ( 'NONE',  ( 2.700000000000004619, 2.799999999999999822, 2.350000000000000533 ) ) ;
#529 = CARTESIAN_POINT ( 'NONE',  ( -2.850000000000000089, 2.737867965644036339, 2.437867965644035628 ) ) ;
#530 = EDGE_CURVE ( 'NONE', #50, #411, #559, .T. ) ;
#531 = FILL_AREA_STYLE_COLOUR ( '', #953 ) ;
#532 = PRESENTATION_STYLE_ASSIGNMENT (( #230 ) ) ;
#533 = SURFACE_STYLE_USAGE ( .BOTH. , #300 ) ;
#534 = ADVANCED_FACE ( 'NONE', ( #886 ), #320, .T. ) ;
#535 = CARTESIAN_POINT ( 'NONE',  ( 2.650000000000001243, 0.0000000000000000000, -2.500000000000000000 ) ) ;
#536 = ADVANCED_FACE ( 'NONE', ( #186 ), #46, .F. ) ;
#537 = CARTESIAN_POINT ( 'NONE',  ( -2.649999999999999467, 2.800000000000000266, 2.499999999999999556 ) ) ;
#538 = VECTOR ( 'NONE', #85, 1000.000000000000000 ) ;
#539 = DIRECTION ( 'NONE',  ( -1.965969179678056521E-16, -1.000000000000000000, 4.473371011944573551E-31 ) ) ;
#540 = FACE_OUTER_BOUND ( 'NONE', #424, .T. ) ;
#541 = FILL_AREA_STYLE ('',( #302 ) ) ;
#542 = EDGE_CURVE ( 'NONE', #455, #781, #360, .T. ) ;
#543 = ORIENTED_EDGE ( 'NONE', *, *, #312, .T. ) ;
#544 = CARTESIAN_POINT ( 'NONE',  ( 2.650000000000003020, -1.582640770849968068E-16, -2.500000000000000000 ) ) ;
#545 = FILL_AREA_STYLE_COLOUR ( '', #799 ) ;
#546 = ORIENTED_EDGE ( 'NONE', *, *, #611, .T. ) ;
#547 = FACE_OUTER_BOUND ( 'NONE', #550, .T. ) ;
#548 = VECTOR ( 'NONE', #197, 1000.000000000000000 ) ;
#549 = DIRECTION ( 'NONE',  ( 1.000000000000000000, -1.965969179678056521E-16, -2.275402411281505148E-15 ) ) ;
#550 = EDGE_LOOP ( 'NONE', ( #694, #494, #771, #459 ) ) ;
#551 = CARTESIAN_POINT ( 'NONE',  ( 2.650000000000003020, 2.799999999999999822, -2.500000000000000000 ) ) ;
#552 = PRESENTATION_LAYER_ASSIGNMENT (  '', '', ( #659 ) ) ;
#553 = CARTESIAN_POINT ( 'NONE',  ( 2.700000000000004619, -1.572550347587538830E-16, 2.500000000000000000 ) ) ;
#554 = VERTEX_POINT ( 'NONE', #293 ) ;
#555 = EDGE_CURVE ( 'NONE', #37, #108, #680, .T. ) ;
#556 = DIRECTION ( 'NONE',  ( -2.018084652485875986E-17, 1.000000000000000000, -5.551115123125782702E-17 ) ) ;
#557 = UNCERTAINTY_MEASURE_WITH_UNIT (LENGTH_MEASURE( 1.000000000000000082E-05 ), #588, 'distance_accuracy_value', 'NONE');
#558 = SURFACE_SIDE_STYLE ('',( #782 ) ) ;
#559 = LINE ( 'NONE', #357, #251 ) ;
#560 =( NAMED_UNIT ( * ) PLANE_ANGLE_UNIT ( ) SI_UNIT ( $, .RADIAN. ) );
#561 = PRESENTATION_STYLE_ASSIGNMENT (( #493 ) ) ;
#562 = CARTESIAN_POINT ( 'NONE',  ( 2.850000000000004530, 0.1499999999999998002, 2.350000000000000089 ) ) ;
#563 = VECTOR ( 'NONE', #208, 1000.000000000000000 ) ;
#564 = MECHANICAL_DESIGN_GEOMETRIC_PRESENTATION_REPRESENTATION (  '', ( #488 ), #335 ) ;
#565 = COLOUR_RGB ( '',0.7529411764705882248, 0.7529411764705882248, 0.7529411764705882248 ) ;
#566 =( NAMED_UNIT ( * ) SI_UNIT ( $, .STERADIAN. ) SOLID_ANGLE_UNIT ( ) );
#567 = FILL_AREA_STYLE_COLOUR ( '', #565 ) ;
#568 = ADVANCED_FACE ( 'NONE', ( #90 ), #373, .T. ) ;
#569 = EDGE_LOOP ( 'NONE', ( #365, #877, #279, #656 ) ) ;
#570 = ORIENTED_EDGE ( 'NONE', *, *, #629, .F. ) ;
#571 = DIRECTION ( 'NONE',  ( -1.000000000000000000, 1.965969179678056521E-16, 1.069980663104970686E-16 ) ) ;
#572 = ORIENTED_EDGE ( 'NONE', *, *, #374, .T. ) ;
#573 =( LENGTH_UNIT ( ) NAMED_UNIT ( * ) SI_UNIT ( .MILLI., .METRE. ) );
#574 = CARTESIAN_POINT ( 'NONE',  ( 2.850000000000004530, 2.799999999999999822, 2.350000000000000533 ) ) ;
#575 = CARTESIAN_POINT ( 'NONE',  ( -2.649999999999999911, 0.0000000000000000000, -2.500000000000000000 ) ) ;
#576 = AXIS2_PLACEMENT_3D ( 'NONE', #223, #578, #549 ) ;
#577 = VECTOR ( 'NONE', #456, 1000.000000000000000 ) ;
#578 = DIRECTION ( 'NONE',  ( 1.965969179678056521E-16, 1.000000000000000000, -4.473371011944573551E-31 ) ) ;
#579 = FILL_AREA_STYLE_COLOUR ( '', #353 ) ;
#580 = MANIFOLD_SURFACE_SHAPE_REPRESENTATION ( 'C9A558E9-FC30-4FD0-A71D-8B47E24F10B4', ( #428, #477 ), #892 ) ;
#581 = EDGE_LOOP ( 'NONE', ( #383, #869, #947, #422 ) ) ;
#582 = DIRECTION ( 'NONE',  ( 8.673617379884035472E-17, 0.0000000000000000000, 1.000000000000000000 ) ) ;
#583 = FACE_OUTER_BOUND ( 'NONE', #937, .T. ) ;
#584 = SURFACE_SIDE_STYLE ('',( #355 ) ) ;
#585 = CARTESIAN_POINT ( 'NONE',  ( -2.850000000000000089, 0.1500000000000003553, 2.500000000000000000 ) ) ;
#586 = FACE_OUTER_BOUND ( 'NONE', #95, .T. ) ;
#587 = SHAPE_DEFINITION_REPRESENTATION ( #212, #580 ) ;
#588 =( LENGTH_UNIT ( ) NAMED_UNIT ( * ) SI_UNIT ( .MILLI., .METRE. ) );
#589 = EDGE_CURVE ( 'NONE', #416, #703, #602, .T. ) ;
#590 = PRESENTATION_LAYER_ASSIGNMENT (  '', '', ( #63 ) ) ;
#591 = LINE ( 'NONE', #222, #180 ) ;
#592 = VECTOR ( 'NONE', #211, 1000.000000000000000 ) ;
#593 = MECHANICAL_DESIGN_GEOMETRIC_PRESENTATION_REPRESENTATION (  '', ( #612 ), #522 ) ;
#594 = STYLED_ITEM ( 'NONE', ( #768 ), #419 ) ;
#595 = COLOUR_RGB ( '',0.6666666666666666297, 0.6666666666666666297, 0.6666666666666666297 ) ;
#596 = VECTOR ( 'NONE', #731, 1000.000000000000000 ) ;
#597 = CARTESIAN_POINT ( 'NONE',  ( 2.650000000000004352, -1.582640770849968068E-16, 2.500000000000000000 ) ) ;
#598 = EDGE_LOOP ( 'NONE', ( #268, #811, #942, #760 ) ) ;
#599 = PRODUCT_CONTEXT ( 'NONE', #394, 'mechanical' ) ;
#600 =( LENGTH_UNIT ( ) NAMED_UNIT ( * ) SI_UNIT ( .MILLI., .METRE. ) );
#601 =( NAMED_UNIT ( * ) PLANE_ANGLE_UNIT ( ) SI_UNIT ( $, .RADIAN. ) );
#602 = LINE ( 'NONE', #910, #921 ) ;
#603 = DIRECTION ( 'NONE',  ( -2.313050733330870660E-16, 0.0000000000000000000, -1.000000000000000000 ) ) ;
#604 = COLOUR_RGB ( '',0.7529411764705882248, 0.7529411764705882248, 0.7529411764705882248 ) ;
#605 = DIRECTION ( 'NONE',  ( 2.275402411281505148E-15, -0.0000000000000000000, 1.000000000000000000 ) ) ;
#606 =( LENGTH_UNIT ( ) NAMED_UNIT ( * ) SI_UNIT ( .MILLI., .METRE. ) );
#607 = LINE ( 'NONE', #537, #577 ) ;
#608 = STYLED_ITEM ( 'NONE', ( #876 ), #963 ) ;
#609 = ORIENTED_EDGE ( 'NONE', *, *, #871, .F. ) ;
#610 =( GEOMETRIC_REPRESENTATION_CONTEXT ( 3 ) GLOBAL_UNCERTAINTY_ASSIGNED_CONTEXT ( ( #837 ) ) GLOBAL_UNIT_ASSIGNED_CONTEXT ( ( #814, #66, #870 ) ) REPRESENTATION_CONTEXT ( 'NONE', 'WORKASPACE' ) );
#611 = EDGE_CURVE ( 'NONE', #649, #57, #158, .T. ) ;
#612 = STYLED_ITEM ( 'NONE', ( #749 ), #52 ) ;
#613 = ORIENTED_EDGE ( 'NONE', *, *, #79, .T. ) ;
#614 = DIRECTION ( 'NONE',  ( 1.000000000000000000, -1.965969179678056521E-16, -1.069980663104970686E-16 ) ) ;
#615 =( GEOMETRIC_REPRESENTATION_CONTEXT ( 3 ) GLOBAL_UNCERTAINTY_ASSIGNED_CONTEXT ( ( #464 ) ) GLOBAL_UNIT_ASSIGNED_CONTEXT ( ( #905, #516, #827 ) ) REPRESENTATION_CONTEXT ( 'NONE', 'WORKASPACE' ) );
#616 =( GEOMETRIC_REPRESENTATION_CONTEXT ( 3 ) GLOBAL_UNCERTAINTY_ASSIGNED_CONTEXT ( ( #726 ) ) GLOBAL_UNIT_ASSIGNED_CONTEXT ( ( #635, #150, #439 ) ) REPRESENTATION_CONTEXT ( 'NONE', 'WORKASPACE' ) );
#617 = CARTESIAN_POINT ( 'NONE',  ( -2.750000000000005329, 2.800000000000000266, -1.084202172485517006E-16 ) ) ;
#618 = SURFACE_STYLE_FILL_AREA ( #308 ) ;
#619 = CARTESIAN_POINT ( 'NONE',  ( -2.700000000000010836, 2.800000000000000266, -2.500000000000000000 ) ) ;
#620 = ORIENTED_EDGE ( 'NONE', *, *, #338, .F. ) ;
#621 = CARTESIAN_POINT ( 'NONE',  ( -2.650000000000011902, 3.598110685731459916E-16, -2.500000000000000444 ) ) ;
#622 = FILL_AREA_STYLE_COLOUR ( '', #644 ) ;
#623 = ORIENTED_EDGE ( 'NONE', *, *, #783, .F. ) ;
#624 = CARTESIAN_POINT ( 'NONE',  ( -2.650000000000011013, 2.800000000000000266, -2.500000000000000444 ) ) ;
#625 = VECTOR ( 'NONE', #556, 1000.000000000000000 ) ;
#626 = UNCERTAINTY_MEASURE_WITH_UNIT (LENGTH_MEASURE( 1.000000000000000082E-05 ), #778, 'distance_accuracy_value', 'NONE');
#627 = PRESENTATION_STYLE_ASSIGNMENT (( #861 ) ) ;
#628 = STYLED_ITEM ( 'NONE', ( #166 ), #64 ) ;
#629 = EDGE_CURVE ( 'NONE', #24, #102, #164, .T. ) ;
#630 = VECTOR ( 'NONE', #94, 1000.000000000000000 ) ;
#631 = DIRECTION ( 'NONE',  ( -2.313050733330870660E-16, 0.0000000000000000000, -1.000000000000000000 ) ) ;
#632 = CARTESIAN_POINT ( 'NONE',  ( 2.700000000000004174, 2.799999999999999822, 2.500000000000000000 ) ) ;
#633 = PLANE ( 'NONE',  #803 ) ;
#634 = EDGE_CURVE ( 'NONE', #184, #70, #168, .T. ) ;
#635 =( LENGTH_UNIT ( ) NAMED_UNIT ( * ) SI_UNIT ( .MILLI., .METRE. ) );
#636 = EDGE_CURVE ( 'NONE', #715, #50, #607, .T. ) ;
#637 = DIRECTION ( 'NONE',  ( -2.018084652485875986E-17, 1.000000000000000000, -5.551115123125782702E-17 ) ) ;
#638 = VERTEX_POINT ( 'NONE', #597 ) ;
#639 = ORIENTED_EDGE ( 'NONE', *, *, #699, .T. ) ;
#640 = EDGE_CURVE ( 'NONE', #929, #122, #855, .T. ) ;
#641 = PRESENTATION_LAYER_ASSIGNMENT (  '', '', ( #946 ) ) ;
#642 = ORIENTED_EDGE ( 'NONE', *, *, #286, .T. ) ;
#643 = LINE ( 'NONE', #875, #548 ) ;
#644 = COLOUR_RGB ( '',0.6666666666666666297, 0.6666666666666666297, 0.6666666666666666297 ) ;
#645 = PRESENTATION_LAYER_ASSIGNMENT (  '', '', ( #724 ) ) ;
#646 =( GEOMETRIC_REPRESENTATION_CONTEXT ( 3 ) GLOBAL_UNCERTAINTY_ASSIGNED_CONTEXT ( ( #489 ) ) GLOBAL_UNIT_ASSIGNED_CONTEXT ( ( #954, #713, #566 ) ) REPRESENTATION_CONTEXT ( 'NONE', 'WORKASPACE' ) );
#647 = CYLINDRICAL_SURFACE ( 'NONE', #378, 0.1499999999999999667 ) ;
#648 = PRODUCT ( 'C9A558E9-FC30-4FD0-A71D-8B47E24F10B4', 'C9A558E9-FC30-4FD0-A71D-8B47E24F10B4', '', ( #599 ) ) ;
#649 = VERTEX_POINT ( 'NONE', #829 ) ;
#650 = PRESENTATION_STYLE_ASSIGNMENT (( #195 ) ) ;
#651 = SURFACE_SIDE_STYLE ('',( #786 ) ) ;
#652 = LINE ( 'NONE', #271, #14 ) ;
#653 = LINE ( 'NONE', #285, #563 ) ;
#654 = FILL_AREA_STYLE_COLOUR ( '', #904 ) ;
#655 = STYLED_ITEM ( 'NONE', ( #221 ), #860 ) ;
#656 = ORIENTED_EDGE ( 'NONE', *, *, #849, .T. ) ;
#657 = CARTESIAN_POINT ( 'NONE',  ( -2.649999999999999467, 2.799999999999999822, 2.500000000000000000 ) ) ;
#658 = COLOUR_RGB ( '',0.6666666666666666297, 0.6666666666666666297, 0.6666666666666666297 ) ;
#659 = STYLED_ITEM ( 'NONE', ( #123 ), #536 ) ;
#660 = FILL_AREA_STYLE_COLOUR ( '', #48 ) ;
#661 = FACE_OUTER_BOUND ( 'NONE', #569, .T. ) ;
#662 = FILL_AREA_STYLE ('',( #962 ) ) ;
#663 = FILL_AREA_STYLE_COLOUR ( '', #292 ) ;
#664 = DIRECTION ( 'NONE',  ( -2.275402411281505148E-15, -0.0000000000000000000, -1.000000000000000000 ) ) ;
#665 = DIRECTION ( 'NONE',  ( -2.313050733330870660E-16, 0.0000000000000000000, -1.000000000000000000 ) ) ;
#666 = EDGE_CURVE ( 'NONE', #929, #839, #520, .T. ) ;
#667 = DIRECTION ( 'NONE',  ( 1.000000000000000000, -1.807003620809174385E-16, -2.891205793294679017E-15 ) ) ;
#668 = DIRECTION ( 'NONE',  ( -0.0000000000000000000, -1.000000000000000000, -0.0000000000000000000 ) ) ;
#669 = SURFACE_SIDE_STYLE ('',( #275 ) ) ;
#670 = FILL_AREA_STYLE_COLOUR ( '', #518 ) ;
#671 = CARTESIAN_POINT ( 'NONE',  ( -2.649999999999999467, 2.799999999999999822, 2.500000000000000000 ) ) ;
#672 = EDGE_CURVE ( 'NONE', #390, #411, #178, .T. ) ;
#673 =( NAMED_UNIT ( * ) PLANE_ANGLE_UNIT ( ) SI_UNIT ( $, .RADIAN. ) );
#674 = LINE ( 'NONE', #21, #278 ) ;
#675 =( LENGTH_UNIT ( ) NAMED_UNIT ( * ) SI_UNIT ( .MILLI., .METRE. ) );
#676 = ORIENTED_EDGE ( 'NONE', *, *, #96, .T. ) ;
#677 = EDGE_CURVE ( 'NONE', #77, #554, #256, .T. ) ;
#678 = LINE ( 'NONE', #911, #833 ) ;
#679 = ORIENTED_EDGE ( 'NONE', *, *, #690, .T. ) ;
#680 = LINE ( 'NONE', #671, #790 ) ;
#681 = FILL_AREA_STYLE ('',( #25 ) ) ;
#682 = DIRECTION ( 'NONE',  ( 1.000000000000000000, 2.018084652485879992E-17, 1.937099271637921358E-15 ) ) ;
#683 = LINE ( 'NONE', #463, #766 ) ;
#684 =( GEOMETRIC_REPRESENTATION_CONTEXT ( 3 ) GLOBAL_UNCERTAINTY_ASSIGNED_CONTEXT ( ( #413 ) ) GLOBAL_UNIT_ASSIGNED_CONTEXT ( ( #902, #751, #17 ) ) REPRESENTATION_CONTEXT ( 'NONE', 'WORKASPACE' ) );
#685 =( GEOMETRIC_REPRESENTATION_CONTEXT ( 3 ) GLOBAL_UNCERTAINTY_ASSIGNED_CONTEXT ( ( #809 ) ) GLOBAL_UNIT_ASSIGNED_CONTEXT ( ( #573, #813, #523 ) ) REPRESENTATION_CONTEXT ( 'NONE', 'WORKASPACE' ) );
#686 = ORIENTED_EDGE ( 'NONE', *, *, #634, .F. ) ;
#687 = CARTESIAN_POINT ( 'NONE',  ( 2.650000000000003020, 2.799999999999999822, 2.500000000000000000 ) ) ;
#688 =( GEOMETRIC_REPRESENTATION_CONTEXT ( 3 ) GLOBAL_UNCERTAINTY_ASSIGNED_CONTEXT ( ( #626 ) ) GLOBAL_UNIT_ASSIGNED_CONTEXT ( ( #778, #791, #352 ) ) REPRESENTATION_CONTEXT ( 'NONE', 'WORKASPACE' ) );
#689 = DIRECTION ( 'NONE',  ( 1.965969179678056521E-16, 1.000000000000000000, -4.473371011944573551E-31 ) ) ;
#690 = EDGE_CURVE ( 'NONE', #70, #885, #450, .T. ) ;
#691 = EDGE_CURVE ( 'NONE', #50, #728, #465, .T. ) ;
#692 = FILL_AREA_STYLE ('',( #545 ) ) ;
#693 = PRODUCT_DEFINITION_CONTEXT ( 'detailed design', #943, 'design' ) ;
#694 = ORIENTED_EDGE ( 'NONE', *, *, #160, .T. ) ;
#695 = CARTESIAN_POINT ( 'NONE',  ( -2.850000000000000533, 0.1500000000000003830, 2.350000000000000533 ) ) ;
#696 = PRESENTATION_STYLE_ASSIGNMENT (( #533 ) ) ;
#697 = LINE ( 'NONE', #779, #867 ) ;
#698 = SURFACE_STYLE_FILL_AREA ( #692 ) ;
#699 = EDGE_CURVE ( 'NONE', #24, #134, #239, .T. ) ;
#700 = ORIENTED_EDGE ( 'NONE', *, *, #677, .F. ) ;
#701 = SURFACE_STYLE_USAGE ( .BOTH. , #846 ) ;
#702 = PLANE ( 'NONE',  #913 ) ;
#703 = VERTEX_POINT ( 'NONE', #460 ) ;
#704 = CARTESIAN_POINT ( 'NONE',  ( -2.850000000000010747, 2.800000000000000266, -2.500000000000000000 ) ) ;
#705 = VECTOR ( 'NONE', #375, 1000.000000000000000 ) ;
#706 = ADVANCED_FACE ( 'NONE', ( #931 ), #400, .F. ) ;
#707 = CARTESIAN_POINT ( 'NONE',  ( 2.850000000000004530, 2.649999999999999911, 2.350000000000000533 ) ) ;
#708 =( NAMED_UNIT ( * ) PLANE_ANGLE_UNIT ( ) SI_UNIT ( $, .RADIAN. ) );
#709 = ORIENTED_EDGE ( 'NONE', *, *, #530, .F. ) ;
#710 = LINE ( 'NONE', #574, #737 ) ;
#711 = ORIENTED_EDGE ( 'NONE', *, *, #10, .F. ) ;
#712 = DIRECTION ( 'NONE',  ( 2.275402411281505148E-15, 0.0000000000000000000, 1.000000000000000000 ) ) ;
#713 =( NAMED_UNIT ( * ) PLANE_ANGLE_UNIT ( ) SI_UNIT ( $, .RADIAN. ) );
#714 =( NAMED_UNIT ( * ) PLANE_ANGLE_UNIT ( ) SI_UNIT ( $, .RADIAN. ) );
#715 = VERTEX_POINT ( 'NONE', #51 ) ;
#716 = CARTESIAN_POINT ( 'NONE',  ( 2.850000000000004530, 2.799999999999999822, 2.500000000000000444 ) ) ;
#717 = MECHANICAL_DESIGN_GEOMETRIC_PRESENTATION_REPRESENTATION (  '', ( #946 ), #800 ) ;
#718 = SURFACE_STYLE_USAGE ( .BOTH. , #257 ) ;
#719 = VECTOR ( 'NONE', #325, 1000.000000000000000 ) ;
#720 = EDGE_CURVE ( 'NONE', #261, #733, #384, .T. ) ;
#721 = PLANE ( 'NONE',  #952 ) ;
#722 = CARTESIAN_POINT ( 'NONE',  ( 2.850000000000004530, 0.1499999999999998002, 2.350000000000000089 ) ) ;
#723 = VECTOR ( 'NONE', #514, 1000.000000000000000 ) ;
#724 = STYLED_ITEM ( 'NONE', ( #840 ), #568 ) ;
#725 = SURFACE_STYLE_USAGE ( .BOTH. , #418 ) ;
#726 = UNCERTAINTY_MEASURE_WITH_UNIT (LENGTH_MEASURE( 1.000000000000000082E-05 ), #635, 'distance_accuracy_value', 'NONE');
#727 = ORIENTED_EDGE ( 'NONE', *, *, #530, .T. ) ;
#728 = VERTEX_POINT ( 'NONE', #621 ) ;
#729 = CARTESIAN_POINT ( 'NONE',  ( 2.850000000000003197, 2.649999999999999911, -2.350000000000000089 ) ) ;
#730 =( NAMED_UNIT ( * ) PLANE_ANGLE_UNIT ( ) SI_UNIT ( $, .RADIAN. ) );
#731 = DIRECTION ( 'NONE',  ( -1.000000000000000000, 1.965969179678056521E-16, 1.069980663104970686E-16 ) ) ;
#732 = ADVANCED_FACE ( 'NONE', ( #547 ), #633, .F. ) ;
#733 = VERTEX_POINT ( 'NONE', #505 ) ;
#734 = PRESENTATION_STYLE_ASSIGNMENT (( #859 ) ) ;
#735 = LINE ( 'NONE', #657, #592 ) ;
#736 = CARTESIAN_POINT ( 'NONE',  ( 0.0000000000000000000, 0.0000000000000000000, 0.0000000000000000000 ) ) ;
#737 = VECTOR ( 'NONE', #810, 1000.000000000000000 ) ;
#738 = MECHANICAL_DESIGN_GEOMETRIC_PRESENTATION_REPRESENTATION (  '', ( #63 ), #850 ) ;
#739 = CARTESIAN_POINT ( 'NONE',  ( -2.649999999999999467, 2.800000000000000266, 2.499999999999999556 ) ) ;
#740 = EDGE_CURVE ( 'NONE', #134, #638, #652, .T. ) ;
#741 = FACE_OUTER_BOUND ( 'NONE', #872, .T. ) ;
#742 = STYLED_ITEM ( 'NONE', ( #420 ), #31 ) ;
#743 = SURFACE_SIDE_STYLE ('',( #436 ) ) ;
#744 = CARTESIAN_POINT ( 'NONE',  ( 2.850000000000003197, 0.1499999999999998002, -2.499999999999999556 ) ) ;
#745 = CARTESIAN_POINT ( 'NONE',  ( 2.700000000000003730, 2.799999999999999822, -2.500000000000000000 ) ) ;
#746 = VERTEX_POINT ( 'NONE', #722 ) ;
#747 = EDGE_CURVE ( 'NONE', #70, #929, #643, .T. ) ;
#748 = SURFACE_SIDE_STYLE ('',( #440 ) ) ;
#749 = PRESENTATION_STYLE_ASSIGNMENT (( #157 ) ) ;
#750 = CARTESIAN_POINT ( 'NONE',  ( 0.0000000000000000000, 0.0000000000000000000, 0.0000000000000000000 ) ) ;
#751 =( NAMED_UNIT ( * ) PLANE_ANGLE_UNIT ( ) SI_UNIT ( $, .RADIAN. ) );
#752 =( BOUNDED_CURVE ( )  B_SPLINE_CURVE ( 3, ( #181, #402, #145, #473 ),
 .UNSPECIFIED., .F., .T. ) 
 B_SPLINE_CURVE_WITH_KNOTS ( ( 4, 4 ),
 ( 1.570796326794896336, 3.141592653589790007 ),
 .UNSPECIFIED. ) 
 CURVE ( )  GEOMETRIC_REPRESENTATION_ITEM ( )  RATIONAL_B_SPLINE_CURVE ( ( 1.000000000000000000, 0.8047378541243657146, 0.8047378541243657146, 1.000000000000000000 ) ) 
 REPRESENTATION_ITEM ( '' )  );
#753 = CARTESIAN_POINT ( 'NONE',  ( -2.850000000000010747, 2.650000000000000355, -2.350000000000000089 ) ) ;
#754 = CARTESIAN_POINT ( 'NONE',  ( -2.787867965644048152, 4.465272693249931989E-16, -2.500000000000000000 ) ) ;
#755 = CARTESIAN_POINT ( 'NONE',  ( -2.849999999999999645, 2.800000000000000266, 2.500000000000000000 ) ) ;
#756 = DIRECTION ( 'NONE',  ( -1.000000000000000000, -2.018084652485880300E-17, 2.313050733330871153E-16 ) ) ;
#757 =( NAMED_UNIT ( * ) PLANE_ANGLE_UNIT ( ) SI_UNIT ( $, .RADIAN. ) );
#758 = SURFACE_SIDE_STYLE ('',( #240 ) ) ;
#759 = CARTESIAN_POINT ( 'NONE',  ( -2.850000000000000089, 2.650000000000000355, 2.350000000000000533 ) ) ;
#760 = ORIENTED_EDGE ( 'NONE', *, *, #900, .F. ) ;
#761 = CARTESIAN_POINT ( 'NONE',  ( -2.850000000000000089, 2.650000000000000355, 2.350000000000000533 ) ) ;
#762 = ORIENTED_EDGE ( 'NONE', *, *, #611, .F. ) ;
#763 = PLANE ( 'NONE',  #770 ) ;
#764 = CARTESIAN_POINT ( 'NONE',  ( -2.649999999999999467, 2.799999999999999822, 2.500000000000000000 ) ) ;
#765 = UNCERTAINTY_MEASURE_WITH_UNIT (LENGTH_MEASURE( 1.000000000000000082E-05 ), #311, 'distance_accuracy_value', 'NONE');
#766 = VECTOR ( 'NONE', #389, 1000.000000000000000 ) ;
#767 = ORIENTED_EDGE ( 'NONE', *, *, #640, .F. ) ;
#768 = PRESENTATION_STYLE_ASSIGNMENT (( #462 ) ) ;
#769 = DIRECTION ( 'NONE',  ( -1.000000000000000000, 0.0000000000000000000, -0.0000000000000000000 ) ) ;
#770 = AXIS2_PLACEMENT_3D ( 'NONE', #617, #689, #39 ) ;
#771 = ORIENTED_EDGE ( 'NONE', *, *, #448, .F. ) ;
#772 = MECHANICAL_DESIGN_GEOMETRIC_PRESENTATION_REPRESENTATION (  '', ( #306 ), #688 ) ;
#773 = OPEN_SHELL ( 'NONE', ( #568, #6, #536, #860 ) ) ;
#774 = EDGE_CURVE ( 'NONE', #554, #746, #710, .T. ) ;
#775 = CARTESIAN_POINT ( 'NONE',  ( 2.850000000000003197, 2.799999999999999822, -2.499999999999999556 ) ) ;
#776 = EDGE_LOOP ( 'NONE', ( #950, #8, #377, #395 ) ) ;
#777 = DIRECTION ( 'NONE',  ( 2.313050733330870660E-16, 0.0000000000000000000, 1.000000000000000000 ) ) ;
#778 =( LENGTH_UNIT ( ) NAMED_UNIT ( * ) SI_UNIT ( .MILLI., .METRE. ) );
#779 = CARTESIAN_POINT ( 'NONE',  ( -2.849999999999999645, 2.800000000000000266, 2.500000000000000000 ) ) ;
#780 = CYLINDRICAL_SURFACE ( 'NONE', #81, 0.1499999999999999667 ) ;
#781 = VERTEX_POINT ( 'NONE', #277 ) ;
#782 = SURFACE_STYLE_FILL_AREA ( #319 ) ;
#783 = EDGE_CURVE ( 'NONE', #746, #922, #959, .T. ) ;
#784 = SURFACE_SIDE_STYLE ('',( #4 ) ) ;
#785 = CARTESIAN_POINT ( 'NONE',  ( 2.700000000000003286, 2.799999999999999822, -2.350000000000000089 ) ) ;
#786 = SURFACE_STYLE_FILL_AREA ( #490 ) ;
#787 = EDGE_CURVE ( 'NONE', #261, #416, #425, .T. ) ;
#788 = AXIS2_PLACEMENT_3D ( 'NONE', #234, #603, #916 ) ;
#789 = STYLED_ITEM ( 'NONE', ( #124 ), #218 ) ;
#790 = VECTOR ( 'NONE', #915, 1000.000000000000000 ) ;
#791 =( NAMED_UNIT ( * ) PLANE_ANGLE_UNIT ( ) SI_UNIT ( $, .RADIAN. ) );
#792 = SURFACE_STYLE_USAGE ( .BOTH. , #651 ) ;
#793 = DIRECTION ( 'NONE',  ( -3.469446951953614189E-16, -0.0000000000000000000, -1.000000000000000000 ) ) ;
#794 = ADVANCED_FACE ( 'NONE', ( #1 ), #260, .F. ) ;
#795 = SURFACE_SIDE_STYLE ('',( #965 ) ) ;
#796 =( NAMED_UNIT ( * ) PLANE_ANGLE_UNIT ( ) SI_UNIT ( $, .RADIAN. ) );
#797 = CARTESIAN_POINT ( 'NONE',  ( 2.850000000000004974, 0.06213203435596419133, 2.437867965644036516 ) ) ;
#798 = ORIENTED_EDGE ( 'NONE', *, *, #666, .T. ) ;
#799 = COLOUR_RGB ( '',0.6666666666666666297, 0.6666666666666666297, 0.6666666666666666297 ) ;
#800 =( GEOMETRIC_REPRESENTATION_CONTEXT ( 3 ) GLOBAL_UNCERTAINTY_ASSIGNED_CONTEXT ( ( #865 ) ) GLOBAL_UNIT_ASSIGNED_CONTEXT ( ( #606, #442, #283 ) ) REPRESENTATION_CONTEXT ( 'NONE', 'WORKASPACE' ) );
#801 = FACE_OUTER_BOUND ( 'NONE', #776, .T. ) ;
#802 = DIRECTION ( 'NONE',  ( 1.965969179678056521E-16, 1.000000000000000000, -4.473371011944573551E-31 ) ) ;
#803 = AXIS2_PLACEMENT_3D ( 'NONE', #716, #344, #207 ) ;
#804 = CARTESIAN_POINT ( 'NONE',  ( -2.850000000000011635, 3.991304521667071122E-16, -2.500000000000000000 ) ) ;
#805 = ORIENTED_EDGE ( 'NONE', *, *, #429, .T. ) ;
#806 = AXIS2_PLACEMENT_3D ( 'NONE', #933, #539, #924 ) ;
#807 = STYLED_ITEM ( 'NONE', ( #430 ), #267 ) ;
#808 = ADVANCED_FACE ( 'NONE', ( #661 ), #18, .F. ) ;
#809 = UNCERTAINTY_MEASURE_WITH_UNIT (LENGTH_MEASURE( 1.000000000000000082E-05 ), #573, 'distance_accuracy_value', 'NONE');
#810 = DIRECTION ( 'NONE',  ( 2.018084652485875986E-17, -1.000000000000000000, 5.551115123125782702E-17 ) ) ;
#811 = ORIENTED_EDGE ( 'NONE', *, *, #640, .T. ) ;
#812 = LINE ( 'NONE', #739, #484 ) ;
#813 =( NAMED_UNIT ( * ) PLANE_ANGLE_UNIT ( ) SI_UNIT ( $, .RADIAN. ) );
#814 =( LENGTH_UNIT ( ) NAMED_UNIT ( * ) SI_UNIT ( .MILLI., .METRE. ) );
#815 = ORIENTED_EDGE ( 'NONE', *, *, #634, .T. ) ;
#816 = MECHANICAL_DESIGN_GEOMETRIC_PRESENTATION_REPRESENTATION (  '', ( #187 ), #76 ) ;
#817 =( GEOMETRIC_REPRESENTATION_CONTEXT ( 3 ) GLOBAL_UNCERTAINTY_ASSIGNED_CONTEXT ( ( #920 ) ) GLOBAL_UNIT_ASSIGNED_CONTEXT ( ( #675, #118, #936 ) ) REPRESENTATION_CONTEXT ( 'NONE', 'WORKASPACE' ) );
#818 = SURFACE_STYLE_USAGE ( .BOTH. , #669 ) ;
#819 = CARTESIAN_POINT ( 'NONE',  ( 2.700000000000004174, 2.799999999999999822, 2.500000000000000000 ) ) ;
#820 = AXIS2_PLACEMENT_3D ( 'NONE', #334, #957, #571 ) ;
#821 = CARTESIAN_POINT ( 'NONE',  ( -2.849999999999999645, 2.650000000000000355, 2.500000000000000000 ) ) ;
#822 = EDGE_CURVE ( 'NONE', #885, #266, #13, .T. ) ;
#823 =( NAMED_UNIT ( * ) SI_UNIT ( $, .STERADIAN. ) SOLID_ANGLE_UNIT ( ) );
#824 = CARTESIAN_POINT ( 'NONE',  ( -2.700000000000005951, 3.696409144715362718E-16, -2.221903378126255825E-16 ) ) ;
#825 = CARTESIAN_POINT ( 'NONE',  ( 0.0000000000000000000, 2.799999999999999822, 0.0000000000000000000 ) ) ;
#826 = ORIENTED_EDGE ( 'NONE', *, *, #509, .F. ) ;
#827 =( NAMED_UNIT ( * ) SI_UNIT ( $, .STERADIAN. ) SOLID_ANGLE_UNIT ( ) );
#828 = CARTESIAN_POINT ( 'NONE',  ( 2.850000000000003197, 2.799999999999999822, -2.499999999999999556 ) ) ;
#829 = CARTESIAN_POINT ( 'NONE',  ( 2.700000000000003730, 2.799999999999999822, -2.500000000000000000 ) ) ;
#830 = CARTESIAN_POINT ( 'NONE',  ( -2.850000000000011191, 0.1500000000000003553, -2.349999999999999645 ) ) ;
#831 = SURFACE_STYLE_USAGE ( .BOTH. , #296 ) ;
#832 = CARTESIAN_POINT ( 'NONE',  ( 2.650000000000003020, 2.799999999999999822, -2.500000000000000000 ) ) ;
#833 = VECTOR ( 'NONE', #682, 1000.000000000000000 ) ;
#834 = ADVANCED_FACE ( 'NONE', ( #291 ), #167, .F. ) ;
#835 = DIRECTION ( 'NONE',  ( -3.469446951953614189E-16, -0.0000000000000000000, -1.000000000000000000 ) ) ;
#836 = CARTESIAN_POINT ( 'NONE',  ( 2.750000000000003553, -1.562459924325109345E-16, 0.0000000000000000000 ) ) ;
#837 = UNCERTAINTY_MEASURE_WITH_UNIT (LENGTH_MEASURE( 1.000000000000000082E-05 ), #814, 'distance_accuracy_value', 'NONE');
#838 = VECTOR ( 'NONE', #777, 1000.000000000000000 ) ;
#839 = VERTEX_POINT ( 'NONE', #753 ) ;
#840 = PRESENTATION_STYLE_ASSIGNMENT (( #289 ) ) ;
#841 = CARTESIAN_POINT ( 'NONE',  ( 2.650000000000001243, 2.799999999999999822, -2.500000000000000000 ) ) ;
#842 = CARTESIAN_POINT ( 'NONE',  ( 2.650000000000004352, 2.799999999999999822, 2.500000000000000000 ) ) ;
#843 = ORIENTED_EDGE ( 'NONE', *, *, #96, .F. ) ;
#844 = CARTESIAN_POINT ( 'NONE',  ( -2.700000000000010836, 2.800000000000000266, -2.500000000000000000 ) ) ;
#845 = SURFACE_STYLE_FILL_AREA ( #681 ) ;
#846 = SURFACE_SIDE_STYLE ('',( #618 ) ) ;
#847 = UNCERTAINTY_MEASURE_WITH_UNIT (LENGTH_MEASURE( 1.000000000000000082E-05 ), #899, 'distance_accuracy_value', 'NONE');
#848 = ORIENTED_EDGE ( 'NONE', *, *, #690, .F. ) ;
#849 = EDGE_CURVE ( 'NONE', #746, #253, #906, .T. ) ;
#850 =( GEOMETRIC_REPRESENTATION_CONTEXT ( 3 ) GLOBAL_UNCERTAINTY_ASSIGNED_CONTEXT ( ( #961 ) ) GLOBAL_UNIT_ASSIGNED_CONTEXT ( ( #265, #421, #148 ) ) REPRESENTATION_CONTEXT ( 'NONE', 'WORKASPACE' ) );
#851 = CARTESIAN_POINT ( 'NONE',  ( -2.649999999999999911, 3.598110685731459916E-16, 2.499999999999999556 ) ) ;
#852 = CARTESIAN_POINT ( 'NONE',  ( -2.787867965644046375, 2.800000000000000711, -2.500000000000000000 ) ) ;
#853 = ORIENTED_EDGE ( 'NONE', *, *, #206, .F. ) ;
#854 = AXIS2_PLACEMENT_3D ( 'NONE', #825, #210, #363 ) ;
#855 =( BOUNDED_CURVE ( )  B_SPLINE_CURVE ( 3, ( #761, #529, #107, #891 ),
 .UNSPECIFIED., .F., .T. ) 
 B_SPLINE_CURVE_WITH_KNOTS ( ( 4, 4 ),
 ( 4.712388980384689674, 6.283185307179586232 ),
 .UNSPECIFIED. ) 
 CURVE ( )  GEOMETRIC_REPRESENTATION_ITEM ( )  RATIONAL_B_SPLINE_CURVE ( ( 1.000000000000000000, 0.8047378541243649375, 0.8047378541243649375, 1.000000000000000000 ) ) 
 REPRESENTATION_ITEM ( '' )  );
#856 = CARTESIAN_POINT ( 'NONE',  ( -2.850000000000000533, 0.1500000000000003830, 2.350000000000000533 ) ) ;
#857 = FACE_OUTER_BOUND ( 'NONE', #136, .T. ) ;
#858 = ORIENTED_EDGE ( 'NONE', *, *, #481, .F. ) ;
#859 = SURFACE_STYLE_USAGE ( .BOTH. , #478 ) ;
#860 = ADVANCED_FACE ( 'NONE', ( #83 ), #897, .F. ) ;
#861 = SURFACE_STYLE_USAGE ( .BOTH. , #558 ) ;
#862 = VECTOR ( 'NONE', #665, 1000.000000000000000 ) ;
#863 = CARTESIAN_POINT ( 'NONE',  ( 2.787867965644039714, 2.799999999999999822, 2.500000000000000888 ) ) ;
#864 = SURFACE_STYLE_FILL_AREA ( #47 ) ;
#865 = UNCERTAINTY_MEASURE_WITH_UNIT (LENGTH_MEASURE( 1.000000000000000082E-05 ), #606, 'distance_accuracy_value', 'NONE');
#866 = ORIENTED_EDGE ( 'NONE', *, *, #131, .F. ) ;
#867 = VECTOR ( 'NONE', #236, 1000.000000000000000 ) ;
#868 = PRESENTATION_LAYER_ASSIGNMENT (  '', '', ( #742 ) ) ;
#869 = ORIENTED_EDGE ( 'NONE', *, *, #720, .F. ) ;
#870 =( NAMED_UNIT ( * ) SI_UNIT ( $, .STERADIAN. ) SOLID_ANGLE_UNIT ( ) );
#871 = EDGE_CURVE ( 'NONE', #40, #649, #683, .T. ) ;
#872 = EDGE_LOOP ( 'NONE', ( #700, #642, #609, #826 ) ) ;
#873 = UNCERTAINTY_MEASURE_WITH_UNIT (LENGTH_MEASURE( 1.000000000000000082E-05 ), #65, 'distance_accuracy_value', 'NONE');
#874 =( NAMED_UNIT ( * ) SI_UNIT ( $, .STERADIAN. ) SOLID_ANGLE_UNIT ( ) );
#875 = CARTESIAN_POINT ( 'NONE',  ( -2.850000000000000089, 2.800000000000000266, 2.350000000000000533 ) ) ;
#876 = PRESENTATION_STYLE_ASSIGNMENT (( #138 ) ) ;
#877 = ORIENTED_EDGE ( 'NONE', *, *, #677, .T. ) ;
#878 = CARTESIAN_POINT ( 'NONE',  ( 2.787867965644040602, -1.500963536563560024E-16, 2.500000000000001332 ) ) ;
#879 = PRESENTATION_LAYER_ASSIGNMENT (  '', '', ( #140 ) ) ;
#880 = VECTOR ( 'NONE', #203, 1000.000000000000000 ) ;
#881 = VECTOR ( 'NONE', #185, 1000.000000000000000 ) ;
#882 = CARTESIAN_POINT ( 'NONE',  ( -2.649999999999999911, 3.598110685731459916E-16, 2.499999999999999556 ) ) ;
#883 = LINE ( 'NONE', #824, #949 ) ;
#884 = EDGE_CURVE ( 'NONE', #649, #24, #393, .T. ) ;
#885 = VERTEX_POINT ( 'NONE', #171 ) ;
#886 = FACE_OUTER_BOUND ( 'NONE', #598, .T. ) ;
#887 = CARTESIAN_POINT ( 'NONE',  ( -2.649999999999999911, 2.799999999999999822, -2.500000000000000000 ) ) ;
#888 = ADVANCED_FACE ( 'NONE', ( #928 ), #702, .F. ) ;
#889 = FILL_AREA_STYLE_COLOUR ( '', #216 ) ;
#890 = DIRECTION ( 'NONE',  ( 1.000000000000000000, -1.965969179678056521E-16, -1.069980663104970686E-16 ) ) ;
#891 = CARTESIAN_POINT ( 'NONE',  ( -2.700000000000000178, 2.800000000000000266, 2.500000000000000000 ) ) ;
#892 =( GEOMETRIC_REPRESENTATION_CONTEXT ( 3 ) GLOBAL_UNCERTAINTY_ASSIGNED_CONTEXT ( ( #189 ) ) GLOBAL_UNIT_ASSIGNED_CONTEXT ( ( #133, #714, #59 ) ) REPRESENTATION_CONTEXT ( 'NONE', 'WORKASPACE' ) );
#893 = STYLED_ITEM ( 'NONE', ( #49 ), #888 ) ;
#894 = MECHANICAL_DESIGN_GEOMETRIC_PRESENTATION_REPRESENTATION (  '', ( #379 ), #519 ) ;
#895 = CARTESIAN_POINT ( 'NONE',  ( 2.850000000000003197, 0.1499999999999998279, -2.350000000000000089 ) ) ;
#896 = SURFACE_STYLE_USAGE ( .BOTH. , #290 ) ;
#897 = PLANE ( 'NONE',  #244 ) ;
#898 = COLOUR_RGB ( '',0.6666666666666666297, 0.6666666666666666297, 0.6666666666666666297 ) ;
#899 =( LENGTH_UNIT ( ) NAMED_UNIT ( * ) SI_UNIT ( .MILLI., .METRE. ) );
#900 = EDGE_CURVE ( 'NONE', #839, #411, #192, .T. ) ;
#901 = COLOUR_RGB ( '',0.6666666666666666297, 0.6666666666666666297, 0.6666666666666666297 ) ;
#902 =( LENGTH_UNIT ( ) NAMED_UNIT ( * ) SI_UNIT ( .MILLI., .METRE. ) );
#903 = PRESENTATION_LAYER_ASSIGNMENT (  '', '', ( #467 ) ) ;
#904 = COLOUR_RGB ( '',0.6666666666666666297, 0.6666666666666666297, 0.6666666666666666297 ) ;
#905 =( LENGTH_UNIT ( ) NAMED_UNIT ( * ) SI_UNIT ( .MILLI., .METRE. ) );
#906 = LINE ( 'NONE', #744, #862 ) ;
#907 = FILL_AREA_STYLE ('',( #103 ) ) ;
#908 = DIRECTION ( 'NONE',  ( 1.000000000000000000, 0.0000000000000000000, 0.0000000000000000000 ) ) ;
#909 = FACE_OUTER_BOUND ( 'NONE', #259, .T. ) ;
#910 = CARTESIAN_POINT ( 'NONE',  ( 2.650000000000001243, 2.799999999999999822, -2.500000000000000000 ) ) ;
#911 = CARTESIAN_POINT ( 'NONE',  ( 2.850000000000004530, -1.542279077800250622E-16, 2.500000000000000444 ) ) ;
#912 = FILL_AREA_STYLE ('',( #214 ) ) ;
#913 = AXIS2_PLACEMENT_3D ( 'NONE', #775, #322, #470 ) ;
#914 = MECHANICAL_DESIGN_GEOMETRIC_PRESENTATION_REPRESENTATION (  '', ( #655 ), #817 ) ;
#915 = DIRECTION ( 'NONE',  ( -0.0000000000000000000, -1.000000000000000000, -0.0000000000000000000 ) ) ;
#916 = DIRECTION ( 'NONE',  ( -1.000000000000000000, 0.0000000000000000000, 0.0000000000000000000 ) ) ;
#917 = EDGE_CURVE ( 'NONE', #922, #40, #475, .T. ) ;
#918 = PRESENTATION_LAYER_ASSIGNMENT (  '', '', ( #789 ) ) ;
#919 = SURFACE_STYLE_USAGE ( .BOTH. , #183 ) ;
#920 = UNCERTAINTY_MEASURE_WITH_UNIT (LENGTH_MEASURE( 1.000000000000000082E-05 ), #675, 'distance_accuracy_value', 'NONE');
#921 = VECTOR ( 'NONE', #233, 1000.000000000000000 ) ;
#922 = VERTEX_POINT ( 'NONE', #553 ) ;
#923 =( LENGTH_UNIT ( ) NAMED_UNIT ( * ) SI_UNIT ( .MILLI., .METRE. ) );
#924 = DIRECTION ( 'NONE',  ( -1.000000000000000000, 0.0000000000000000000, 2.891205793294679017E-15 ) ) ;
#925 =( LENGTH_UNIT ( ) NAMED_UNIT ( * ) SI_UNIT ( .MILLI., .METRE. ) );
#926 = DIRECTION ( 'NONE',  ( 1.069980663104970686E-16, 4.263016111292985824E-31, 1.000000000000000000 ) ) ;
#927 = CARTESIAN_POINT ( 'NONE',  ( 2.700000000000003730, -1.572550347587538830E-16, 1.156525366665434036E-17 ) ) ;
#928 = FACE_OUTER_BOUND ( 'NONE', #177, .T. ) ;
#929 = VERTEX_POINT ( 'NONE', #759 ) ;
#930 = PRESENTATION_LAYER_ASSIGNMENT (  '', '', ( #110 ) ) ;
#931 = FACE_OUTER_BOUND ( 'NONE', #2, .T. ) ;
#932 = STYLED_ITEM ( 'NONE', ( #350 ), #794 ) ;
#933 = CARTESIAN_POINT ( 'NONE',  ( -2.700000000000010392, 2.800000000000000266, -2.350000000000000533 ) ) ;
#934 = CARTESIAN_POINT ( 'NONE',  ( 2.850000000000003197, -1.542279077800250622E-16, -2.499999999999999556 ) ) ;
#935 = MECHANICAL_DESIGN_GEOMETRIC_PRESENTATION_REPRESENTATION (  '', ( #742 ), #685 ) ;
#936 =( NAMED_UNIT ( * ) SI_UNIT ( $, .STERADIAN. ) SOLID_ANGLE_UNIT ( ) );
#937 = EDGE_LOOP ( 'NONE', ( #165, #482, #711, #179 ) ) ;
#938 = VECTOR ( 'NONE', #224, 1000.000000000000000 ) ;
#939 = CARTESIAN_POINT ( 'NONE',  ( -2.649999999999999911, 2.799999999999999822, -2.500000000000000000 ) ) ;
#940 = DIRECTION ( 'NONE',  ( -1.000000000000000000, 0.0000000000000000000, 0.0000000000000000000 ) ) ;
#941 = UNCERTAINTY_MEASURE_WITH_UNIT (LENGTH_MEASURE( 1.000000000000000082E-05 ), #923, 'distance_accuracy_value', 'NONE');
#942 = ORIENTED_EDGE ( 'NONE', *, *, #149, .F. ) ;
#943 = APPLICATION_CONTEXT ( 'automotive_design' ) ;
#944 = DIRECTION ( 'NONE',  ( -1.000000000000000000, 0.0000000000000000000, 0.0000000000000000000 ) ) ;
#945 = ORIENTED_EDGE ( 'NONE', *, *, #917, .F. ) ;
#946 = STYLED_ITEM ( 'NONE', ( #532 ), #808 ) ;
#947 = ORIENTED_EDGE ( 'NONE', *, *, #345, .F. ) ;
#948 = SURFACE_STYLE_USAGE ( .BOTH. , #498 ) ;
#949 = VECTOR ( 'NONE', #664, 1000.000000000000000 ) ;
#950 = ORIENTED_EDGE ( 'NONE', *, *, #504, .F. ) ;
#951 = VECTOR ( 'NONE', #433, 1000.000000000000000 ) ;
#952 = AXIS2_PLACEMENT_3D ( 'NONE', #199, #194, #343 ) ;
#953 = COLOUR_RGB ( '',0.6666666666666666297, 0.6666666666666666297, 0.6666666666666666297 ) ;
#954 =( LENGTH_UNIT ( ) NAMED_UNIT ( * ) SI_UNIT ( .MILLI., .METRE. ) );
#955 =( NAMED_UNIT ( * ) SI_UNIT ( $, .STERADIAN. ) SOLID_ANGLE_UNIT ( ) );
#956 = ORIENTED_EDGE ( 'NONE', *, *, #495, .F. ) ;
#957 = DIRECTION ( 'NONE',  ( -1.069980663104970686E-16, -4.263016111292985824E-31, -1.000000000000000000 ) ) ;
#958 = ADVANCED_FACE ( 'NONE', ( #857 ), #780, .T. ) ;
#959 =( BOUNDED_CURVE ( )  B_SPLINE_CURVE ( 3, ( #562, #797, #878, #491 ),
 .UNSPECIFIED., .F., .T. ) 
 B_SPLINE_CURVE_WITH_KNOTS ( ( 4, 4 ),
 ( 1.570796326794895226, 3.141592653589793116 ),
 .UNSPECIFIED. ) 
 CURVE ( )  GEOMETRIC_REPRESENTATION_ITEM ( )  RATIONAL_B_SPLINE_CURVE ( ( 1.000000000000000000, 0.8047378541243646044, 0.8047378541243646044, 1.000000000000000000 ) ) 
 REPRESENTATION_ITEM ( '' )  );
#960 =( LENGTH_UNIT ( ) NAMED_UNIT ( * ) SI_UNIT ( .MILLI., .METRE. ) );
#961 = UNCERTAINTY_MEASURE_WITH_UNIT (LENGTH_MEASURE( 1.000000000000000082E-05 ), #265, 'distance_accuracy_value', 'NONE');
#962 = FILL_AREA_STYLE_COLOUR ( '', #595 ) ;
#963 = ADVANCED_FACE ( 'NONE', ( #331 ), #647, .T. ) ;
#964 = CARTESIAN_POINT ( 'NONE',  ( 2.650000000000003020, 2.799999999999999822, 2.500000000000000000 ) ) ;
#965 = SURFACE_STYLE_FILL_AREA ( #276 ) ;
#966 = AXIS2_PLACEMENT_3D ( 'NONE', #704, #926, #614 ) ;
#967 = DIRECTION ( 'NONE',  ( 2.275402411281505148E-15, 0.0000000000000000000, 1.000000000000000000 ) ) ;
ENDSEC;
END-ISO-10303-21;
