ISO-10303-21;
HEADER;
FILE_DESCRIPTION (( 'STEP AP214' ),
    '1' );
FILE_NAME ('电容 MHT400V120UF87EC0448.STEP',
    '2026-04-07T03:56:34',
    ( '' ),
    ( '' ),
    'SwSTEP 2.0',
    'SolidWorks 2022',
    '' );
FILE_SCHEMA (( 'AUTOMOTIVE_DESIGN' ));
ENDSEC;

DATA;
#1 = ORIENTED_EDGE ( 'NONE', *, *, #190, .F. ) ;
#2 = VERTEX_POINT ( 'NONE', #5 ) ;
#3 = CARTESIAN_POINT ( 'NONE',  ( -43.00000000000000000, -5.265981236333617682E-15, 0.000000000000000000 ) ) ;
#4 = DIRECTION ( 'NONE',  ( -0.000000000000000000, 0.000000000000000000, -1.000000000000000000 ) ) ;
#5 = CARTESIAN_POINT ( 'NONE',  ( -3.745355992499962205, -6.233333333333368032, 7.633631714685210422E-16 ) ) ;
#6 = ADVANCED_FACE ( 'NONE', ( #263 ), #540, .T. ) ;
#7 = DIRECTION ( 'NONE',  ( -1.000000000000000000, -0.000000000000000000, 0.000000000000000000 ) ) ;
#8 = DIRECTION ( 'NONE',  ( -0.000000000000000000, -1.000000000000000000, 0.000000000000000000 ) ) ;
#9 = DIRECTION ( 'NONE',  ( 1.000000000000000000, 1.224646799147353207E-16, -0.000000000000000000 ) ) ;
#10 = ORIENTED_EDGE ( 'NONE', *, *, #95, .T. ) ;
#11 = EDGE_CURVE ( 'NONE', #730, #246, #774, .T. ) ;
#12 = AXIS2_PLACEMENT_3D ( 'NONE', #279, #476, #624 ) ;
#13 = FACE_OUTER_BOUND ( 'NONE', #449, .T. ) ;
#14 = CARTESIAN_POINT ( 'NONE',  ( 1.999999999999999556, -2.500000000000000000, 1.499999999999999556 ) ) ;
#15 = DIRECTION ( 'NONE',  ( 1.000000000000000000, 1.224646799147353207E-16, -0.000000000000000000 ) ) ;
#16 = AXIS2_PLACEMENT_3D ( 'NONE', #219, #482, #813 ) ;
#17 = AXIS2_PLACEMENT_3D ( 'NONE', #188, #466, #396 ) ;
#18 = AXIS2_PLACEMENT_3D ( 'NONE', #490, #417, #632 ) ;
#19 = CARTESIAN_POINT ( 'NONE',  ( -2.254644007500034686, 9.127978304403795129E-17, 0.000000000000000000 ) ) ;
#20 = FACE_OUTER_BOUND ( 'NONE', #839, .T. ) ;
#21 = FACE_OUTER_BOUND ( 'NONE', #767, .T. ) ;
#22 = ORIENTED_EDGE ( 'NONE', *, *, #374, .T. ) ;
#23 = CARTESIAN_POINT ( 'NONE',  ( -0.4999999999999996669, -6.123233995736762338E-17, 0.000000000000000000 ) ) ;
#24 =( LENGTH_UNIT ( ) NAMED_UNIT ( * ) SI_UNIT ( .MILLI., .METRE. ) );
#25 = FACE_OUTER_BOUND ( 'NONE', #758, .T. ) ;
#26 = EDGE_CURVE ( 'NONE', #362, #584, #598, .T. ) ;
#27 = CARTESIAN_POINT ( 'NONE',  ( -3.745355992499963094, -9.127978304403803757E-17, 0.000000000000000000 ) ) ;
#28 = DIRECTION ( 'NONE',  ( 1.355252715606881529E-16, -1.000000000000000000, 0.000000000000000000 ) ) ;
#29 = CARTESIAN_POINT ( 'NONE',  ( 0.000000000000000000, -2.500000000000000000, 0.000000000000000000 ) ) ;
#30 = VECTOR ( 'NONE', #174, 1000.000000000000000 ) ;
#31 = AXIS2_PLACEMENT_3D ( 'NONE', #723, #609, #63 ) ;
#32 = AXIS2_PLACEMENT_3D ( 'NONE', #671, #8, #181 ) ;
#33 = DIRECTION ( 'NONE',  ( 1.000000000000000000, 1.224646799147353207E-16, -0.000000000000000000 ) ) ;
#34 = FILL_AREA_STYLE_COLOUR ( '', #312 ) ;
#35 = ADVANCED_FACE ( 'NONE', ( #628 ), #570, .T. ) ;
#36 = ORIENTED_EDGE ( 'NONE', *, *, #11, .F. ) ;
#37 = DIRECTION ( 'NONE',  ( 1.020425574104004122E-16, 0.000000000000000000, 1.000000000000000000 ) ) ;
#38 = CARTESIAN_POINT ( 'NONE',  ( -2.254644007500034686, 9.127978304403795129E-17, 0.000000000000000000 ) ) ;
#39 = ORIENTED_EDGE ( 'NONE', *, *, #374, .F. ) ;
#40 = CARTESIAN_POINT ( 'NONE',  ( -42.49999999999999289, -5.204748896376250107E-15, 0.000000000000000000 ) ) ;
#41 = DIRECTION ( 'NONE',  ( -1.000000000000000000, 0.000000000000000000, 0.000000000000000000 ) ) ;
#42 = ORIENTED_EDGE ( 'NONE', *, *, #803, .T. ) ;
#43 = CIRCLE ( 'NONE', #436, 1.200000000000000178 ) ;
#44 = CIRCLE ( 'NONE', #545, 5.899999999999997691 ) ;
#45 = TOROIDAL_SURFACE ( 'NONE', #32, 1.500000000000000000, 0.2999999999999999334 ) ;
#46 = ORIENTED_EDGE ( 'NONE', *, *, #731, .T. ) ;
#47 = DIRECTION ( 'NONE',  ( -0.000000000000000000, -0.000000000000000000, -1.000000000000000000 ) ) ;
#48 = DIRECTION ( 'NONE',  ( 1.020425574104004122E-16, 0.000000000000000000, 1.000000000000000000 ) ) ;
#49 = ADVANCED_FACE ( 'NONE', ( #266 ), #409, .T. ) ;
#50 = CARTESIAN_POINT ( 'NONE',  ( -0.4999999999999989453, -6.399999999999995026, 7.837739514543054018E-16 ) ) ;
#51 = ORIENTED_EDGE ( 'NONE', *, *, #643, .T. ) ;
#52 = ORIENTED_EDGE ( 'NONE', *, *, #394, .T. ) ;
#53 = ORIENTED_EDGE ( 'NONE', *, *, #777, .F. ) ;
#54 = DIRECTION ( 'NONE',  ( 1.000000000000000000, 0.000000000000000000, 0.000000000000000000 ) ) ;
#55 = ORIENTED_EDGE ( 'NONE', *, *, #142, .T. ) ;
#56 = VERTEX_POINT ( 'NONE', #210 ) ;
#57 = AXIS2_PLACEMENT_3D ( 'NONE', #317, #727, #519 ) ;
#58 = TOROIDAL_SURFACE ( 'NONE', #290, 5.900000000000023448, 0.5000000000000000000 ) ;
#59 = DIRECTION ( 'NONE',  ( 1.000000000000000000, 1.224646799147353207E-16, -0.000000000000000000 ) ) ;
#60 = ORIENTED_EDGE ( 'NONE', *, *, #282, .T. ) ;
#61 = EDGE_CURVE ( 'NONE', #730, #128, #43, .T. ) ;
#62 = SHAPE_DEFINITION_REPRESENTATION ( #276, #118 ) ;
#63 = DIRECTION ( 'NONE',  ( 0.000000000000000000, -1.000000000000000000, 0.000000000000000000 ) ) ;
#64 = EDGE_LOOP ( 'NONE', ( #156, #838 ) ) ;
#65 = ORIENTED_EDGE ( 'NONE', *, *, #827, .T. ) ;
#66 = FACE_OUTER_BOUND ( 'NONE', #92, .T. ) ;
#67 = ADVANCED_FACE ( 'NONE', ( #152 ), #337, .T. ) ;
#68 = ORIENTED_EDGE ( 'NONE', *, *, #388, .F. ) ;
#69 = CIRCLE ( 'NONE', #674, 5.899999999999994138 ) ;
#70 = FACE_OUTER_BOUND ( 'NONE', #134, .T. ) ;
#71 = EDGE_LOOP ( 'NONE', ( #525, #302, #255, #439 ) ) ;
#72 = EDGE_CURVE ( 'NONE', #634, #194, #268, .T. ) ;
#73 = DIRECTION ( 'NONE',  ( -0.000000000000000000, 0.000000000000000000, -1.000000000000000000 ) ) ;
#74 = CARTESIAN_POINT ( 'NONE',  ( -0.4999999999999996669, -6.123233995736762338E-17, 0.000000000000000000 ) ) ;
#75 = CARTESIAN_POINT ( 'NONE',  ( -2.999999999999998224, -1.499759782661858429E-32, 0.000000000000000000 ) ) ;
#76 = DIRECTION ( 'NONE',  ( 1.000000000000000000, 0.000000000000000000, 0.000000000000000000 ) ) ;
#77 = CARTESIAN_POINT ( 'NONE',  ( 0.4999999999999987232, 2.500000000000000000, 0.2999999999999999334 ) ) ;
#78 = DIRECTION ( 'NONE',  ( 0.000000000000000000, -1.000000000000000000, 1.224646799147351482E-16 ) ) ;
#79 = CYLINDRICAL_SURFACE ( 'NONE', #352, 6.399999999999995026 ) ;
#80 = TOROIDAL_SURFACE ( 'NONE', #241, 5.899999999999997691, 0.5000000000000000000 ) ;
#81 = ADVANCED_FACE ( 'NONE', ( #492 ), #79, .T. ) ;
#82 = DIRECTION ( 'NONE',  ( 0.000000000000000000, 0.000000000000000000, -1.000000000000000000 ) ) ;
#83 = DIRECTION ( 'NONE',  ( -0.000000000000000000, -1.000000000000000000, -0.000000000000000000 ) ) ;
#84 = CARTESIAN_POINT ( 'NONE',  ( -4.118033988749978391, -5.043137143102668889E-16, 0.000000000000000000 ) ) ;
#85 = FACE_OUTER_BOUND ( 'NONE', #707, .T. ) ;
#86 = CARTESIAN_POINT ( 'NONE',  ( 0.4999999999999987232, 2.500000000000000000, 1.500000000000000000 ) ) ;
#87 = EDGE_CURVE ( 'NONE', #128, #848, #484, .T. ) ;
#88 = AXIS2_PLACEMENT_3D ( 'NONE', #574, #506, #164 ) ;
#89 = CIRCLE ( 'NONE', #18, 5.899999999999995914 ) ;
#90 = LINE ( 'NONE', #844, #398 ) ;
#91 = ORIENTED_EDGE ( 'NONE', *, *, #366, .T. ) ;
#92 = EDGE_LOOP ( 'NONE', ( #159, #36, #102, #232 ) ) ;
#93 = EDGE_LOOP ( 'NONE', ( #521, #191, #267, #169 ) ) ;
#94 = ORIENTED_EDGE ( 'NONE', *, *, #206, .T. ) ;
#95 = EDGE_CURVE ( 'NONE', #652, #360, #847, .T. ) ;
#96 = CARTESIAN_POINT ( 'NONE',  ( 1.999999999999999556, 2.500000000000000000, 10.00000000000000000 ) ) ;
#97 = AXIS2_PLACEMENT_3D ( 'NONE', #358, #237, #582 ) ;
#98 = CIRCLE ( 'NONE', #272, 0.5000000000000004441 ) ;
#99 = ORIENTED_EDGE ( 'NONE', *, *, #643, .F. ) ;
#100 = EDGE_CURVE ( 'NONE', #2, #56, #184, .T. ) ;
#101 = DIRECTION ( 'NONE',  ( -1.000000000000000000, 0.000000000000000000, 0.000000000000000000 ) ) ;
#102 = ORIENTED_EDGE ( 'NONE', *, *, #61, .T. ) ;
#103 = ORIENTED_EDGE ( 'NONE', *, *, #334, .F. ) ;
#104 = ORIENTED_EDGE ( 'NONE', *, *, #861, .F. ) ;
#105 = DIRECTION ( 'NONE',  ( 0.000000000000000000, -0.000000000000000000, -1.000000000000000000 ) ) ;
#106 = DIRECTION ( 'NONE',  ( 0.000000000000000000, 0.000000000000000000, -1.000000000000000000 ) ) ;
#107 = EDGE_LOOP ( 'NONE', ( #198, #330, #655, #599 ) ) ;
#108 = ORIENTED_EDGE ( 'NONE', *, *, #154, .T. ) ;
#109 = FACE_OUTER_BOUND ( 'NONE', #199, .T. ) ;
#110 = CARTESIAN_POINT ( 'NONE',  ( -0.5000000000000004441, 5.899999999999995914, 0.000000000000000000 ) ) ;
#111 = VERTEX_POINT ( 'NONE', #149 ) ;
#112 = EDGE_CURVE ( 'NONE', #665, #223, #686, .T. ) ;
#113 = AXIS2_PLACEMENT_3D ( 'NONE', #138, #333, #812 ) ;
#114 = EDGE_LOOP ( 'NONE', ( #236, #679, #178, #846 ) ) ;
#115 = VECTOR ( 'NONE', #419, 1000.000000000000000 ) ;
#116 = CIRCLE ( 'NONE', #659, 6.399999999999995026 ) ;
#117 = EDGE_LOOP ( 'NONE', ( #68, #601, #326, #577 ) ) ;
#118 = ADVANCED_BREP_SHAPE_REPRESENTATION ( '\X2\75355bb9\X0\ MHT400V120UF87EC0448', ( #270, #158 ), #823 ) ;
#119 = EDGE_CURVE ( 'NONE', #246, #471, #544, .T. ) ;
#120 = ORIENTED_EDGE ( 'NONE', *, *, #783, .T. ) ;
#121 = DIRECTION ( 'NONE',  ( 0.000000000000000000, -1.000000000000000000, 0.000000000000000000 ) ) ;
#122 = DIRECTION ( 'NONE',  ( 0.000000000000000000, 0.000000000000000000, -1.000000000000000000 ) ) ;
#123 = VERTEX_POINT ( 'NONE', #806 ) ;
#124 = EDGE_LOOP ( 'NONE', ( #42, #699, #517, #568 ) ) ;
#125 = EDGE_CURVE ( 'NONE', #111, #380, #656, .T. ) ;
#126 = FILL_AREA_STYLE ('',( #465 ) ) ;
#127 = CARTESIAN_POINT ( 'NONE',  ( 0.000000000000000000, -2.500000000000000000, -0.2999999999999999334 ) ) ;
#128 = VERTEX_POINT ( 'NONE', #348 ) ;
#129 = AXIS2_PLACEMENT_3D ( 'NONE', #694, #479, #678 ) ;
#130 = AXIS2_PLACEMENT_3D ( 'NONE', #27, #341, #493 ) ;
#131 = AXIS2_PLACEMENT_3D ( 'NONE', #110, #315, #318 ) ;
#132 = CARTESIAN_POINT ( 'NONE',  ( -43.00000000000000000, -5.265981236333618470E-15, 0.000000000000000000 ) ) ;
#133 = ADVANCED_FACE ( 'NONE', ( #21 ), #351, .T. ) ;
#134 = EDGE_LOOP ( 'NONE', ( #773, #376, #391, #459 ) ) ;
#135 = VERTEX_POINT ( 'NONE', #77 ) ;
#136 = CARTESIAN_POINT ( 'NONE',  ( -2.254644007500033798, -6.233333333333365367, 7.633631714685208450E-16 ) ) ;
#137 = CARTESIAN_POINT ( 'NONE',  ( -43.00000000000000000, -5.900000000000002132, 0.000000000000000000 ) ) ;
#138 = CARTESIAN_POINT ( 'NONE',  ( 0.000000000000000000, 0.000000000000000000, 0.000000000000000000 ) ) ;
#139 = DIRECTION ( 'NONE',  ( 1.000000000000000000, 0.000000000000000000, 0.000000000000000000 ) ) ;
#140 = DIRECTION ( 'NONE',  ( -1.000000000000000000, -1.224646799147353207E-16, 0.000000000000000000 ) ) ;
#141 = CARTESIAN_POINT ( 'NONE',  ( 0.000000000000000000, 0.000000000000000000, 0.000000000000000000 ) ) ;
#142 = EDGE_CURVE ( 'NONE', #702, #135, #790, .T. ) ;
#143 = AXIS2_PLACEMENT_3D ( 'NONE', #405, #204, #418 ) ;
#144 = CARTESIAN_POINT ( 'NONE',  ( -2.999999999999998224, -1.499759782661858429E-32, 0.000000000000000000 ) ) ;
#145 = CARTESIAN_POINT ( 'NONE',  ( -1.881966011250020943, -2.304743651781449861E-16, 0.000000000000000000 ) ) ;
#146 = DIRECTION ( 'NONE',  ( -1.000000000000000000, -0.000000000000000000, -1.020425574104004122E-16 ) ) ;
#147 = AXIS2_PLACEMENT_3D ( 'NONE', #622, #83, #739 ) ;
#148 = FACE_OUTER_BOUND ( 'NONE', #673, .T. ) ;
#149 = CARTESIAN_POINT ( 'NONE',  ( -42.49999999999999289, 6.399999999999992362, 0.000000000000000000 ) ) ;
#150 = CARTESIAN_POINT ( 'NONE',  ( 0.000000000000000000, 2.500000000000000000, 0.000000000000000000 ) ) ;
#151 = ADVANCED_FACE ( 'NONE', ( #25 ), #641, .F. ) ;
#152 = FACE_OUTER_BOUND ( 'NONE', #571, .T. ) ;
#153 =( NAMED_UNIT ( * ) PLANE_ANGLE_UNIT ( ) SI_UNIT ( $, .RADIAN. ) );
#154 = EDGE_CURVE ( 'NONE', #223, #665, #748, .T. ) ;
#155 = CIRCLE ( 'NONE', #514, 0.5000000000000004441 ) ;
#156 = ORIENTED_EDGE ( 'NONE', *, *, #434, .T. ) ;
#157 = AXIS2_PLACEMENT_3D ( 'NONE', #480, #211, #709 ) ;
#158 = AXIS2_PLACEMENT_3D ( 'NONE', #175, #446, #248 ) ;
#159 = ORIENTED_EDGE ( 'NONE', *, *, #119, .F. ) ;
#160 = DIRECTION ( 'NONE',  ( -1.000000000000000000, -1.224646799147353207E-16, 0.000000000000000000 ) ) ;
#161 = FILL_AREA_STYLE ('',( #34 ) ) ;
#162 = ORIENTED_EDGE ( 'NONE', *, *, #752, .F. ) ;
#163 = ORIENTED_EDGE ( 'NONE', *, *, #827, .F. ) ;
#164 = DIRECTION ( 'NONE',  ( 0.000000000000000000, 0.000000000000000000, -1.000000000000000000 ) ) ;
#165 = ORIENTED_EDGE ( 'NONE', *, *, #475, .T. ) ;
#166 = EDGE_LOOP ( 'NONE', ( #207, #182, #60, #546 ) ) ;
#167 = CIRCLE ( 'NONE', #749, 0.2999999999999999334 ) ;
#168 = AXIS2_PLACEMENT_3D ( 'NONE', #650, #48, #54 ) ;
#169 = ORIENTED_EDGE ( 'NONE', *, *, #366, .F. ) ;
#170 = VERTEX_POINT ( 'NONE', #644 ) ;
#171 = CIRCLE ( 'NONE', #676, 1.000000000000000888 ) ;
#172 = DIRECTION ( 'NONE',  ( -1.000000000000000000, 0.000000000000000000, 0.000000000000000000 ) ) ;
#173 = ORIENTED_EDGE ( 'NONE', *, *, #731, .F. ) ;
#174 = DIRECTION ( 'NONE',  ( 1.020425574104004122E-16, 0.000000000000000000, 1.000000000000000000 ) ) ;
#175 = CARTESIAN_POINT ( 'NONE',  ( 0.000000000000000000, 0.000000000000000000, 0.000000000000000000 ) ) ;
#176 = CARTESIAN_POINT ( 'NONE',  ( 0.4999999999999987232, 2.500000000000000000, 0.000000000000000000 ) ) ;
#177 = EDGE_CURVE ( 'NONE', #380, #768, #863, .T. ) ;
#178 = ORIENTED_EDGE ( 'NONE', *, *, #554, .F. ) ;
#179 = DIRECTION ( 'NONE',  ( 0.000000000000000000, 0.000000000000000000, -1.000000000000000000 ) ) ;
#180 = PRODUCT_CONTEXT ( 'NONE', #615, 'mechanical' ) ;
#181 = DIRECTION ( 'NONE',  ( 0.000000000000000000, 0.000000000000000000, -1.000000000000000000 ) ) ;
#182 = ORIENTED_EDGE ( 'NONE', *, *, #87, .T. ) ;
#183 = ADVANCED_FACE ( 'NONE', ( #649 ), #355, .T. ) ;
#184 = CIRCLE ( 'NONE', #200, 6.233333333333368920 ) ;
#185 = AXIS2_PLACEMENT_3D ( 'NONE', #96, #435, #534 ) ;
#186 = CIRCLE ( 'NONE', #300, 6.399999999999995026 ) ;
#187 = DIRECTION ( 'NONE',  ( -1.224646799147353207E-16, 1.000000000000000000, 0.000000000000000000 ) ) ;
#188 = CARTESIAN_POINT ( 'NONE',  ( 0.4999999999999987232, -2.500000000000000000, 1.500000000000000000 ) ) ;
#189 = ORIENTED_EDGE ( 'NONE', *, *, #361, .T. ) ;
#190 = EDGE_CURVE ( 'NONE', #640, #848, #602, .T. ) ;
#191 = ORIENTED_EDGE ( 'NONE', *, *, #752, .T. ) ;
#192 = CARTESIAN_POINT ( 'NONE',  ( 0.000000000000000000, 2.500000000000000000, 0.000000000000000000 ) ) ;
#193 = CARTESIAN_POINT ( 'NONE',  ( -2.999999999999999112, 6.899999999999995026, 0.000000000000000000 ) ) ;
#194 = VERTEX_POINT ( 'NONE', #429 ) ;
#195 = EDGE_LOOP ( 'NONE', ( #585, #788, #305, #293 ) ) ;
#196 = ADVANCED_FACE ( 'NONE', ( #779 ), #224, .T. ) ;
#197 = CARTESIAN_POINT ( 'NONE',  ( 0.000000000000000000, 2.500000000000000000, -0.2999999999999999334 ) ) ;
#198 = ORIENTED_EDGE ( 'NONE', *, *, #142, .F. ) ;
#199 = EDGE_LOOP ( 'NONE', ( #397, #781, #51, #55 ) ) ;
#200 = AXIS2_PLACEMENT_3D ( 'NONE', #343, #287, #416 ) ;
#201 = AXIS2_PLACEMENT_3D ( 'NONE', #132, #799, #528 ) ;
#202 = STYLED_ITEM ( 'NONE', ( #856 ), #118 ) ;
#203 = EDGE_CURVE ( 'NONE', #360, #2, #775, .T. ) ;
#204 = DIRECTION ( 'NONE',  ( 1.499759782661857608E-32, -1.224646799147353207E-16, 1.000000000000000000 ) ) ;
#205 = CARTESIAN_POINT ( 'NONE',  ( 1.999999999999998668, 2.500000000000000000, 1.499999999999999556 ) ) ;
#206 = EDGE_CURVE ( 'NONE', #440, #360, #487, .T. ) ;
#207 = ORIENTED_EDGE ( 'NONE', *, *, #537, .F. ) ;
#208 = FACE_OUTER_BOUND ( 'NONE', #114, .T. ) ;
#209 = DIRECTION ( 'NONE',  ( -1.000000000000000000, -1.224646799147353207E-16, 0.000000000000000000 ) ) ;
#210 = CARTESIAN_POINT ( 'NONE',  ( -3.745355992499963982, 6.233333333333368032, 0.000000000000000000 ) ) ;
#211 = DIRECTION ( 'NONE',  ( 0.000000000000000000, 0.000000000000000000, -1.000000000000000000 ) ) ;
#212 = AXIS2_PLACEMENT_3D ( 'NONE', #701, #37, #764 ) ;
#213 = DIRECTION ( 'NONE',  ( -1.185846126156021461E-16, 1.000000000000000000, 0.000000000000000000 ) ) ;
#214 = DIRECTION ( 'NONE',  ( 0.000000000000000000, -0.000000000000000000, -1.000000000000000000 ) ) ;
#215 = DIRECTION ( 'NONE',  ( 1.000000000000000000, 1.224646799147353207E-16, -0.000000000000000000 ) ) ;
#216 = VECTOR ( 'NONE', #33, 1000.000000000000000 ) ;
#217 = AXIS2_PLACEMENT_3D ( 'NONE', #483, #552, #291 ) ;
#218 = EDGE_CURVE ( 'NONE', #194, #730, #90, .T. ) ;
#219 = CARTESIAN_POINT ( 'NONE',  ( -2.999999999999998224, 0.000000000000000000, 0.000000000000000000 ) ) ;
#220 = DIRECTION ( 'NONE',  ( -1.224646799147353207E-16, 1.000000000000000000, 0.000000000000000000 ) ) ;
#221 = ORIENTED_EDGE ( 'NONE', *, *, #497, .F. ) ;
#222 = FACE_OUTER_BOUND ( 'NONE', #107, .T. ) ;
#223 = VERTEX_POINT ( 'NONE', #569 ) ;
#224 = CYLINDRICAL_SURFACE ( 'NONE', #864, 6.399999999999995026 ) ;
#225 = FACE_OUTER_BOUND ( 'NONE', #166, .T. ) ;
#226 = STYLED_ITEM ( 'NONE', ( #567 ), #270 ) ;
#227 = CIRCLE ( 'NONE', #724, 1.800000000000000044 ) ;
#228 = VERTEX_POINT ( 'NONE', #578 ) ;
#229 =( NAMED_UNIT ( * ) SI_UNIT ( $, .STERADIAN. ) SOLID_ANGLE_UNIT ( ) );
#230 = FACE_OUTER_BOUND ( 'NONE', #729, .T. ) ;
#231 = EDGE_LOOP ( 'NONE', ( #648, #104, #165, #402 ) ) ;
#232 = ORIENTED_EDGE ( 'NONE', *, *, #537, .T. ) ;
#233 = SURFACE_STYLE_USAGE ( .BOTH. , #292 ) ;
#234 = CARTESIAN_POINT ( 'NONE',  ( -2.999999999999998224, 0.000000000000000000, 0.000000000000000000 ) ) ;
#235 = EDGE_CURVE ( 'NONE', #726, #750, #167, .T. ) ;
#236 = ORIENTED_EDGE ( 'NONE', *, *, #803, .F. ) ;
#237 = DIRECTION ( 'NONE',  ( -1.499759782661857608E-32, 1.224646799147353207E-16, 1.000000000000000000 ) ) ;
#238 = DIRECTION ( 'NONE',  ( -0.000000000000000000, -0.000000000000000000, -1.000000000000000000 ) ) ;
#239 = ORIENTED_EDGE ( 'NONE', *, *, #394, .F. ) ;
#240 = AXIS2_PLACEMENT_3D ( 'NONE', #150, #745, #489 ) ;
#241 = AXIS2_PLACEMENT_3D ( 'NONE', #332, #390, #667 ) ;
#242 = CIRCLE ( 'NONE', #301, 0.2999999999999999334 ) ;
#243 = EDGE_LOOP ( 'NONE', ( #372, #576, #526, #99 ) ) ;
#244 = EDGE_CURVE ( 'NONE', #467, #111, #642, .T. ) ;
#245 = CARTESIAN_POINT ( 'NONE',  ( 1.999999999999999556, 2.500000000000000000, 10.00000000000000000 ) ) ;
#246 = VERTEX_POINT ( 'NONE', #828 ) ;
#247 = FACE_OUTER_BOUND ( 'NONE', #581, .T. ) ;
#248 = DIRECTION ( 'NONE',  ( 1.000000000000000000, 0.000000000000000000, 0.000000000000000000 ) ) ;
#249 = CARTESIAN_POINT ( 'NONE',  ( 7.837739514543057962E-16, -6.399999999999997691, 7.837739514543057962E-16 ) ) ;
#250 = CARTESIAN_POINT ( 'NONE',  ( 0.4999999999999987232, -2.500000000000000000, 0.000000000000000000 ) ) ;
#251 = CYLINDRICAL_SURFACE ( 'NONE', #807, 0.2999999999999999334 ) ;
#252 = ORIENTED_EDGE ( 'NONE', *, *, #235, .F. ) ;
#253 = ADVANCED_FACE ( 'NONE', ( #222 ), #256, .T. ) ;
#254 = AXIS2_PLACEMENT_3D ( 'NONE', #556, #610, #818 ) ;
#255 = ORIENTED_EDGE ( 'NONE', *, *, #618, .F. ) ;
#256 = TOROIDAL_SURFACE ( 'NONE', #697, 1.500000000000000000, 0.2999999999999999334 ) ;
#257 = AXIS2_PLACEMENT_3D ( 'NONE', #335, #684, #78 ) ;
#258 = LINE ( 'NONE', #784, #30 ) ;
#259 = DIRECTION ( 'NONE',  ( -1.000000000000000000, 0.000000000000000000, 0.000000000000000000 ) ) ;
#260 = ORIENTED_EDGE ( 'NONE', *, *, #666, .T. ) ;
#261 =( NAMED_UNIT ( * ) PLANE_ANGLE_UNIT ( ) SI_UNIT ( $, .RADIAN. ) );
#262 = DIRECTION ( 'NONE',  ( -1.185846126156021461E-16, 1.000000000000000000, 0.000000000000000000 ) ) ;
#263 = FACE_OUTER_BOUND ( 'NONE', #625, .T. ) ;
#264 = DIRECTION ( 'NONE',  ( -1.020425574104004122E-16, 0.000000000000000000, 1.000000000000000000 ) ) ;
#265 = DIRECTION ( 'NONE',  ( 1.499759782661857608E-32, -1.224646799147353207E-16, 1.000000000000000000 ) ) ;
#266 = FACE_OUTER_BOUND ( 'NONE', #496, .T. ) ;
#267 = ORIENTED_EDGE ( 'NONE', *, *, #154, .F. ) ;
#268 = CIRCLE ( 'NONE', #512, 0.2999999999999999334 ) ;
#269 = CIRCLE ( 'NONE', #288, 0.2999999999999999334 ) ;
#270 = MANIFOLD_SOLID_BREP ( '镜向1', #283 ) ;
#271 = ADVANCED_FACE ( 'NONE', ( #432 ), #771, .F. ) ;
#272 = AXIS2_PLACEMENT_3D ( 'NONE', #470, #265, #542 ) ;
#273 = CYLINDRICAL_SURFACE ( 'NONE', #547, 0.2999999999999999334 ) ;
#274 = DIRECTION ( 'NONE',  ( -1.000000000000000000, 0.000000000000000000, -1.020425574104004122E-16 ) ) ;
#275 = DIRECTION ( 'NONE',  ( -1.470104640658312480E-16, 1.000000000000000000, 0.000000000000000000 ) ) ;
#276 = PRODUCT_DEFINITION_SHAPE ( 'NONE', 'NONE',  #441 ) ;
#277 = DIRECTION ( 'NONE',  ( -1.000000000000000000, -1.224646799147353207E-16, 0.000000000000000000 ) ) ;
#278 = CARTESIAN_POINT ( 'NONE',  ( -4.118033988749978391, -3.206166944381640187E-16, 0.000000000000000000 ) ) ;
#279 = CARTESIAN_POINT ( 'NONE',  ( 0.4999999999999987232, 2.500000000000000000, 0.000000000000000000 ) ) ;
#280 = DIRECTION ( 'NONE',  ( 1.020425574104004122E-16, 0.000000000000000000, 1.000000000000000000 ) ) ;
#281 = CARTESIAN_POINT ( 'NONE',  ( -4.118033988749978391, -3.206166944381640187E-16, 0.000000000000000000 ) ) ;
#282 = EDGE_CURVE ( 'NONE', #848, #640, #339, .T. ) ;
#283 = CLOSED_SHELL ( 'NONE', ( #755, #253, #151, #347, #592, #67, #508, #603, #35, #741, #811, #485, #49, #430, #81, #564, #196, #611, #133, #629, #842, #797, #323, #456, #183, #637, #338, #271, #575, #683, #6, #469 ) ) ;
#284 = TOROIDAL_SURFACE ( 'NONE', #16, 6.899999999999995026, 1.000000000000000444 ) ;
#285 = DIRECTION ( 'NONE',  ( 1.000000000000000000, 1.224646799147353207E-16, -0.000000000000000000 ) ) ;
#286 = CARTESIAN_POINT ( 'NONE',  ( -2.999999999999999112, 6.899999999999995026, 0.000000000000000000 ) ) ;
#287 = DIRECTION ( 'NONE',  ( 1.000000000000000000, 1.224646799147353207E-16, -0.000000000000000000 ) ) ;
#288 = AXIS2_PLACEMENT_3D ( 'NONE', #626, #474, #264 ) ;
#289 = TOROIDAL_SURFACE ( 'NONE', #645, 5.900000000000023448, 0.5000000000000000000 ) ;
#290 = AXIS2_PLACEMENT_3D ( 'NONE', #824, #689, #494 ) ;
#291 = DIRECTION ( 'NONE',  ( -1.000000000000000000, 0.000000000000000000, 0.000000000000000000 ) ) ;
#292 = SURFACE_SIDE_STYLE ('',( #703 ) ) ;
#293 = ORIENTED_EDGE ( 'NONE', *, *, #177, .F. ) ;
#294 = DIRECTION ( 'NONE',  ( 0.000000000000000000, -1.000000000000000000, 1.224646799147353454E-16 ) ) ;
#295 = CARTESIAN_POINT ( 'NONE',  ( -4.010718267207582610E-16, 6.399999999999995026, 0.000000000000000000 ) ) ;
#296 = ORIENTED_EDGE ( 'NONE', *, *, #282, .F. ) ;
#297 = EDGE_CURVE ( 'NONE', #518, #726, #258, .T. ) ;
#298 = FACE_OUTER_BOUND ( 'NONE', #243, .T. ) ;
#299 = ORIENTED_EDGE ( 'NONE', *, *, #783, .F. ) ;
#300 = AXIS2_PLACEMENT_3D ( 'NONE', #145, #350, #28 ) ;
#301 = AXIS2_PLACEMENT_3D ( 'NONE', #420, #274, #681 ) ;
#302 = ORIENTED_EDGE ( 'NONE', *, *, #497, .T. ) ;
#303 = DIRECTION ( 'NONE',  ( 1.000000000000000000, 1.224646799147353207E-16, -0.000000000000000000 ) ) ;
#304 = CYLINDRICAL_SURFACE ( 'NONE', #88, 0.2999999999999999334 ) ;
#305 = ORIENTED_EDGE ( 'NONE', *, *, #308, .T. ) ;
#306 = DIRECTION ( 'NONE',  ( -1.000000000000000000, -1.224646799147353207E-16, 0.000000000000000000 ) ) ;
#307 = FACE_OUTER_BOUND ( 'NONE', #231, .T. ) ;
#308 = EDGE_CURVE ( 'NONE', #467, #768, #155, .T. ) ;
#309 = VERTEX_POINT ( 'NONE', #593 ) ;
#310 = CARTESIAN_POINT ( 'NONE',  ( 3.252606517456513302E-16, 3.611118645726067224E-32, 0.000000000000000000 ) ) ;
#311 = AXIS2_PLACEMENT_3D ( 'NONE', #141, #553, #815 ) ;
#312 = COLOUR_RGB ( '',0.7921568627450980005, 0.8196078431372548767, 0.9333333333333333481 ) ;
#313 = CIRCLE ( 'NONE', #131, 0.5000000000000000000 ) ;
#314 = SURFACE_STYLE_USAGE ( .BOTH. , #384 ) ;
#315 = DIRECTION ( 'NONE',  ( -0.000000000000000000, 0.000000000000000000, -1.000000000000000000 ) ) ;
#316 = EDGE_LOOP ( 'NONE', ( #189, #536 ) ) ;
#317 = CARTESIAN_POINT ( 'NONE',  ( 1.999999999999999556, -2.500000000000000000, 10.00000000000000000 ) ) ;
#318 = DIRECTION ( 'NONE',  ( -1.000000000000000000, 0.000000000000000000, 0.000000000000000000 ) ) ;
#319 = CARTESIAN_POINT ( 'NONE',  ( 0.000000000000000000, -2.500000000000000000, 0.000000000000000000 ) ) ;
#320 = ORIENTED_EDGE ( 'NONE', *, *, #297, .T. ) ;
#321 = CARTESIAN_POINT ( 'NONE',  ( -4.118033988749977503, -5.900000000000027001, 0.000000000000000000 ) ) ;
#322 = DIRECTION ( 'NONE',  ( -1.224646799147353207E-16, 1.000000000000000000, 0.000000000000000000 ) ) ;
#323 = ADVANCED_FACE ( 'NONE', ( #854 ), #369, .T. ) ;
#324 = VERTEX_POINT ( 'NONE', #587 ) ;
#325 = AXIS2_PLACEMENT_3D ( 'NONE', #319, #725, #852 ) ;
#326 = ORIENTED_EDGE ( 'NONE', *, *, #100, .T. ) ;
#327 = MECHANICAL_DESIGN_GEOMETRIC_PRESENTATION_REPRESENTATION (  '', ( #226 ), #353 ) ;
#328 = AXIS2_PLACEMENT_3D ( 'NONE', #766, #845, #515 ) ;
#329 = FACE_OUTER_BOUND ( 'NONE', #316, .T. ) ;
#330 = ORIENTED_EDGE ( 'NONE', *, *, #777, .T. ) ;
#331 = CARTESIAN_POINT ( 'NONE',  ( -1.881966011250021165, -4.677734530604214682E-17, 0.000000000000000000 ) ) ;
#332 = CARTESIAN_POINT ( 'NONE',  ( -42.49999999999999289, -5.204748896376250107E-15, 0.000000000000000000 ) ) ;
#333 = DIRECTION ( 'NONE',  ( 1.000000000000000000, 1.224646799147353207E-16, -0.000000000000000000 ) ) ;
#334 = EDGE_CURVE ( 'NONE', #362, #826, #472, .T. ) ;
#335 = CARTESIAN_POINT ( 'NONE',  ( -0.4999999999999989453, -5.899999999999995914, 7.225416114969379263E-16 ) ) ;
#336 = DIRECTION ( 'NONE',  ( -0.000000000000000000, -0.000000000000000000, -1.000000000000000000 ) ) ;
#337 = CYLINDRICAL_SURFACE ( 'NONE', #129, 0.2999999999999999334 ) ;
#338 = ADVANCED_FACE ( 'NONE', ( #109 ), #251, .T. ) ;
#339 = CIRCLE ( 'NONE', #57, 0.2999999999999999334 ) ;
#340 = AXIS2_PLACEMENT_3D ( 'NONE', #865, #401, #122 ) ;
#341 = DIRECTION ( 'NONE',  ( 1.000000000000000000, 1.224646799147353207E-16, -0.000000000000000000 ) ) ;
#342 = DIRECTION ( 'NONE',  ( 0.000000000000000000, 0.000000000000000000, -1.000000000000000000 ) ) ;
#343 = CARTESIAN_POINT ( 'NONE',  ( -3.745355992499963094, -9.127978304403803757E-17, 0.000000000000000000 ) ) ;
#344 = DIRECTION ( 'NONE',  ( 1.000000000000000000, 1.224646799147353207E-16, -0.000000000000000000 ) ) ;
#345 = LINE ( 'NONE', #612, #713 ) ;
#346 = CARTESIAN_POINT ( 'NONE',  ( 1.699999999999999734, -2.500000000000000000, 10.00000000000000000 ) ) ;
#347 = ADVANCED_FACE ( 'NONE', ( #247 ), #423, .F. ) ;
#348 = CARTESIAN_POINT ( 'NONE',  ( 1.699999999999999734, -2.500000000000000000, 1.499999999999999556 ) ) ;
#349 = DIRECTION ( 'NONE',  ( 1.000000000000000000, 1.224646799147353207E-16, -0.000000000000000000 ) ) ;
#350 = DIRECTION ( 'NONE',  ( 1.000000000000000000, 1.224646799147353207E-16, -0.000000000000000000 ) ) ;
#351 = CYLINDRICAL_SURFACE ( 'NONE', #113, 6.399999999999997691 ) ;
#352 = AXIS2_PLACEMENT_3D ( 'NONE', #682, #15, #220 ) ;
#353 =( GEOMETRIC_REPRESENTATION_CONTEXT ( 3 ) GLOBAL_UNCERTAINTY_ASSIGNED_CONTEXT ( ( #789 ) ) GLOBAL_UNIT_ASSIGNED_CONTEXT ( ( #759, #153, #229 ) ) REPRESENTATION_CONTEXT ( 'NONE', 'WORKASPACE' ) );
#354 =( NAMED_UNIT ( * ) PLANE_ANGLE_UNIT ( ) SI_UNIT ( $, .RADIAN. ) );
#355 = CYLINDRICAL_SURFACE ( 'NONE', #212, 0.2999999999999999334 ) ;
#356 = AXIS2_PLACEMENT_3D ( 'NONE', #19, #160, #760 ) ;
#357 = ORIENTED_EDGE ( 'NONE', *, *, #706, .T. ) ;
#358 = CARTESIAN_POINT ( 'NONE',  ( -2.999999999999997335, -6.899999999999995026, 8.450062914116730745E-16 ) ) ;
#359 = FACE_BOUND ( 'NONE', #843, .T. ) ;
#360 = VERTEX_POINT ( 'NONE', #791 ) ;
#361 = EDGE_CURVE ( 'NONE', #768, #380, #44, .T. ) ;
#362 = VERTEX_POINT ( 'NONE', #389 ) ;
#363 = DIRECTION ( 'NONE',  ( -1.224646799147353207E-16, 1.000000000000000000, 0.000000000000000000 ) ) ;
#364 = CARTESIAN_POINT ( 'NONE',  ( 1.999999999999999556, -2.500000000000000000, 1.499999999999999556 ) ) ;
#365 = ORIENTED_EDGE ( 'NONE', *, *, #549, .T. ) ;
#366 = EDGE_CURVE ( 'NONE', #2, #223, #711, .T. ) ;
#367 = DIRECTION ( 'NONE',  ( 0.000000000000000000, 0.000000000000000000, -1.000000000000000000 ) ) ;
#368 = AXIS2_PLACEMENT_3D ( 'NONE', #84, #306, #835 ) ;
#369 = TOROIDAL_SURFACE ( 'NONE', #530, 5.899999999999997691, 0.5000000000000000000 ) ;
#370 = AXIS2_PLACEMENT_3D ( 'NONE', #245, #106, #41 ) ;
#371 = CIRCLE ( 'NONE', #591, 0.2999999999999999334 ) ;
#372 = ORIENTED_EDGE ( 'NONE', *, *, #855, .F. ) ;
#373 = DIRECTION ( 'NONE',  ( -1.224646799147353207E-16, 1.000000000000000000, 0.000000000000000000 ) ) ;
#374 = EDGE_CURVE ( 'NONE', #228, #362, #687, .T. ) ;
#375 = EDGE_LOOP ( 'NONE', ( #53, #507, #453, #65 ) ) ;
#376 = ORIENTED_EDGE ( 'NONE', *, *, #125, .T. ) ;
#377 = ORIENTED_EDGE ( 'NONE', *, *, #112, .F. ) ;
#378 = CARTESIAN_POINT ( 'NONE',  ( -2.999999999999998224, 0.000000000000000000, 0.000000000000000000 ) ) ;
#379 = DIRECTION ( 'NONE',  ( -1.000000000000000000, -0.000000000000000000, -1.020425574104004122E-16 ) ) ;
#380 = VERTEX_POINT ( 'NONE', #400 ) ;
#381 = CARTESIAN_POINT ( 'NONE',  ( 0.4999999999999987232, 2.500000000000000000, -0.2999999999999999334 ) ) ;
#382 = CIRCLE ( 'NONE', #778, 6.399999999999995026 ) ;
#383 = AXIS2_PLACEMENT_3D ( 'NONE', #234, #510, #322 ) ;
#384 = SURFACE_SIDE_STYLE ('',( #670 ) ) ;
#385 = LINE ( 'NONE', #127, #501 ) ;
#386 = DIRECTION ( 'NONE',  ( -1.000000000000000000, -0.000000000000000000, -1.020425574104004122E-16 ) ) ;
#387 = ORIENTED_EDGE ( 'NONE', *, *, #830, .T. ) ;
#388 = EDGE_CURVE ( 'NONE', #360, #652, #69, .T. ) ;
#389 = CARTESIAN_POINT ( 'NONE',  ( -1.881966011250021831, 6.399999999999995026, 0.000000000000000000 ) ) ;
#390 = DIRECTION ( 'NONE',  ( -1.000000000000000000, -1.224646799147353207E-16, 0.000000000000000000 ) ) ;
#391 = ORIENTED_EDGE ( 'NONE', *, *, #361, .F. ) ;
#392 = UNCERTAINTY_MEASURE_WITH_UNIT (LENGTH_MEASURE( 1.000000000000000082E-05 ), #24, 'distance_accuracy_value', 'NONE');
#393 = ORIENTED_EDGE ( 'NONE', *, *, #244, .T. ) ;
#394 = EDGE_CURVE ( 'NONE', #194, #634, #269, .T. ) ;
#395 =( LENGTH_UNIT ( ) NAMED_UNIT ( * ) SI_UNIT ( .MILLI., .METRE. ) );
#396 = DIRECTION ( 'NONE',  ( 0.000000000000000000, 0.000000000000000000, -1.000000000000000000 ) ) ;
#397 = ORIENTED_EDGE ( 'NONE', *, *, #481, .F. ) ;
#398 = VECTOR ( 'NONE', #638, 1000.000000000000000 ) ;
#399 = CIRCLE ( 'NONE', #31, 6.399999999999997691 ) ;
#400 = CARTESIAN_POINT ( 'NONE',  ( -43.00000000000000000, 5.899999999999992362, 7.531577814756219106E-16 ) ) ;
#401 = DIRECTION ( 'NONE',  ( -0.000000000000000000, -1.000000000000000000, 0.000000000000000000 ) ) ;
#402 = ORIENTED_EDGE ( 'NONE', *, *, #190, .T. ) ;
#403 = EDGE_CURVE ( 'NONE', #56, #2, #722, .T. ) ;
#404 = CARTESIAN_POINT ( 'NONE',  ( -42.49999999999999289, -6.400000000000003020, 7.837739514543059934E-16 ) ) ;
#405 = CARTESIAN_POINT ( 'NONE',  ( -42.49999999999999289, 5.899999999999992362, 7.225416114969381235E-16 ) ) ;
#406 = PRODUCT ( '\X2\75355bb9\X0\ MHT400V120UF87EC0448', '\X2\75355bb9\X0\ MHT400V120UF87EC0448', '', ( #180 ) ) ;
#407 = LINE ( 'NONE', #561, #455 ) ;
#408 = DIRECTION ( 'NONE',  ( -1.000000000000000000, 0.000000000000000000, 0.000000000000000000 ) ) ;
#409 = CYLINDRICAL_SURFACE ( 'NONE', #311, 6.399999999999997691 ) ;
#410 = EDGE_CURVE ( 'NONE', #533, #584, #382, .T. ) ;
#411 = TOROIDAL_SURFACE ( 'NONE', #499, 5.899999999999995914, 0.5000000000000000000 ) ;
#412 = AXIS2_PLACEMENT_3D ( 'NONE', #38, #785, #832 ) ;
#413 = DIRECTION ( 'NONE',  ( -1.470104640658312480E-16, 1.000000000000000000, 0.000000000000000000 ) ) ;
#414 = FACE_OUTER_BOUND ( 'NONE', #93, .T. ) ;
#415 = CIRCLE ( 'NONE', #217, 0.2999999999999999334 ) ;
#416 = DIRECTION ( 'NONE',  ( -1.391489419232724905E-16, 1.000000000000000000, 0.000000000000000000 ) ) ;
#417 = DIRECTION ( 'NONE',  ( 1.000000000000000000, 1.224646799147353207E-16, -0.000000000000000000 ) ) ;
#418 = DIRECTION ( 'NONE',  ( 0.000000000000000000, -1.000000000000000000, -1.224646799147351482E-16 ) ) ;
#419 = DIRECTION ( 'NONE',  ( 1.020425574104004122E-16, 0.000000000000000000, 1.000000000000000000 ) ) ;
#420 = CARTESIAN_POINT ( 'NONE',  ( 0.000000000000000000, 2.500000000000000000, 0.000000000000000000 ) ) ;
#421 = DIRECTION ( 'NONE',  ( 1.000000000000000000, 1.224646799147353207E-16, -0.000000000000000000 ) ) ;
#422 = EDGE_LOOP ( 'NONE', ( #705, #770, #320, #782 ) ) ;
#423 = TOROIDAL_SURFACE ( 'NONE', #559, 6.899999999999995026, 1.000000000000000444 ) ;
#424 = CARTESIAN_POINT ( 'NONE',  ( 0.000000000000000000, 0.000000000000000000, 0.000000000000000000 ) ) ;
#425 = CIRCLE ( 'NONE', #370, 0.2999999999999999334 ) ;
#426 =( GEOMETRIC_REPRESENTATION_CONTEXT ( 3 ) GLOBAL_UNCERTAINTY_ASSIGNED_CONTEXT ( ( #454 ) ) GLOBAL_UNIT_ASSIGNED_CONTEXT ( ( #395, #261, #800 ) ) REPRESENTATION_CONTEXT ( 'NONE', 'WORKASPACE' ) );
#427 = EDGE_LOOP ( 'NONE', ( #1, #296 ) ) ;
#428 = ORIENTED_EDGE ( 'NONE', *, *, #623, .F. ) ;
#429 = CARTESIAN_POINT ( 'NONE',  ( -3.061276722312011504E-17, -2.500000000000000000, 0.2999999999999999334 ) ) ;
#430 = ADVANCED_FACE ( 'NONE', ( #809 ), #284, .F. ) ;
#431 = ORIENTED_EDGE ( 'NONE', *, *, #100, .F. ) ;
#432 = FACE_OUTER_BOUND ( 'NONE', #565, .T. ) ;
#433 = ORIENTED_EDGE ( 'NONE', *, *, #119, .T. ) ;
#434 = EDGE_CURVE ( 'NONE', #324, #309, #630, .T. ) ;
#435 = DIRECTION ( 'NONE',  ( 0.000000000000000000, 0.000000000000000000, -1.000000000000000000 ) ) ;
#436 = AXIS2_PLACEMENT_3D ( 'NONE', #757, #744, #740 ) ;
#437 = AXIS2_PLACEMENT_3D ( 'NONE', #716, #344, #468 ) ;
#438 = AXIS2_PLACEMENT_3D ( 'NONE', #704, #379, #639 ) ;
#439 = ORIENTED_EDGE ( 'NONE', *, *, #693, .F. ) ;
#440 = VERTEX_POINT ( 'NONE', #136 ) ;
#441 = PRODUCT_DEFINITION ( '未知', '', #458, #737 ) ;
#442 = DIRECTION ( 'NONE',  ( 1.499759782661857608E-32, -1.224646799147353207E-16, 1.000000000000000000 ) ) ;
#443 = CYLINDRICAL_SURFACE ( 'NONE', #168, 0.2999999999999999334 ) ;
#444 = ORIENTED_EDGE ( 'NONE', *, *, #861, .T. ) ;
#445 = DIRECTION ( 'NONE',  ( -1.000000000000000000, 0.000000000000000000, 0.000000000000000000 ) ) ;
#446 = DIRECTION ( 'NONE',  ( 0.000000000000000000, 0.000000000000000000, 1.000000000000000000 ) ) ;
#447 = DIRECTION ( 'NONE',  ( -1.000000000000000000, 0.000000000000000000, -1.020425574104004122E-16 ) ) ;
#448 = ORIENTED_EDGE ( 'NONE', *, *, #72, .F. ) ;
#449 = EDGE_LOOP ( 'NONE', ( #163, #520, #365, #504 ) ) ;
#450 = DIRECTION ( 'NONE',  ( 1.000000000000000000, 1.224646799147353207E-16, -0.000000000000000000 ) ) ;
#451 = APPLICATION_PROTOCOL_DEFINITION ( 'draft international standard', 'automotive_design', 1998, #505 ) ;
#452 = LINE ( 'NONE', #197, #531 ) ;
#453 = ORIENTED_EDGE ( 'NONE', *, *, #654, .T. ) ;
#454 = UNCERTAINTY_MEASURE_WITH_UNIT (LENGTH_MEASURE( 1.000000000000000082E-05 ), #395, 'distance_accuracy_value', 'NONE');
#455 = VECTOR ( 'NONE', #280, 1000.000000000000000 ) ;
#456 = ADVANCED_FACE ( 'NONE', ( #148 ), #411, .T. ) ;
#457 = CIRCLE ( 'NONE', #738, 5.899999999999995914 ) ;
#458 = PRODUCT_DEFINITION_FORMATION_WITH_SPECIFIED_SOURCE ( '任何', '', #406, .NOT_KNOWN. ) ;
#459 = ORIENTED_EDGE ( 'NONE', *, *, #308, .F. ) ;
#460 = DIRECTION ( 'NONE',  ( -1.000000000000000000, -1.224646799147353207E-16, 0.000000000000000000 ) ) ;
#461 = DIRECTION ( 'NONE',  ( -1.224646799147353207E-16, 1.000000000000000000, 0.000000000000000000 ) ) ;
#462 = EDGE_LOOP ( 'NONE', ( #590, #433, #444, #776 ) ) ;
#463 = ORIENTED_EDGE ( 'NONE', *, *, #816, .T. ) ;
#464 = EDGE_CURVE ( 'NONE', #170, #750, #608, .T. ) ;
#465 = FILL_AREA_STYLE_COLOUR ( '', #646 ) ;
#466 = DIRECTION ( 'NONE',  ( -0.000000000000000000, -1.000000000000000000, -0.000000000000000000 ) ) ;
#467 = VERTEX_POINT ( 'NONE', #404 ) ;
#468 = DIRECTION ( 'NONE',  ( 1.355252715606881529E-16, -1.000000000000000000, 0.000000000000000000 ) ) ;
#469 = ADVANCED_FACE ( 'NONE', ( #555 ), #541, .F. ) ;
#470 = CARTESIAN_POINT ( 'NONE',  ( -4.118033988749979279, 5.900000000000027001, 7.225416114969416734E-16 ) ) ;
#471 = VERTEX_POINT ( 'NONE', #680 ) ;
#472 = CIRCLE ( 'NONE', #736, 0.5000000000000004441 ) ;
#473 = AXIS2_PLACEMENT_3D ( 'NONE', #295, #583, #373 ) ;
#474 = DIRECTION ( 'NONE',  ( -1.000000000000000000, -0.000000000000000000, -1.020425574104004122E-16 ) ) ;
#475 = EDGE_CURVE ( 'NONE', #471, #640, #407, .T. ) ;
#476 = DIRECTION ( 'NONE',  ( -1.000000000000000000, 0.000000000000000000, -1.020425574104004122E-16 ) ) ;
#477 = DIRECTION ( 'NONE',  ( 1.020425574104004122E-16, 0.000000000000000000, 1.000000000000000000 ) ) ;
#478 = CARTESIAN_POINT ( 'NONE',  ( 0.4999999999999987232, 2.500000000000000000, 1.500000000000000000 ) ) ;
#479 = DIRECTION ( 'NONE',  ( 1.000000000000000000, 0.000000000000000000, 0.000000000000000000 ) ) ;
#480 = CARTESIAN_POINT ( 'NONE',  ( 1.999999999999999556, 2.500000000000000000, 1.499999999999999556 ) ) ;
#481 = EDGE_CURVE ( 'NONE', #309, #135, #345, .T. ) ;
#482 = DIRECTION ( 'NONE',  ( 1.000000000000000000, 1.224646799147353207E-16, -0.000000000000000000 ) ) ;
#483 = CARTESIAN_POINT ( 'NONE',  ( 1.999999999999999556, 2.500000000000000000, 1.499999999999999556 ) ) ;
#484 = LINE ( 'NONE', #543, #529 ) ;
#485 = ADVANCED_FACE ( 'NONE', ( #208 ), #289, .T. ) ;
#486 = AXIS2_PLACEMENT_3D ( 'NONE', #513, #500, #712 ) ;
#487 = CIRCLE ( 'NONE', #97, 1.000000000000000888 ) ;
#488 = AXIS2_PLACEMENT_3D ( 'NONE', #193, #4, #259 ) ;
#489 = DIRECTION ( 'NONE',  ( -1.020425574104004122E-16, 0.000000000000000000, 1.000000000000000000 ) ) ;
#490 = CARTESIAN_POINT ( 'NONE',  ( 3.252606517456513302E-16, 3.611118645726067224E-32, 0.000000000000000000 ) ) ;
#491 = PRESENTATION_LAYER_ASSIGNMENT (  '', '', ( #202 ) ) ;
#492 = FACE_OUTER_BOUND ( 'NONE', #124, .T. ) ;
#493 = DIRECTION ( 'NONE',  ( -1.391489419232724905E-16, 1.000000000000000000, 0.000000000000000000 ) ) ;
#494 = DIRECTION ( 'NONE',  ( 1.224646799147353207E-16, -1.000000000000000000, 0.000000000000000000 ) ) ;
#495 = DIRECTION ( 'NONE',  ( -1.224646799147353207E-16, 1.000000000000000000, 0.000000000000000000 ) ) ;
#496 = EDGE_LOOP ( 'NONE', ( #260, #357, #108, #299 ) ) ;
#497 = EDGE_CURVE ( 'NONE', #533, #735, #866, .T. ) ;
#498 = ORIENTED_EDGE ( 'NONE', *, *, #26, .T. ) ;
#499 = AXIS2_PLACEMENT_3D ( 'NONE', #742, #285, #753 ) ;
#500 = DIRECTION ( 'NONE',  ( -1.000000000000000000, -1.224646799147353207E-16, 0.000000000000000000 ) ) ;
#501 = VECTOR ( 'NONE', #728, 1000.000000000000000 ) ;
#502 = CIRCLE ( 'NONE', #548, 0.5000000000000000000 ) ;
#503 = CYLINDRICAL_SURFACE ( 'NONE', #328, 0.2999999999999999334 ) ;
#504 = ORIENTED_EDGE ( 'NONE', *, *, #297, .F. ) ;
#505 = APPLICATION_CONTEXT ( 'automotive_design' ) ;
#506 = DIRECTION ( 'NONE',  ( 1.000000000000000000, 0.000000000000000000, 0.000000000000000000 ) ) ;
#507 = ORIENTED_EDGE ( 'NONE', *, *, #557, .F. ) ;
#508 = ADVANCED_FACE ( 'NONE', ( #13 ), #273, .T. ) ;
#509 = ORIENTED_EDGE ( 'NONE', *, *, #693, .T. ) ;
#510 = DIRECTION ( 'NONE',  ( 1.000000000000000000, 1.224646799147353207E-16, -0.000000000000000000 ) ) ;
#511 = ORIENTED_EDGE ( 'NONE', *, *, #203, .F. ) ;
#512 = AXIS2_PLACEMENT_3D ( 'NONE', #29, #146, #685 ) ;
#513 = CARTESIAN_POINT ( 'NONE',  ( -43.00000000000000000, -5.265981236333617682E-15, 0.000000000000000000 ) ) ;
#514 = AXIS2_PLACEMENT_3D ( 'NONE', #662, #105, #445 ) ;
#515 = DIRECTION ( 'NONE',  ( 1.000000000000000000, 0.000000000000000000, 0.000000000000000000 ) ) ;
#516 = CIRCLE ( 'NONE', #488, 1.000000000000000888 ) ;
#517 = ORIENTED_EDGE ( 'NONE', *, *, #410, .T. ) ;
#518 = VERTEX_POINT ( 'NONE', #619 ) ;
#519 = DIRECTION ( 'NONE',  ( -1.000000000000000000, 0.000000000000000000, 0.000000000000000000 ) ) ;
#520 = ORIENTED_EDGE ( 'NONE', *, *, #464, .T. ) ;
#521 = ORIENTED_EDGE ( 'NONE', *, *, #403, .F. ) ;
#522 = DIRECTION ( 'NONE',  ( 1.224646799147353207E-16, -1.000000000000000000, 0.000000000000000000 ) ) ;
#523 = PLANE ( 'NONE',  #201 ) ;
#524 = EDGE_CURVE ( 'NONE', #826, #440, #751, .T. ) ;
#525 = ORIENTED_EDGE ( 'NONE', *, *, #410, .F. ) ;
#526 = ORIENTED_EDGE ( 'NONE', *, *, #557, .T. ) ;
#527 = DIRECTION ( 'NONE',  ( 1.000000000000000000, 0.000000000000000000, 0.000000000000000000 ) ) ;
#528 = DIRECTION ( 'NONE',  ( 1.224646799147353207E-16, -1.000000000000000000, 0.000000000000000000 ) ) ;
#529 = VECTOR ( 'NONE', #747, 1000.000000000000000 ) ;
#530 = AXIS2_PLACEMENT_3D ( 'NONE', #859, #787, #522 ) ;
#531 = VECTOR ( 'NONE', #658, 1000.000000000000000 ) ;
#532 = EDGE_CURVE ( 'NONE', #518, #170, #822, .T. ) ;
#533 = VERTEX_POINT ( 'NONE', #50 ) ;
#534 = DIRECTION ( 'NONE',  ( -1.000000000000000000, 0.000000000000000000, -0.000000000000000000 ) ) ;
#535 = DIRECTION ( 'NONE',  ( 1.000000000000000000, 1.224646799147353207E-16, -0.000000000000000000 ) ) ;
#536 = ORIENTED_EDGE ( 'NONE', *, *, #177, .T. ) ;
#537 = EDGE_CURVE ( 'NONE', #128, #471, #762, .T. ) ;
#538 = DIRECTION ( 'NONE',  ( 0.000000000000000000, -0.000000000000000000, -1.000000000000000000 ) ) ;
#539 = CARTESIAN_POINT ( 'NONE',  ( 1.699999999999999734, 2.500000000000000000, 10.00000000000000000 ) ) ;
#540 = CYLINDRICAL_SURFACE ( 'NONE', #325, 0.2999999999999999334 ) ;
#541 = PLANE ( 'NONE',  #616 ) ;
#542 = DIRECTION ( 'NONE',  ( 0.000000000000000000, -1.000000000000000000, -1.224646799147351482E-16 ) ) ;
#543 = CARTESIAN_POINT ( 'NONE',  ( 1.699999999999998845, -2.500000000000000000, 1.499999999999999556 ) ) ;
#544 = CIRCLE ( 'NONE', #820, 1.800000000000000044 ) ;
#545 = AXIS2_PLACEMENT_3D ( 'NONE', #3, #460, #121 ) ;
#546 = ORIENTED_EDGE ( 'NONE', *, *, #475, .F. ) ;
#547 = AXIS2_PLACEMENT_3D ( 'NONE', #205, #477, #139 ) ;
#548 = AXIS2_PLACEMENT_3D ( 'NONE', #810, #214, #613 ) ;
#549 = EDGE_CURVE ( 'NONE', #750, #726, #425, .T. ) ;
#550 = DIRECTION ( 'NONE',  ( -0.000000000000000000, -1.000000000000000000, -0.000000000000000000 ) ) ;
#551 = CARTESIAN_POINT ( 'NONE',  ( 1.699999999999998845, 2.500000000000000000, 1.499999999999999556 ) ) ;
#552 = DIRECTION ( 'NONE',  ( 0.000000000000000000, 0.000000000000000000, -1.000000000000000000 ) ) ;
#553 = DIRECTION ( 'NONE',  ( 1.000000000000000000, 1.224646799147353207E-16, -0.000000000000000000 ) ) ;
#554 = EDGE_CURVE ( 'NONE', #440, #826, #560, .T. ) ;
#555 = FACE_OUTER_BOUND ( 'NONE', #427, .T. ) ;
#556 = CARTESIAN_POINT ( 'NONE',  ( -2.999999999999998224, 0.000000000000000000, 0.000000000000000000 ) ) ;
#557 = EDGE_CURVE ( 'NONE', #135, #702, #808, .T. ) ;
#558 = AXIS2_PLACEMENT_3D ( 'NONE', #754, #614, #495 ) ;
#559 = AXIS2_PLACEMENT_3D ( 'NONE', #378, #450, #187 ) ;
#560 = CIRCLE ( 'NONE', #412, 6.233333333333366255 ) ;
#561 = CARTESIAN_POINT ( 'NONE',  ( 2.299999999999998490, -2.500000000000000000, 1.499999999999999556 ) ) ;
#562 = CARTESIAN_POINT ( 'NONE',  ( -2.254644007500035574, 6.233333333333365367, 0.000000000000000000 ) ) ;
#563 = DIRECTION ( 'NONE',  ( -1.000000000000000000, -1.224646799147353207E-16, 0.000000000000000000 ) ) ;
#564 = ADVANCED_FACE ( 'NONE', ( #359, #772, #230 ), #579, .T. ) ;
#565 = EDGE_LOOP ( 'NONE', ( #252, #595 ) ) ;
#566 = DIRECTION ( 'NONE',  ( -0.000000000000000000, 0.000000000000000000, -1.000000000000000000 ) ) ;
#567 = PRESENTATION_STYLE_ASSIGNMENT (( #233 ) ) ;
#568 = ORIENTED_EDGE ( 'NONE', *, *, #26, .F. ) ;
#569 = CARTESIAN_POINT ( 'NONE',  ( -4.118033988749977503, -6.399999999999998579, 7.837739514543057962E-16 ) ) ;
#570 = TOROIDAL_SURFACE ( 'NONE', #558, 5.899999999999995914, 0.5000000000000000000 ) ;
#571 = EDGE_LOOP ( 'NONE', ( #239, #795, #720, #834 ) ) ;
#572 = CARTESIAN_POINT ( 'NONE',  ( 1.999999999999999556, -2.500000000000000000, 10.00000000000000000 ) ) ;
#573 = AXIS2_PLACEMENT_3D ( 'NONE', #281, #209, #814 ) ;
#574 = CARTESIAN_POINT ( 'NONE',  ( 0.000000000000000000, 2.500000000000000000, 0.000000000000000000 ) ) ;
#575 = ADVANCED_FACE ( 'NONE', ( #307 ), #443, .T. ) ;
#576 = ORIENTED_EDGE ( 'NONE', *, *, #481, .T. ) ;
#577 = ORIENTED_EDGE ( 'NONE', *, *, #821, .F. ) ;
#578 = CARTESIAN_POINT ( 'NONE',  ( -1.881966011250020054, -6.399999999999995026, 7.837739514543054018E-16 ) ) ;
#579 = PLANE ( 'NONE',  #473 ) ;
#580 = ORIENTED_EDGE ( 'NONE', *, *, #672, .T. ) ;
#581 = EDGE_LOOP ( 'NONE', ( #94, #636, #841, #669 ) ) ;
#582 = DIRECTION ( 'NONE',  ( 0.000000000000000000, -1.000000000000000000, 1.224646799147353454E-16 ) ) ;
#583 = DIRECTION ( 'NONE',  ( 1.000000000000000000, 1.224646799147353207E-16, -0.000000000000000000 ) ) ;
#584 = VERTEX_POINT ( 'NONE', #653 ) ;
#585 = ORIENTED_EDGE ( 'NONE', *, *, #125, .F. ) ;
#586 = AXIS2_PLACEMENT_3D ( 'NONE', #75, #9, #275 ) ;
#587 = CARTESIAN_POINT ( 'NONE',  ( 3.061276722312011504E-17, 2.500000000000000000, -0.2999999999999999334 ) ) ;
#588 = AXIS2_PLACEMENT_3D ( 'NONE', #633, #635, #294 ) ;
#589 = TOROIDAL_SURFACE ( 'NONE', #383, 6.899999999999995026, 1.000000000000000444 ) ;
#590 = ORIENTED_EDGE ( 'NONE', *, *, #596, .F. ) ;
#591 = AXIS2_PLACEMENT_3D ( 'NONE', #14, #336, #746 ) ;
#592 = ADVANCED_FACE ( 'NONE', ( #225 ), #503, .T. ) ;
#593 = CARTESIAN_POINT ( 'NONE',  ( -3.061276722312011504E-17, 2.500000000000000000, 0.2999999999999999334 ) ) ;
#594 = CARTESIAN_POINT ( 'NONE',  ( 2.299999999999999378, -2.500000000000000000, 10.00000000000000000 ) ) ;
#595 = ORIENTED_EDGE ( 'NONE', *, *, #549, .F. ) ;
#596 = EDGE_CURVE ( 'NONE', #246, #730, #675, .T. ) ;
#597 = DIRECTION ( 'NONE',  ( -1.000000000000000000, -1.224646799147353207E-16, 0.000000000000000000 ) ) ;
#598 = LINE ( 'NONE', #862, #819 ) ;
#599 = ORIENTED_EDGE ( 'NONE', *, *, #654, .F. ) ;
#600 = CARTESIAN_POINT ( 'NONE',  ( 7.837739514543054018E-16, -6.399999999999995026, 7.837739514543054018E-16 ) ) ;
#601 = ORIENTED_EDGE ( 'NONE', *, *, #203, .T. ) ;
#602 = CIRCLE ( 'NONE', #792, 0.2999999999999999334 ) ;
#603 = ADVANCED_FACE ( 'NONE', ( #298 ), #304, .T. ) ;
#604 = AXIS2_PLACEMENT_3D ( 'NONE', #40, #421, #840 ) ;
#605 = AXIS2_PLACEMENT_3D ( 'NONE', #176, #447, #647 ) ;
#606 = ORIENTED_EDGE ( 'NONE', *, *, #218, .F. ) ;
#607 = CARTESIAN_POINT ( 'NONE',  ( 3.061276722312011504E-17, -2.500000000000000000, -0.2999999999999999334 ) ) ;
#608 = LINE ( 'NONE', #551, #115 ) ;
#609 = DIRECTION ( 'NONE',  ( 1.000000000000000000, 1.224646799147353207E-16, -0.000000000000000000 ) ) ;
#610 = DIRECTION ( 'NONE',  ( 1.000000000000000000, 1.224646799147353207E-16, -0.000000000000000000 ) ) ;
#611 = ADVANCED_FACE ( 'NONE', ( #769 ), #589, .F. ) ;
#612 = CARTESIAN_POINT ( 'NONE',  ( 0.000000000000000000, 2.500000000000000000, 0.2999999999999999334 ) ) ;
#613 = DIRECTION ( 'NONE',  ( -1.000000000000000000, 0.000000000000000000, 0.000000000000000000 ) ) ;
#614 = DIRECTION ( 'NONE',  ( 1.000000000000000000, 1.224646799147353207E-16, -0.000000000000000000 ) ) ;
#615 = APPLICATION_CONTEXT ( 'automotive_design' ) ;
#616 = AXIS2_PLACEMENT_3D ( 'NONE', #691, #73, #7 ) ;
#617 = TOROIDAL_SURFACE ( 'NONE', #147, 1.500000000000000000, 0.2999999999999999334 ) ;
#618 = EDGE_CURVE ( 'NONE', #123, #735, #457, .T. ) ;
#619 = CARTESIAN_POINT ( 'NONE',  ( 2.299999999999999378, 2.500000000000000000, 1.499999999999999556 ) ) ;
#620 = CARTESIAN_POINT ( 'NONE',  ( -4.118033988749978391, -5.043137143102668889E-16, 0.000000000000000000 ) ) ;
#621 = DIRECTION ( 'NONE',  ( -1.000000000000000000, -1.224646799147353207E-16, 0.000000000000000000 ) ) ;
#622 = CARTESIAN_POINT ( 'NONE',  ( 0.4999999999999987232, -2.500000000000000000, 1.500000000000000000 ) ) ;
#623 = EDGE_CURVE ( 'NONE', #228, #533, #734, .T. ) ;
#624 = DIRECTION ( 'NONE',  ( 0.000000000000000000, 0.000000000000000000, 1.000000000000000000 ) ) ;
#625 = EDGE_LOOP ( 'NONE', ( #606, #448, #721, #660 ) ) ;
#626 = CARTESIAN_POINT ( 'NONE',  ( 0.000000000000000000, -2.500000000000000000, 0.000000000000000000 ) ) ;
#627 = DIRECTION ( 'NONE',  ( -0.000000000000000000, -1.000000000000000000, 0.000000000000000000 ) ) ;
#628 = FACE_OUTER_BOUND ( 'NONE', #71, .T. ) ;
#629 = ADVANCED_FACE ( 'NONE', ( #329 ), #523, .T. ) ;
#630 = CIRCLE ( 'NONE', #240, 0.2999999999999999334 ) ;
#631 = CIRCLE ( 'NONE', #340, 1.200000000000000178 ) ;
#632 = DIRECTION ( 'NONE',  ( -1.224646799147353207E-16, 1.000000000000000000, 0.000000000000000000 ) ) ;
#633 = CARTESIAN_POINT ( 'NONE',  ( -2.999999999999997335, -6.899999999999995026, 8.450062914116730745E-16 ) ) ;
#634 = VERTEX_POINT ( 'NONE', #607 ) ;
#635 = DIRECTION ( 'NONE',  ( -1.499759782661857608E-32, 1.224646799147353207E-16, 1.000000000000000000 ) ) ;
#636 = ORIENTED_EDGE ( 'NONE', *, *, #388, .T. ) ;
#637 = ADVANCED_FACE ( 'NONE', ( #801 ), #45, .T. ) ;
#638 = DIRECTION ( 'NONE',  ( 1.000000000000000000, 0.000000000000000000, 0.000000000000000000 ) ) ;
#639 = DIRECTION ( 'NONE',  ( 0.000000000000000000, 0.000000000000000000, 1.000000000000000000 ) ) ;
#640 = VERTEX_POINT ( 'NONE', #594 ) ;
#641 = TOROIDAL_SURFACE ( 'NONE', #254, 6.899999999999995026, 1.000000000000000444 ) ;
#642 = CIRCLE ( 'NONE', #604, 6.399999999999997691 ) ;
#643 = EDGE_CURVE ( 'NONE', #324, #702, #452, .T. ) ;
#644 = CARTESIAN_POINT ( 'NONE',  ( 1.699999999999999734, 2.500000000000000000, 1.499999999999999556 ) ) ;
#645 = AXIS2_PLACEMENT_3D ( 'NONE', #331, #621, #804 ) ;
#646 = COLOUR_RGB ( '',0.7921568627450980005, 0.8196078431372548767, 0.9333333333333333481 ) ;
#647 = DIRECTION ( 'NONE',  ( 0.000000000000000000, 0.000000000000000000, 1.000000000000000000 ) ) ;
#648 = ORIENTED_EDGE ( 'NONE', *, *, #87, .F. ) ;
#649 = FACE_OUTER_BOUND ( 'NONE', #422, .T. ) ;
#650 = CARTESIAN_POINT ( 'NONE',  ( 1.999999999999998668, -2.500000000000000000, 1.499999999999999556 ) ) ;
#651 = ORIENTED_EDGE ( 'NONE', *, *, #95, .F. ) ;
#652 = VERTEX_POINT ( 'NONE', #732 ) ;
#653 = CARTESIAN_POINT ( 'NONE',  ( -0.5000000000000004441, 6.399999999999995026, 0.000000000000000000 ) ) ;
#654 = EDGE_CURVE ( 'NONE', #135, #170, #631, .T. ) ;
#655 = ORIENTED_EDGE ( 'NONE', *, *, #532, .T. ) ;
#656 = CIRCLE ( 'NONE', #143, 0.5000000000000004441 ) ;
#657 = AXIS2_PLACEMENT_3D ( 'NONE', #321, #538, #172 ) ;
#658 = DIRECTION ( 'NONE',  ( 1.000000000000000000, 0.000000000000000000, 0.000000000000000000 ) ) ;
#659 = AXIS2_PLACEMENT_3D ( 'NONE', #74, #597, #262 ) ;
#660 = ORIENTED_EDGE ( 'NONE', *, *, #596, .T. ) ;
#661 = EDGE_LOOP ( 'NONE', ( #651, #715, #733, #511 ) ) ;
#662 = CARTESIAN_POINT ( 'NONE',  ( -42.49999999999999289, -5.900000000000002132, 0.000000000000000000 ) ) ;
#663 = CARTESIAN_POINT ( 'NONE',  ( 0.4999999999999987232, -2.500000000000000000, 0.2999999999999999334 ) ) ;
#664 = DIRECTION ( 'NONE',  ( 0.000000000000000000, 0.000000000000000000, 1.000000000000000000 ) ) ;
#665 = VERTEX_POINT ( 'NONE', #857 ) ;
#666 = EDGE_CURVE ( 'NONE', #111, #467, #399, .T. ) ;
#667 = DIRECTION ( 'NONE',  ( 1.224646799147353207E-16, -1.000000000000000000, 0.000000000000000000 ) ) ;
#668 = ORIENTED_EDGE ( 'NONE', *, *, #112, .T. ) ;
#669 = ORIENTED_EDGE ( 'NONE', *, *, #524, .T. ) ;
#670 = SURFACE_STYLE_FILL_AREA ( #126 ) ;
#671 = CARTESIAN_POINT ( 'NONE',  ( 0.4999999999999987232, 2.500000000000000000, 1.500000000000000000 ) ) ;
#672 = EDGE_CURVE ( 'NONE', #826, #652, #516, .T. ) ;
#673 = EDGE_LOOP ( 'NONE', ( #221, #173, #509, #786 ) ) ;
#674 = AXIS2_PLACEMENT_3D ( 'NONE', #144, #349, #413 ) ;
#675 = CIRCLE ( 'NONE', #438, 0.2999999999999999334 ) ;
#676 = AXIS2_PLACEMENT_3D ( 'NONE', #286, #566, #408 ) ;
#677 = LINE ( 'NONE', #249, #688 ) ;
#678 = DIRECTION ( 'NONE',  ( 0.000000000000000000, 0.000000000000000000, -1.000000000000000000 ) ) ;
#679 = ORIENTED_EDGE ( 'NONE', *, *, #334, .T. ) ;
#680 = CARTESIAN_POINT ( 'NONE',  ( 2.299999999999999378, -2.500000000000000000, 1.499999999999999556 ) ) ;
#681 = DIRECTION ( 'NONE',  ( -1.020425574104004122E-16, 0.000000000000000000, 1.000000000000000000 ) ) ;
#682 = CARTESIAN_POINT ( 'NONE',  ( 0.000000000000000000, 0.000000000000000000, 0.000000000000000000 ) ) ;
#683 = ADVANCED_FACE ( 'NONE', ( #66 ), #698, .T. ) ;
#684 = DIRECTION ( 'NONE',  ( -1.499759782661857608E-32, 1.224646799147353207E-16, 1.000000000000000000 ) ) ;
#685 = DIRECTION ( 'NONE',  ( -1.020425574104004122E-16, 0.000000000000000000, 1.000000000000000000 ) ) ;
#686 = CIRCLE ( 'NONE', #696, 6.399999999999997691 ) ;
#687 = CIRCLE ( 'NONE', #437, 6.399999999999995026 ) ;
#688 = VECTOR ( 'NONE', #794, 1000.000000000000000 ) ;
#689 = DIRECTION ( 'NONE',  ( -1.000000000000000000, -1.224646799147353207E-16, 0.000000000000000000 ) ) ;
#690 = DIRECTION ( 'NONE',  ( 1.355252715606881036E-16, -1.000000000000000000, 0.000000000000000000 ) ) ;
#691 = CARTESIAN_POINT ( 'NONE',  ( 1.999999999999999556, -2.500000000000000000, 10.00000000000000000 ) ) ;
#692 = DIRECTION ( 'NONE',  ( 1.224646799147353207E-16, -1.000000000000000000, 0.000000000000000000 ) ) ;
#693 = EDGE_CURVE ( 'NONE', #584, #123, #313, .T. ) ;
#694 = CARTESIAN_POINT ( 'NONE',  ( 0.000000000000000000, -2.500000000000000000, 0.000000000000000000 ) ) ;
#695 = DIRECTION ( 'NONE',  ( -1.000000000000000000, 0.000000000000000000, 0.000000000000000000 ) ) ;
#696 = AXIS2_PLACEMENT_3D ( 'NONE', #620, #563, #690 ) ;
#697 = AXIS2_PLACEMENT_3D ( 'NONE', #86, #831, #708 ) ;
#698 = TOROIDAL_SURFACE ( 'NONE', #17, 1.500000000000000000, 0.2999999999999999334 ) ;
#699 = ORIENTED_EDGE ( 'NONE', *, *, #623, .T. ) ;
#700 = MECHANICAL_DESIGN_GEOMETRIC_PRESENTATION_REPRESENTATION (  '', ( #202 ), #426 ) ;
#701 = CARTESIAN_POINT ( 'NONE',  ( 1.999999999999998668, 2.500000000000000000, 1.499999999999999556 ) ) ;
#702 = VERTEX_POINT ( 'NONE', #381 ) ;
#703 = SURFACE_STYLE_FILL_AREA ( #161 ) ;
#704 = CARTESIAN_POINT ( 'NONE',  ( 0.4999999999999987232, -2.500000000000000000, 0.000000000000000000 ) ) ;
#705 = ORIENTED_EDGE ( 'NONE', *, *, #464, .F. ) ;
#706 = EDGE_CURVE ( 'NONE', #467, #223, #677, .T. ) ;
#707 = EDGE_LOOP ( 'NONE', ( #103, #39, #463, #765 ) ) ;
#708 = DIRECTION ( 'NONE',  ( 0.000000000000000000, 0.000000000000000000, -1.000000000000000000 ) ) ;
#709 = DIRECTION ( 'NONE',  ( -1.000000000000000000, 0.000000000000000000, 0.000000000000000000 ) ) ;
#710 = AXIS2_PLACEMENT_3D ( 'NONE', #250, #386, #664 ) ;
#711 = CIRCLE ( 'NONE', #657, 0.5000000000000004441 ) ;
#712 = DIRECTION ( 'NONE',  ( 0.000000000000000000, -1.000000000000000000, 0.000000000000000000 ) ) ;
#713 = VECTOR ( 'NONE', #76, 1000.000000000000000 ) ;
#714 = ORIENTED_EDGE ( 'NONE', *, *, #206, .F. ) ;
#715 = ORIENTED_EDGE ( 'NONE', *, *, #821, .T. ) ;
#716 = CARTESIAN_POINT ( 'NONE',  ( -1.881966011250020943, -2.304743651781449861E-16, 0.000000000000000000 ) ) ;
#717 = EDGE_CURVE ( 'NONE', #634, #246, #385, .T. ) ;
#718 = DIRECTION ( 'NONE',  ( 0.000000000000000000, -1.000000000000000000, -1.224646799147351482E-16 ) ) ;
#719 = CARTESIAN_POINT ( 'NONE',  ( 2.299999999999999378, 2.500000000000000000, 10.00000000000000000 ) ) ;
#720 = ORIENTED_EDGE ( 'NONE', *, *, #11, .T. ) ;
#721 = ORIENTED_EDGE ( 'NONE', *, *, #717, .T. ) ;
#722 = CIRCLE ( 'NONE', #130, 6.233333333333368920 ) ;
#723 = CARTESIAN_POINT ( 'NONE',  ( -42.49999999999999289, -5.204748896376250107E-15, 0.000000000000000000 ) ) ;
#724 = AXIS2_PLACEMENT_3D ( 'NONE', #478, #627, #342 ) ;
#725 = DIRECTION ( 'NONE',  ( 1.000000000000000000, 0.000000000000000000, 0.000000000000000000 ) ) ;
#726 = VERTEX_POINT ( 'NONE', #719 ) ;
#727 = DIRECTION ( 'NONE',  ( -0.000000000000000000, -0.000000000000000000, -1.000000000000000000 ) ) ;
#728 = DIRECTION ( 'NONE',  ( 1.000000000000000000, 0.000000000000000000, 0.000000000000000000 ) ) ;
#729 = EDGE_LOOP ( 'NONE', ( #763, #387 ) ) ;
#730 = VERTEX_POINT ( 'NONE', #663 ) ;
#731 = EDGE_CURVE ( 'NONE', #584, #533, #116, .T. ) ;
#732 = CARTESIAN_POINT ( 'NONE',  ( -2.999999999999998224, 5.899999999999994138, 0.000000000000000000 ) ) ;
#733 = ORIENTED_EDGE ( 'NONE', *, *, #403, .T. ) ;
#734 = LINE ( 'NONE', #600, #780 ) ;
#735 = VERTEX_POINT ( 'NONE', #860 ) ;
#736 = AXIS2_PLACEMENT_3D ( 'NONE', #798, #442, #718 ) ;
#737 = PRODUCT_DEFINITION_CONTEXT ( 'detailed design', #505, 'design' ) ;
#738 = AXIS2_PLACEMENT_3D ( 'NONE', #310, #535, #461 ) ;
#739 = DIRECTION ( 'NONE',  ( 0.000000000000000000, 0.000000000000000000, -1.000000000000000000 ) ) ;
#740 = DIRECTION ( 'NONE',  ( 0.000000000000000000, 0.000000000000000000, -1.000000000000000000 ) ) ;
#741 = ADVANCED_FACE ( 'NONE', ( #70 ), #80, .T. ) ;
#742 = CARTESIAN_POINT ( 'NONE',  ( -0.4999999999999996669, -6.123233995736762338E-17, 0.000000000000000000 ) ) ;
#743 = CARTESIAN_POINT ( 'NONE',  ( -7.837739514543057962E-16, 6.399999999999997691, 0.000000000000000000 ) ) ;
#744 = DIRECTION ( 'NONE',  ( -0.000000000000000000, -1.000000000000000000, -0.000000000000000000 ) ) ;
#745 = DIRECTION ( 'NONE',  ( -1.000000000000000000, 0.000000000000000000, -1.020425574104004122E-16 ) ) ;
#746 = DIRECTION ( 'NONE',  ( -1.000000000000000000, 0.000000000000000000, 0.000000000000000000 ) ) ;
#747 = DIRECTION ( 'NONE',  ( 1.020425574104004122E-16, 0.000000000000000000, 1.000000000000000000 ) ) ;
#748 = CIRCLE ( 'NONE', #368, 6.399999999999997691 ) ;
#749 = AXIS2_PLACEMENT_3D ( 'NONE', #802, #367, #101 ) ;
#750 = VERTEX_POINT ( 'NONE', #539 ) ;
#751 = CIRCLE ( 'NONE', #356, 6.233333333333366255 ) ;
#752 = EDGE_CURVE ( 'NONE', #56, #665, #98, .T. ) ;
#753 = DIRECTION ( 'NONE',  ( -1.224646799147353207E-16, 1.000000000000000000, 0.000000000000000000 ) ) ;
#754 = CARTESIAN_POINT ( 'NONE',  ( -0.4999999999999996669, -6.123233995736762338E-17, 0.000000000000000000 ) ) ;
#755 = ADVANCED_FACE ( 'NONE', ( #805 ), #617, .T. ) ;
#756 = LINE ( 'NONE', #743, #216 ) ;
#757 = CARTESIAN_POINT ( 'NONE',  ( 0.4999999999999987232, -2.500000000000000000, 1.500000000000000000 ) ) ;
#758 = EDGE_LOOP ( 'NONE', ( #580, #10, #714, #858 ) ) ;
#759 =( LENGTH_UNIT ( ) NAMED_UNIT ( * ) SI_UNIT ( .MILLI., .METRE. ) );
#760 = DIRECTION ( 'NONE',  ( 1.391489419232725644E-16, -1.000000000000000000, 0.000000000000000000 ) ) ;
#761 = ORIENTED_EDGE ( 'NONE', *, *, #72, .T. ) ;
#762 = CIRCLE ( 'NONE', #850, 0.2999999999999999334 ) ;
#763 = ORIENTED_EDGE ( 'NONE', *, *, #618, .T. ) ;
#764 = DIRECTION ( 'NONE',  ( 1.000000000000000000, 0.000000000000000000, 0.000000000000000000 ) ) ;
#765 = ORIENTED_EDGE ( 'NONE', *, *, #524, .F. ) ;
#766 = CARTESIAN_POINT ( 'NONE',  ( 1.999999999999998668, -2.500000000000000000, 1.499999999999999556 ) ) ;
#767 = EDGE_LOOP ( 'NONE', ( #853, #393, #120, #668 ) ) ;
#768 = VERTEX_POINT ( 'NONE', #137 ) ;
#769 = FACE_OUTER_BOUND ( 'NONE', #661, .T. ) ;
#770 = ORIENTED_EDGE ( 'NONE', *, *, #532, .F. ) ;
#771 = PLANE ( 'NONE',  #185 ) ;
#772 = FACE_BOUND ( 'NONE', #64, .T. ) ;
#773 = ORIENTED_EDGE ( 'NONE', *, *, #666, .F. ) ;
#774 = CIRCLE ( 'NONE', #710, 0.2999999999999999334 ) ;
#775 = CIRCLE ( 'NONE', #588, 1.000000000000000888 ) ;
#776 = ORIENTED_EDGE ( 'NONE', *, *, #61, .F. ) ;
#777 = EDGE_CURVE ( 'NONE', #702, #518, #227, .T. ) ;
#778 = AXIS2_PLACEMENT_3D ( 'NONE', #23, #277, #213 ) ;
#779 = FACE_OUTER_BOUND ( 'NONE', #829, .T. ) ;
#780 = VECTOR ( 'NONE', #59, 1000.000000000000000 ) ;
#781 = ORIENTED_EDGE ( 'NONE', *, *, #434, .F. ) ;
#782 = ORIENTED_EDGE ( 'NONE', *, *, #235, .T. ) ;
#783 = EDGE_CURVE ( 'NONE', #111, #665, #756, .T. ) ;
#784 = CARTESIAN_POINT ( 'NONE',  ( 2.299999999999998490, 2.500000000000000000, 1.499999999999999556 ) ) ;
#785 = DIRECTION ( 'NONE',  ( -1.000000000000000000, -1.224646799147353207E-16, 0.000000000000000000 ) ) ;
#786 = ORIENTED_EDGE ( 'NONE', *, *, #830, .F. ) ;
#787 = DIRECTION ( 'NONE',  ( -1.000000000000000000, -1.224646799147353207E-16, 0.000000000000000000 ) ) ;
#788 = ORIENTED_EDGE ( 'NONE', *, *, #244, .F. ) ;
#789 = UNCERTAINTY_MEASURE_WITH_UNIT (LENGTH_MEASURE( 1.000000000000000082E-05 ), #759, 'distance_accuracy_value', 'NONE');
#790 = CIRCLE ( 'NONE', #12, 0.2999999999999999334 ) ;
#791 = CARTESIAN_POINT ( 'NONE',  ( -2.999999999999998224, -5.899999999999994138, 7.225416114969376305E-16 ) ) ;
#792 = AXIS2_PLACEMENT_3D ( 'NONE', #572, #47, #695 ) ;
#793 = APPLICATION_PROTOCOL_DEFINITION ( 'draft international standard', 'automotive_design', 1998, #615 ) ;
#794 = DIRECTION ( 'NONE',  ( 1.000000000000000000, 1.224646799147353207E-16, -0.000000000000000000 ) ) ;
#795 = ORIENTED_EDGE ( 'NONE', *, *, #218, .T. ) ;
#796 = AXIS2_PLACEMENT_3D ( 'NONE', #278, #140, #692 ) ;
#797 = ADVANCED_FACE ( 'NONE', ( #20 ), #833, .T. ) ;
#798 = CARTESIAN_POINT ( 'NONE',  ( -1.881966011250021831, 5.900000000000023448, 7.225416114969412790E-16 ) ) ;
#799 = DIRECTION ( 'NONE',  ( -1.000000000000000000, -1.224646799147353207E-16, 0.000000000000000000 ) ) ;
#800 =( NAMED_UNIT ( * ) SI_UNIT ( $, .STERADIAN. ) SOLID_ANGLE_UNIT ( ) );
#801 = FACE_OUTER_BOUND ( 'NONE', #375, .T. ) ;
#802 = CARTESIAN_POINT ( 'NONE',  ( 1.999999999999999556, 2.500000000000000000, 10.00000000000000000 ) ) ;
#803 = EDGE_CURVE ( 'NONE', #362, #228, #186, .T. ) ;
#804 = DIRECTION ( 'NONE',  ( 1.224646799147353207E-16, -1.000000000000000000, 0.000000000000000000 ) ) ;
#805 = FACE_OUTER_BOUND ( 'NONE', #462, .T. ) ;
#806 = CARTESIAN_POINT ( 'NONE',  ( -3.972809597512865468E-16, 5.899999999999995914, 0.000000000000000000 ) ) ;
#807 = AXIS2_PLACEMENT_3D ( 'NONE', #192, #527, #179 ) ;
#808 = CIRCLE ( 'NONE', #605, 0.2999999999999999334 ) ;
#809 = FACE_OUTER_BOUND ( 'NONE', #117, .T. ) ;
#810 = CARTESIAN_POINT ( 'NONE',  ( -1.881966011250020498, -5.900000000000023448, 0.000000000000000000 ) ) ;
#811 = ADVANCED_FACE ( 'NONE', ( #414 ), #851, .T. ) ;
#812 = DIRECTION ( 'NONE',  ( -1.224646799147353207E-16, 1.000000000000000000, 0.000000000000000000 ) ) ;
#813 = DIRECTION ( 'NONE',  ( -1.224646799147353207E-16, 1.000000000000000000, 0.000000000000000000 ) ) ;
#814 = DIRECTION ( 'NONE',  ( 1.224646799147353207E-16, -1.000000000000000000, 0.000000000000000000 ) ) ;
#815 = DIRECTION ( 'NONE',  ( -1.224646799147353207E-16, 1.000000000000000000, 0.000000000000000000 ) ) ;
#816 = EDGE_CURVE ( 'NONE', #228, #440, #502, .T. ) ;
#817 =( NAMED_UNIT ( * ) SI_UNIT ( $, .STERADIAN. ) SOLID_ANGLE_UNIT ( ) );
#818 = DIRECTION ( 'NONE',  ( -1.224646799147353207E-16, 1.000000000000000000, 0.000000000000000000 ) ) ;
#819 = VECTOR ( 'NONE', #215, 1000.000000000000000 ) ;
#820 = AXIS2_PLACEMENT_3D ( 'NONE', #825, #550, #82 ) ;
#821 = EDGE_CURVE ( 'NONE', #652, #56, #171, .T. ) ;
#822 = CIRCLE ( 'NONE', #157, 0.2999999999999999334 ) ;
#823 =( GEOMETRIC_REPRESENTATION_CONTEXT ( 3 ) GLOBAL_UNCERTAINTY_ASSIGNED_CONTEXT ( ( #392 ) ) GLOBAL_UNIT_ASSIGNED_CONTEXT ( ( #24, #354, #817 ) ) REPRESENTATION_CONTEXT ( 'NONE', 'WORKASPACE' ) );
#824 = CARTESIAN_POINT ( 'NONE',  ( -1.881966011250021165, -4.677734530604214682E-17, 0.000000000000000000 ) ) ;
#825 = CARTESIAN_POINT ( 'NONE',  ( 0.4999999999999987232, -2.500000000000000000, 1.500000000000000000 ) ) ;
#826 = VERTEX_POINT ( 'NONE', #562 ) ;
#827 = EDGE_CURVE ( 'NONE', #170, #518, #415, .T. ) ;
#828 = CARTESIAN_POINT ( 'NONE',  ( 0.4999999999999987232, -2.500000000000000000, -0.2999999999999999334 ) ) ;
#829 = EDGE_LOOP ( 'NONE', ( #428, #22, #498, #46 ) ) ;
#830 = EDGE_CURVE ( 'NONE', #735, #123, #89, .T. ) ;
#831 = DIRECTION ( 'NONE',  ( -0.000000000000000000, -1.000000000000000000, 0.000000000000000000 ) ) ;
#832 = DIRECTION ( 'NONE',  ( 1.391489419232725644E-16, -1.000000000000000000, 0.000000000000000000 ) ) ;
#833 = TOROIDAL_SURFACE ( 'NONE', #573, 5.900000000000027001, 0.5000000000000000000 ) ;
#834 = ORIENTED_EDGE ( 'NONE', *, *, #717, .F. ) ;
#835 = DIRECTION ( 'NONE',  ( 1.355252715606881036E-16, -1.000000000000000000, 0.000000000000000000 ) ) ;
#836 = PRODUCT_RELATED_PRODUCT_CATEGORY ( 'part', '', ( #406 ) ) ;
#837 = DIRECTION ( 'NONE',  ( -1.000000000000000000, 0.000000000000000000, 0.000000000000000000 ) ) ;
#838 = ORIENTED_EDGE ( 'NONE', *, *, #855, .T. ) ;
#839 = EDGE_LOOP ( 'NONE', ( #162, #431, #91, #377 ) ) ;
#840 = DIRECTION ( 'NONE',  ( 0.000000000000000000, -1.000000000000000000, 0.000000000000000000 ) ) ;
#841 = ORIENTED_EDGE ( 'NONE', *, *, #672, .F. ) ;
#842 = ADVANCED_FACE ( 'NONE', ( #85 ), #58, .T. ) ;
#843 = EDGE_LOOP ( 'NONE', ( #761, #52 ) ) ;
#844 = CARTESIAN_POINT ( 'NONE',  ( 0.000000000000000000, -2.500000000000000000, 0.2999999999999999334 ) ) ;
#845 = DIRECTION ( 'NONE',  ( 1.020425574104004122E-16, 0.000000000000000000, 1.000000000000000000 ) ) ;
#846 = ORIENTED_EDGE ( 'NONE', *, *, #816, .F. ) ;
#847 = CIRCLE ( 'NONE', #586, 5.899999999999994138 ) ;
#848 = VERTEX_POINT ( 'NONE', #346 ) ;
#849 = PRESENTATION_LAYER_ASSIGNMENT (  '', '', ( #226 ) ) ;
#850 = AXIS2_PLACEMENT_3D ( 'NONE', #364, #238, #837 ) ;
#851 = TOROIDAL_SURFACE ( 'NONE', #796, 5.900000000000027001, 0.5000000000000000000 ) ;
#852 = DIRECTION ( 'NONE',  ( 0.000000000000000000, 0.000000000000000000, -1.000000000000000000 ) ) ;
#853 = ORIENTED_EDGE ( 'NONE', *, *, #706, .F. ) ;
#854 = FACE_OUTER_BOUND ( 'NONE', #195, .T. ) ;
#855 = EDGE_CURVE ( 'NONE', #309, #324, #242, .T. ) ;
#856 = PRESENTATION_STYLE_ASSIGNMENT (( #314 ) ) ;
#857 = CARTESIAN_POINT ( 'NONE',  ( -4.118033988749979279, 6.399999999999996803, 0.000000000000000000 ) ) ;
#858 = ORIENTED_EDGE ( 'NONE', *, *, #554, .T. ) ;
#859 = CARTESIAN_POINT ( 'NONE',  ( -42.49999999999999289, -5.204748896376250107E-15, 0.000000000000000000 ) ) ;
#860 = CARTESIAN_POINT ( 'NONE',  ( 1.047802263242589059E-15, -5.899999999999995914, 7.531577814756217134E-16 ) ) ;
#861 = EDGE_CURVE ( 'NONE', #471, #128, #371, .T. ) ;
#862 = CARTESIAN_POINT ( 'NONE',  ( -7.837739514543054018E-16, 6.399999999999995026, 0.000000000000000000 ) ) ;
#863 = CIRCLE ( 'NONE', #486, 5.899999999999997691 ) ;
#864 = AXIS2_PLACEMENT_3D ( 'NONE', #424, #303, #363 ) ;
#865 = CARTESIAN_POINT ( 'NONE',  ( 0.4999999999999987232, 2.500000000000000000, 1.500000000000000000 ) ) ;
#866 = CIRCLE ( 'NONE', #257, 0.5000000000000004441 ) ;
ENDSEC;
END-ISO-10303-21;
