ISO-10303-21;
HEADER;
FILE_DESCRIPTION (( 'STEP AP214' ),
    '1' );
FILE_NAME ('CAP-TH-C8x15-P3_5-D0_6.STEP',
    '2026-07-24T10:16:02',
    ( '' ),
    ( '' ),
    'SwSTEP 2.0',
    'SolidWorks 2020',
    '' );
FILE_SCHEMA (( 'AUTOMOTIVE_DESIGN' ));
ENDSEC;

DATA;
#1 = DIRECTION ( 'NONE',  ( -0.000000000000000000, -1.000000000000000000, -0.000000000000000000 ) ) ;
#2 = FACE_OUTER_BOUND ( 'NONE', #160, .T. ) ;
#3 = AXIS2_PLACEMENT_3D ( 'NONE', #50, #68, #26 ) ;
#4 = PLANE ( 'NONE',  #129 ) ;
#5 = CARTESIAN_POINT ( 'NONE',  ( 1.750000000000000000, -1.500000000000000000, 0.000000000000000000 ) ) ;
#6 = ADVANCED_FACE ( 'NONE', ( #20 ), #265, .T. ) ;
#7 = DIRECTION ( 'NONE',  ( 0.000000000000000000, -0.000000000000000000, 1.000000000000000000 ) ) ;
#8 = CIRCLE ( 'NONE', #256, 0.3000000000000003220 ) ;
#9 = CARTESIAN_POINT ( 'NONE',  ( -1.750000000000000000, -1.500000000000000000, 0.2999999999999998779 ) ) ;
#10 = PLANE ( 'NONE',  #60 ) ;
#11 = EDGE_CURVE ( 'NONE', #44, #132, #296, .T. ) ;
#12 = DIRECTION ( 'NONE',  ( -0.000000000000000000, -1.000000000000000000, -0.000000000000000000 ) ) ;
#13 = LINE ( 'NONE', #217, #264 ) ;
#14 = CIRCLE ( 'NONE', #220, 0.3000000000000003220 ) ;
#15 = CARTESIAN_POINT ( 'NONE',  ( 1.750000000000000000, 0.000000000000000000, 0.000000000000000000 ) ) ;
#16 = ORIENTED_EDGE ( 'NONE', *, *, #219, .F. ) ;
#17 = VERTEX_POINT ( 'NONE', #278 ) ;
#18 = APPLICATION_PROTOCOL_DEFINITION ( 'draft international standard', 'automotive_design', 1998, #101 ) ;
#19 = ORIENTED_EDGE ( 'NONE', *, *, #11, .T. ) ;
#20 = FACE_OUTER_BOUND ( 'NONE', #179, .T. ) ;
#21 = AXIS2_PLACEMENT_3D ( 'NONE', #147, #233, #235 ) ;
#22 = CARTESIAN_POINT ( 'NONE',  ( -1.750000000000000000, 1.500000000000000000, 0.000000000000000000 ) ) ;
#23 = DIRECTION ( 'NONE',  ( -0.000000000000000000, -1.000000000000000000, -0.000000000000000000 ) ) ;
#24 = DIRECTION ( 'NONE',  ( 0.000000000000000000, 0.000000000000000000, 1.000000000000000000 ) ) ;
#25 = DIRECTION ( 'NONE',  ( 0.000000000000000000, 0.000000000000000000, 1.000000000000000000 ) ) ;
#26 = DIRECTION ( 'NONE',  ( 0.000000000000000000, 0.000000000000000000, 1.000000000000000000 ) ) ;
#27 = PRODUCT_DEFINITION_FORMATION_WITH_SPECIFIED_SOURCE ( '任何', '', #273, .NOT_KNOWN. ) ;
#28 = AXIS2_PLACEMENT_3D ( 'NONE', #186, #298, #67 ) ;
#29 = CARTESIAN_POINT ( 'NONE',  ( 0.000000000000000000, 15.00000000000000000, -4.000000000000000000 ) ) ;
#30 = EDGE_CURVE ( 'NONE', #43, #89, #205, .T. ) ;
#31 = ADVANCED_BREP_SHAPE_REPRESENTATION ( 'CAP-TH-C8x15-P3_5-D0_6', ( #81, #128 ), #95 ) ;
#32 = DIRECTION ( 'NONE',  ( -0.000000000000000000, -1.000000000000000000, -0.000000000000000000 ) ) ;
#33 =( NAMED_UNIT ( * ) SI_UNIT ( $, .STERADIAN. ) SOLID_ANGLE_UNIT ( ) );
#34 = ORIENTED_EDGE ( 'NONE', *, *, #52, .F. ) ;
#35 = CARTESIAN_POINT ( 'NONE',  ( -1.750000000000000000, -1.500000000000000000, -0.2999999999999998779 ) ) ;
#36 = CARTESIAN_POINT ( 'NONE',  ( 0.000000000000000000, 0.000000000000000000, 0.000000000000000000 ) ) ;
#37 = PLANE ( 'NONE',  #61 ) ;
#38 = MECHANICAL_DESIGN_GEOMETRIC_PRESENTATION_REPRESENTATION (  '', ( #240 ), #54 ) ;
#39 = PRODUCT_DEFINITION ( '未知', '', #27, #76 ) ;
#40 = PRESENTATION_LAYER_ASSIGNMENT (  '', '', ( #55 ) ) ;
#41 = CARTESIAN_POINT ( 'NONE',  ( 1.750000000000000000, -1.500000000000000000, 0.000000000000000000 ) ) ;
#42 = VERTEX_POINT ( 'NONE', #164 ) ;
#43 = VERTEX_POINT ( 'NONE', #207 ) ;
#44 = VERTEX_POINT ( 'NONE', #138 ) ;
#45 = ORIENTED_EDGE ( 'NONE', *, *, #219, .T. ) ;
#46 = CYLINDRICAL_SURFACE ( 'NONE', #121, 0.2999999999999998779 ) ;
#47 = PLANE ( 'NONE',  #206 ) ;
#48 = CARTESIAN_POINT ( 'NONE',  ( -1.750000000000000000, 0.000000000000000000, 0.000000000000000000 ) ) ;
#49 = APPLICATION_CONTEXT ( 'automotive_design' ) ;
#50 = CARTESIAN_POINT ( 'NONE',  ( -1.750000000000000000, 0.000000000000000000, 0.000000000000000000 ) ) ;
#51 = UNCERTAINTY_MEASURE_WITH_UNIT (LENGTH_MEASURE( 1.000000000000000082E-05 ), #175, 'distance_accuracy_value', 'NONE');
#52 = EDGE_CURVE ( 'NONE', #225, #227, #141, .T. ) ;
#53 = CARTESIAN_POINT ( 'NONE',  ( 0.000000000000000000, 15.00000000000000000, 0.000000000000000000 ) ) ;
#54 =( GEOMETRIC_REPRESENTATION_CONTEXT ( 3 ) GLOBAL_UNCERTAINTY_ASSIGNED_CONTEXT ( ( #51 ) ) GLOBAL_UNIT_ASSIGNED_CONTEXT ( ( #175, #56, #33 ) ) REPRESENTATION_CONTEXT ( 'NONE', 'WORKASPACE' ) );
#55 = STYLED_ITEM ( 'NONE', ( #69 ), #81 ) ;
#56 =( NAMED_UNIT ( * ) PLANE_ANGLE_UNIT ( ) SI_UNIT ( $, .RADIAN. ) );
#57 = LINE ( 'NONE', #103, #199 ) ;
#58 = PRODUCT_RELATED_PRODUCT_CATEGORY ( 'part', '', ( #273 ) ) ;
#59 = EDGE_CURVE ( 'NONE', #132, #42, #250, .T. ) ;
#60 = AXIS2_PLACEMENT_3D ( 'NONE', #36, #221, #149 ) ;
#61 = AXIS2_PLACEMENT_3D ( 'NONE', #195, #287, #150 ) ;
#62 = CARTESIAN_POINT ( 'NONE',  ( 0.000000000000000000, 15.00000000000000000, 0.000000000000000000 ) ) ;
#63 = ORIENTED_EDGE ( 'NONE', *, *, #182, .F. ) ;
#64 = ORIENTED_EDGE ( 'NONE', *, *, #254, .T. ) ;
#65 = EDGE_LOOP ( 'NONE', ( #291, #19, #224, #45 ) ) ;
#66 = ORIENTED_EDGE ( 'NONE', *, *, #30, .F. ) ;
#67 = DIRECTION ( 'NONE',  ( 0.000000000000000000, 0.000000000000000000, 1.000000000000000000 ) ) ;
#68 = DIRECTION ( 'NONE',  ( -0.000000000000000000, -1.000000000000000000, -0.000000000000000000 ) ) ;
#69 = PRESENTATION_STYLE_ASSIGNMENT (( #299 ) ) ;
#70 = DIRECTION ( 'NONE',  ( 0.000000000000000000, -0.000000000000000000, 1.000000000000000000 ) ) ;
#71 = FACE_OUTER_BOUND ( 'NONE', #197, .T. ) ;
#72 = CARTESIAN_POINT ( 'NONE',  ( 0.000000000000000000, 15.00000000000000000, 0.000000000000000000 ) ) ;
#73 = DIRECTION ( 'NONE',  ( 0.000000000000000000, 0.000000000000000000, -1.000000000000000000 ) ) ;
#74 = ADVANCED_FACE ( 'NONE', ( #71 ), #46, .T. ) ;
#75 = CYLINDRICAL_SURFACE ( 'NONE', #259, 4.000000000000000000 ) ;
#76 = PRODUCT_DEFINITION_CONTEXT ( 'detailed design', #101, 'design' ) ;
#77 = CIRCLE ( 'NONE', #271, 4.000000000000000000 ) ;
#78 = SURFACE_STYLE_USAGE ( .BOTH. , #107 ) ;
#79 =( NAMED_UNIT ( * ) PLANE_ANGLE_UNIT ( ) SI_UNIT ( $, .RADIAN. ) );
#80 = FILL_AREA_STYLE_COLOUR ( '', #282 ) ;
#81 = MANIFOLD_SOLID_BREP ( '凸台-拉伸3', #258 ) ;
#82 = DIRECTION ( 'NONE',  ( 0.000000000000000000, 1.000000000000000000, 0.000000000000000000 ) ) ;
#83 = EDGE_CURVE ( 'NONE', #17, #178, #184, .T. ) ;
#84 = ORIENTED_EDGE ( 'NONE', *, *, #283, .T. ) ;
#85 = ORIENTED_EDGE ( 'NONE', *, *, #189, .T. ) ;
#86 = ORIENTED_EDGE ( 'NONE', *, *, #202, .F. ) ;
#87 = ORIENTED_EDGE ( 'NONE', *, *, #196, .T. ) ;
#88 = CARTESIAN_POINT ( 'NONE',  ( 0.000000000000000000, 0.000000000000000000, 0.000000000000000000 ) ) ;
#89 = VERTEX_POINT ( 'NONE', #119 ) ;
#90 = AXIS2_PLACEMENT_3D ( 'NONE', #48, #165, #25 ) ;
#91 = ADVANCED_FACE ( 'NONE', ( #2 ), #75, .T. ) ;
#92 =( LENGTH_UNIT ( ) NAMED_UNIT ( * ) SI_UNIT ( .MILLI., .METRE. ) );
#93 = DIRECTION ( 'NONE',  ( -0.000000000000000000, -1.000000000000000000, -0.000000000000000000 ) ) ;
#94 = DIRECTION ( 'NONE',  ( 0.000000000000000000, 0.000000000000000000, 1.000000000000000000 ) ) ;
#95 =( GEOMETRIC_REPRESENTATION_CONTEXT ( 3 ) GLOBAL_UNCERTAINTY_ASSIGNED_CONTEXT ( ( #277 ) ) GLOBAL_UNIT_ASSIGNED_CONTEXT ( ( #288, #79, #104 ) ) REPRESENTATION_CONTEXT ( 'NONE', 'WORKASPACE' ) );
#96 =( NAMED_UNIT ( * ) PLANE_ANGLE_UNIT ( ) SI_UNIT ( $, .RADIAN. ) );
#97 = CARTESIAN_POINT ( 'NONE',  ( 1.750000000000000000, -1.500000000000000000, 0.000000000000000000 ) ) ;
#98 = CIRCLE ( 'NONE', #3, 0.2999999999999998779 ) ;
#99 = CARTESIAN_POINT ( 'NONE',  ( -1.750000000000000000, -1.500000000000000000, 0.000000000000000000 ) ) ;
#100 = EDGE_CURVE ( 'NONE', #183, #43, #159, .T. ) ;
#101 = APPLICATION_CONTEXT ( 'automotive_design' ) ;
#102 = DIRECTION ( 'NONE',  ( 0.000000000000000000, 1.000000000000000000, 0.000000000000000000 ) ) ;
#103 = CARTESIAN_POINT ( 'NONE',  ( 1.750000000000000000, 1.500000000000000000, 0.3000000000000003220 ) ) ;
#104 =( NAMED_UNIT ( * ) SI_UNIT ( $, .STERADIAN. ) SOLID_ANGLE_UNIT ( ) );
#105 = ADVANCED_FACE ( 'NONE', ( #208 ), #4, .F. ) ;
#106 = PRESENTATION_LAYER_ASSIGNMENT (  '', '', ( #240 ) ) ;
#107 = SURFACE_SIDE_STYLE ('',( #284 ) ) ;
#108 = AXIS2_PLACEMENT_3D ( 'NONE', #188, #255, #144 ) ;
#109 = ORIENTED_EDGE ( 'NONE', *, *, #83, .T. ) ;
#110 = EDGE_LOOP ( 'NONE', ( #34, #243 ) ) ;
#111 = ORIENTED_EDGE ( 'NONE', *, *, #148, .F. ) ;
#112 = EDGE_LOOP ( 'NONE', ( #146, #64, #247, #200 ) ) ;
#113 = ADVANCED_FACE ( 'NONE', ( #232 ), #47, .F. ) ;
#114 = DIRECTION ( 'NONE',  ( 0.000000000000000000, 0.000000000000000000, 1.000000000000000000 ) ) ;
#115 = AXIS2_PLACEMENT_3D ( 'NONE', #252, #23, #169 ) ;
#116 = SURFACE_STYLE_FILL_AREA ( #185 ) ;
#117 = DIRECTION ( 'NONE',  ( -0.000000000000000000, -1.000000000000000000, -0.000000000000000000 ) ) ;
#118 = SURFACE_SIDE_STYLE ('',( #116 ) ) ;
#119 = CARTESIAN_POINT ( 'NONE',  ( 4.898587196589412829E-16, 0.000000000000000000, 4.000000000000000000 ) ) ;
#120 = DIRECTION ( 'NONE',  ( 0.000000000000000000, 1.000000000000000000, 0.000000000000000000 ) ) ;
#121 = AXIS2_PLACEMENT_3D ( 'NONE', #22, #161, #167 ) ;
#122 = CARTESIAN_POINT ( 'NONE',  ( 0.000000000000000000, 15.00000000000000000, 0.000000000000000000 ) ) ;
#123 = DIRECTION ( 'NONE',  ( 0.000000000000000000, 1.000000000000000000, 0.000000000000000000 ) ) ;
#124 = FACE_OUTER_BOUND ( 'NONE', #269, .T. ) ;
#125 = FACE_BOUND ( 'NONE', #201, .T. ) ;
#126 = DIRECTION ( 'NONE',  ( 0.000000000000000000, 0.000000000000000000, 1.000000000000000000 ) ) ;
#127 = FACE_OUTER_BOUND ( 'NONE', #136, .T. ) ;
#128 = AXIS2_PLACEMENT_3D ( 'NONE', #88, #114, #137 ) ;
#129 = AXIS2_PLACEMENT_3D ( 'NONE', #97, #120, #7 ) ;
#130 = ORIENTED_EDGE ( 'NONE', *, *, #157, .T. ) ;
#131 = ORIENTED_EDGE ( 'NONE', *, *, #152, .F. ) ;
#132 = VERTEX_POINT ( 'NONE', #279 ) ;
#133 = AXIS2_PLACEMENT_3D ( 'NONE', #53, #190, #280 ) ;
#134 = EDGE_LOOP ( 'NONE', ( #244, #198 ) ) ;
#135 = ADVANCED_FACE ( 'NONE', ( #140 ), #162, .T. ) ;
#136 = EDGE_LOOP ( 'NONE', ( #131, #85, #84, #289 ) ) ;
#137 = DIRECTION ( 'NONE',  ( 1.000000000000000000, 0.000000000000000000, 0.000000000000000000 ) ) ;
#138 = CARTESIAN_POINT ( 'NONE',  ( 1.750000000000000000, 0.000000000000000000, 0.3000000000000003220 ) ) ;
#139 = ORIENTED_EDGE ( 'NONE', *, *, #182, .T. ) ;
#140 = FACE_OUTER_BOUND ( 'NONE', #65, .T. ) ;
#141 = CIRCLE ( 'NONE', #28, 0.2999999999999998779 ) ;
#142 = CARTESIAN_POINT ( 'NONE',  ( -1.750000000000000000, -1.500000000000000000, 0.000000000000000000 ) ) ;
#143 = DIRECTION ( 'NONE',  ( 0.000000000000000000, 1.000000000000000000, 0.000000000000000000 ) ) ;
#144 = DIRECTION ( 'NONE',  ( 0.000000000000000000, 0.000000000000000000, -1.000000000000000000 ) ) ;
#145 = VECTOR ( 'NONE', #117, 1000.000000000000000 ) ;
#146 = ORIENTED_EDGE ( 'NONE', *, *, #202, .T. ) ;
#147 = CARTESIAN_POINT ( 'NONE',  ( 0.000000000000000000, 0.000000000000000000, 0.000000000000000000 ) ) ;
#148 = EDGE_CURVE ( 'NONE', #268, #89, #297, .T. ) ;
#149 = DIRECTION ( 'NONE',  ( 0.000000000000000000, -0.000000000000000000, 1.000000000000000000 ) ) ;
#150 = DIRECTION ( 'NONE',  ( 0.000000000000000000, -0.000000000000000000, 1.000000000000000000 ) ) ;
#151 = DIRECTION ( 'NONE',  ( 0.000000000000000000, 0.000000000000000000, -1.000000000000000000 ) ) ;
#152 = EDGE_CURVE ( 'NONE', #178, #227, #210, .T. ) ;
#153 = DIRECTION ( 'NONE',  ( -0.000000000000000000, -1.000000000000000000, -0.000000000000000000 ) ) ;
#154 =( GEOMETRIC_REPRESENTATION_CONTEXT ( 3 ) GLOBAL_UNCERTAINTY_ASSIGNED_CONTEXT ( ( #261 ) ) GLOBAL_UNIT_ASSIGNED_CONTEXT ( ( #92, #96, #257 ) ) REPRESENTATION_CONTEXT ( 'NONE', 'WORKASPACE' ) );
#155 = ORIENTED_EDGE ( 'NONE', *, *, #148, .T. ) ;
#156 = ORIENTED_EDGE ( 'NONE', *, *, #283, .F. ) ;
#157 = EDGE_CURVE ( 'NONE', #43, #183, #77, .T. ) ;
#158 = ORIENTED_EDGE ( 'NONE', *, *, #30, .T. ) ;
#159 = CIRCLE ( 'NONE', #133, 4.000000000000000000 ) ;
#160 = EDGE_LOOP ( 'NONE', ( #66, #267, #139, #155 ) ) ;
#161 = DIRECTION ( 'NONE',  ( -0.000000000000000000, -1.000000000000000000, -0.000000000000000000 ) ) ;
#162 = CYLINDRICAL_SURFACE ( 'NONE', #108, 0.3000000000000003220 ) ;
#163 = CIRCLE ( 'NONE', #192, 0.3000000000000003220 ) ;
#164 = CARTESIAN_POINT ( 'NONE',  ( 1.750000000000000000, -1.500000000000000000, -0.3000000000000003220 ) ) ;
#165 = DIRECTION ( 'NONE',  ( -0.000000000000000000, -1.000000000000000000, -0.000000000000000000 ) ) ;
#166 = AXIS2_PLACEMENT_3D ( 'NONE', #62, #153, #242 ) ;
#167 = DIRECTION ( 'NONE',  ( 0.000000000000000000, 0.000000000000000000, -1.000000000000000000 ) ) ;
#168 = FACE_OUTER_BOUND ( 'NONE', #112, .T. ) ;
#169 = DIRECTION ( 'NONE',  ( 0.000000000000000000, 0.000000000000000000, -1.000000000000000000 ) ) ;
#170 = ADVANCED_FACE ( 'NONE', ( #168 ), #187, .T. ) ;
#171 = DIRECTION ( 'NONE',  ( 0.000000000000000000, 0.000000000000000000, 1.000000000000000000 ) ) ;
#172 = VECTOR ( 'NONE', #32, 1000.000000000000000 ) ;
#173 = DIRECTION ( 'NONE',  ( -0.000000000000000000, -1.000000000000000000, -0.000000000000000000 ) ) ;
#174 = DIRECTION ( 'NONE',  ( 0.000000000000000000, 0.000000000000000000, 1.000000000000000000 ) ) ;
#175 =( LENGTH_UNIT ( ) NAMED_UNIT ( * ) SI_UNIT ( .MILLI., .METRE. ) );
#176 = CIRCLE ( 'NONE', #285, 4.000000000000000000 ) ;
#177 = CARTESIAN_POINT ( 'NONE',  ( -1.750000000000000000, 1.500000000000000000, 0.000000000000000000 ) ) ;
#178 = VERTEX_POINT ( 'NONE', #215 ) ;
#179 = EDGE_LOOP ( 'NONE', ( #203, #158, #87, #63 ) ) ;
#180 = ORIENTED_EDGE ( 'NONE', *, *, #293, .F. ) ;
#181 = ORIENTED_EDGE ( 'NONE', *, *, #152, .T. ) ;
#182 = EDGE_CURVE ( 'NONE', #183, #268, #231, .T. ) ;
#183 = VERTEX_POINT ( 'NONE', #214 ) ;
#184 = CIRCLE ( 'NONE', #90, 0.2999999999999998779 ) ;
#185 = FILL_AREA_STYLE ('',( #275 ) ) ;
#186 = CARTESIAN_POINT ( 'NONE',  ( -1.750000000000000000, -1.500000000000000000, 0.000000000000000000 ) ) ;
#187 = CYLINDRICAL_SURFACE ( 'NONE', #115, 0.3000000000000003220 ) ;
#188 = CARTESIAN_POINT ( 'NONE',  ( 1.750000000000000000, 1.500000000000000000, 0.000000000000000000 ) ) ;
#189 = EDGE_CURVE ( 'NONE', #178, #17, #98, .T. ) ;
#190 = DIRECTION ( 'NONE',  ( 0.000000000000000000, 1.000000000000000000, 0.000000000000000000 ) ) ;
#191 = AXIS2_PLACEMENT_3D ( 'NONE', #142, #143, #211 ) ;
#192 = AXIS2_PLACEMENT_3D ( 'NONE', #41, #82, #174 ) ;
#193 = CARTESIAN_POINT ( 'NONE',  ( 1.750000000000000000, 0.000000000000000000, 0.000000000000000000 ) ) ;
#194 = DIRECTION ( 'NONE',  ( 0.000000000000000000, 1.000000000000000000, 0.000000000000000000 ) ) ;
#195 = CARTESIAN_POINT ( 'NONE',  ( 0.000000000000000000, 15.00000000000000000, 0.000000000000000000 ) ) ;
#196 = EDGE_CURVE ( 'NONE', #89, #268, #176, .T. ) ;
#197 = EDGE_LOOP ( 'NONE', ( #109, #181, #295, #156 ) ) ;
#198 = ORIENTED_EDGE ( 'NONE', *, *, #189, .F. ) ;
#199 = VECTOR ( 'NONE', #173, 1000.000000000000000 ) ;
#200 = ORIENTED_EDGE ( 'NONE', *, *, #59, .F. ) ;
#201 = EDGE_LOOP ( 'NONE', ( #86, #246 ) ) ;
#202 = EDGE_CURVE ( 'NONE', #132, #44, #14, .T. ) ;
#203 = ORIENTED_EDGE ( 'NONE', *, *, #157, .F. ) ;
#204 = SHAPE_DEFINITION_REPRESENTATION ( #226, #31 ) ;
#205 = LINE ( 'NONE', #228, #266 ) ;
#206 = AXIS2_PLACEMENT_3D ( 'NONE', #99, #251, #70 ) ;
#207 = CARTESIAN_POINT ( 'NONE',  ( 4.898587196589412829E-16, 15.00000000000000000, 4.000000000000000000 ) ) ;
#208 = FACE_OUTER_BOUND ( 'NONE', #223, .T. ) ;
#209 = DIRECTION ( 'NONE',  ( -0.000000000000000000, -1.000000000000000000, -0.000000000000000000 ) ) ;
#210 = LINE ( 'NONE', #230, #172 ) ;
#211 = DIRECTION ( 'NONE',  ( 0.000000000000000000, 0.000000000000000000, 1.000000000000000000 ) ) ;
#212 = EDGE_CURVE ( 'NONE', #227, #225, #213, .T. ) ;
#213 = CIRCLE ( 'NONE', #191, 0.2999999999999998779 ) ;
#214 = CARTESIAN_POINT ( 'NONE',  ( 0.000000000000000000, 15.00000000000000000, -4.000000000000000000 ) ) ;
#215 = CARTESIAN_POINT ( 'NONE',  ( -1.750000000000000000, 0.000000000000000000, 0.2999999999999998779 ) ) ;
#216 = CARTESIAN_POINT ( 'NONE',  ( 1.750000000000000000, -1.500000000000000000, 0.3000000000000003220 ) ) ;
#217 = CARTESIAN_POINT ( 'NONE',  ( -1.750000000000000000, 1.500000000000000000, -0.2999999999999998779 ) ) ;
#218 = PRESENTATION_STYLE_ASSIGNMENT (( #78 ) ) ;
#219 = EDGE_CURVE ( 'NONE', #42, #222, #8, .T. ) ;
#220 = AXIS2_PLACEMENT_3D ( 'NONE', #193, #253, #276 ) ;
#221 = DIRECTION ( 'NONE',  ( 0.000000000000000000, 1.000000000000000000, 0.000000000000000000 ) ) ;
#222 = VERTEX_POINT ( 'NONE', #216 ) ;
#223 = EDGE_LOOP ( 'NONE', ( #16, #180 ) ) ;
#224 = ORIENTED_EDGE ( 'NONE', *, *, #59, .T. ) ;
#225 = VERTEX_POINT ( 'NONE', #35 ) ;
#226 = PRODUCT_DEFINITION_SHAPE ( 'NONE', 'NONE',  #39 ) ;
#227 = VERTEX_POINT ( 'NONE', #9 ) ;
#228 = CARTESIAN_POINT ( 'NONE',  ( 4.898587196589412829E-16, 15.00000000000000000, 4.000000000000000000 ) ) ;
#229 = AXIS2_PLACEMENT_3D ( 'NONE', #15, #93, #24 ) ;
#230 = CARTESIAN_POINT ( 'NONE',  ( -1.750000000000000000, 1.500000000000000000, 0.2999999999999998779 ) ) ;
#231 = LINE ( 'NONE', #29, #145 ) ;
#232 = FACE_OUTER_BOUND ( 'NONE', #110, .T. ) ;
#233 = DIRECTION ( 'NONE',  ( 0.000000000000000000, 1.000000000000000000, 0.000000000000000000 ) ) ;
#234 = MECHANICAL_DESIGN_GEOMETRIC_PRESENTATION_REPRESENTATION (  '', ( #55 ), #154 ) ;
#235 = DIRECTION ( 'NONE',  ( 0.000000000000000000, 0.000000000000000000, 1.000000000000000000 ) ) ;
#236 = CARTESIAN_POINT ( 'NONE',  ( 0.000000000000000000, 0.000000000000000000, -4.000000000000000000 ) ) ;
#237 = FACE_BOUND ( 'NONE', #134, .T. ) ;
#238 = ADVANCED_FACE ( 'NONE', ( #263 ), #37, .T. ) ;
#239 = CYLINDRICAL_SURFACE ( 'NONE', #245, 0.2999999999999998779 ) ;
#240 = STYLED_ITEM ( 'NONE', ( #218 ), #31 ) ;
#241 = VECTOR ( 'NONE', #1, 1000.000000000000000 ) ;
#242 = DIRECTION ( 'NONE',  ( 0.000000000000000000, 0.000000000000000000, -1.000000000000000000 ) ) ;
#243 = ORIENTED_EDGE ( 'NONE', *, *, #212, .F. ) ;
#244 = ORIENTED_EDGE ( 'NONE', *, *, #83, .F. ) ;
#245 = AXIS2_PLACEMENT_3D ( 'NONE', #177, #12, #151 ) ;
#246 = ORIENTED_EDGE ( 'NONE', *, *, #11, .F. ) ;
#247 = ORIENTED_EDGE ( 'NONE', *, *, #293, .T. ) ;
#248 = ADVANCED_FACE ( 'NONE', ( #127 ), #239, .T. ) ;
#249 = APPLICATION_PROTOCOL_DEFINITION ( 'draft international standard', 'automotive_design', 1998, #49 ) ;
#250 = LINE ( 'NONE', #274, #241 ) ;
#251 = DIRECTION ( 'NONE',  ( 0.000000000000000000, 1.000000000000000000, 0.000000000000000000 ) ) ;
#252 = CARTESIAN_POINT ( 'NONE',  ( 1.750000000000000000, 1.500000000000000000, 0.000000000000000000 ) ) ;
#253 = DIRECTION ( 'NONE',  ( -0.000000000000000000, -1.000000000000000000, -0.000000000000000000 ) ) ;
#254 = EDGE_CURVE ( 'NONE', #44, #222, #57, .T. ) ;
#255 = DIRECTION ( 'NONE',  ( -0.000000000000000000, -1.000000000000000000, -0.000000000000000000 ) ) ;
#256 = AXIS2_PLACEMENT_3D ( 'NONE', #5, #194, #126 ) ;
#257 =( NAMED_UNIT ( * ) SI_UNIT ( $, .STERADIAN. ) SOLID_ANGLE_UNIT ( ) );
#258 = CLOSED_SHELL ( 'NONE', ( #170, #74, #6, #91, #238, #270, #248, #113, #135, #105 ) ) ;
#259 = AXIS2_PLACEMENT_3D ( 'NONE', #122, #281, #73 ) ;
#260 = DIRECTION ( 'NONE',  ( -0.000000000000000000, -1.000000000000000000, -0.000000000000000000 ) ) ;
#261 = UNCERTAINTY_MEASURE_WITH_UNIT (LENGTH_MEASURE( 1.000000000000000082E-05 ), #92, 'distance_accuracy_value', 'NONE');
#262 = COLOUR_RGB ( '',1.000000000000000000, 1.000000000000000000, 1.000000000000000000 ) ;
#263 = FACE_OUTER_BOUND ( 'NONE', #290, .T. ) ;
#264 = VECTOR ( 'NONE', #260, 1000.000000000000000 ) ;
#265 = CYLINDRICAL_SURFACE ( 'NONE', #166, 4.000000000000000000 ) ;
#266 = VECTOR ( 'NONE', #209, 1000.000000000000000 ) ;
#267 = ORIENTED_EDGE ( 'NONE', *, *, #100, .F. ) ;
#268 = VERTEX_POINT ( 'NONE', #236 ) ;
#269 = EDGE_LOOP ( 'NONE', ( #111, #272 ) ) ;
#270 = ADVANCED_FACE ( 'NONE', ( #125, #237, #124 ), #10, .F. ) ;
#271 = AXIS2_PLACEMENT_3D ( 'NONE', #72, #123, #171 ) ;
#272 = ORIENTED_EDGE ( 'NONE', *, *, #196, .F. ) ;
#273 = PRODUCT ( 'CAP-TH-C8x15-P3_5-D0_6', 'CAP-TH-C8x15-P3_5-D0_6', '', ( #294 ) ) ;
#274 = CARTESIAN_POINT ( 'NONE',  ( 1.750000000000000000, 1.500000000000000000, -0.3000000000000003220 ) ) ;
#275 = FILL_AREA_STYLE_COLOUR ( '', #262 ) ;
#276 = DIRECTION ( 'NONE',  ( 0.000000000000000000, 0.000000000000000000, 1.000000000000000000 ) ) ;
#277 = UNCERTAINTY_MEASURE_WITH_UNIT (LENGTH_MEASURE( 1.000000000000000082E-05 ), #288, 'distance_accuracy_value', 'NONE');
#278 = CARTESIAN_POINT ( 'NONE',  ( -1.750000000000000000, 0.000000000000000000, -0.2999999999999998779 ) ) ;
#279 = CARTESIAN_POINT ( 'NONE',  ( 1.750000000000000000, 0.000000000000000000, -0.3000000000000003220 ) ) ;
#280 = DIRECTION ( 'NONE',  ( 0.000000000000000000, 0.000000000000000000, 1.000000000000000000 ) ) ;
#281 = DIRECTION ( 'NONE',  ( -0.000000000000000000, -1.000000000000000000, -0.000000000000000000 ) ) ;
#282 = COLOUR_RGB ( '',1.000000000000000000, 1.000000000000000000, 1.000000000000000000 ) ;
#283 = EDGE_CURVE ( 'NONE', #17, #225, #13, .T. ) ;
#284 = SURFACE_STYLE_FILL_AREA ( #286 ) ;
#285 = AXIS2_PLACEMENT_3D ( 'NONE', #300, #102, #94 ) ;
#286 = FILL_AREA_STYLE ('',( #80 ) ) ;
#287 = DIRECTION ( 'NONE',  ( 0.000000000000000000, 1.000000000000000000, 0.000000000000000000 ) ) ;
#288 =( LENGTH_UNIT ( ) NAMED_UNIT ( * ) SI_UNIT ( .MILLI., .METRE. ) );
#289 = ORIENTED_EDGE ( 'NONE', *, *, #52, .T. ) ;
#290 = EDGE_LOOP ( 'NONE', ( #292, #130 ) ) ;
#291 = ORIENTED_EDGE ( 'NONE', *, *, #254, .F. ) ;
#292 = ORIENTED_EDGE ( 'NONE', *, *, #100, .T. ) ;
#293 = EDGE_CURVE ( 'NONE', #222, #42, #163, .T. ) ;
#294 = PRODUCT_CONTEXT ( 'NONE', #49, 'mechanical' ) ;
#295 = ORIENTED_EDGE ( 'NONE', *, *, #212, .T. ) ;
#296 = CIRCLE ( 'NONE', #229, 0.3000000000000003220 ) ;
#297 = CIRCLE ( 'NONE', #21, 4.000000000000000000 ) ;
#298 = DIRECTION ( 'NONE',  ( 0.000000000000000000, 1.000000000000000000, 0.000000000000000000 ) ) ;
#299 = SURFACE_STYLE_USAGE ( .BOTH. , #118 ) ;
#300 = CARTESIAN_POINT ( 'NONE',  ( 0.000000000000000000, 0.000000000000000000, 0.000000000000000000 ) ) ;
ENDSEC;
END-ISO-10303-21;
