ISO-10303-21;
HEADER;
FILE_DESCRIPTION (( 'STEP AP214' ),
    '1' );
FILE_NAME ('电容.STEP',
    '2026-04-09T09:04:57',
    ( '' ),
    ( '' ),
    'SwSTEP 2.0',
    'SolidWorks 2022',
    '' );
FILE_SCHEMA (( 'AUTOMOTIVE_DESIGN' ));
ENDSEC;

DATA;
#1 = DIRECTION ( 'NONE',  ( -1.000000000000000000, 0.000000000000000000, 0.000000000000000000 ) ) ;
#2 = DIRECTION ( 'NONE',  ( -1.758165685111629358E-16, -0.000000000000000000, -1.000000000000000000 ) ) ;
#3 = EDGE_CURVE ( 'NONE', #654, #19, #247, .T. ) ;
#4 = ORIENTED_EDGE ( 'NONE', *, *, #485, .T. ) ;
#5 = DIRECTION ( 'NONE',  ( -1.000000000000000000, -1.224646799147353207E-16, 0.000000000000000000 ) ) ;
#6 = AXIS2_PLACEMENT_3D ( 'NONE', #1011, #534, #522 ) ;
#7 = FACE_OUTER_BOUND ( 'NONE', #651, .T. ) ;
#8 = AXIS2_PLACEMENT_3D ( 'NONE', #704, #629, #384 ) ;
#9 = VERTEX_POINT ( 'NONE', #225 ) ;
#10 = AXIS2_PLACEMENT_3D ( 'NONE', #539, #65, #873 ) ;
#11 = DIRECTION ( 'NONE',  ( -0.000000000000000000, -1.000000000000000000, -0.000000000000000000 ) ) ;
#12 = EDGE_CURVE ( 'NONE', #664, #648, #476, .T. ) ;
#13 = DIRECTION ( 'NONE',  ( 0.000000000000000000, 0.000000000000000000, -1.000000000000000000 ) ) ;
#14 = ORIENTED_EDGE ( 'NONE', *, *, #114, .T. ) ;
#15 = CYLINDRICAL_SURFACE ( 'NONE', #175, 0.2999999999999999334 ) ;
#16 = ADVANCED_FACE ( 'NONE', ( #708 ), #733, .T. ) ;
#17 = FACE_OUTER_BOUND ( 'NONE', #568, .T. ) ;
#18 = DIRECTION ( 'NONE',  ( 1.000000000000000000, 1.224646799147353207E-16, -0.000000000000000000 ) ) ;
#19 = VERTEX_POINT ( 'NONE', #234 ) ;
#20 = DIRECTION ( 'NONE',  ( 1.000000000000000000, 1.224646799147353207E-16, -0.000000000000000000 ) ) ;
#21 = ADVANCED_FACE ( 'NONE', ( #882 ), #854, .T. ) ;
#22 = CARTESIAN_POINT ( 'NONE',  ( -42.49999999999999289, -5.204748896376250107E-15, 0.000000000000000000 ) ) ;
#23 = CARTESIAN_POINT ( 'NONE',  ( 5.000000000000000000, 2.500000000000000000, 9.099999999999997868 ) ) ;
#24 = AXIS2_PLACEMENT_3D ( 'NONE', #993, #279, #514 ) ;
#25 = VERTEX_POINT ( 'NONE', #395 ) ;
#26 = CARTESIAN_POINT ( 'NONE',  ( 0.9999999999999983347, 2.500000000000000000, 0.000000000000000000 ) ) ;
#27 = AXIS2_PLACEMENT_3D ( 'NONE', #700, #790, #382 ) ;
#28 = CIRCLE ( 'NONE', #94, 0.2999999999999999334 ) ;
#29 = FACE_OUTER_BOUND ( 'NONE', #49, .T. ) ;
#30 = DIRECTION ( 'NONE',  ( 1.758165685111629358E-16, 0.000000000000000000, 1.000000000000000000 ) ) ;
#31 = ORIENTED_EDGE ( 'NONE', *, *, #222, .T. ) ;
#32 = DIRECTION ( 'NONE',  ( -1.000000000000000000, 0.000000000000000000, 0.000000000000000000 ) ) ;
#33 = LINE ( 'NONE', #623, #891 ) ;
#34 = ADVANCED_FACE ( 'NONE', ( #1051 ), #311, .T. ) ;
#35 = ORIENTED_EDGE ( 'NONE', *, *, #943, .T. ) ;
#36 = APPLICATION_PROTOCOL_DEFINITION ( 'draft international standard', 'automotive_design', 1998, #224 ) ;
#37 = EDGE_CURVE ( 'NONE', #191, #373, #303, .T. ) ;
#38 = DIRECTION ( 'NONE',  ( 1.224646799147353207E-16, -1.000000000000000000, 0.000000000000000000 ) ) ;
#39 = DIRECTION ( 'NONE',  ( 1.758165685111629358E-16, 0.000000000000000000, 1.000000000000000000 ) ) ;
#40 = ORIENTED_EDGE ( 'NONE', *, *, #642, .F. ) ;
#41 =( NAMED_UNIT ( * ) PLANE_ANGLE_UNIT ( ) SI_UNIT ( $, .RADIAN. ) );
#42 = CIRCLE ( 'NONE', #743, 1.300000000000000711 ) ;
#43 = CIRCLE ( 'NONE', #6, 0.2999999999999999334 ) ;
#44 = ADVANCED_FACE ( 'NONE', ( #994 ), #1028, .T. ) ;
#45 = AXIS2_PLACEMENT_3D ( 'NONE', #527, #537, #609 ) ;
#46 = AXIS2_PLACEMENT_3D ( 'NONE', #949, #519, #189 ) ;
#47 = DIRECTION ( 'NONE',  ( 1.224646799147353207E-16, -1.000000000000000000, 0.000000000000000000 ) ) ;
#48 = CARTESIAN_POINT ( 'NONE',  ( 2.299999999999999822, -2.500000000000000000, 8.399999999999998579 ) ) ;
#49 = EDGE_LOOP ( 'NONE', ( #516, #208, #1057, #890 ) ) ;
#50 =( NAMED_UNIT ( * ) SI_UNIT ( $, .STERADIAN. ) SOLID_ANGLE_UNIT ( ) );
#51 = DIRECTION ( 'NONE',  ( 0.000000000000000000, -1.000000000000000000, 1.224646799147351482E-16 ) ) ;
#52 = EDGE_CURVE ( 'NONE', #1048, #9, #321, .T. ) ;
#53 = CARTESIAN_POINT ( 'NONE',  ( 1.700000000000000178, 2.500000000000000000, 8.399999999999998579 ) ) ;
#54 = EDGE_LOOP ( 'NONE', ( #690, #917, #1046, #878 ) ) ;
#55 = MANIFOLD_SOLID_BREP ( '镜向1', #113 ) ;
#56 = FACE_OUTER_BOUND ( 'NONE', #898, .T. ) ;
#57 = DIRECTION ( 'NONE',  ( 0.000000000000000000, 1.000000000000000000, 0.000000000000000000 ) ) ;
#58 = DIRECTION ( 'NONE',  ( -0.000000000000000000, -1.000000000000000000, 0.000000000000000000 ) ) ;
#59 = ORIENTED_EDGE ( 'NONE', *, *, #780, .T. ) ;
#60 = AXIS2_PLACEMENT_3D ( 'NONE', #369, #179, #261 ) ;
#61 = PLANE ( 'NONE',  #410 ) ;
#62 = AXIS2_PLACEMENT_3D ( 'NONE', #564, #1043, #893 ) ;
#63 = STYLED_ITEM ( 'NONE', ( #758 ), #55 ) ;
#64 = AXIS2_PLACEMENT_3D ( 'NONE', #74, #1050, #881 ) ;
#65 = DIRECTION ( 'NONE',  ( 1.000000000000000000, 0.000000000000000000, 0.000000000000000000 ) ) ;
#66 = EDGE_CURVE ( 'NONE', #307, #198, #910, .T. ) ;
#67 = EDGE_LOOP ( 'NONE', ( #652, #560, #583, #325 ) ) ;
#68 = DIRECTION ( 'NONE',  ( 0.000000000000000000, 0.000000000000000000, -1.000000000000000000 ) ) ;
#69 = FACE_OUTER_BOUND ( 'NONE', #467, .T. ) ;
#70 = DIRECTION ( 'NONE',  ( 0.000000000000000000, -0.000000000000000000, -1.000000000000000000 ) ) ;
#71 = ORIENTED_EDGE ( 'NONE', *, *, #273, .T. ) ;
#72 = ADVANCED_FACE ( 'NONE', ( #926 ), #242, .T. ) ;
#73 = LINE ( 'NONE', #267, #541 ) ;
#74 = CARTESIAN_POINT ( 'NONE',  ( 2.999999999999999556, 2.500000000000000000, 8.399999999999998579 ) ) ;
#75 = EDGE_LOOP ( 'NONE', ( #726, #40, #1037, #716 ) ) ;
#76 = VERTEX_POINT ( 'NONE', #912 ) ;
#77 = DIRECTION ( 'NONE',  ( 1.000000000000000000, 1.224646799147353207E-16, -0.000000000000000000 ) ) ;
#78 = DIRECTION ( 'NONE',  ( -0.000000000000000000, -1.000000000000000000, 0.000000000000000000 ) ) ;
#79 = CIRCLE ( 'NONE', #283, 0.5000000000000004441 ) ;
#80 = PRESENTATION_LAYER_ASSIGNMENT (  '', '', ( #63 ) ) ;
#81 = DIRECTION ( 'NONE',  ( -1.224646799147353207E-16, 1.000000000000000000, 0.000000000000000000 ) ) ;
#82 = EDGE_LOOP ( 'NONE', ( #842, #874, #851, #633 ) ) ;
#83 = DIRECTION ( 'NONE',  ( -1.224646799147353207E-16, 1.000000000000000000, 0.000000000000000000 ) ) ;
#84 = ADVANCED_FACE ( 'NONE', ( #168 ), #749, .T. ) ;
#85 = ORIENTED_EDGE ( 'NONE', *, *, #735, .T. ) ;
#86 = DIRECTION ( 'NONE',  ( -1.000000000000000000, -1.224646799147353207E-16, 0.000000000000000000 ) ) ;
#87 = ADVANCED_FACE ( 'NONE', ( #825 ), #823, .T. ) ;
#88 = CARTESIAN_POINT ( 'NONE',  ( 2.000000000000000000, -2.500000000000000000, 8.399999999999998579 ) ) ;
#89 = ORIENTED_EDGE ( 'NONE', *, *, #169, .F. ) ;
#90 = DIRECTION ( 'NONE',  ( 1.391489419232725644E-16, -1.000000000000000000, 0.000000000000000000 ) ) ;
#91 = TOROIDAL_SURFACE ( 'NONE', #692, 5.900000000000023448, 0.5000000000000000000 ) ;
#92 = CIRCLE ( 'NONE', #408, 5.899999999999994138 ) ;
#93 = CIRCLE ( 'NONE', #908, 0.2999999999999999334 ) ;
#94 = AXIS2_PLACEMENT_3D ( 'NONE', #679, #515, #1021 ) ;
#95 = EDGE_LOOP ( 'NONE', ( #936, #971 ) ) ;
#96 = TOROIDAL_SURFACE ( 'NONE', #697, 1.000000000000001332, 0.2999999999999999334 ) ;
#97 = DIRECTION ( 'NONE',  ( 0.000000000000000000, 0.000000000000000000, 1.000000000000000000 ) ) ;
#98 = EDGE_CURVE ( 'NONE', #198, #307, #284, .T. ) ;
#99 = DIRECTION ( 'NONE',  ( 1.224646799147353207E-16, -1.000000000000000000, 0.000000000000000000 ) ) ;
#100 = CARTESIAN_POINT ( 'NONE',  ( 2.000000000000000000, -2.500000000000000000, 8.399999999999998579 ) ) ;
#101 = ADVANCED_FACE ( 'NONE', ( #7 ), #328, .T. ) ;
#102 = ORIENTED_EDGE ( 'NONE', *, *, #800, .F. ) ;
#103 = CARTESIAN_POINT ( 'NONE',  ( 7.837739514543054018E-16, -6.399999999999995026, 7.837739514543054018E-16 ) ) ;
#104 = LINE ( 'NONE', #925, #263 ) ;
#105 = DIRECTION ( 'NONE',  ( 0.000000000000000000, 0.000000000000000000, 1.000000000000000000 ) ) ;
#106 = VERTEX_POINT ( 'NONE', #413 ) ;
#107 = FACE_OUTER_BOUND ( 'NONE', #453, .T. ) ;
#108 = CARTESIAN_POINT ( 'NONE',  ( 2.999999999999999556, -2.500000000000000000, 9.699999999999999289 ) ) ;
#109 = DIRECTION ( 'NONE',  ( 0.000000000000000000, 0.000000000000000000, 1.000000000000000000 ) ) ;
#110 = VECTOR ( 'NONE', #1002, 1000.000000000000000 ) ;
#111 = ORIENTED_EDGE ( 'NONE', *, *, #580, .F. ) ;
#112 = VECTOR ( 'NONE', #928, 1000.000000000000000 ) ;
#113 = CLOSED_SHELL ( 'NONE', ( #446, #756, #565, #16, #867, #434, #804, #920, #101, #34, #221, #816, #84, #465, #670, #323, #861, #557, #72, #831, #1053, #239, #747, #545, #296, #627, #87, #128, #950, #528, #976, #368, #116, #187, #1047, #44, #420, #21, #342, #967 ) ) ;
#114 = EDGE_CURVE ( 'NONE', #177, #738, #1064, .T. ) ;
#115 = DIRECTION ( 'NONE',  ( -1.499759782661857608E-32, 1.224646799147353207E-16, 1.000000000000000000 ) ) ;
#116 = ADVANCED_FACE ( 'NONE', ( #264 ), #736, .T. ) ;
#117 = EDGE_LOOP ( 'NONE', ( #254, #312, #922, #714 ) ) ;
#118 = DIRECTION ( 'NONE',  ( 0.000000000000000000, 0.000000000000000000, 1.000000000000000000 ) ) ;
#119 = CARTESIAN_POINT ( 'NONE',  ( 2.999999999999999556, 2.500000000000000000, 9.099999999999997868 ) ) ;
#120 = CARTESIAN_POINT ( 'NONE',  ( 1.999999999999998224, -2.500000000000000000, 1.000000000000000000 ) ) ;
#121 = ORIENTED_EDGE ( 'NONE', *, *, #12, .F. ) ;
#122 = PRESENTATION_STYLE_ASSIGNMENT (( #1023 ) ) ;
#123 = CARTESIAN_POINT ( 'NONE',  ( 0.000000000000000000, 2.500000000000000000, -0.2999999999999999334 ) ) ;
#124 = DIRECTION ( 'NONE',  ( -1.000000000000000000, 0.000000000000000000, 0.000000000000000000 ) ) ;
#125 = ORIENTED_EDGE ( 'NONE', *, *, #590, .F. ) ;
#126 = VECTOR ( 'NONE', #555, 1000.000000000000000 ) ;
#127 = CIRCLE ( 'NONE', #372, 1.000000000000000888 ) ;
#128 = ADVANCED_FACE ( 'NONE', ( #762 ), #231, .T. ) ;
#129 = AXIS2_PLACEMENT_3D ( 'NONE', #798, #385, #143 ) ;
#130 = FACE_OUTER_BOUND ( 'NONE', #340, .T. ) ;
#131 = CARTESIAN_POINT ( 'NONE',  ( 0.9999999999999983347, -2.500000000000000000, -0.2999999999999999334 ) ) ;
#132 = EDGE_LOOP ( 'NONE', ( #500, #744, #966, #443 ) ) ;
#133 = DIRECTION ( 'NONE',  ( 1.000000000000000000, 1.224646799147353207E-16, -0.000000000000000000 ) ) ;
#134 = DIRECTION ( 'NONE',  ( 0.000000000000000000, 0.000000000000000000, 1.000000000000000000 ) ) ;
#135 = ORIENTED_EDGE ( 'NONE', *, *, #52, .T. ) ;
#136 = ORIENTED_EDGE ( 'NONE', *, *, #590, .T. ) ;
#137 = FACE_OUTER_BOUND ( 'NONE', #903, .T. ) ;
#138 = CYLINDRICAL_SURFACE ( 'NONE', #857, 0.2999999999999999334 ) ;
#139 = ORIENTED_EDGE ( 'NONE', *, *, #982, .F. ) ;
#140 = EDGE_LOOP ( 'NONE', ( #985, #834, #405, #657 ) ) ;
#141 = VECTOR ( 'NONE', #295, 1000.000000000000000 ) ;
#142 = AXIS2_PLACEMENT_3D ( 'NONE', #229, #554, #884 ) ;
#143 = DIRECTION ( 'NONE',  ( 0.000000000000000000, 0.000000000000000000, 1.000000000000000000 ) ) ;
#144 = VECTOR ( 'NONE', #77, 1000.000000000000000 ) ;
#145 = CIRCLE ( 'NONE', #46, 0.2999999999999999334 ) ;
#146 = EDGE_CURVE ( 'NONE', #331, #731, #145, .T. ) ;
#147 = DIRECTION ( 'NONE',  ( -1.391489419232724905E-16, 1.000000000000000000, 0.000000000000000000 ) ) ;
#148 = EDGE_LOOP ( 'NONE', ( #152, #970 ) ) ;
#149 = ORIENTED_EDGE ( 'NONE', *, *, #858, .F. ) ;
#150 = CARTESIAN_POINT ( 'NONE',  ( -2.999999999999999112, 6.899999999999995026, 0.000000000000000000 ) ) ;
#151 = CARTESIAN_POINT ( 'NONE',  ( -7.837739514543057962E-16, 6.399999999999997691, 0.000000000000000000 ) ) ;
#152 = ORIENTED_EDGE ( 'NONE', *, *, #480, .T. ) ;
#153 = VERTEX_POINT ( 'NONE', #689 ) ;
#154 = DIRECTION ( 'NONE',  ( -1.224646799147353207E-16, 1.000000000000000000, 0.000000000000000000 ) ) ;
#155 = DIRECTION ( 'NONE',  ( -0.000000000000000000, 1.000000000000000000, -0.000000000000000000 ) ) ;
#156 = VERTEX_POINT ( 'NONE', #23 ) ;
#157 = ORIENTED_EDGE ( 'NONE', *, *, #233, .F. ) ;
#158 = EDGE_CURVE ( 'NONE', #648, #219, #838, .T. ) ;
#159 = AXIS2_PLACEMENT_3D ( 'NONE', #988, #5, #172 ) ;
#160 = CARTESIAN_POINT ( 'NONE',  ( -2.254644007500034686, 9.127978304403795129E-17, 0.000000000000000000 ) ) ;
#161 = AXIS2_PLACEMENT_3D ( 'NONE', #558, #1056, #315 ) ;
#162 = FILL_AREA_STYLE_COLOUR ( '', #1010 ) ;
#163 = EDGE_LOOP ( 'NONE', ( #432, #754, #491, #668 ) ) ;
#164 = DIRECTION ( 'NONE',  ( -1.224646799147353207E-16, 1.000000000000000000, 0.000000000000000000 ) ) ;
#165 = CARTESIAN_POINT ( 'NONE',  ( 2.999999999999999556, -2.500000000000000000, 8.399999999999998579 ) ) ;
#166 = ORIENTED_EDGE ( 'NONE', *, *, #211, .T. ) ;
#167 = CARTESIAN_POINT ( 'NONE',  ( -42.49999999999999289, -5.204748896376250107E-15, 0.000000000000000000 ) ) ;
#168 = FACE_OUTER_BOUND ( 'NONE', #306, .T. ) ;
#169 = EDGE_CURVE ( 'NONE', #106, #504, #494, .T. ) ;
#170 = EDGE_LOOP ( 'NONE', ( #984, #484, #526, #599 ) ) ;
#171 = DIRECTION ( 'NONE',  ( 1.000000000000000000, 0.000000000000000000, 0.000000000000000000 ) ) ;
#172 = DIRECTION ( 'NONE',  ( 0.000000000000000000, -1.000000000000000000, 0.000000000000000000 ) ) ;
#173 = AXIS2_PLACEMENT_3D ( 'NONE', #1029, #606, #934 ) ;
#174 = SURFACE_STYLE_FILL_AREA ( #496 ) ;
#175 = AXIS2_PLACEMENT_3D ( 'NONE', #350, #403, #760 ) ;
#176 = EDGE_CURVE ( 'NONE', #909, #569, #28, .T. ) ;
#177 = VERTEX_POINT ( 'NONE', #603 ) ;
#178 = PLANE ( 'NONE',  #695 ) ;
#179 = DIRECTION ( 'NONE',  ( 1.000000000000000000, 1.224646799147353207E-16, -0.000000000000000000 ) ) ;
#180 = DIRECTION ( 'NONE',  ( -0.000000000000000000, 1.000000000000000000, -0.000000000000000000 ) ) ;
#181 = EDGE_LOOP ( 'NONE', ( #961, #684, #458, #349 ) ) ;
#182 = CARTESIAN_POINT ( 'NONE',  ( 0.9999999999999983347, -2.500000000000000000, 0.2999999999999999334 ) ) ;
#183 = CARTESIAN_POINT ( 'NONE',  ( 0.000000000000000000, 2.500000000000000000, 0.000000000000000000 ) ) ;
#184 = DIRECTION ( 'NONE',  ( -1.224646799147353207E-16, 1.000000000000000000, 0.000000000000000000 ) ) ;
#185 = VERTEX_POINT ( 'NONE', #850 ) ;
#186 = DIRECTION ( 'NONE',  ( 0.000000000000000000, -0.000000000000000000, -1.000000000000000000 ) ) ;
#187 = ADVANCED_FACE ( 'NONE', ( #524 ), #1012, .F. ) ;
#188 = CARTESIAN_POINT ( 'NONE',  ( -2.999999999999998224, -1.499759782661858429E-32, 0.000000000000000000 ) ) ;
#189 = DIRECTION ( 'NONE',  ( 0.000000000000000000, 0.000000000000000000, 1.000000000000000000 ) ) ;
#190 = AXIS2_PLACEMENT_3D ( 'NONE', #183, #772, #274 ) ;
#191 = VERTEX_POINT ( 'NONE', #702 ) ;
#192 = FACE_OUTER_BOUND ( 'NONE', #954, .T. ) ;
#193 = CIRCLE ( 'NONE', #784, 6.399999999999997691 ) ;
#194 = AXIS2_PLACEMENT_3D ( 'NONE', #819, #585, #344 ) ;
#195 = AXIS2_PLACEMENT_3D ( 'NONE', #777, #30, #360 ) ;
#196 = DIRECTION ( 'NONE',  ( -1.000000000000000000, -1.224646799147353207E-16, 0.000000000000000000 ) ) ;
#197 = FACE_OUTER_BOUND ( 'NONE', #401, .T. ) ;
#198 = VERTEX_POINT ( 'NONE', #48 ) ;
#199 = CYLINDRICAL_SURFACE ( 'NONE', #8, 6.399999999999995026 ) ;
#200 = DIRECTION ( 'NONE',  ( 1.391489419232725644E-16, -1.000000000000000000, 0.000000000000000000 ) ) ;
#201 = DIRECTION ( 'NONE',  ( -0.000000000000000000, 0.000000000000000000, -1.000000000000000000 ) ) ;
#202 = EDGE_CURVE ( 'NONE', #447, #636, #509, .T. ) ;
#203 = ORIENTED_EDGE ( 'NONE', *, *, #158, .F. ) ;
#204 = FILL_AREA_STYLE ('',( #793 ) ) ;
#205 = ORIENTED_EDGE ( 'NONE', *, *, #888, .T. ) ;
#206 = DIRECTION ( 'NONE',  ( -0.000000000000000000, 0.000000000000000000, -1.000000000000000000 ) ) ;
#207 = CYLINDRICAL_SURFACE ( 'NONE', #10, 0.2999999999999999334 ) ;
#208 = ORIENTED_EDGE ( 'NONE', *, *, #396, .F. ) ;
#209 =( LENGTH_UNIT ( ) NAMED_UNIT ( * ) SI_UNIT ( .MILLI., .METRE. ) );
#210 = AXIS2_PLACEMENT_3D ( 'NONE', #863, #948, #200 ) ;
#211 = EDGE_CURVE ( 'NONE', #292, #965, #249, .T. ) ;
#212 = CARTESIAN_POINT ( 'NONE',  ( 1.047802263242589059E-15, -5.899999999999995914, 7.531577814756217134E-16 ) ) ;
#213 = DIRECTION ( 'NONE',  ( 0.000000000000000000, 0.000000000000000000, 1.000000000000000000 ) ) ;
#214 = ORIENTED_EDGE ( 'NONE', *, *, #722, .F. ) ;
#215 = CARTESIAN_POINT ( 'NONE',  ( -0.4999999999999989453, -6.399999999999995026, 7.837739514543054018E-16 ) ) ;
#216 = ORIENTED_EDGE ( 'NONE', *, *, #653, .F. ) ;
#217 = CARTESIAN_POINT ( 'NONE',  ( -2.999999999999998224, 0.000000000000000000, 0.000000000000000000 ) ) ;
#218 = DIRECTION ( 'NONE',  ( 1.355252715606881036E-16, -1.000000000000000000, 0.000000000000000000 ) ) ;
#219 = VERTEX_POINT ( 'NONE', #269 ) ;
#220 = EDGE_LOOP ( 'NONE', ( #810, #883, #1070, #251 ) ) ;
#221 = ADVANCED_FACE ( 'NONE', ( #769 ), #379, .T. ) ;
#222 = EDGE_CURVE ( 'NONE', #731, #153, #683, .T. ) ;
#223 = CARTESIAN_POINT ( 'NONE',  ( -3.745355992499963094, -9.127978304403803757E-17, 0.000000000000000000 ) ) ;
#224 = APPLICATION_CONTEXT ( 'automotive_design' ) ;
#225 = CARTESIAN_POINT ( 'NONE',  ( 0.000000000000000000, -2.500000000000000000, -0.2999999999999999334 ) ) ;
#226 = ORIENTED_EDGE ( 'NONE', *, *, #3, .T. ) ;
#227 = VECTOR ( 'NONE', #450, 1000.000000000000000 ) ;
#228 = TOROIDAL_SURFACE ( 'NONE', #746, 5.900000000000027001, 0.5000000000000000000 ) ;
#229 = CARTESIAN_POINT ( 'NONE',  ( 0.9999999999999983347, -2.500000000000000000, 0.000000000000000000 ) ) ;
#230 = PRESENTATION_LAYER_ASSIGNMENT (  '', '', ( #939 ) ) ;
#231 = TOROIDAL_SURFACE ( 'NONE', #597, 5.899999999999995914, 0.5000000000000000000 ) ;
#232 = DIRECTION ( 'NONE',  ( -1.000000000000000000, -1.224646799147353207E-16, 0.000000000000000000 ) ) ;
#233 = EDGE_CURVE ( 'NONE', #1000, #965, #506, .T. ) ;
#234 = CARTESIAN_POINT ( 'NONE',  ( -3.745355992499962205, -6.233333333333368032, 7.633631714685210422E-16 ) ) ;
#235 = ORIENTED_EDGE ( 'NONE', *, *, #278, .T. ) ;
#236 = CARTESIAN_POINT ( 'NONE',  ( 5.000000000000000000, 2.500000000000000000, 9.399999999999998579 ) ) ;
#237 = DIRECTION ( 'NONE',  ( -1.000000000000000000, -1.224646799147353207E-16, 0.000000000000000000 ) ) ;
#238 = ORIENTED_EDGE ( 'NONE', *, *, #37, .F. ) ;
#239 = ADVANCED_FACE ( 'NONE', ( #197 ), #781, .F. ) ;
#240 = ORIENTED_EDGE ( 'NONE', *, *, #788, .F. ) ;
#241 = CARTESIAN_POINT ( 'NONE',  ( 2.999999999999999556, 2.500000000000000000, 8.399999999999998579 ) ) ;
#242 = CYLINDRICAL_SURFACE ( 'NONE', #194, 6.399999999999995026 ) ;
#243 = ORIENTED_EDGE ( 'NONE', *, *, #612, .F. ) ;
#244 = AXIS2_PLACEMENT_3D ( 'NONE', #581, #330, #343 ) ;
#245 = CARTESIAN_POINT ( 'NONE',  ( -3.972809597512865468E-16, 5.899999999999995914, 0.000000000000000000 ) ) ;
#246 = AXIS2_PLACEMENT_3D ( 'NONE', #505, #847, #97 ) ;
#247 = CIRCLE ( 'NONE', #785, 6.233333333333368920 ) ;
#248 =( GEOMETRIC_REPRESENTATION_CONTEXT ( 3 ) GLOBAL_UNCERTAINTY_ASSIGNED_CONTEXT ( ( #417 ) ) GLOBAL_UNIT_ASSIGNED_CONTEXT ( ( #866, #41, #50 ) ) REPRESENTATION_CONTEXT ( 'NONE', 'WORKASPACE' ) );
#249 = CIRCLE ( 'NONE', #332, 0.2999999999999999334 ) ;
#250 = DIRECTION ( 'NONE',  ( -1.000000000000000000, -1.224646799147353207E-16, 0.000000000000000000 ) ) ;
#251 = ORIENTED_EDGE ( 'NONE', *, *, #610, .T. ) ;
#252 = EDGE_CURVE ( 'NONE', #219, #19, #611, .T. ) ;
#253 = DIRECTION ( 'NONE',  ( 1.000000000000000000, 1.224646799147353207E-16, -0.000000000000000000 ) ) ;
#254 = ORIENTED_EDGE ( 'NONE', *, *, #202, .F. ) ;
#255 = DIRECTION ( 'NONE',  ( -1.000000000000000000, -0.000000000000000000, -0.000000000000000000 ) ) ;
#256 = EDGE_CURVE ( 'NONE', #965, #307, #33, .T. ) ;
#257 = DIRECTION ( 'NONE',  ( 0.000000000000000000, 0.000000000000000000, 1.000000000000000000 ) ) ;
#258 = DIRECTION ( 'NONE',  ( -1.758165685111629358E-16, -0.000000000000000000, -1.000000000000000000 ) ) ;
#259 = EDGE_LOOP ( 'NONE', ( #822, #846, #759, #628 ) ) ;
#260 = DIRECTION ( 'NONE',  ( -0.000000000000000000, 1.000000000000000000, -0.000000000000000000 ) ) ;
#261 = DIRECTION ( 'NONE',  ( 1.355252715606881529E-16, -1.000000000000000000, 0.000000000000000000 ) ) ;
#262 = AXIS2_PLACEMENT_3D ( 'NONE', #1039, #399, #969 ) ;
#263 = VECTOR ( 'NONE', #761, 1000.000000000000000 ) ;
#264 = FACE_OUTER_BOUND ( 'NONE', #1018, .T. ) ;
#265 = VECTOR ( 'NONE', #393, 1000.000000000000000 ) ;
#266 = ORIENTED_EDGE ( 'NONE', *, *, #858, .T. ) ;
#267 = CARTESIAN_POINT ( 'NONE',  ( 0.000000000000000000, -2.500000000000000000, -0.2999999999999999334 ) ) ;
#268 = DIRECTION ( 'NONE',  ( -1.470104640658312480E-16, 1.000000000000000000, 0.000000000000000000 ) ) ;
#269 = CARTESIAN_POINT ( 'NONE',  ( -2.999999999999998224, -5.899999999999994138, 7.225416114969376305E-16 ) ) ;
#270 = ORIENTED_EDGE ( 'NONE', *, *, #720, .T. ) ;
#271 = CYLINDRICAL_SURFACE ( 'NONE', #508, 0.2999999999999999334 ) ;
#272 = UNCERTAINTY_MEASURE_WITH_UNIT (LENGTH_MEASURE( 1.000000000000000082E-05 ), #209, 'distance_accuracy_value', 'NONE');
#273 = EDGE_CURVE ( 'NONE', #316, #892, #535, .T. ) ;
#274 = DIRECTION ( 'NONE',  ( 0.000000000000000000, 0.000000000000000000, 1.000000000000000000 ) ) ;
#275 = DIRECTION ( 'NONE',  ( -1.000000000000000000, 0.000000000000000000, 0.000000000000000000 ) ) ;
#276 = ORIENTED_EDGE ( 'NONE', *, *, #567, .F. ) ;
#277 = CARTESIAN_POINT ( 'NONE',  ( 2.299999999999998046, -2.500000000000000000, 1.000000000000000000 ) ) ;
#278 = EDGE_CURVE ( 'NONE', #1065, #153, #833, .T. ) ;
#279 = DIRECTION ( 'NONE',  ( -0.000000000000000000, -1.000000000000000000, 0.000000000000000000 ) ) ;
#280 = AXIS2_PLACEMENT_3D ( 'NONE', #498, #419, #741 ) ;
#281 = EDGE_LOOP ( 'NONE', ( #980, #31, #324, #532 ) ) ;
#282 = CARTESIAN_POINT ( 'NONE',  ( 5.000000000000000000, -2.500000000000000000, 9.099999999999997868 ) ) ;
#283 = AXIS2_PLACEMENT_3D ( 'NONE', #521, #186, #1058 ) ;
#284 = CIRCLE ( 'NONE', #375, 0.2999999999999999334 ) ;
#285 = CIRCLE ( 'NONE', #1059, 6.233333333333368920 ) ;
#286 = ORIENTED_EDGE ( 'NONE', *, *, #252, .F. ) ;
#287 = CARTESIAN_POINT ( 'NONE',  ( -3.745355992499963982, 6.233333333333368032, 0.000000000000000000 ) ) ;
#288 = EDGE_CURVE ( 'NONE', #865, #807, #436, .T. ) ;
#289 = CARTESIAN_POINT ( 'NONE',  ( -2.999999999999997335, -6.899999999999995026, 8.450062914116730745E-16 ) ) ;
#290 = ORIENTED_EDGE ( 'NONE', *, *, #753, .F. ) ;
#291 = CYLINDRICAL_SURFACE ( 'NONE', #45, 0.2999999999999999334 ) ;
#292 = VERTEX_POINT ( 'NONE', #462 ) ;
#293 = EDGE_CURVE ( 'NONE', #1066, #106, #426, .T. ) ;
#294 = LINE ( 'NONE', #812, #868 ) ;
#295 = DIRECTION ( 'NONE',  ( 1.000000000000000000, 0.000000000000000000, 0.000000000000000000 ) ) ;
#296 = ADVANCED_FACE ( 'NONE', ( #706 ), #91, .T. ) ;
#297 = ORIENTED_EDGE ( 'NONE', *, *, #770, .T. ) ;
#298 = DIRECTION ( 'NONE',  ( 1.355252715606881036E-16, -1.000000000000000000, 0.000000000000000000 ) ) ;
#299 = DIRECTION ( 'NONE',  ( -1.224646799147353207E-16, 1.000000000000000000, 0.000000000000000000 ) ) ;
#300 = LINE ( 'NONE', #277, #803 ) ;
#301 = AXIS2_PLACEMENT_3D ( 'NONE', #347, #983, #571 ) ;
#302 = AXIS2_PLACEMENT_3D ( 'NONE', #875, #133, #550 ) ;
#303 = CIRCLE ( 'NONE', #411, 0.2999999999999999334 ) ;
#304 = CARTESIAN_POINT ( 'NONE',  ( -42.49999999999999289, 6.399999999999992362, 0.000000000000000000 ) ) ;
#305 = CARTESIAN_POINT ( 'NONE',  ( -4.118033988749978391, -5.043137143102668889E-16, 0.000000000000000000 ) ) ;
#306 = EDGE_LOOP ( 'NONE', ( #787, #691, #290, #89 ) ) ;
#307 = VERTEX_POINT ( 'NONE', #1045 ) ;
#308 = EDGE_CURVE ( 'NONE', #191, #636, #1030, .T. ) ;
#309 = CARTESIAN_POINT ( 'NONE',  ( 0.9999999999999986677, -2.500000000000000000, 1.000000000000000000 ) ) ;
#310 = FACE_OUTER_BOUND ( 'NONE', #451, .T. ) ;
#311 = CYLINDRICAL_SURFACE ( 'NONE', #161, 0.2999999999999999334 ) ;
#312 = ORIENTED_EDGE ( 'NONE', *, *, #774, .T. ) ;
#313 = CARTESIAN_POINT ( 'NONE',  ( 0.000000000000000000, 0.000000000000000000, 0.000000000000000000 ) ) ;
#314 = DIRECTION ( 'NONE',  ( 1.000000000000000000, 1.224646799147353207E-16, -0.000000000000000000 ) ) ;
#315 = DIRECTION ( 'NONE',  ( 0.000000000000000000, 0.000000000000000000, -1.000000000000000000 ) ) ;
#316 = VERTEX_POINT ( 'NONE', #483 ) ;
#317 = AXIS2_PLACEMENT_3D ( 'NONE', #1036, #445, #530 ) ;
#318 = AXIS2_PLACEMENT_3D ( 'NONE', #489, #1, #827 ) ;
#319 = CARTESIAN_POINT ( 'NONE',  ( 0.9999999999999983347, 2.500000000000000000, 0.2999999999999999334 ) ) ;
#320 = COLOUR_RGB ( '',0.5999999999999999778, 0.5999999999999999778, 0.5999999999999999778 ) ;
#321 = CIRCLE ( 'NONE', #544, 0.2999999999999999334 ) ;
#322 = CARTESIAN_POINT ( 'NONE',  ( 2.999999999999999556, -2.500000000000000000, 9.399999999999998579 ) ) ;
#323 = ADVANCED_FACE ( 'NONE', ( #69 ), #371, .T. ) ;
#324 = ORIENTED_EDGE ( 'NONE', *, *, #915, .T. ) ;
#325 = ORIENTED_EDGE ( 'NONE', *, *, #98, .T. ) ;
#326 = EDGE_CURVE ( 'NONE', #367, #1000, #337, .T. ) ;
#327 = FACE_OUTER_BOUND ( 'NONE', #1052, .T. ) ;
#328 = CYLINDRICAL_SURFACE ( 'NONE', #940, 0.2999999999999999334 ) ;
#329 = ORIENTED_EDGE ( 'NONE', *, *, #387, .F. ) ;
#330 = DIRECTION ( 'NONE',  ( -2.168404344971009854E-16, 0.000000000000000000, -1.000000000000000000 ) ) ;
#331 = VERTEX_POINT ( 'NONE', #1061 ) ;
#332 = AXIS2_PLACEMENT_3D ( 'NONE', #120, #931, #275 ) ;
#333 = CIRCLE ( 'NONE', #173, 6.399999999999997691 ) ;
#334 = CARTESIAN_POINT ( 'NONE',  ( -2.999999999999998224, 0.000000000000000000, 0.000000000000000000 ) ) ;
#335 = AXIS2_PLACEMENT_3D ( 'NONE', #1001, #260, #592 ) ;
#336 = AXIS2_PLACEMENT_3D ( 'NONE', #828, #250, #1068 ) ;
#337 = CIRCLE ( 'NONE', #750, 0.2999999999999999334 ) ;
#338 = CARTESIAN_POINT ( 'NONE',  ( 0.000000000000000000, -2.500000000000000000, 0.000000000000000000 ) ) ;
#339 = EDGE_CURVE ( 'NONE', #731, #331, #991, .T. ) ;
#340 = EDGE_LOOP ( 'NONE', ( #641, #71, #740, #102 ) ) ;
#341 = DIRECTION ( 'NONE',  ( 0.000000000000000000, 0.000000000000000000, -1.000000000000000000 ) ) ;
#342 = ADVANCED_FACE ( 'NONE', ( #310 ), #207, .T. ) ;
#343 = DIRECTION ( 'NONE',  ( -1.000000000000000000, 0.000000000000000000, 0.000000000000000000 ) ) ;
#344 = DIRECTION ( 'NONE',  ( -1.224646799147353207E-16, 1.000000000000000000, 0.000000000000000000 ) ) ;
#345 = ORIENTED_EDGE ( 'NONE', *, *, #672, .T. ) ;
#346 = DIRECTION ( 'NONE',  ( 0.000000000000000000, 0.000000000000000000, 1.000000000000000000 ) ) ;
#347 = CARTESIAN_POINT ( 'NONE',  ( -0.4999999999999996669, -6.123233995736762338E-17, 0.000000000000000000 ) ) ;
#348 = DIRECTION ( 'NONE',  ( 0.000000000000000000, 0.000000000000000000, 1.000000000000000000 ) ) ;
#349 = ORIENTED_EDGE ( 'NONE', *, *, #653, .T. ) ;
#350 = CARTESIAN_POINT ( 'NONE',  ( 2.999999999999999556, 2.500000000000000000, 9.399999999999998579 ) ) ;
#351 = CARTESIAN_POINT ( 'NONE',  ( -43.00000000000000000, -5.265981236333617682E-15, 0.000000000000000000 ) ) ;
#352 = AXIS2_PLACEMENT_3D ( 'NONE', #241, #830, #574 ) ;
#353 = CIRCLE ( 'NONE', #871, 6.399999999999995026 ) ;
#354 = CARTESIAN_POINT ( 'NONE',  ( -0.5000000000000004441, 5.899999999999995914, 0.000000000000000000 ) ) ;
#355 = EDGE_CURVE ( 'NONE', #373, #447, #42, .T. ) ;
#356 = AXIS2_PLACEMENT_3D ( 'NONE', #667, #832, #752 ) ;
#357 = ORIENTED_EDGE ( 'NONE', *, *, #499, .T. ) ;
#358 = DIRECTION ( 'NONE',  ( -1.000000000000000000, 0.000000000000000000, 0.000000000000000000 ) ) ;
#359 = CARTESIAN_POINT ( 'NONE',  ( 2.999999999999999556, 2.500000000000000000, 9.399999999999998579 ) ) ;
#360 = DIRECTION ( 'NONE',  ( 1.000000000000000000, 0.000000000000000000, 0.000000000000000000 ) ) ;
#361 = VERTEX_POINT ( 'NONE', #791 ) ;
#362 = CARTESIAN_POINT ( 'NONE',  ( 0.000000000000000000, 0.000000000000000000, 0.000000000000000000 ) ) ;
#363 = CARTESIAN_POINT ( 'NONE',  ( -2.254644007500035574, 6.233333333333365367, 0.000000000000000000 ) ) ;
#364 = DIRECTION ( 'NONE',  ( 1.000000000000000000, 1.224646799147353207E-16, -0.000000000000000000 ) ) ;
#365 = EDGE_LOOP ( 'NONE', ( #576, #270, #621, #640 ) ) ;
#366 = SURFACE_STYLE_FILL_AREA ( #204 ) ;
#367 = VERTEX_POINT ( 'NONE', #131 ) ;
#368 = ADVANCED_FACE ( 'NONE', ( #639 ), #885, .T. ) ;
#369 = CARTESIAN_POINT ( 'NONE',  ( -1.881966011250020943, -2.304743651781449861E-16, 0.000000000000000000 ) ) ;
#370 = DIRECTION ( 'NONE',  ( 0.000000000000000000, -1.000000000000000000, 1.224646799147353454E-16 ) ) ;
#371 = TOROIDAL_SURFACE ( 'NONE', #973, 5.900000000000023448, 0.5000000000000000000 ) ;
#372 = AXIS2_PLACEMENT_3D ( 'NONE', #150, #206, #461 ) ;
#373 = VERTEX_POINT ( 'NONE', #53 ) ;
#374 = DIRECTION ( 'NONE',  ( -1.000000000000000000, -0.000000000000000000, -0.000000000000000000 ) ) ;
#375 = AXIS2_PLACEMENT_3D ( 'NONE', #88, #2, #427 ) ;
#376 = AXIS2_PLACEMENT_3D ( 'NONE', #588, #78, #655 ) ;
#377 = EDGE_CURVE ( 'NONE', #219, #604, #656, .T. ) ;
#378 = CARTESIAN_POINT ( 'NONE',  ( -4.010718267207582610E-16, 6.399999999999995026, 0.000000000000000000 ) ) ;
#379 = CYLINDRICAL_SURFACE ( 'NONE', #195, 0.2999999999999999334 ) ;
#380 = EDGE_LOOP ( 'NONE', ( #1041, #136 ) ) ;
#381 = FACE_OUTER_BOUND ( 'NONE', #990, .T. ) ;
#382 = DIRECTION ( 'NONE',  ( 0.000000000000000000, -1.000000000000000000, -1.224646799147351482E-16 ) ) ;
#383 = CARTESIAN_POINT ( 'NONE',  ( -1.881966011250020498, -5.900000000000023448, 0.000000000000000000 ) ) ;
#384 = DIRECTION ( 'NONE',  ( -1.224646799147353207E-16, 1.000000000000000000, 0.000000000000000000 ) ) ;
#385 = DIRECTION ( 'NONE',  ( -1.000000000000000000, 0.000000000000000000, 0.000000000000000000 ) ) ;
#386 = DIRECTION ( 'NONE',  ( 0.000000000000000000, -0.000000000000000000, -1.000000000000000000 ) ) ;
#387 = EDGE_CURVE ( 'NONE', #185, #475, #456, .T. ) ;
#388 = CARTESIAN_POINT ( 'NONE',  ( -3.745355992499963094, -9.127978304403803757E-17, 0.000000000000000000 ) ) ;
#389 = AXIS2_PLACEMENT_3D ( 'NONE', #435, #844, #47 ) ;
#390 = ORIENTED_EDGE ( 'NONE', *, *, #904, .F. ) ;
#391 = CIRCLE ( 'NONE', #543, 0.2999999999999999334 ) ;
#392 = AXIS2_PLACEMENT_3D ( 'NONE', #662, #253, #83 ) ;
#393 = DIRECTION ( 'NONE',  ( 1.000000000000000000, 0.000000000000000000, 0.000000000000000000 ) ) ;
#394 = DIRECTION ( 'NONE',  ( -1.000000000000000000, -1.224646799147353207E-16, 0.000000000000000000 ) ) ;
#395 = CARTESIAN_POINT ( 'NONE',  ( -43.00000000000000000, 5.899999999999992362, 7.531577814756219106E-16 ) ) ;
#396 = EDGE_CURVE ( 'NONE', #19, #654, #285, .T. ) ;
#397 = ORIENTED_EDGE ( 'NONE', *, *, #308, .T. ) ;
#398 = DIRECTION ( 'NONE',  ( 1.000000000000000000, 1.224646799147353207E-16, -0.000000000000000000 ) ) ;
#399 = DIRECTION ( 'NONE',  ( -0.000000000000000000, -1.000000000000000000, 0.000000000000000000 ) ) ;
#400 = CARTESIAN_POINT ( 'NONE',  ( 0.9999999999999986677, 2.500000000000000000, 1.000000000000000000 ) ) ;
#401 = EDGE_LOOP ( 'NONE', ( #859, #59, #226, #286 ) ) ;
#402 = EDGE_CURVE ( 'NONE', #807, #520, #593, .T. ) ;
#403 = DIRECTION ( 'NONE',  ( 1.000000000000000000, 0.000000000000000000, 0.000000000000000000 ) ) ;
#404 = DIRECTION ( 'NONE',  ( 1.224646799147353207E-16, -1.000000000000000000, 0.000000000000000000 ) ) ;
#405 = ORIENTED_EDGE ( 'NONE', *, *, #701, .T. ) ;
#406 = EDGE_LOOP ( 'NONE', ( #1034, #486, #481, #775 ) ) ;
#407 = CIRCLE ( 'NONE', #852, 1.000000000000000888 ) ;
#408 = AXIS2_PLACEMENT_3D ( 'NONE', #188, #449, #268 ) ;
#409 = CARTESIAN_POINT ( 'NONE',  ( 1.999999999999998224, -2.500000000000000000, 1.000000000000000000 ) ) ;
#410 = AXIS2_PLACEMENT_3D ( 'NONE', #378, #546, #299 ) ;
#411 = AXIS2_PLACEMENT_3D ( 'NONE', #978, #575, #907 ) ;
#412 = CARTESIAN_POINT ( 'NONE',  ( -43.00000000000000000, -5.900000000000002132, 0.000000000000000000 ) ) ;
#413 = CARTESIAN_POINT ( 'NONE',  ( -0.5000000000000004441, 6.399999999999995026, 0.000000000000000000 ) ) ;
#414 = ORIENTED_EDGE ( 'NONE', *, *, #992, .F. ) ;
#415 =( LENGTH_UNIT ( ) NAMED_UNIT ( * ) SI_UNIT ( .MILLI., .METRE. ) );
#416 = ORIENTED_EDGE ( 'NONE', *, *, #471, .T. ) ;
#417 = UNCERTAINTY_MEASURE_WITH_UNIT (LENGTH_MEASURE( 1.000000000000000082E-05 ), #866, 'distance_accuracy_value', 'NONE');
#418 = APPLICATION_CONTEXT ( 'automotive_design' ) ;
#419 = DIRECTION ( 'NONE',  ( 0.000000000000000000, 1.000000000000000000, 0.000000000000000000 ) ) ;
#420 = ADVANCED_FACE ( 'NONE', ( #724 ), #138, .T. ) ;
#421 = ORIENTED_EDGE ( 'NONE', *, *, #902, .T. ) ;
#422 = CIRCLE ( 'NONE', #301, 6.399999999999995026 ) ;
#423 = DIRECTION ( 'NONE',  ( 1.000000000000000000, 1.224646799147353207E-16, -0.000000000000000000 ) ) ;
#424 = AXIS2_PLACEMENT_3D ( 'NONE', #217, #981, #154 ) ;
#425 = AXIS2_PLACEMENT_3D ( 'NONE', #617, #455, #370 ) ;
#426 = CIRCLE ( 'NONE', #728, 6.399999999999995026 ) ;
#427 = DIRECTION ( 'NONE',  ( -1.000000000000000000, 0.000000000000000000, 0.000000000000000000 ) ) ;
#428 = ORIENTED_EDGE ( 'NONE', *, *, #326, .F. ) ;
#429 = CARTESIAN_POINT ( 'NONE',  ( 1.699999999999998401, -2.500000000000000000, 1.000000000000000000 ) ) ;
#430 = DIRECTION ( 'NONE',  ( -1.000000000000000000, 0.000000000000000000, 0.000000000000000000 ) ) ;
#431 = DIRECTION ( 'NONE',  ( 1.000000000000000000, 0.000000000000000000, 0.000000000000000000 ) ) ;
#432 = ORIENTED_EDGE ( 'NONE', *, *, #114, .F. ) ;
#433 = DIRECTION ( 'NONE',  ( -1.000000000000000000, 0.000000000000000000, 0.000000000000000000 ) ) ;
#434 = ADVANCED_FACE ( 'NONE', ( #801 ), #806, .F. ) ;
#435 = CARTESIAN_POINT ( 'NONE',  ( -4.118033988749978391, -3.206166944381640187E-16, 0.000000000000000000 ) ) ;
#436 = LINE ( 'NONE', #151, #126 ) ;
#437 = ORIENTED_EDGE ( 'NONE', *, *, #962, .T. ) ;
#438 = DIRECTION ( 'NONE',  ( 1.758165685111629358E-16, 0.000000000000000000, 1.000000000000000000 ) ) ;
#439 = DIRECTION ( 'NONE',  ( -1.224646799147353207E-16, 1.000000000000000000, 0.000000000000000000 ) ) ;
#440 = AXIS2_PLACEMENT_3D ( 'NONE', #351, #693, #454 ) ;
#441 = DIRECTION ( 'NONE',  ( -1.000000000000000000, 0.000000000000000000, 0.000000000000000000 ) ) ;
#442 = AXIS2_PLACEMENT_3D ( 'NONE', #165, #180, #348 ) ;
#443 = ORIENTED_EDGE ( 'NONE', *, *, #929, .F. ) ;
#444 = FACE_OUTER_BOUND ( 'NONE', #406, .T. ) ;
#445 = DIRECTION ( 'NONE',  ( 1.000000000000000000, 1.224646799147353207E-16, -0.000000000000000000 ) ) ;
#446 = ADVANCED_FACE ( 'NONE', ( #1055 ), #96, .T. ) ;
#447 = VERTEX_POINT ( 'NONE', #584 ) ;
#448 = LINE ( 'NONE', #533, #853 ) ;
#449 = DIRECTION ( 'NONE',  ( 1.000000000000000000, 1.224646799147353207E-16, -0.000000000000000000 ) ) ;
#450 = DIRECTION ( 'NONE',  ( 1.000000000000000000, 0.000000000000000000, 0.000000000000000000 ) ) ;
#451 = EDGE_LOOP ( 'NONE', ( #149, #1022, #35, #811 ) ) ;
#452 = SURFACE_SIDE_STYLE ('',( #366 ) ) ;
#453 = EDGE_LOOP ( 'NONE', ( #216, #490, #497, #572 ) ) ;
#454 = DIRECTION ( 'NONE',  ( 0.000000000000000000, -1.000000000000000000, 0.000000000000000000 ) ) ;
#455 = DIRECTION ( 'NONE',  ( -1.499759782661857608E-32, 1.224646799147353207E-16, 1.000000000000000000 ) ) ;
#456 = CIRCLE ( 'NONE', #715, 0.5000000000000004441 ) ;
#457 = TOROIDAL_SURFACE ( 'NONE', #280, 1.000000000000001332, 0.2999999999999999334 ) ;
#458 = ORIENTED_EDGE ( 'NONE', *, *, #233, .T. ) ;
#459 = CARTESIAN_POINT ( 'NONE',  ( 0.000000000000000000, -2.500000000000000000, 0.2999999999999999334 ) ) ;
#460 = CIRCLE ( 'NONE', #1009, 0.2999999999999999334 ) ;
#461 = DIRECTION ( 'NONE',  ( -1.000000000000000000, 0.000000000000000000, 0.000000000000000000 ) ) ;
#462 = CARTESIAN_POINT ( 'NONE',  ( 2.299999999999998046, -2.500000000000000000, 1.000000000000000000 ) ) ;
#463 = ORIENTED_EDGE ( 'NONE', *, *, #355, .F. ) ;
#464 = DIRECTION ( 'NONE',  ( -1.224646799147353207E-16, 1.000000000000000000, 0.000000000000000000 ) ) ;
#465 = ADVANCED_FACE ( 'NONE', ( #17 ), #799, .T. ) ;
#466 = DIRECTION ( 'NONE',  ( -1.000000000000000000, -1.224646799147353207E-16, 0.000000000000000000 ) ) ;
#467 = EDGE_LOOP ( 'NONE', ( #542, #14, #635, #121 ) ) ;
#468 = ORIENTED_EDGE ( 'NONE', *, *, #339, .T. ) ;
#469 = CARTESIAN_POINT ( 'NONE',  ( -4.118033988749979279, 6.399999999999996803, 0.000000000000000000 ) ) ;
#470 = DIRECTION ( 'NONE',  ( 1.000000000000000000, 0.000000000000000000, 0.000000000000000000 ) ) ;
#471 = EDGE_CURVE ( 'NONE', #892, #909, #839, .T. ) ;
#472 = AXIS2_PLACEMENT_3D ( 'NONE', #1017, #607, #935 ) ;
#473 = ORIENTED_EDGE ( 'NONE', *, *, #612, .T. ) ;
#474 = AXIS2_PLACEMENT_3D ( 'NONE', #359, #32, #529 ) ;
#475 = VERTEX_POINT ( 'NONE', #412 ) ;
#476 = CIRCLE ( 'NONE', #579, 0.5000000000000000000 ) ;
#477 = AXIS2_PLACEMENT_3D ( 'NONE', #322, #894, #213 ) ;
#478 = DIRECTION ( 'NONE',  ( 1.000000000000000000, 0.000000000000000000, 0.000000000000000000 ) ) ;
#479 = DIRECTION ( 'NONE',  ( -1.391489419232724905E-16, 1.000000000000000000, 0.000000000000000000 ) ) ;
#480 = EDGE_CURVE ( 'NONE', #475, #25, #979, .T. ) ;
#481 = ORIENTED_EDGE ( 'NONE', *, *, #1025, .F. ) ;
#482 = FACE_BOUND ( 'NONE', #729, .T. ) ;
#483 = CARTESIAN_POINT ( 'NONE',  ( 0.000000000000000000, 2.500000000000000000, 0.2999999999999999334 ) ) ;
#484 = ORIENTED_EDGE ( 'NONE', *, *, #252, .T. ) ;
#485 = EDGE_CURVE ( 'NONE', #106, #1066, #422, .T. ) ;
#486 = ORIENTED_EDGE ( 'NONE', *, *, #848, .T. ) ;
#487 = PRODUCT_RELATED_PRODUCT_CATEGORY ( 'part', '', ( #855 ) ) ;
#488 = CARTESIAN_POINT ( 'NONE',  ( 2.000000000000000000, 2.500000000000000000, 8.399999999999998579 ) ) ;
#489 = CARTESIAN_POINT ( 'NONE',  ( 5.000000000000000000, 2.500000000000000000, 9.399999999999998579 ) ) ;
#490 = ORIENTED_EDGE ( 'NONE', *, *, #256, .T. ) ;
#491 = ORIENTED_EDGE ( 'NONE', *, *, #12, .T. ) ;
#492 = AXIS2_PLACEMENT_3D ( 'NONE', #824, #430, #257 ) ;
#493 = CIRCLE ( 'NONE', #129, 0.2999999999999999334 ) ;
#494 = CIRCLE ( 'NONE', #562, 0.5000000000000000000 ) ;
#495 = DIRECTION ( 'NONE',  ( -1.000000000000000000, -1.224646799147353207E-16, 0.000000000000000000 ) ) ;
#496 = FILL_AREA_STYLE ('',( #162 ) ) ;
#497 = ORIENTED_EDGE ( 'NONE', *, *, #66, .T. ) ;
#498 = CARTESIAN_POINT ( 'NONE',  ( 2.999999999999999556, 2.500000000000000000, 8.399999999999998579 ) ) ;
#499 = EDGE_CURVE ( 'NONE', #738, #604, #407, .T. ) ;
#500 = ORIENTED_EDGE ( 'NONE', *, *, #707, .T. ) ;
#501 = CARTESIAN_POINT ( 'NONE',  ( 2.999999999999999556, -2.500000000000000000, 8.399999999999998579 ) ) ;
#502 = EDGE_CURVE ( 'NONE', #76, #156, #924, .T. ) ;
#503 = DIRECTION ( 'NONE',  ( 0.000000000000000000, 0.000000000000000000, -1.000000000000000000 ) ) ;
#504 = VERTEX_POINT ( 'NONE', #245 ) ;
#505 = CARTESIAN_POINT ( 'NONE',  ( 2.999999999999999556, -2.500000000000000000, 8.399999999999998579 ) ) ;
#506 = CIRCLE ( 'NONE', #472, 0.7000000000000000666 ) ;
#507 = CIRCLE ( 'NONE', #142, 0.2999999999999999334 ) ;
#508 = AXIS2_PLACEMENT_3D ( 'NONE', #669, #438, #605 ) ;
#509 = CIRCLE ( 'NONE', #942, 0.2999999999999999334 ) ;
#510 = ORIENTED_EDGE ( 'NONE', *, *, #485, .F. ) ;
#511 = DIRECTION ( 'NONE',  ( -1.000000000000000000, 0.000000000000000000, 0.000000000000000000 ) ) ;
#512 = UNCERTAINTY_MEASURE_WITH_UNIT (LENGTH_MEASURE( 1.000000000000000082E-05 ), #415, 'distance_accuracy_value', 'NONE');
#513 = EDGE_CURVE ( 'NONE', #569, #909, #906, .T. ) ;
#514 = DIRECTION ( 'NONE',  ( 0.000000000000000000, 0.000000000000000000, -1.000000000000000000 ) ) ;
#515 = DIRECTION ( 'NONE',  ( -2.168404344971009854E-16, 0.000000000000000000, -1.000000000000000000 ) ) ;
#516 = ORIENTED_EDGE ( 'NONE', *, *, #848, .F. ) ;
#517 = DIRECTION ( 'NONE',  ( 0.000000000000000000, 0.000000000000000000, 1.000000000000000000 ) ) ;
#518 = DIRECTION ( 'NONE',  ( 1.000000000000000000, 1.224646799147353207E-16, -0.000000000000000000 ) ) ;
#519 = DIRECTION ( 'NONE',  ( -1.000000000000000000, -0.000000000000000000, 0.000000000000000000 ) ) ;
#520 = VERTEX_POINT ( 'NONE', #905 ) ;
#521 = CARTESIAN_POINT ( 'NONE',  ( -4.118033988749977503, -5.900000000000027001, 0.000000000000000000 ) ) ;
#522 = DIRECTION ( 'NONE',  ( -1.000000000000000000, 0.000000000000000000, 0.000000000000000000 ) ) ;
#523 = CIRCLE ( 'NONE', #492, 0.2999999999999999334 ) ;
#524 = FACE_OUTER_BOUND ( 'NONE', #619, .T. ) ;
#525 = AXIS2_PLACEMENT_3D ( 'NONE', #167, #237, #914 ) ;
#526 = ORIENTED_EDGE ( 'NONE', *, *, #396, .T. ) ;
#527 = CARTESIAN_POINT ( 'NONE',  ( 2.999999999999999556, -2.500000000000000000, 9.399999999999998579 ) ) ;
#528 = ADVANCED_FACE ( 'NONE', ( #327 ), #1026, .T. ) ;
#529 = DIRECTION ( 'NONE',  ( 0.000000000000000000, 0.000000000000000000, 1.000000000000000000 ) ) ;
#530 = DIRECTION ( 'NONE',  ( -1.224646799147353207E-16, 1.000000000000000000, 0.000000000000000000 ) ) ;
#531 = EDGE_CURVE ( 'NONE', #648, #738, #818, .T. ) ;
#532 = ORIENTED_EDGE ( 'NONE', *, *, #997, .F. ) ;
#533 = CARTESIAN_POINT ( 'NONE',  ( 7.837739514543057962E-16, -6.399999999999997691, 7.837739514543057962E-16 ) ) ;
#534 = DIRECTION ( 'NONE',  ( -2.168404344971009854E-16, -0.000000000000000000, -1.000000000000000000 ) ) ;
#535 = LINE ( 'NONE', #864, #141 ) ;
#536 = EDGE_LOOP ( 'NONE', ( #995, #243, #646, #205 ) ) ;
#537 = DIRECTION ( 'NONE',  ( 1.000000000000000000, 0.000000000000000000, 0.000000000000000000 ) ) ;
#538 = DIRECTION ( 'NONE',  ( 1.000000000000000000, 0.000000000000000000, 0.000000000000000000 ) ) ;
#539 = CARTESIAN_POINT ( 'NONE',  ( 0.000000000000000000, -2.500000000000000000, 0.000000000000000000 ) ) ;
#540 = CIRCLE ( 'NONE', #975, 0.5000000000000004441 ) ;
#541 = VECTOR ( 'NONE', #171, 1000.000000000000000 ) ;
#542 = ORIENTED_EDGE ( 'NONE', *, *, #707, .F. ) ;
#543 = AXIS2_PLACEMENT_3D ( 'NONE', #26, #433, #899 ) ;
#544 = AXIS2_PLACEMENT_3D ( 'NONE', #338, #663, #742 ) ;
#545 = ADVANCED_FACE ( 'NONE', ( #840 ), #739, .T. ) ;
#546 = DIRECTION ( 'NONE',  ( 1.000000000000000000, 1.224646799147353207E-16, -0.000000000000000000 ) ) ;
#547 = DIRECTION ( 'NONE',  ( 1.000000000000000000, 1.224646799147353207E-16, -0.000000000000000000 ) ) ;
#548 = ORIENTED_EDGE ( 'NONE', *, *, #169, .T. ) ;
#549 = ORIENTED_EDGE ( 'NONE', *, *, #722, .T. ) ;
#550 = DIRECTION ( 'NONE',  ( -1.224646799147353207E-16, 1.000000000000000000, 0.000000000000000000 ) ) ;
#551 = DIRECTION ( 'NONE',  ( 1.758165685111629358E-16, 0.000000000000000000, 1.000000000000000000 ) ) ;
#552 = ORIENTED_EDGE ( 'NONE', *, *, #943, .F. ) ;
#553 = ORIENTED_EDGE ( 'NONE', *, *, #947, .T. ) ;
#554 = DIRECTION ( 'NONE',  ( -1.000000000000000000, -0.000000000000000000, -0.000000000000000000 ) ) ;
#555 = DIRECTION ( 'NONE',  ( 1.000000000000000000, 1.224646799147353207E-16, -0.000000000000000000 ) ) ;
#556 = ADVANCED_BREP_SHAPE_REPRESENTATION ( '\X2\75355bb9\X0\', ( #55, #618 ), #821 ) ;
#557 = ADVANCED_FACE ( 'NONE', ( #757 ), #989, .F. ) ;
#558 = CARTESIAN_POINT ( 'NONE',  ( 2.999999999999999556, 2.500000000000000000, 9.399999999999998579 ) ) ;
#559 = CIRCLE ( 'NONE', #632, 6.399999999999997691 ) ;
#560 = ORIENTED_EDGE ( 'NONE', *, *, #211, .F. ) ;
#561 = AXIS2_PLACEMENT_3D ( 'NONE', #681, #255, #517 ) ;
#562 = AXIS2_PLACEMENT_3D ( 'NONE', #354, #201, #441 ) ;
#563 = AXIS2_PLACEMENT_3D ( 'NONE', #626, #953, #105 ) ;
#564 = CARTESIAN_POINT ( 'NONE',  ( 0.000000000000000000, 2.500000000000000000, 0.000000000000000000 ) ) ;
#565 = ADVANCED_FACE ( 'NONE', ( #751 ), #457, .T. ) ;
#566 = CARTESIAN_POINT ( 'NONE',  ( 0.9999999999999983347, -2.500000000000000000, 0.000000000000000000 ) ) ;
#567 = EDGE_CURVE ( 'NONE', #892, #361, #523, .T. ) ;
#568 = EDGE_LOOP ( 'NONE', ( #591, #927, #1014, #329 ) ) ;
#569 = VERTEX_POINT ( 'NONE', #998 ) ;
#570 = DIRECTION ( 'NONE',  ( 0.000000000000000000, 0.000000000000000000, 1.000000000000000000 ) ) ;
#571 = DIRECTION ( 'NONE',  ( -1.185846126156021461E-16, 1.000000000000000000, 0.000000000000000000 ) ) ;
#572 = ORIENTED_EDGE ( 'NONE', *, *, #1040, .F. ) ;
#573 = ORIENTED_EDGE ( 'NONE', *, *, #66, .F. ) ;
#574 = DIRECTION ( 'NONE',  ( 0.000000000000000000, 0.000000000000000000, 1.000000000000000000 ) ) ;
#575 = DIRECTION ( 'NONE',  ( -1.758165685111629358E-16, 0.000000000000000000, -1.000000000000000000 ) ) ;
#576 = ORIENTED_EDGE ( 'NONE', *, *, #176, .F. ) ;
#577 = AXIS2_PLACEMENT_3D ( 'NONE', #856, #671, #782 ) ;
#578 = VECTOR ( 'NONE', #20, 1000.000000000000000 ) ;
#579 = AXIS2_PLACEMENT_3D ( 'NONE', #383, #70, #960 ) ;
#580 = EDGE_CURVE ( 'NONE', #361, #569, #938, .T. ) ;
#581 = CARTESIAN_POINT ( 'NONE',  ( 1.999999999999998224, 2.500000000000000000, 1.000000000000000000 ) ) ;
#582 = SURFACE_SIDE_STYLE ('',( #174 ) ) ;
#583 = ORIENTED_EDGE ( 'NONE', *, *, #1040, .T. ) ;
#584 = CARTESIAN_POINT ( 'NONE',  ( 2.999999999999999556, 2.500000000000000000, 9.699999999999999289 ) ) ;
#585 = DIRECTION ( 'NONE',  ( 1.000000000000000000, 1.224646799147353207E-16, -0.000000000000000000 ) ) ;
#586 = ORIENTED_EDGE ( 'NONE', *, *, #800, .T. ) ;
#587 = FACE_OUTER_BOUND ( 'NONE', #536, .T. ) ;
#588 = CARTESIAN_POINT ( 'NONE',  ( 0.9999999999999986677, 2.500000000000000000, 1.000000000000000000 ) ) ;
#589 =( NAMED_UNIT ( * ) PLANE_ANGLE_UNIT ( ) SI_UNIT ( $, .RADIAN. ) );
#590 = EDGE_CURVE ( 'NONE', #792, #504, #1062, .T. ) ;
#591 = ORIENTED_EDGE ( 'NONE', *, *, #735, .F. ) ;
#592 = DIRECTION ( 'NONE',  ( 0.000000000000000000, 0.000000000000000000, 1.000000000000000000 ) ) ;
#593 = CIRCLE ( 'NONE', #661, 6.399999999999997691 ) ;
#594 = AXIS2_PLACEMENT_3D ( 'NONE', #313, #625, #464 ) ;
#595 = CARTESIAN_POINT ( 'NONE',  ( 1.699999999999998401, 2.500000000000000000, 1.000000000000000000 ) ) ;
#596 = CIRCLE ( 'NONE', #561, 0.2999999999999999334 ) ;
#597 = AXIS2_PLACEMENT_3D ( 'NONE', #696, #364, #184 ) ;
#598 = SURFACE_STYLE_USAGE ( .BOTH. , #582 ) ;
#599 = ORIENTED_EDGE ( 'NONE', *, *, #780, .F. ) ;
#600 = DIRECTION ( 'NONE',  ( 1.000000000000000000, 1.224646799147353207E-16, -0.000000000000000000 ) ) ;
#601 = PRODUCT_DEFINITION_CONTEXT ( 'detailed design', #418, 'design' ) ;
#602 = CARTESIAN_POINT ( 'NONE',  ( -2.999999999999998224, 5.899999999999994138, 0.000000000000000000 ) ) ;
#603 = CARTESIAN_POINT ( 'NONE',  ( -1.881966011250021831, 6.399999999999995026, 0.000000000000000000 ) ) ;
#604 = VERTEX_POINT ( 'NONE', #602 ) ;
#605 = DIRECTION ( 'NONE',  ( 1.000000000000000000, 0.000000000000000000, 0.000000000000000000 ) ) ;
#606 = DIRECTION ( 'NONE',  ( 1.000000000000000000, 1.224646799147353207E-16, -0.000000000000000000 ) ) ;
#607 = DIRECTION ( 'NONE',  ( -0.000000000000000000, -1.000000000000000000, -0.000000000000000000 ) ) ;
#608 = EDGE_LOOP ( 'NONE', ( #85, #951, #771, #779 ) ) ;
#609 = DIRECTION ( 'NONE',  ( 0.000000000000000000, 0.000000000000000000, -1.000000000000000000 ) ) ;
#610 = EDGE_CURVE ( 'NONE', #738, #648, #765, .T. ) ;
#611 = CIRCLE ( 'NONE', #1024, 1.000000000000000888 ) ;
#612 = EDGE_CURVE ( 'NONE', #636, #447, #675, .T. ) ;
#613 = CARTESIAN_POINT ( 'NONE',  ( -4.118033988749978391, -3.206166944381640187E-16, 0.000000000000000000 ) ) ;
#614 = VECTOR ( 'NONE', #1016, 1000.000000000000000 ) ;
#615 = AXIS2_PLACEMENT_3D ( 'NONE', #409, #933, #923 ) ;
#616 = AXIS2_PLACEMENT_3D ( 'NONE', #725, #814, #719 ) ;
#617 = CARTESIAN_POINT ( 'NONE',  ( -2.999999999999997335, -6.899999999999995026, 8.450062914116730745E-16 ) ) ;
#618 = AXIS2_PLACEMENT_3D ( 'NONE', #362, #118, #737 ) ;
#619 = EDGE_LOOP ( 'NONE', ( #815, #703 ) ) ;
#620 =( NAMED_UNIT ( * ) PLANE_ANGLE_UNIT ( ) SI_UNIT ( $, .RADIAN. ) );
#621 = ORIENTED_EDGE ( 'NONE', *, *, #904, .T. ) ;
#622 = DIRECTION ( 'NONE',  ( 0.000000000000000000, -1.000000000000000000, 0.000000000000000000 ) ) ;
#623 = CARTESIAN_POINT ( 'NONE',  ( 1.699999999999998401, -2.500000000000000000, 1.000000000000000000 ) ) ;
#624 = VERTEX_POINT ( 'NONE', #123 ) ;
#625 = DIRECTION ( 'NONE',  ( 1.000000000000000000, 1.224646799147353207E-16, -0.000000000000000000 ) ) ;
#626 = CARTESIAN_POINT ( 'NONE',  ( 5.000000000000000000, -2.500000000000000000, 9.399999999999998579 ) ) ;
#627 = ADVANCED_FACE ( 'NONE', ( #29 ), #1005, .T. ) ;
#628 = ORIENTED_EDGE ( 'NONE', *, *, #402, .T. ) ;
#629 = DIRECTION ( 'NONE',  ( 1.000000000000000000, 1.224646799147353207E-16, -0.000000000000000000 ) ) ;
#630 = CARTESIAN_POINT ( 'NONE',  ( 0.000000000000000000, -2.500000000000000000, 0.2999999999999999334 ) ) ;
#631 = DIRECTION ( 'NONE',  ( 1.224646799147353207E-16, -1.000000000000000000, 0.000000000000000000 ) ) ;
#632 = AXIS2_PLACEMENT_3D ( 'NONE', #22, #767, #622 ) ;
#633 = ORIENTED_EDGE ( 'NONE', *, *, #471, .F. ) ;
#634 = CARTESIAN_POINT ( 'NONE',  ( -2.999999999999998224, -1.499759782661858429E-32, 0.000000000000000000 ) ) ;
#635 = ORIENTED_EDGE ( 'NONE', *, *, #531, .F. ) ;
#636 = VERTEX_POINT ( 'NONE', #119 ) ;
#637 = EDGE_CURVE ( 'NONE', #636, #156, #104, .T. ) ;
#638 = CARTESIAN_POINT ( 'NONE',  ( -0.4999999999999989453, -5.899999999999995914, 7.225416114969379263E-16 ) ) ;
#639 = FACE_OUTER_BOUND ( 'NONE', #763, .T. ) ;
#640 = ORIENTED_EDGE ( 'NONE', *, *, #701, .F. ) ;
#641 = ORIENTED_EDGE ( 'NONE', *, *, #789, .F. ) ;
#642 = EDGE_CURVE ( 'NONE', #185, #865, #559, .T. ) ;
#643 = DIRECTION ( 'NONE',  ( 0.000000000000000000, 0.000000000000000000, -1.000000000000000000 ) ) ;
#644 = CARTESIAN_POINT ( 'NONE',  ( -0.4999999999999996669, -6.123233995736762338E-17, 0.000000000000000000 ) ) ;
#645 = AXIS2_PLACEMENT_3D ( 'NONE', #634, #314, #959 ) ;
#646 = ORIENTED_EDGE ( 'NONE', *, *, #637, .T. ) ;
#647 = CIRCLE ( 'NONE', #440, 5.899999999999997691 ) ;
#648 = VERTEX_POINT ( 'NONE', #1020 ) ;
#649 = CYLINDRICAL_SURFACE ( 'NONE', #615, 0.2999999999999999334 ) ;
#650 = CARTESIAN_POINT ( 'NONE',  ( -1.881966011250021165, -4.677734530604214682E-17, 0.000000000000000000 ) ) ;
#651 = EDGE_LOOP ( 'NONE', ( #796, #266, #297, #552 ) ) ;
#652 = ORIENTED_EDGE ( 'NONE', *, *, #256, .F. ) ;
#653 = EDGE_CURVE ( 'NONE', #965, #292, #43, .T. ) ;
#654 = VERTEX_POINT ( 'NONE', #287 ) ;
#655 = DIRECTION ( 'NONE',  ( 0.000000000000000000, 0.000000000000000000, -1.000000000000000000 ) ) ;
#656 = CIRCLE ( 'NONE', #645, 5.899999999999994138 ) ;
#657 = ORIENTED_EDGE ( 'NONE', *, *, #37, .T. ) ;
#658 = CIRCLE ( 'NONE', #190, 0.2999999999999999334 ) ;
#659 = AXIS2_PLACEMENT_3D ( 'NONE', #1033, #374, #699 ) ;
#660 = AXIS2_PLACEMENT_3D ( 'NONE', #841, #18, #81 ) ;
#661 = AXIS2_PLACEMENT_3D ( 'NONE', #305, #466, #218 ) ;
#662 = CARTESIAN_POINT ( 'NONE',  ( -2.999999999999998224, 0.000000000000000000, 0.000000000000000000 ) ) ;
#663 = DIRECTION ( 'NONE',  ( -1.000000000000000000, -0.000000000000000000, -0.000000000000000000 ) ) ;
#664 = VERTEX_POINT ( 'NONE', #849 ) ;
#665 = DIRECTION ( 'NONE',  ( 1.355252715606881529E-16, -1.000000000000000000, 0.000000000000000000 ) ) ;
#666 = EDGE_CURVE ( 'NONE', #25, #475, #647, .T. ) ;
#667 = CARTESIAN_POINT ( 'NONE',  ( -1.881966011250021831, 5.900000000000023448, 7.225416114969412790E-16 ) ) ;
#668 = ORIENTED_EDGE ( 'NONE', *, *, #610, .F. ) ;
#669 = CARTESIAN_POINT ( 'NONE',  ( 1.999999999999998224, 2.500000000000000000, 1.000000000000000000 ) ) ;
#670 = ADVANCED_FACE ( 'NONE', ( #444 ), #228, .T. ) ;
#671 = DIRECTION ( 'NONE',  ( 1.499759782661857608E-32, -1.224646799147353207E-16, 1.000000000000000000 ) ) ;
#672 = EDGE_CURVE ( 'NONE', #604, #219, #92, .T. ) ;
#673 = ORIENTED_EDGE ( 'NONE', *, *, #880, .T. ) ;
#674 = LINE ( 'NONE', #1007, #112 ) ;
#675 = CIRCLE ( 'NONE', #474, 0.2999999999999999334 ) ;
#676 = CARTESIAN_POINT ( 'NONE',  ( 2.299999999999998046, 2.500000000000000000, 1.000000000000000000 ) ) ;
#677 = PRODUCT_DEFINITION_FORMATION_WITH_SPECIFIED_SOURCE ( '任何', '', #855, .NOT_KNOWN. ) ;
#678 = AXIS2_PLACEMENT_3D ( 'NONE', #100, #258, #916 ) ;
#679 = CARTESIAN_POINT ( 'NONE',  ( 1.999999999999998224, 2.500000000000000000, 1.000000000000000000 ) ) ;
#680 = EDGE_LOOP ( 'NONE', ( #549, #778 ) ) ;
#681 = CARTESIAN_POINT ( 'NONE',  ( 5.000000000000000000, -2.500000000000000000, 9.399999999999998579 ) ) ;
#682 = LINE ( 'NONE', #676, #110 ) ;
#683 = LINE ( 'NONE', #860, #227 ) ;
#684 = ORIENTED_EDGE ( 'NONE', *, *, #770, .F. ) ;
#685 = CARTESIAN_POINT ( 'NONE',  ( -4.118033988749978391, -5.043137143102668889E-16, 0.000000000000000000 ) ) ;
#686 = EDGE_CURVE ( 'NONE', #865, #25, #1042, .T. ) ;
#687 = PRODUCT_DEFINITION_SHAPE ( 'NONE', 'NONE',  #1013 ) ;
#688 = FACE_OUTER_BOUND ( 'NONE', #259, .T. ) ;
#689 = CARTESIAN_POINT ( 'NONE',  ( 5.000000000000000000, -2.500000000000000000, 9.699999999999999289 ) ) ;
#690 = ORIENTED_EDGE ( 'NONE', *, *, #962, .F. ) ;
#691 = ORIENTED_EDGE ( 'NONE', *, *, #788, .T. ) ;
#692 = AXIS2_PLACEMENT_3D ( 'NONE', #809, #974, #404 ) ;
#693 = DIRECTION ( 'NONE',  ( -1.000000000000000000, -1.224646799147353207E-16, 0.000000000000000000 ) ) ;
#694 = AXIS2_PLACEMENT_3D ( 'NONE', #334, #423, #164 ) ;
#695 = AXIS2_PLACEMENT_3D ( 'NONE', #755, #511, #346 ) ;
#696 = CARTESIAN_POINT ( 'NONE',  ( -0.4999999999999996669, -6.123233995736762338E-17, 0.000000000000000000 ) ) ;
#697 = AXIS2_PLACEMENT_3D ( 'NONE', #501, #155, #919 ) ;
#698 = ORIENTED_EDGE ( 'NONE', *, *, #997, .T. ) ;
#699 = DIRECTION ( 'NONE',  ( 0.000000000000000000, 0.000000000000000000, 1.000000000000000000 ) ) ;
#700 = CARTESIAN_POINT ( 'NONE',  ( -4.118033988749979279, 5.900000000000027001, 7.225416114969416734E-16 ) ) ;
#701 = EDGE_CURVE ( 'NONE', #569, #191, #682, .T. ) ;
#702 = CARTESIAN_POINT ( 'NONE',  ( 2.299999999999999822, 2.500000000000000000, 8.399999999999998579 ) ) ;
#703 = ORIENTED_EDGE ( 'NONE', *, *, #502, .F. ) ;
#704 = CARTESIAN_POINT ( 'NONE',  ( 0.000000000000000000, 0.000000000000000000, 0.000000000000000000 ) ) ;
#705 = LINE ( 'NONE', #630, #265 ) ;
#706 = FACE_OUTER_BOUND ( 'NONE', #163, .T. ) ;
#707 = EDGE_CURVE ( 'NONE', #177, #664, #712, .T. ) ;
#708 = FACE_OUTER_BOUND ( 'NONE', #82, .T. ) ;
#709 = DIRECTION ( 'NONE',  ( 1.000000000000000000, 1.224646799147353207E-16, -0.000000000000000000 ) ) ;
#710 = CARTESIAN_POINT ( 'NONE',  ( 0.000000000000000000, 2.500000000000000000, -0.2999999999999999334 ) ) ;
#711 = DIRECTION ( 'NONE',  ( -1.000000000000000000, -0.000000000000000000, -0.000000000000000000 ) ) ;
#712 = CIRCLE ( 'NONE', #60, 6.399999999999995026 ) ;
#713 = AXIS2_PLACEMENT_3D ( 'NONE', #745, #11, #341 ) ;
#714 = ORIENTED_EDGE ( 'NONE', *, *, #637, .F. ) ;
#715 = AXIS2_PLACEMENT_3D ( 'NONE', #886, #386, #876 ) ;
#716 = ORIENTED_EDGE ( 'NONE', *, *, #666, .F. ) ;
#717 = CARTESIAN_POINT ( 'NONE',  ( 2.999999999999999556, -2.500000000000000000, 9.399999999999998579 ) ) ;
#718 = DIRECTION ( 'NONE',  ( 0.000000000000000000, 0.000000000000000000, 1.000000000000000000 ) ) ;
#719 = DIRECTION ( 'NONE',  ( 0.000000000000000000, 0.000000000000000000, -1.000000000000000000 ) ) ;
#720 = EDGE_CURVE ( 'NONE', #909, #373, #930, .T. ) ;
#721 = EDGE_LOOP ( 'NONE', ( #240, #510, #548, #125 ) ) ;
#722 = EDGE_CURVE ( 'NONE', #624, #316, #658, .T. ) ;
#723 = LINE ( 'NONE', #710, #837 ) ;
#724 = FACE_OUTER_BOUND ( 'NONE', #67, .T. ) ;
#725 = CARTESIAN_POINT ( 'NONE',  ( 0.9999999999999986677, -2.500000000000000000, 1.000000000000000000 ) ) ;
#726 = ORIENTED_EDGE ( 'NONE', *, *, #686, .F. ) ;
#727 = FACE_OUTER_BOUND ( 'NONE', #95, .T. ) ;
#728 = AXIS2_PLACEMENT_3D ( 'NONE', #644, #232, #813 ) ;
#729 = EDGE_LOOP ( 'NONE', ( #877, #135 ) ) ;
#730 = AXIS2_PLACEMENT_3D ( 'NONE', #911, #495, #99 ) ;
#731 = VERTEX_POINT ( 'NONE', #108 ) ;
#732 = CIRCLE ( 'NONE', #27, 0.5000000000000004441 ) ;
#733 = TOROIDAL_SURFACE ( 'NONE', #872, 1.000000000000000000, 0.2999999999999999334 ) ;
#734 = CARTESIAN_POINT ( 'NONE',  ( -2.999999999999999112, 6.899999999999995026, 0.000000000000000000 ) ) ;
#735 = EDGE_CURVE ( 'NONE', #865, #185, #333, .T. ) ;
#736 = CYLINDRICAL_SURFACE ( 'NONE', #889, 0.2999999999999999334 ) ;
#737 = DIRECTION ( 'NONE',  ( 1.000000000000000000, 0.000000000000000000, 0.000000000000000000 ) ) ;
#738 = VERTEX_POINT ( 'NONE', #363 ) ;
#739 = PLANE ( 'NONE',  #730 ) ;
#740 = ORIENTED_EDGE ( 'NONE', *, *, #567, .T. ) ;
#741 = DIRECTION ( 'NONE',  ( 0.000000000000000000, 0.000000000000000000, 1.000000000000000000 ) ) ;
#742 = DIRECTION ( 'NONE',  ( 0.000000000000000000, 0.000000000000000000, 1.000000000000000000 ) ) ;
#743 = AXIS2_PLACEMENT_3D ( 'NONE', #795, #57, #134 ) ;
#744 = ORIENTED_EDGE ( 'NONE', *, *, #992, .T. ) ;
#745 = CARTESIAN_POINT ( 'NONE',  ( 0.9999999999999986677, -2.500000000000000000, 1.000000000000000000 ) ) ;
#746 = AXIS2_PLACEMENT_3D ( 'NONE', #613, #196, #38 ) ;
#747 = ADVANCED_FACE ( 'NONE', ( #688 ), #941, .T. ) ;
#748 = MECHANICAL_DESIGN_GEOMETRIC_PRESENTATION_REPRESENTATION (  '', ( #939 ), #248 ) ;
#749 = TOROIDAL_SURFACE ( 'NONE', #660, 5.899999999999995914, 0.5000000000000000000 ) ;
#750 = AXIS2_PLACEMENT_3D ( 'NONE', #566, #711, #718 ) ;
#751 = FACE_OUTER_BOUND ( 'NONE', #1006, .T. ) ;
#752 = DIRECTION ( 'NONE',  ( 0.000000000000000000, -1.000000000000000000, -1.224646799147351482E-16 ) ) ;
#753 = EDGE_CURVE ( 'NONE', #504, #792, #802, .T. ) ;
#754 = ORIENTED_EDGE ( 'NONE', *, *, #880, .F. ) ;
#755 = CARTESIAN_POINT ( 'NONE',  ( 5.000000000000000000, -2.500000000000000000, 9.399999999999998579 ) ) ;
#756 = ADVANCED_FACE ( 'NONE', ( #137 ), #836, .T. ) ;
#757 = FACE_OUTER_BOUND ( 'NONE', #170, .T. ) ;
#758 = PRESENTATION_STYLE_ASSIGNMENT (( #598 ) ) ;
#759 = ORIENTED_EDGE ( 'NONE', *, *, #288, .T. ) ;
#760 = DIRECTION ( 'NONE',  ( 0.000000000000000000, 0.000000000000000000, -1.000000000000000000 ) ) ;
#761 = DIRECTION ( 'NONE',  ( 1.000000000000000000, 0.000000000000000000, 0.000000000000000000 ) ) ;
#762 = FACE_OUTER_BOUND ( 'NONE', #721, .T. ) ;
#763 = EDGE_LOOP ( 'NONE', ( #111, #276, #416, #1032 ) ) ;
#764 = FACE_OUTER_BOUND ( 'NONE', #140, .T. ) ;
#765 = CIRCLE ( 'NONE', #210, 6.233333333333366255 ) ;
#766 = AXIS2_PLACEMENT_3D ( 'NONE', #717, #478, #643 ) ;
#767 = DIRECTION ( 'NONE',  ( 1.000000000000000000, 1.224646799147353207E-16, -0.000000000000000000 ) ) ;
#768 = MECHANICAL_DESIGN_GEOMETRIC_PRESENTATION_REPRESENTATION (  '', ( #63 ), #958 ) ;
#769 = FACE_OUTER_BOUND ( 'NONE', #365, .T. ) ;
#770 = EDGE_CURVE ( 'NONE', #1000, #367, #507, .T. ) ;
#771 = ORIENTED_EDGE ( 'NONE', *, *, #1025, .T. ) ;
#772 = DIRECTION ( 'NONE',  ( -1.000000000000000000, 0.000000000000000000, 0.000000000000000000 ) ) ;
#773 = DIRECTION ( 'NONE',  ( 0.000000000000000000, -1.000000000000000000, 1.224646799147353454E-16 ) ) ;
#774 = EDGE_CURVE ( 'NONE', #447, #76, #294, .T. ) ;
#775 = ORIENTED_EDGE ( 'NONE', *, *, #897, .F. ) ;
#776 = CARTESIAN_POINT ( 'NONE',  ( 3.252606517456513302E-16, 3.611118645726067224E-32, 0.000000000000000000 ) ) ;
#777 = CARTESIAN_POINT ( 'NONE',  ( 1.999999999999998224, 2.500000000000000000, 1.000000000000000000 ) ) ;
#778 = ORIENTED_EDGE ( 'NONE', *, *, #789, .T. ) ;
#779 = ORIENTED_EDGE ( 'NONE', *, *, #288, .F. ) ;
#780 = EDGE_CURVE ( 'NONE', #604, #654, #127, .T. ) ;
#781 = TOROIDAL_SURFACE ( 'NONE', #317, 6.899999999999995026, 1.000000000000000444 ) ;
#782 = DIRECTION ( 'NONE',  ( 0.000000000000000000, -1.000000000000000000, -1.224646799147351482E-16 ) ) ;
#783 = AXIS2_PLACEMENT_3D ( 'NONE', #776, #518, #439 ) ;
#784 = AXIS2_PLACEMENT_3D ( 'NONE', #685, #1019, #298 ) ;
#785 = AXIS2_PLACEMENT_3D ( 'NONE', #388, #901, #479 ) ;
#786 = CARTESIAN_POINT ( 'NONE',  ( 2.999999999999999556, 2.500000000000000000, 9.399999999999998579 ) ) ;
#787 = ORIENTED_EDGE ( 'NONE', *, *, #293, .F. ) ;
#788 = EDGE_CURVE ( 'NONE', #1066, #792, #540, .T. ) ;
#789 = EDGE_CURVE ( 'NONE', #316, #624, #493, .T. ) ;
#790 = DIRECTION ( 'NONE',  ( 1.499759782661857608E-32, -1.224646799147353207E-16, 1.000000000000000000 ) ) ;
#791 = CARTESIAN_POINT ( 'NONE',  ( 0.9999999999999983347, 2.500000000000000000, -0.2999999999999999334 ) ) ;
#792 = VERTEX_POINT ( 'NONE', #212 ) ;
#793 = FILL_AREA_STYLE_COLOUR ( '', #320 ) ;
#794 = FACE_BOUND ( 'NONE', #680, .T. ) ;
#795 = CARTESIAN_POINT ( 'NONE',  ( 2.999999999999999556, 2.500000000000000000, 8.399999999999998579 ) ) ;
#796 = ORIENTED_EDGE ( 'NONE', *, *, #52, .F. ) ;
#797 = ORIENTED_EDGE ( 'NONE', *, *, #929, .T. ) ;
#798 = CARTESIAN_POINT ( 'NONE',  ( 0.000000000000000000, 2.500000000000000000, 0.000000000000000000 ) ) ;
#799 = TOROIDAL_SURFACE ( 'NONE', #525, 5.899999999999997691, 0.5000000000000000000 ) ;
#800 = EDGE_CURVE ( 'NONE', #624, #361, #723, .T. ) ;
#801 = FACE_OUTER_BOUND ( 'NONE', #220, .T. ) ;
#802 = CIRCLE ( 'NONE', #870, 5.899999999999995914 ) ;
#803 = VECTOR ( 'NONE', #937, 1000.000000000000000 ) ;
#804 = ADVANCED_FACE ( 'NONE', ( #1054 ), #1035, .T. ) ;
#805 = DIRECTION ( 'NONE',  ( 0.000000000000000000, 0.000000000000000000, -1.000000000000000000 ) ) ;
#806 = TOROIDAL_SURFACE ( 'NONE', #392, 6.899999999999995026, 1.000000000000000444 ) ;
#807 = VERTEX_POINT ( 'NONE', #469 ) ;
#808 = CARTESIAN_POINT ( 'NONE',  ( 3.252606517456513302E-16, 3.611118645726067224E-32, 0.000000000000000000 ) ) ;
#809 = CARTESIAN_POINT ( 'NONE',  ( -1.881966011250021165, -4.677734530604214682E-17, 0.000000000000000000 ) ) ;
#810 = ORIENTED_EDGE ( 'NONE', *, *, #158, .T. ) ;
#811 = ORIENTED_EDGE ( 'NONE', *, *, #326, .T. ) ;
#812 = CARTESIAN_POINT ( 'NONE',  ( 2.999999999999999556, 2.500000000000000000, 9.699999999999999289 ) ) ;
#813 = DIRECTION ( 'NONE',  ( -1.185846126156021461E-16, 1.000000000000000000, 0.000000000000000000 ) ) ;
#814 = DIRECTION ( 'NONE',  ( -0.000000000000000000, -1.000000000000000000, -0.000000000000000000 ) ) ;
#815 = ORIENTED_EDGE ( 'NONE', *, *, #888, .F. ) ;
#816 = ADVANCED_FACE ( 'NONE', ( #130 ), #1038, .T. ) ;
#817 = CARTESIAN_POINT ( 'NONE',  ( -7.837739514543054018E-16, 6.399999999999995026, 0.000000000000000000 ) ) ;
#818 = CIRCLE ( 'NONE', #955, 6.233333333333366255 ) ;
#819 = CARTESIAN_POINT ( 'NONE',  ( 0.000000000000000000, 0.000000000000000000, 0.000000000000000000 ) ) ;
#820 = SHAPE_DEFINITION_REPRESENTATION ( #687, #556 ) ;
#821 =( GEOMETRIC_REPRESENTATION_CONTEXT ( 3 ) GLOBAL_UNCERTAINTY_ASSIGNED_CONTEXT ( ( #272 ) ) GLOBAL_UNIT_ASSIGNED_CONTEXT ( ( #209, #620, #946 ) ) REPRESENTATION_CONTEXT ( 'NONE', 'WORKASPACE' ) );
#822 = ORIENTED_EDGE ( 'NONE', *, *, #1060, .F. ) ;
#823 = TOROIDAL_SURFACE ( 'NONE', #336, 5.899999999999997691, 0.5000000000000000000 ) ;
#824 = CARTESIAN_POINT ( 'NONE',  ( 0.9999999999999983347, 2.500000000000000000, 0.000000000000000000 ) ) ;
#825 = FACE_OUTER_BOUND ( 'NONE', #75, .T. ) ;
#826 = ORIENTED_EDGE ( 'NONE', *, *, #308, .F. ) ;
#827 = DIRECTION ( 'NONE',  ( 0.000000000000000000, 0.000000000000000000, 1.000000000000000000 ) ) ;
#828 = CARTESIAN_POINT ( 'NONE',  ( -42.49999999999999289, -5.204748896376250107E-15, 0.000000000000000000 ) ) ;
#829 = ORIENTED_EDGE ( 'NONE', *, *, #273, .F. ) ;
#830 = DIRECTION ( 'NONE',  ( 0.000000000000000000, 1.000000000000000000, 0.000000000000000000 ) ) ;
#831 = ADVANCED_FACE ( 'NONE', ( #482, #794, #1049 ), #61, .T. ) ;
#832 = DIRECTION ( 'NONE',  ( 1.499759782661857608E-32, -1.224646799147353207E-16, 1.000000000000000000 ) ) ;
#833 = CIRCLE ( 'NONE', #563, 0.2999999999999999334 ) ;
#834 = ORIENTED_EDGE ( 'NONE', *, *, #513, .F. ) ;
#835 = DIRECTION ( 'NONE',  ( -1.000000000000000000, 0.000000000000000000, 0.000000000000000000 ) ) ;
#836 = TOROIDAL_SURFACE ( 'NONE', #887, 1.000000000000000000, 0.2999999999999999334 ) ;
#837 = VECTOR ( 'NONE', #879, 1000.000000000000000 ) ;
#838 = CIRCLE ( 'NONE', #425, 1.000000000000000888 ) ;
#839 = CIRCLE ( 'NONE', #376, 0.7000000000000000666 ) ;
#840 = FACE_OUTER_BOUND ( 'NONE', #148, .T. ) ;
#841 = CARTESIAN_POINT ( 'NONE',  ( -0.4999999999999996669, -6.123233995736762338E-17, 0.000000000000000000 ) ) ;
#842 = ORIENTED_EDGE ( 'NONE', *, *, #902, .F. ) ;
#843 = LINE ( 'NONE', #103, #578 ) ;
#844 = DIRECTION ( 'NONE',  ( -1.000000000000000000, -1.224646799147353207E-16, 0.000000000000000000 ) ) ;
#845 = CARTESIAN_POINT ( 'NONE',  ( 5.000000000000000000, 2.500000000000000000, 9.399999999999998579 ) ) ;
#846 = ORIENTED_EDGE ( 'NONE', *, *, #642, .T. ) ;
#847 = DIRECTION ( 'NONE',  ( -0.000000000000000000, 1.000000000000000000, -0.000000000000000000 ) ) ;
#848 = EDGE_CURVE ( 'NONE', #654, #807, #732, .T. ) ;
#849 = CARTESIAN_POINT ( 'NONE',  ( -1.881966011250020054, -6.399999999999995026, 7.837739514543054018E-16 ) ) ;
#850 = CARTESIAN_POINT ( 'NONE',  ( -42.49999999999999289, -6.400000000000003020, 7.837739514543059934E-16 ) ) ;
#851 = ORIENTED_EDGE ( 'NONE', *, *, #513, .T. ) ;
#852 = AXIS2_PLACEMENT_3D ( 'NONE', #734, #1067, #900 ) ;
#853 = VECTOR ( 'NONE', #709, 1000.000000000000000 ) ;
#854 = TOROIDAL_SURFACE ( 'NONE', #616, 1.000000000000000000, 0.2999999999999999334 ) ;
#855 = PRODUCT ( '\X2\75355bb9\X0\', '\X2\75355bb9\X0\', '', ( #896 ) ) ;
#856 = CARTESIAN_POINT ( 'NONE',  ( -42.49999999999999289, 5.899999999999992362, 7.225416114969381235E-16 ) ) ;
#857 = AXIS2_PLACEMENT_3D ( 'NONE', #964, #551, #470 ) ;
#858 = EDGE_CURVE ( 'NONE', #1048, #1000, #705, .T. ) ;
#859 = ORIENTED_EDGE ( 'NONE', *, *, #672, .F. ) ;
#860 = CARTESIAN_POINT ( 'NONE',  ( 2.999999999999999556, -2.500000000000000000, 9.699999999999999289 ) ) ;
#861 = ADVANCED_FACE ( 'NONE', ( #952 ), #956, .T. ) ;
#862 = ORIENTED_EDGE ( 'NONE', *, *, #222, .F. ) ;
#863 = CARTESIAN_POINT ( 'NONE',  ( -2.254644007500034686, 9.127978304403795129E-17, 0.000000000000000000 ) ) ;
#864 = CARTESIAN_POINT ( 'NONE',  ( 0.000000000000000000, 2.500000000000000000, 0.2999999999999999334 ) ) ;
#865 = VERTEX_POINT ( 'NONE', #304 ) ;
#866 =( LENGTH_UNIT ( ) NAMED_UNIT ( * ) SI_UNIT ( .MILLI., .METRE. ) );
#867 = ADVANCED_FACE ( 'NONE', ( #56 ), #1063, .F. ) ;
#868 = VECTOR ( 'NONE', #538, 1000.000000000000000 ) ;
#869 = DIRECTION ( 'NONE',  ( -1.499759782661857608E-32, 1.224646799147353207E-16, 1.000000000000000000 ) ) ;
#870 = AXIS2_PLACEMENT_3D ( 'NONE', #808, #398, #972 ) ;
#871 = AXIS2_PLACEMENT_3D ( 'NONE', #963, #600, #665 ) ;
#872 = AXIS2_PLACEMENT_3D ( 'NONE', #400, #58, #805 ) ;
#873 = DIRECTION ( 'NONE',  ( 0.000000000000000000, 0.000000000000000000, -1.000000000000000000 ) ) ;
#874 = ORIENTED_EDGE ( 'NONE', *, *, #580, .T. ) ;
#875 = CARTESIAN_POINT ( 'NONE',  ( 0.000000000000000000, 0.000000000000000000, 0.000000000000000000 ) ) ;
#876 = DIRECTION ( 'NONE',  ( -1.000000000000000000, 0.000000000000000000, 0.000000000000000000 ) ) ;
#877 = ORIENTED_EDGE ( 'NONE', *, *, #1004, .T. ) ;
#878 = ORIENTED_EDGE ( 'NONE', *, *, #146, .T. ) ;
#879 = DIRECTION ( 'NONE',  ( 1.000000000000000000, 0.000000000000000000, 0.000000000000000000 ) ) ;
#880 = EDGE_CURVE ( 'NONE', #664, #177, #353, .T. ) ;
#881 = DIRECTION ( 'NONE',  ( 0.000000000000000000, 0.000000000000000000, 1.000000000000000000 ) ) ;
#882 = FACE_OUTER_BOUND ( 'NONE', #181, .T. ) ;
#883 = ORIENTED_EDGE ( 'NONE', *, *, #377, .T. ) ;
#884 = DIRECTION ( 'NONE',  ( 0.000000000000000000, 0.000000000000000000, 1.000000000000000000 ) ) ;
#885 = TOROIDAL_SURFACE ( 'NONE', #262, 1.000000000000000000, 0.2999999999999999334 ) ;
#886 = CARTESIAN_POINT ( 'NONE',  ( -42.49999999999999289, -5.900000000000002132, 0.000000000000000000 ) ) ;
#887 = AXIS2_PLACEMENT_3D ( 'NONE', #309, #968, #68 ) ;
#888 = EDGE_CURVE ( 'NONE', #156, #76, #460, .T. ) ;
#889 = AXIS2_PLACEMENT_3D ( 'NONE', #921, #999, #13 ) ;
#890 = ORIENTED_EDGE ( 'NONE', *, *, #402, .F. ) ;
#891 = VECTOR ( 'NONE', #39, 1000.000000000000000 ) ;
#892 = VERTEX_POINT ( 'NONE', #319 ) ;
#893 = DIRECTION ( 'NONE',  ( 0.000000000000000000, 0.000000000000000000, -1.000000000000000000 ) ) ;
#894 = DIRECTION ( 'NONE',  ( -1.000000000000000000, -0.000000000000000000, 0.000000000000000000 ) ) ;
#895 = EDGE_LOOP ( 'NONE', ( #573, #437, #468, #139 ) ) ;
#896 = PRODUCT_CONTEXT ( 'NONE', #224, 'mechanical' ) ;
#897 = EDGE_CURVE ( 'NONE', #19, #520, #79, .T. ) ;
#898 = EDGE_LOOP ( 'NONE', ( #357, #345, #203, #945 ) ) ;
#899 = DIRECTION ( 'NONE',  ( 0.000000000000000000, 0.000000000000000000, 1.000000000000000000 ) ) ;
#900 = DIRECTION ( 'NONE',  ( -1.000000000000000000, 0.000000000000000000, 0.000000000000000000 ) ) ;
#901 = DIRECTION ( 'NONE',  ( 1.000000000000000000, 1.224646799147353207E-16, -0.000000000000000000 ) ) ;
#902 = EDGE_CURVE ( 'NONE', #361, #892, #391, .T. ) ;
#903 = EDGE_LOOP ( 'NONE', ( #428, #553, #166, #157 ) ) ;
#904 = EDGE_CURVE ( 'NONE', #373, #191, #93, .T. ) ;
#905 = CARTESIAN_POINT ( 'NONE',  ( -4.118033988749977503, -6.399999999999998579, 7.837739514543057962E-16 ) ) ;
#906 = CIRCLE ( 'NONE', #244, 0.2999999999999999334 ) ;
#907 = DIRECTION ( 'NONE',  ( -1.000000000000000000, 0.000000000000000000, 0.000000000000000000 ) ) ;
#908 = AXIS2_PLACEMENT_3D ( 'NONE', #488, #918, #358 ) ;
#909 = VERTEX_POINT ( 'NONE', #996 ) ;
#910 = CIRCLE ( 'NONE', #678, 0.2999999999999999334 ) ;
#911 = CARTESIAN_POINT ( 'NONE',  ( -43.00000000000000000, -5.265981236333618470E-15, 0.000000000000000000 ) ) ;
#912 = CARTESIAN_POINT ( 'NONE',  ( 5.000000000000000000, 2.500000000000000000, 9.699999999999999289 ) ) ;
#913 = ORIENTED_EDGE ( 'NONE', *, *, #202, .T. ) ;
#914 = DIRECTION ( 'NONE',  ( 1.224646799147353207E-16, -1.000000000000000000, 0.000000000000000000 ) ) ;
#915 = EDGE_CURVE ( 'NONE', #153, #1065, #596, .T. ) ;
#916 = DIRECTION ( 'NONE',  ( -1.000000000000000000, 0.000000000000000000, 0.000000000000000000 ) ) ;
#917 = ORIENTED_EDGE ( 'NONE', *, *, #98, .F. ) ;
#918 = DIRECTION ( 'NONE',  ( -1.758165685111629358E-16, 0.000000000000000000, -1.000000000000000000 ) ) ;
#919 = DIRECTION ( 'NONE',  ( 0.000000000000000000, 0.000000000000000000, 1.000000000000000000 ) ) ;
#920 = ADVANCED_FACE ( 'NONE', ( #107 ), #649, .T. ) ;
#921 = CARTESIAN_POINT ( 'NONE',  ( 0.000000000000000000, 2.500000000000000000, 0.000000000000000000 ) ) ;
#922 = ORIENTED_EDGE ( 'NONE', *, *, #502, .T. ) ;
#923 = DIRECTION ( 'NONE',  ( 1.000000000000000000, 0.000000000000000000, 0.000000000000000000 ) ) ;
#924 = CIRCLE ( 'NONE', #318, 0.2999999999999999334 ) ;
#925 = CARTESIAN_POINT ( 'NONE',  ( 2.999999999999999556, 2.500000000000000000, 9.099999999999997868 ) ) ;
#926 = FACE_OUTER_BOUND ( 'NONE', #132, .T. ) ;
#927 = ORIENTED_EDGE ( 'NONE', *, *, #686, .T. ) ;
#928 = DIRECTION ( 'NONE',  ( 1.000000000000000000, 0.000000000000000000, 0.000000000000000000 ) ) ;
#929 = EDGE_CURVE ( 'NONE', #177, #106, #1015, .T. ) ;
#930 = LINE ( 'NONE', #595, #614 ) ;
#931 = DIRECTION ( 'NONE',  ( -2.168404344971009854E-16, -0.000000000000000000, -1.000000000000000000 ) ) ;
#932 = ORIENTED_EDGE ( 'NONE', *, *, #355, .T. ) ;
#933 = DIRECTION ( 'NONE',  ( 1.758165685111629358E-16, 0.000000000000000000, 1.000000000000000000 ) ) ;
#934 = DIRECTION ( 'NONE',  ( 0.000000000000000000, -1.000000000000000000, 0.000000000000000000 ) ) ;
#935 = DIRECTION ( 'NONE',  ( 0.000000000000000000, 0.000000000000000000, -1.000000000000000000 ) ) ;
#936 = ORIENTED_EDGE ( 'NONE', *, *, #278, .F. ) ;
#937 = DIRECTION ( 'NONE',  ( 1.758165685111629358E-16, 0.000000000000000000, 1.000000000000000000 ) ) ;
#938 = CIRCLE ( 'NONE', #24, 1.300000000000000044 ) ;
#939 = STYLED_ITEM ( 'NONE', ( #122 ), #556 ) ;
#940 = AXIS2_PLACEMENT_3D ( 'NONE', #1003, #431, #503 ) ;
#941 = CYLINDRICAL_SURFACE ( 'NONE', #594, 6.399999999999997691 ) ;
#942 = AXIS2_PLACEMENT_3D ( 'NONE', #786, #124, #109 ) ;
#943 = EDGE_CURVE ( 'NONE', #9, #367, #73, .T. ) ;
#944 = DIRECTION ( 'NONE',  ( -1.000000000000000000, 0.000000000000000000, 0.000000000000000000 ) ) ;
#945 = ORIENTED_EDGE ( 'NONE', *, *, #531, .T. ) ;
#946 =( NAMED_UNIT ( * ) SI_UNIT ( $, .STERADIAN. ) SOLID_ANGLE_UNIT ( ) );
#947 = EDGE_CURVE ( 'NONE', #367, #292, #1027, .T. ) ;
#948 = DIRECTION ( 'NONE',  ( -1.000000000000000000, -1.224646799147353207E-16, 0.000000000000000000 ) ) ;
#949 = CARTESIAN_POINT ( 'NONE',  ( 2.999999999999999556, -2.500000000000000000, 9.399999999999998579 ) ) ;
#950 = ADVANCED_FACE ( 'NONE', ( #587 ), #15, .T. ) ;
#951 = ORIENTED_EDGE ( 'NONE', *, *, #1060, .T. ) ;
#952 = FACE_OUTER_BOUND ( 'NONE', #608, .T. ) ;
#953 = DIRECTION ( 'NONE',  ( -1.000000000000000000, -0.000000000000000000, -0.000000000000000000 ) ) ;
#954 = EDGE_LOOP ( 'NONE', ( #414, #673, #797, #4 ) ) ;
#955 = AXIS2_PLACEMENT_3D ( 'NONE', #160, #86, #90 ) ;
#956 = CYLINDRICAL_SURFACE ( 'NONE', #302, 6.399999999999997691 ) ;
#957 = CIRCLE ( 'NONE', #246, 1.300000000000000711 ) ;
#958 =( GEOMETRIC_REPRESENTATION_CONTEXT ( 3 ) GLOBAL_UNCERTAINTY_ASSIGNED_CONTEXT ( ( #512 ) ) GLOBAL_UNIT_ASSIGNED_CONTEXT ( ( #415, #589, #986 ) ) REPRESENTATION_CONTEXT ( 'NONE', 'WORKASPACE' ) );
#959 = DIRECTION ( 'NONE',  ( -1.470104640658312480E-16, 1.000000000000000000, 0.000000000000000000 ) ) ;
#960 = DIRECTION ( 'NONE',  ( -1.000000000000000000, 0.000000000000000000, 0.000000000000000000 ) ) ;
#961 = ORIENTED_EDGE ( 'NONE', *, *, #947, .F. ) ;
#962 = EDGE_CURVE ( 'NONE', #307, #731, #957, .T. ) ;
#963 = CARTESIAN_POINT ( 'NONE',  ( -1.881966011250020943, -2.304743651781449861E-16, 0.000000000000000000 ) ) ;
#964 = CARTESIAN_POINT ( 'NONE',  ( 1.999999999999998224, -2.500000000000000000, 1.000000000000000000 ) ) ;
#965 = VERTEX_POINT ( 'NONE', #429 ) ;
#966 = ORIENTED_EDGE ( 'NONE', *, *, #293, .T. ) ;
#967 = ADVANCED_FACE ( 'NONE', ( #727 ), #178, .F. ) ;
#968 = DIRECTION ( 'NONE',  ( -0.000000000000000000, -1.000000000000000000, -0.000000000000000000 ) ) ;
#969 = DIRECTION ( 'NONE',  ( 0.000000000000000000, 0.000000000000000000, -1.000000000000000000 ) ) ;
#970 = ORIENTED_EDGE ( 'NONE', *, *, #666, .T. ) ;
#971 = ORIENTED_EDGE ( 'NONE', *, *, #915, .F. ) ;
#972 = DIRECTION ( 'NONE',  ( -1.224646799147353207E-16, 1.000000000000000000, 0.000000000000000000 ) ) ;
#973 = AXIS2_PLACEMENT_3D ( 'NONE', #650, #394, #631 ) ;
#974 = DIRECTION ( 'NONE',  ( -1.000000000000000000, -1.224646799147353207E-16, 0.000000000000000000 ) ) ;
#975 = AXIS2_PLACEMENT_3D ( 'NONE', #638, #869, #51 ) ;
#976 = ADVANCED_FACE ( 'NONE', ( #764 ), #271, .T. ) ;
#977 = AXIS2_PLACEMENT_3D ( 'NONE', #845, #944, #1031 ) ;
#978 = CARTESIAN_POINT ( 'NONE',  ( 2.000000000000000000, 2.500000000000000000, 8.399999999999998579 ) ) ;
#979 = CIRCLE ( 'NONE', #159, 5.899999999999997691 ) ;
#980 = ORIENTED_EDGE ( 'NONE', *, *, #339, .F. ) ;
#981 = DIRECTION ( 'NONE',  ( 1.000000000000000000, 1.224646799147353207E-16, -0.000000000000000000 ) ) ;
#982 = EDGE_CURVE ( 'NONE', #198, #331, #1044, .T. ) ;
#983 = DIRECTION ( 'NONE',  ( -1.000000000000000000, -1.224646799147353207E-16, 0.000000000000000000 ) ) ;
#984 = ORIENTED_EDGE ( 'NONE', *, *, #377, .F. ) ;
#985 = ORIENTED_EDGE ( 'NONE', *, *, #720, .F. ) ;
#986 =( NAMED_UNIT ( * ) SI_UNIT ( $, .STERADIAN. ) SOLID_ANGLE_UNIT ( ) );
#987 = ORIENTED_EDGE ( 'NONE', *, *, #146, .F. ) ;
#988 = CARTESIAN_POINT ( 'NONE',  ( -43.00000000000000000, -5.265981236333617682E-15, 0.000000000000000000 ) ) ;
#989 = TOROIDAL_SURFACE ( 'NONE', #694, 6.899999999999995026, 1.000000000000000444 ) ;
#990 = EDGE_LOOP ( 'NONE', ( #862, #987, #698, #235 ) ) ;
#991 = CIRCLE ( 'NONE', #477, 0.2999999999999999334 ) ;
#992 = EDGE_CURVE ( 'NONE', #664, #1066, #843, .T. ) ;
#993 = CARTESIAN_POINT ( 'NONE',  ( 0.9999999999999986677, 2.500000000000000000, 1.000000000000000000 ) ) ;
#994 = FACE_OUTER_BOUND ( 'NONE', #54, .T. ) ;
#995 = ORIENTED_EDGE ( 'NONE', *, *, #774, .F. ) ;
#996 = CARTESIAN_POINT ( 'NONE',  ( 1.699999999999998401, 2.500000000000000000, 1.000000000000000000 ) ) ;
#997 = EDGE_CURVE ( 'NONE', #331, #1065, #674, .T. ) ;
#998 = CARTESIAN_POINT ( 'NONE',  ( 2.299999999999998046, 2.500000000000000000, 1.000000000000000000 ) ) ;
#999 = DIRECTION ( 'NONE',  ( 1.000000000000000000, 0.000000000000000000, 0.000000000000000000 ) ) ;
#1000 = VERTEX_POINT ( 'NONE', #182 ) ;
#1001 = CARTESIAN_POINT ( 'NONE',  ( 2.999999999999999556, -2.500000000000000000, 8.399999999999998579 ) ) ;
#1002 = DIRECTION ( 'NONE',  ( 1.758165685111629358E-16, 0.000000000000000000, 1.000000000000000000 ) ) ;
#1003 = CARTESIAN_POINT ( 'NONE',  ( 0.000000000000000000, -2.500000000000000000, 0.000000000000000000 ) ) ;
#1004 = EDGE_CURVE ( 'NONE', #9, #1048, #1008, .T. ) ;
#1005 = TOROIDAL_SURFACE ( 'NONE', #389, 5.900000000000027001, 0.5000000000000000000 ) ;
#1006 = EDGE_LOOP ( 'NONE', ( #390, #932, #913, #826 ) ) ;
#1007 = CARTESIAN_POINT ( 'NONE',  ( 2.999999999999999556, -2.500000000000000000, 9.099999999999997868 ) ) ;
#1008 = CIRCLE ( 'NONE', #659, 0.2999999999999999334 ) ;
#1009 = AXIS2_PLACEMENT_3D ( 'NONE', #236, #835, #570 ) ;
#1010 = COLOUR_RGB ( '',0.5999999999999999778, 0.5999999999999999778, 0.5999999999999999778 ) ;
#1011 = CARTESIAN_POINT ( 'NONE',  ( 1.999999999999998224, -2.500000000000000000, 1.000000000000000000 ) ) ;
#1012 = PLANE ( 'NONE',  #977 ) ;
#1013 = PRODUCT_DEFINITION ( '未知', '', #677, #601 ) ;
#1014 = ORIENTED_EDGE ( 'NONE', *, *, #480, .F. ) ;
#1015 = LINE ( 'NONE', #817, #144 ) ;
#1016 = DIRECTION ( 'NONE',  ( 1.758165685111629358E-16, 0.000000000000000000, 1.000000000000000000 ) ) ;
#1017 = CARTESIAN_POINT ( 'NONE',  ( 0.9999999999999986677, -2.500000000000000000, 1.000000000000000000 ) ) ;
#1018 = EDGE_LOOP ( 'NONE', ( #829, #214, #586, #421 ) ) ;
#1019 = DIRECTION ( 'NONE',  ( -1.000000000000000000, -1.224646799147353207E-16, 0.000000000000000000 ) ) ;
#1020 = CARTESIAN_POINT ( 'NONE',  ( -2.254644007500033798, -6.233333333333365367, 7.633631714685208450E-16 ) ) ;
#1021 = DIRECTION ( 'NONE',  ( -1.000000000000000000, 0.000000000000000000, 0.000000000000000000 ) ) ;
#1022 = ORIENTED_EDGE ( 'NONE', *, *, #1004, .F. ) ;
#1023 = SURFACE_STYLE_USAGE ( .BOTH. , #452 ) ;
#1024 = AXIS2_PLACEMENT_3D ( 'NONE', #289, #115, #773 ) ;
#1025 = EDGE_CURVE ( 'NONE', #520, #807, #193, .T. ) ;
#1026 = TOROIDAL_SURFACE ( 'NONE', #352, 1.000000000000001332, 0.2999999999999999334 ) ;
#1027 = CIRCLE ( 'NONE', #713, 1.300000000000000044 ) ;
#1028 = TOROIDAL_SURFACE ( 'NONE', #442, 1.000000000000001332, 0.2999999999999999334 ) ;
#1029 = CARTESIAN_POINT ( 'NONE',  ( -42.49999999999999289, -5.204748896376250107E-15, 0.000000000000000000 ) ) ;
#1030 = CIRCLE ( 'NONE', #64, 0.7000000000000009548 ) ;
#1031 = DIRECTION ( 'NONE',  ( 0.000000000000000000, 0.000000000000000000, 1.000000000000000000 ) ) ;
#1032 = ORIENTED_EDGE ( 'NONE', *, *, #176, .T. ) ;
#1033 = CARTESIAN_POINT ( 'NONE',  ( 0.000000000000000000, -2.500000000000000000, 0.000000000000000000 ) ) ;
#1034 = ORIENTED_EDGE ( 'NONE', *, *, #3, .F. ) ;
#1035 = CYLINDRICAL_SURFACE ( 'NONE', #766, 0.2999999999999999334 ) ;
#1036 = CARTESIAN_POINT ( 'NONE',  ( -2.999999999999998224, 0.000000000000000000, 0.000000000000000000 ) ) ;
#1037 = ORIENTED_EDGE ( 'NONE', *, *, #387, .T. ) ;
#1038 = CYLINDRICAL_SURFACE ( 'NONE', #62, 0.2999999999999999334 ) ;
#1039 = CARTESIAN_POINT ( 'NONE',  ( 0.9999999999999986677, 2.500000000000000000, 1.000000000000000000 ) ) ;
#1040 = EDGE_CURVE ( 'NONE', #292, #198, #300, .T. ) ;
#1041 = ORIENTED_EDGE ( 'NONE', *, *, #753, .T. ) ;
#1042 = CIRCLE ( 'NONE', #577, 0.5000000000000004441 ) ;
#1043 = DIRECTION ( 'NONE',  ( 1.000000000000000000, 0.000000000000000000, 0.000000000000000000 ) ) ;
#1044 = CIRCLE ( 'NONE', #335, 0.7000000000000009548 ) ;
#1045 = CARTESIAN_POINT ( 'NONE',  ( 1.700000000000000178, -2.500000000000000000, 8.399999999999998579 ) ) ;
#1046 = ORIENTED_EDGE ( 'NONE', *, *, #982, .T. ) ;
#1047 = ADVANCED_FACE ( 'NONE', ( #381 ), #291, .T. ) ;
#1048 = VERTEX_POINT ( 'NONE', #459 ) ;
#1049 = FACE_OUTER_BOUND ( 'NONE', #380, .T. ) ;
#1050 = DIRECTION ( 'NONE',  ( 0.000000000000000000, 1.000000000000000000, 0.000000000000000000 ) ) ;
#1051 = FACE_OUTER_BOUND ( 'NONE', #117, .T. ) ;
#1052 = EDGE_LOOP ( 'NONE', ( #463, #238, #397, #473 ) ) ;
#1053 = ADVANCED_FACE ( 'NONE', ( #192 ), #199, .T. ) ;
#1054 = FACE_OUTER_BOUND ( 'NONE', #281, .T. ) ;
#1055 = FACE_OUTER_BOUND ( 'NONE', #895, .T. ) ;
#1056 = DIRECTION ( 'NONE',  ( 1.000000000000000000, 0.000000000000000000, 0.000000000000000000 ) ) ;
#1057 = ORIENTED_EDGE ( 'NONE', *, *, #897, .T. ) ;
#1058 = DIRECTION ( 'NONE',  ( -1.000000000000000000, 0.000000000000000000, 0.000000000000000000 ) ) ;
#1059 = AXIS2_PLACEMENT_3D ( 'NONE', #223, #547, #147 ) ;
#1060 = EDGE_CURVE ( 'NONE', #185, #520, #448, .T. ) ;
#1061 = CARTESIAN_POINT ( 'NONE',  ( 2.999999999999999556, -2.500000000000000000, 9.099999999999997868 ) ) ;
#1062 = CIRCLE ( 'NONE', #783, 5.899999999999995914 ) ;
#1063 = TOROIDAL_SURFACE ( 'NONE', #424, 6.899999999999995026, 1.000000000000000444 ) ;
#1064 = CIRCLE ( 'NONE', #356, 0.5000000000000004441 ) ;
#1065 = VERTEX_POINT ( 'NONE', #282 ) ;
#1066 = VERTEX_POINT ( 'NONE', #215 ) ;
#1067 = DIRECTION ( 'NONE',  ( -0.000000000000000000, 0.000000000000000000, -1.000000000000000000 ) ) ;
#1068 = DIRECTION ( 'NONE',  ( 1.224646799147353207E-16, -1.000000000000000000, 0.000000000000000000 ) ) ;
#1069 = APPLICATION_PROTOCOL_DEFINITION ( 'draft international standard', 'automotive_design', 1998, #418 ) ;
#1070 = ORIENTED_EDGE ( 'NONE', *, *, #499, .F. ) ;
ENDSEC;
END-ISO-10303-21;
