ISO-10303-21;
HEADER;
FILE_DESCRIPTION (( 'STEP AP214' ),
    '1' );
FILE_NAME ('电容CBB20.STEP',
    '2025-12-24T08:06:30',
    ( '' ),
    ( '' ),
    'SwSTEP 2.0',
    'SolidWorks 2022',
    '' );
FILE_SCHEMA (( 'AUTOMOTIVE_DESIGN' ));
ENDSEC;

DATA;
#1 = LINE ( 'NONE', #462, #339 ) ;
#2 = ADVANCED_FACE ( 'NONE', ( #467 ), #469, .T. ) ;
#3 = ORIENTED_EDGE ( 'NONE', *, *, #303, .T. ) ;
#4 = LINE ( 'NONE', #186, #714 ) ;
#5 = CARTESIAN_POINT ( 'NONE',  ( 0.000000000000000000, 0.000000000000000000, 15.99999999999998579 ) ) ;
#6 = ORIENTED_EDGE ( 'NONE', *, *, #529, .F. ) ;
#7 = CARTESIAN_POINT ( 'NONE',  ( -2.000000000000011990, 0.000000000000000000, 18.00000000000000355 ) ) ;
#8 = FACE_OUTER_BOUND ( 'NONE', #426, .T. ) ;
#9 = VERTEX_POINT ( 'NONE', #161 ) ;
#10 = VECTOR ( 'NONE', #306, 1000.000000000000000 ) ;
#11 = DIRECTION ( 'NONE',  ( 0.000000000000000000, 0.000000000000000000, 1.000000000000000000 ) ) ;
#12 = CLOSED_SHELL ( 'NONE', ( #81, #473, #692, #2, #773, #320, #513, #584, #222, #182, #343, #264, #36, #538, #142, #440, #656, #20, #220, #753, #438, #341, #435, #206, #175, #334, #550 ) ) ;
#13 = DIRECTION ( 'NONE',  ( 0.000000000000000000, -0.000000000000000000, -1.000000000000000000 ) ) ;
#14 = ORIENTED_EDGE ( 'NONE', *, *, #635, .F. ) ;
#15 = DIRECTION ( 'NONE',  ( 1.000000000000000000, 0.000000000000000000, -0.000000000000000000 ) ) ;
#16 = CARTESIAN_POINT ( 'NONE',  ( 3.499999999999999556, 0.000000000000000000, 15.00000000000000000 ) ) ;
#17 = EDGE_LOOP ( 'NONE', ( #329, #63 ) ) ;
#18 = LINE ( 'NONE', #663, #543 ) ;
#19 = CARTESIAN_POINT ( 'NONE',  ( -18.00000000000000355, 6.123233995736814107E-17, 17.49999999999999645 ) ) ;
#20 = ADVANCED_FACE ( 'NONE', ( #105 ), #493, .T. ) ;
#21 = ORIENTED_EDGE ( 'NONE', *, *, #192, .F. ) ;
#22 = CARTESIAN_POINT ( 'NONE',  ( -18.00000000000000355, 0.000000000000000000, 18.49999999999999645 ) ) ;
#23 = VECTOR ( 'NONE', #470, 1000.000000000000000 ) ;
#24 = VERTEX_POINT ( 'NONE', #405 ) ;
#25 = PLANE ( 'NONE',  #251 ) ;
#26 = CARTESIAN_POINT ( 'NONE',  ( -1.999999999999999556, 6.123233995736772199E-17, -16.00000000000000355 ) ) ;
#27 = ORIENTED_EDGE ( 'NONE', *, *, #529, .T. ) ;
#28 = CARTESIAN_POINT ( 'NONE',  ( -1.999999999999999556, 0.000000000000000000, 16.00000000000000355 ) ) ;
#29 = DIRECTION ( 'NONE',  ( 0.000000000000000000, 0.000000000000000000, -1.000000000000000000 ) ) ;
#30 = ORIENTED_EDGE ( 'NONE', *, *, #393, .F. ) ;
#31 = FACE_OUTER_BOUND ( 'NONE', #202, .T. ) ;
#32 = EDGE_CURVE ( 'NONE', #491, #526, #198, .T. ) ;
#33 = PRODUCT_DEFINITION_FORMATION_WITH_SPECIFIED_SOURCE ( '任何', '', #602, .NOT_KNOWN. ) ;
#34 = DIRECTION ( 'NONE',  ( 1.000000000000000000, -0.000000000000000000, -0.000000000000000000 ) ) ;
#35 = AXIS2_PLACEMENT_3D ( 'NONE', #641, #710, #715 ) ;
#36 = ADVANCED_FACE ( 'NONE', ( #291, #103 ), #229, .F. ) ;
#37 = AXIS2_PLACEMENT_3D ( 'NONE', #482, #439, #39 ) ;
#38 = EDGE_LOOP ( 'NONE', ( #292, #30, #230, #82 ) ) ;
#39 = DIRECTION ( 'NONE',  ( 0.000000000000000000, 0.000000000000000000, -1.000000000000000000 ) ) ;
#40 = DIRECTION ( 'NONE',  ( 1.000000000000000000, 0.000000000000000000, 0.000000000000000000 ) ) ;
#41 = EDGE_LOOP ( 'NONE', ( #409, #234, #396, #86 ) ) ;
#42 = DIRECTION ( 'NONE',  ( -1.000000000000000000, 0.000000000000000000, 0.000000000000000000 ) ) ;
#43 = CYLINDRICAL_SURFACE ( 'NONE', #767, 1.000000000000000888 ) ;
#44 = CARTESIAN_POINT ( 'NONE',  ( -3.499999999999999556, 9.000000000000001776, -15.00000000000000000 ) ) ;
#45 = ORIENTED_EDGE ( 'NONE', *, *, #734, .F. ) ;
#46 = CARTESIAN_POINT ( 'NONE',  ( 3.499999999999999556, 10.00000000000000000, 15.00000000000000000 ) ) ;
#47 =( NAMED_UNIT ( * ) PLANE_ANGLE_UNIT ( ) SI_UNIT ( $, .RADIAN. ) );
#48 = UNCERTAINTY_MEASURE_WITH_UNIT (LENGTH_MEASURE( 1.000000000000000082E-05 ), #243, 'distance_accuracy_value', 'NONE');
#49 =( GEOMETRIC_REPRESENTATION_CONTEXT ( 3 ) GLOBAL_UNCERTAINTY_ASSIGNED_CONTEXT ( ( #519 ) ) GLOBAL_UNIT_ASSIGNED_CONTEXT ( ( #688, #681, #276 ) ) REPRESENTATION_CONTEXT ( 'NONE', 'WORKASPACE' ) );
#50 = AXIS2_PLACEMENT_3D ( 'NONE', #499, #748, #207 ) ;
#51 = AXIS2_PLACEMENT_3D ( 'NONE', #385, #402, #209 ) ;
#52 = VERTEX_POINT ( 'NONE', #646 ) ;
#53 = CIRCLE ( 'NONE', #77, 10.00000000000000000 ) ;
#54 = CARTESIAN_POINT ( 'NONE',  ( 3.499999999999999556, 9.000000000000001776, -15.00000000000000000 ) ) ;
#55 = CARTESIAN_POINT ( 'NONE',  ( -3.499999999999999556, -9.000000000000001776, -15.00000000000000000 ) ) ;
#56 = ORIENTED_EDGE ( 'NONE', *, *, #418, .T. ) ;
#57 = FACE_OUTER_BOUND ( 'NONE', #384, .T. ) ;
#58 =( NAMED_UNIT ( * ) SI_UNIT ( $, .STERADIAN. ) SOLID_ANGLE_UNIT ( ) );
#59 = CARTESIAN_POINT ( 'NONE',  ( -3.499999999999999556, -9.000000000000001776, -16.00000000000000000 ) ) ;
#60 = CARTESIAN_POINT ( 'NONE',  ( -1.999999999999999556, 6.123233995736772199E-17, 16.00000000000000355 ) ) ;
#61 = EDGE_CURVE ( 'NONE', #344, #316, #445, .T. ) ;
#62 = CIRCLE ( 'NONE', #421, 0.5000000000000004441 ) ;
#63 = ORIENTED_EDGE ( 'NONE', *, *, #294, .T. ) ;
#64 = AXIS2_PLACEMENT_3D ( 'NONE', #16, #608, #126 ) ;
#65 = CARTESIAN_POINT ( 'NONE',  ( -3.499999999999999556, 10.00000000000000000, 15.00000000000000000 ) ) ;
#66 = CARTESIAN_POINT ( 'NONE',  ( 3.499999999999997780, -9.000000000000001776, -16.00000000000000000 ) ) ;
#67 = VERTEX_POINT ( 'NONE', #411 ) ;
#68 = SURFACE_SIDE_STYLE ('',( #600 ) ) ;
#69 = DIRECTION ( 'NONE',  ( 0.000000000000000000, 0.000000000000000000, 1.000000000000000000 ) ) ;
#70 = ORIENTED_EDGE ( 'NONE', *, *, #274, .F. ) ;
#71 = EDGE_CURVE ( 'NONE', #747, #344, #705, .T. ) ;
#72 = CARTESIAN_POINT ( 'NONE',  ( -17.99999999999999645, 0.000000000000000000, -18.50000000000000355 ) ) ;
#73 = DIRECTION ( 'NONE',  ( 0.000000000000000000, 0.000000000000000000, 1.000000000000000000 ) ) ;
#74 = ORIENTED_EDGE ( 'NONE', *, *, #173, .F. ) ;
#75 = CIRCLE ( 'NONE', #260, 10.00000000000000000 ) ;
#76 = AXIS2_PLACEMENT_3D ( 'NONE', #453, #271, #151 ) ;
#77 = AXIS2_PLACEMENT_3D ( 'NONE', #357, #298, #120 ) ;
#78 = ORIENTED_EDGE ( 'NONE', *, *, #576, .T. ) ;
#79 = DIRECTION ( 'NONE',  ( 0.000000000000000000, 0.000000000000000000, 1.000000000000000000 ) ) ;
#80 = DIRECTION ( 'NONE',  ( 0.000000000000000000, 0.000000000000000000, 1.000000000000000000 ) ) ;
#81 = ADVANCED_FACE ( 'NONE', ( #284 ), #122, .T. ) ;
#82 = ORIENTED_EDGE ( 'NONE', *, *, #158, .F. ) ;
#83 = DIRECTION ( 'NONE',  ( -1.000000000000000000, 0.000000000000000000, -0.000000000000000000 ) ) ;
#84 = DIRECTION ( 'NONE',  ( -1.000000000000000000, 0.000000000000000000, -2.510783978387484809E-16 ) ) ;
#85 = EDGE_CURVE ( 'NONE', #52, #168, #326, .T. ) ;
#86 = ORIENTED_EDGE ( 'NONE', *, *, #192, .T. ) ;
#87 = TOROIDAL_SURFACE ( 'NONE', #743, 9.000000000000001776, 1.000000000000000000 ) ;
#88 = DIRECTION ( 'NONE',  ( 1.000000000000000000, 0.000000000000000000, 0.000000000000000000 ) ) ;
#89 = ORIENTED_EDGE ( 'NONE', *, *, #393, .T. ) ;
#90 = CARTESIAN_POINT ( 'NONE',  ( 3.499999999999999556, 9.000000000000001776, 15.00000000000000000 ) ) ;
#91 = DIRECTION ( 'NONE',  ( 0.000000000000000000, 0.000000000000000000, -1.000000000000000000 ) ) ;
#92 = ORIENTED_EDGE ( 'NONE', *, *, #309, .T. ) ;
#93 = EDGE_CURVE ( 'NONE', #749, #526, #623, .T. ) ;
#94 = CARTESIAN_POINT ( 'NONE',  ( -1.999999999999901634, 0.000000000000000000, 18.50000000000011369 ) ) ;
#95 = VERTEX_POINT ( 'NONE', #268 ) ;
#96 = CIRCLE ( 'NONE', #148, 1.000000000000000888 ) ;
#97 = DIRECTION ( 'NONE',  ( 0.000000000000000000, 0.000000000000000000, 1.000000000000000000 ) ) ;
#98 = AXIS2_PLACEMENT_3D ( 'NONE', #322, #73, #553 ) ;
#99 = CIRCLE ( 'NONE', #224, 0.5000000000000004441 ) ;
#100 = ORIENTED_EDGE ( 'NONE', *, *, #727, .F. ) ;
#101 = DIRECTION ( 'NONE',  ( 0.000000000000000000, 0.000000000000000000, 1.000000000000000000 ) ) ;
#102 = UNCERTAINTY_MEASURE_WITH_UNIT (LENGTH_MEASURE( 1.000000000000000082E-05 ), #518, 'distance_accuracy_value', 'NONE');
#103 = FACE_BOUND ( 'NONE', #123, .T. ) ;
#104 = FILL_AREA_STYLE_COLOUR ( '', #159 ) ;
#105 = FACE_OUTER_BOUND ( 'NONE', #226, .T. ) ;
#106 = ORIENTED_EDGE ( 'NONE', *, *, #758, .T. ) ;
#107 = DIRECTION ( 'NONE',  ( 0.000000000000000000, 0.000000000000000000, -1.000000000000000000 ) ) ;
#108 = FACE_OUTER_BOUND ( 'NONE', #38, .T. ) ;
#109 = AXIS2_PLACEMENT_3D ( 'NONE', #44, #167, #347 ) ;
#110 = ORIENTED_EDGE ( 'NONE', *, *, #303, .F. ) ;
#111 = CIRCLE ( 'NONE', #98, 10.00000000000000000 ) ;
#112 = ORIENTED_EDGE ( 'NONE', *, *, #472, .F. ) ;
#113 = EDGE_CURVE ( 'NONE', #491, #321, #136, .T. ) ;
#114 = DIRECTION ( 'NONE',  ( 8.673617379884027583E-16, 0.000000000000000000, -1.000000000000000000 ) ) ;
#115 = ORIENTED_EDGE ( 'NONE', *, *, #613, .F. ) ;
#116 = DIRECTION ( 'NONE',  ( -1.000000000000000000, 0.000000000000000000, -4.336808689942021680E-16 ) ) ;
#117 = EDGE_CURVE ( 'NONE', #488, #95, #184, .T. ) ;
#118 = DIRECTION ( 'NONE',  ( 1.000000000000000000, -0.000000000000000000, -0.000000000000000000 ) ) ;
#119 = ORIENTED_EDGE ( 'NONE', *, *, #502, .F. ) ;
#120 = DIRECTION ( 'NONE',  ( 1.000000000000000000, 0.000000000000000000, 0.000000000000000000 ) ) ;
#121 = CARTESIAN_POINT ( 'NONE',  ( -3.499999999999999556, 0.000000000000000000, 16.00000000000000000 ) ) ;
#122 = TOROIDAL_SURFACE ( 'NONE', #629, 1.999999999999999556, 0.5000000000000004441 ) ;
#123 = EDGE_LOOP ( 'NONE', ( #21, #735 ) ) ;
#124 = TOROIDAL_SURFACE ( 'NONE', #422, 9.000000000000001776, 1.000000000000000000 ) ;
#125 = APPLICATION_PROTOCOL_DEFINITION ( 'draft international standard', 'automotive_design', 1998, #335 ) ;
#126 = DIRECTION ( 'NONE',  ( 1.000000000000000000, 0.000000000000000000, 0.000000000000000000 ) ) ;
#127 = EDGE_CURVE ( 'NONE', #594, #566, #75, .T. ) ;
#128 = ORIENTED_EDGE ( 'NONE', *, *, #71, .T. ) ;
#129 = CARTESIAN_POINT ( 'NONE',  ( -13.50000000000000000, 0.000000000000000000, 16.00000000000000000 ) ) ;
#130 = DIRECTION ( 'NONE',  ( 1.000000000000000000, 0.000000000000000000, 0.000000000000000000 ) ) ;
#131 = ORIENTED_EDGE ( 'NONE', *, *, #727, .T. ) ;
#132 = CARTESIAN_POINT ( 'NONE',  ( 3.499999999999999556, 0.000000000000000000, 15.00000000000000000 ) ) ;
#133 = LINE ( 'NONE', #738, #211 ) ;
#134 = ORIENTED_EDGE ( 'NONE', *, *, #635, .T. ) ;
#135 = DIRECTION ( 'NONE',  ( 0.000000000000000000, 0.000000000000000000, 1.000000000000000000 ) ) ;
#136 = CIRCLE ( 'NONE', #210, 1.499999999999997780 ) ;
#137 = EDGE_CURVE ( 'NONE', #464, #476, #391, .T. ) ;
#138 = CIRCLE ( 'NONE', #674, 2.500000000000000444 ) ;
#139 = DIRECTION ( 'NONE',  ( -1.000000000000000000, 0.000000000000000000, -2.510783978387484809E-16 ) ) ;
#140 = VERTEX_POINT ( 'NONE', #398 ) ;
#141 = CYLINDRICAL_SURFACE ( 'NONE', #412, 0.5000000000000004441 ) ;
#142 = ADVANCED_FACE ( 'NONE', ( #636 ), #503, .T. ) ;
#143 = DIRECTION ( 'NONE',  ( 1.000000000000000000, 0.000000000000000000, 0.000000000000000000 ) ) ;
#144 = EDGE_LOOP ( 'NONE', ( #3, #128, #556, #308 ) ) ;
#145 = ORIENTED_EDGE ( 'NONE', *, *, #232, .F. ) ;
#146 = AXIS2_PLACEMENT_3D ( 'NONE', #381, #427, #11 ) ;
#147 = DIRECTION ( 'NONE',  ( 0.000000000000000000, 0.000000000000000000, -1.000000000000000000 ) ) ;
#148 = AXIS2_PLACEMENT_3D ( 'NONE', #459, #704, #163 ) ;
#149 = DIRECTION ( 'NONE',  ( 0.000000000000000000, 0.000000000000000000, 1.000000000000000000 ) ) ;
#150 = ORIENTED_EDGE ( 'NONE', *, *, #709, .F. ) ;
#151 = DIRECTION ( 'NONE',  ( -1.000000000000000000, 0.000000000000000000, 0.000000000000000000 ) ) ;
#152 = DIRECTION ( 'NONE',  ( 1.000000000000000000, 0.000000000000000000, 6.847592668329505996E-16 ) ) ;
#153 = ORIENTED_EDGE ( 'NONE', *, *, #620, .F. ) ;
#154 = DIRECTION ( 'NONE',  ( 0.000000000000000000, -1.000000000000000000, 0.000000000000000000 ) ) ;
#155 = DIRECTION ( 'NONE',  ( 1.000000000000000000, 0.000000000000000000, 0.000000000000000000 ) ) ;
#156 = ORIENTED_EDGE ( 'NONE', *, *, #197, .T. ) ;
#157 = CARTESIAN_POINT ( 'NONE',  ( -3.499999999999999556, 9.000000000000001776, 15.00000000000000000 ) ) ;
#158 = EDGE_CURVE ( 'NONE', #67, #747, #236, .T. ) ;
#159 = COLOUR_RGB ( '',0.7921568627450980005, 0.8196078431372548767, 0.9333333333333333481 ) ;
#160 = DIRECTION ( 'NONE',  ( -0.000000000000000000, -0.000000000000000000, -1.000000000000000000 ) ) ;
#161 = CARTESIAN_POINT ( 'NONE',  ( -3.499999999999999556, -10.00000000000000000, 15.00000000000000000 ) ) ;
#162 = CARTESIAN_POINT ( 'NONE',  ( 3.499999999999999556, 0.000000000000000000, -16.00000000000000000 ) ) ;
#163 = DIRECTION ( 'NONE',  ( 0.000000000000000000, 0.000000000000000000, 1.000000000000000000 ) ) ;
#164 = DIRECTION ( 'NONE',  ( 1.000000000000000000, 0.000000000000000000, -0.000000000000000000 ) ) ;
#165 = CARTESIAN_POINT ( 'NONE',  ( -3.499999999999999556, -9.000000000000001776, 16.00000000000000000 ) ) ;
#166 = CARTESIAN_POINT ( 'NONE',  ( -0.5000000000000004441, 6.123233995736763571E-17, -16.00000000000000000 ) ) ;
#167 = DIRECTION ( 'NONE',  ( -1.000000000000000000, 0.000000000000000000, 0.000000000000000000 ) ) ;
#168 = VERTEX_POINT ( 'NONE', #273 ) ;
#169 = CARTESIAN_POINT ( 'NONE',  ( -1.999999999999901190, 0.000000000000000000, 18.00000000000011369 ) ) ;
#170 = LINE ( 'NONE', #533, #353 ) ;
#171 = AXIS2_PLACEMENT_3D ( 'NONE', #349, #515, #588 ) ;
#172 = TOROIDAL_SURFACE ( 'NONE', #64, 9.000000000000001776, 1.000000000000000000 ) ;
#173 = EDGE_CURVE ( 'NONE', #413, #437, #249, .T. ) ;
#174 = VERTEX_POINT ( 'NONE', #751 ) ;
#175 = ADVANCED_FACE ( 'NONE', ( #223 ), #484, .T. ) ;
#176 = DIRECTION ( 'NONE',  ( 0.000000000000000000, 0.000000000000000000, 1.000000000000000000 ) ) ;
#177 = DIRECTION ( 'NONE',  ( 1.000000000000000000, 0.000000000000000000, 6.847592668329505996E-16 ) ) ;
#178 = DIRECTION ( 'NONE',  ( -8.673617379884027583E-16, 0.000000000000000000, 1.000000000000000000 ) ) ;
#179 = DIRECTION ( 'NONE',  ( 0.000000000000000000, -1.000000000000000000, 0.000000000000000000 ) ) ;
#180 = ORIENTED_EDGE ( 'NONE', *, *, #364, .F. ) ;
#181 = DIRECTION ( 'NONE',  ( -1.000000000000000000, 0.000000000000000000, -4.336808689942021680E-16 ) ) ;
#182 = ADVANCED_FACE ( 'NONE', ( #761 ), #690, .T. ) ;
#183 = DIRECTION ( 'NONE',  ( 1.000000000000000000, 0.000000000000000000, -0.000000000000000000 ) ) ;
#184 = CIRCLE ( 'NONE', #272, 9.000000000000001776 ) ;
#185 = ORIENTED_EDGE ( 'NONE', *, *, #481, .F. ) ;
#186 = CARTESIAN_POINT ( 'NONE',  ( -3.499999999999999556, 10.00000000000000000, 16.00000000000000000 ) ) ;
#187 = VECTOR ( 'NONE', #778, 1000.000000000000000 ) ;
#188 = DIRECTION ( 'NONE',  ( 0.000000000000000000, -1.000000000000000000, 0.000000000000000000 ) ) ;
#189 = ORIENTED_EDGE ( 'NONE', *, *, #364, .T. ) ;
#190 = LINE ( 'NONE', #255, #248 ) ;
#191 = DIRECTION ( 'NONE',  ( 1.000000000000000000, 0.000000000000000000, 0.000000000000000000 ) ) ;
#192 = EDGE_CURVE ( 'NONE', #321, #174, #431, .T. ) ;
#193 = VERTEX_POINT ( 'NONE', #94 ) ;
#194 = DIRECTION ( 'NONE',  ( -0.000000000000000000, -0.000000000000000000, -1.000000000000000000 ) ) ;
#195 = CARTESIAN_POINT ( 'NONE',  ( -13.50000000000000000, 0.000000000000000000, 15.00000000000000000 ) ) ;
#196 = EDGE_LOOP ( 'NONE', ( #156, #449, #359, #653, #599 ) ) ;
#197 = EDGE_CURVE ( 'NONE', #238, #658, #388, .T. ) ;
#198 = CIRCLE ( 'NONE', #171, 0.5000000000000004441 ) ;
#199 = AXIS2_PLACEMENT_3D ( 'NONE', #382, #258, #143 ) ;
#200 = CIRCLE ( 'NONE', #633, 9.000000000000001776 ) ;
#201 = CYLINDRICAL_SURFACE ( 'NONE', #289, 1.000000000000000888 ) ;
#202 = EDGE_LOOP ( 'NONE', ( #27, #724, #606, #687 ) ) ;
#203 = DIRECTION ( 'NONE',  ( 0.000000000000000000, 0.000000000000000000, -1.000000000000000000 ) ) ;
#204 = ORIENTED_EDGE ( 'NONE', *, *, #417, .F. ) ;
#205 = CYLINDRICAL_SURFACE ( 'NONE', #571, 1.000000000000000888 ) ;
#206 = ADVANCED_FACE ( 'NONE', ( #575 ), #43, .T. ) ;
#207 = DIRECTION ( 'NONE',  ( 6.847592668329505996E-16, 0.000000000000000000, -1.000000000000000000 ) ) ;
#208 = EDGE_LOOP ( 'NONE', ( #537, #119, #762, #495, #280 ) ) ;
#209 = DIRECTION ( 'NONE',  ( 1.000000000000000000, 0.000000000000000000, 0.000000000000000000 ) ) ;
#210 = AXIS2_PLACEMENT_3D ( 'NONE', #26, #336, #346 ) ;
#211 = VECTOR ( 'NONE', #436, 1000.000000000000000 ) ;
#212 = DIRECTION ( 'NONE',  ( -0.000000000000000000, -0.000000000000000000, -1.000000000000000000 ) ) ;
#213 = EDGE_LOOP ( 'NONE', ( #106, #241, #540, #504 ) ) ;
#214 = CARTESIAN_POINT ( 'NONE',  ( -3.499999999999999556, 9.000000000000001776, 15.00000000000000000 ) ) ;
#215 = ORIENTED_EDGE ( 'NONE', *, *, #117, .F. ) ;
#216 = EDGE_CURVE ( 'NONE', #325, #476, #96, .T. ) ;
#217 = CYLINDRICAL_SURFACE ( 'NONE', #76, 10.00000000000000000 ) ;
#218 = DIRECTION ( 'NONE',  ( -0.000000000000000000, -0.000000000000000000, -1.000000000000000000 ) ) ;
#219 = ORIENTED_EDGE ( 'NONE', *, *, #448, .F. ) ;
#220 = ADVANCED_FACE ( 'NONE', ( #561 ), #266, .F. ) ;
#221 = DIRECTION ( 'NONE',  ( 2.510783978387484809E-16, 0.000000000000000000, -1.000000000000000000 ) ) ;
#222 = ADVANCED_FACE ( 'NONE', ( #442 ), #685, .F. ) ;
#223 = FACE_OUTER_BOUND ( 'NONE', #770, .T. ) ;
#224 = AXIS2_PLACEMENT_3D ( 'NONE', #313, #324, #191 ) ;
#225 = EDGE_LOOP ( 'NONE', ( #45, #189, #759, #56 ) ) ;
#226 = EDGE_LOOP ( 'NONE', ( #441, #744, #573, #648 ) ) ;
#227 = FACE_OUTER_BOUND ( 'NONE', #569, .T. ) ;
#228 = CARTESIAN_POINT ( 'NONE',  ( -18.00000000000000355, 0.000000000000000000, 17.99999999999999645 ) ) ;
#229 = PLANE ( 'NONE',  #660 ) ;
#230 = ORIENTED_EDGE ( 'NONE', *, *, #670, .T. ) ;
#231 = CARTESIAN_POINT ( 'NONE',  ( -3.499999999999999556, 0.000000000000000000, -15.00000000000000000 ) ) ;
#232 = EDGE_CURVE ( 'NONE', #497, #491, #1, .T. ) ;
#233 = DIRECTION ( 'NONE',  ( 0.000000000000000000, 0.000000000000000000, -1.000000000000000000 ) ) ;
#234 = ORIENTED_EDGE ( 'NONE', *, *, #32, .F. ) ;
#235 = LINE ( 'NONE', #713, #23 ) ;
#236 = CIRCLE ( 'NONE', #742, 10.00000000000000000 ) ;
#237 = CIRCLE ( 'NONE', #545, 0.5000000000000004441 ) ;
#238 = VERTEX_POINT ( 'NONE', #478 ) ;
#239 = FACE_OUTER_BOUND ( 'NONE', #225, .T. ) ;
#240 = DIRECTION ( 'NONE',  ( 0.000000000000000000, 0.000000000000000000, -1.000000000000000000 ) ) ;
#241 = ORIENTED_EDGE ( 'NONE', *, *, #274, .T. ) ;
#242 = EDGE_CURVE ( 'NONE', #547, #603, #401, .T. ) ;
#243 =( LENGTH_UNIT ( ) NAMED_UNIT ( * ) SI_UNIT ( .MILLI., .METRE. ) );
#244 = DIRECTION ( 'NONE',  ( 0.000000000000000000, 1.000000000000000000, 0.000000000000000000 ) ) ;
#245 = EDGE_LOOP ( 'NONE', ( #717, #423, #433, #392 ) ) ;
#246 = DIRECTION ( 'NONE',  ( -1.000000000000000000, 0.000000000000000000, 0.000000000000000000 ) ) ;
#247 = CIRCLE ( 'NONE', #146, 1.000000000000000888 ) ;
#248 = VECTOR ( 'NONE', #604, 1000.000000000000000 ) ;
#249 = CIRCLE ( 'NONE', #673, 0.5000000000000004441 ) ;
#250 = ORIENTED_EDGE ( 'NONE', *, *, #613, .T. ) ;
#251 = AXIS2_PLACEMENT_3D ( 'NONE', #564, #447, #265 ) ;
#252 = LINE ( 'NONE', #129, #287 ) ;
#253 = FACE_OUTER_BOUND ( 'NONE', #208, .T. ) ;
#254 = ORIENTED_EDGE ( 'NONE', *, *, #466, .F. ) ;
#255 = CARTESIAN_POINT ( 'NONE',  ( -2.000000000000011546, 6.123233995736772199E-17, 17.50000000000000000 ) ) ;
#256 = DIRECTION ( 'NONE',  ( 0.000000000000000000, 0.000000000000000000, 1.000000000000000000 ) ) ;
#257 = EDGE_LOOP ( 'NONE', ( #614, #387, #512, #110, #562, #333 ) ) ;
#258 = DIRECTION ( 'NONE',  ( 0.000000000000000000, 0.000000000000000000, 1.000000000000000000 ) ) ;
#259 = ORIENTED_EDGE ( 'NONE', *, *, #216, .T. ) ;
#260 = AXIS2_PLACEMENT_3D ( 'NONE', #407, #212, #40 ) ;
#261 = CIRCLE ( 'NONE', #516, 1.000000000000000888 ) ;
#262 = CARTESIAN_POINT ( 'NONE',  ( -3.499999999999999556, 10.00000000000000000, -15.00000000000000000 ) ) ;
#263 = ORIENTED_EDGE ( 'NONE', *, *, #555, .T. ) ;
#264 = ADVANCED_FACE ( 'NONE', ( #295, #779 ), #591, .T. ) ;
#265 = DIRECTION ( 'NONE',  ( -2.510783978387484809E-16, 0.000000000000000000, 1.000000000000000000 ) ) ;
#266 = PLANE ( 'NONE',  #50 ) ;
#267 = ORIENTED_EDGE ( 'NONE', *, *, #85, .T. ) ;
#268 = CARTESIAN_POINT ( 'NONE',  ( 12.50000000000000000, 0.000000000000000000, 16.00000000000000000 ) ) ;
#269 = ORIENTED_EDGE ( 'NONE', *, *, #620, .T. ) ;
#270 = CIRCLE ( 'NONE', #766, 1.000000000000000888 ) ;
#271 = DIRECTION ( 'NONE',  ( -0.000000000000000000, -0.000000000000000000, -1.000000000000000000 ) ) ;
#272 = AXIS2_PLACEMENT_3D ( 'NONE', #567, #97, #694 ) ;
#273 = CARTESIAN_POINT ( 'NONE',  ( -3.499999999999999556, -9.000000000000001776, -16.00000000000000000 ) ) ;
#274 = EDGE_CURVE ( 'NONE', #52, #476, #170, .T. ) ;
#275 = ORIENTED_EDGE ( 'NONE', *, *, #372, .T. ) ;
#276 =( NAMED_UNIT ( * ) SI_UNIT ( $, .STERADIAN. ) SOLID_ANGLE_UNIT ( ) );
#277 = DIRECTION ( 'NONE',  ( 1.000000000000000000, 0.000000000000000000, 0.000000000000000000 ) ) ;
#278 = DIRECTION ( 'NONE',  ( -0.000000000000000000, -0.000000000000000000, -1.000000000000000000 ) ) ;
#279 = EDGE_CURVE ( 'NONE', #193, #603, #62, .T. ) ;
#280 = ORIENTED_EDGE ( 'NONE', *, *, #418, .F. ) ;
#281 = DIRECTION ( 'NONE',  ( 0.000000000000000000, -1.000000000000000000, 0.000000000000000000 ) ) ;
#282 = DIRECTION ( 'NONE',  ( 1.000000000000000000, 0.000000000000000000, -0.000000000000000000 ) ) ;
#283 = MANIFOLD_SOLID_BREP ( '圆角1', #12 ) ;
#284 = FACE_OUTER_BOUND ( 'NONE', #626, .T. ) ;
#285 = EDGE_LOOP ( 'NONE', ( #311, #150, #131, #365 ) ) ;
#286 = LINE ( 'NONE', #59, #546 ) ;
#287 = VECTOR ( 'NONE', #373, 1000.000000000000000 ) ;
#288 = VECTOR ( 'NONE', #764, 1000.000000000000000 ) ;
#289 = AXIS2_PLACEMENT_3D ( 'NONE', #542, #130, #741 ) ;
#290 = VECTOR ( 'NONE', #116, 1000.000000000000000 ) ;
#291 = FACE_OUTER_BOUND ( 'NONE', #675, .T. ) ;
#292 = ORIENTED_EDGE ( 'NONE', *, *, #530, .F. ) ;
#293 = CARTESIAN_POINT ( 'NONE',  ( -3.499999999999999556, 9.000000000000001776, 16.00000000000000000 ) ) ;
#294 = EDGE_CURVE ( 'NONE', #428, #547, #403, .T. ) ;
#295 = FACE_OUTER_BOUND ( 'NONE', #196, .T. ) ;
#296 = CARTESIAN_POINT ( 'NONE',  ( -1.999999999999999556, 0.000000000000000000, 16.00000000000000355 ) ) ;
#297 = ORIENTED_EDGE ( 'NONE', *, *, #279, .F. ) ;
#298 = DIRECTION ( 'NONE',  ( -0.000000000000000000, -0.000000000000000000, -1.000000000000000000 ) ) ;
#299 = DIRECTION ( 'NONE',  ( 2.510783978387484809E-16, 0.000000000000000000, -1.000000000000000000 ) ) ;
#300 = PRESENTATION_STYLE_ASSIGNMENT (( #579 ) ) ;
#301 = AXIS2_PLACEMENT_3D ( 'NONE', #55, #88, #29 ) ;
#302 = AXIS2_PLACEMENT_3D ( 'NONE', #708, #593, #657 ) ;
#303 = EDGE_CURVE ( 'NONE', #594, #747, #235, .T. ) ;
#304 = CIRCLE ( 'NONE', #645, 0.5000000000000004441 ) ;
#305 = EDGE_LOOP ( 'NONE', ( #74, #534 ) ) ;
#306 = DIRECTION ( 'NONE',  ( 1.000000000000000000, -0.000000000000000000, 0.000000000000000000 ) ) ;
#307 = FACE_OUTER_BOUND ( 'NONE', #624, .T. ) ;
#308 = ORIENTED_EDGE ( 'NONE', *, *, #448, .T. ) ;
#309 = EDGE_CURVE ( 'NONE', #749, #497, #720, .T. ) ;
#310 = CARTESIAN_POINT ( 'NONE',  ( 3.499999999999999556, 0.000000000000000000, -15.00000000000000000 ) ) ;
#311 = ORIENTED_EDGE ( 'NONE', *, *, #725, .T. ) ;
#312 = LINE ( 'NONE', #378, #716 ) ;
#313 = CARTESIAN_POINT ( 'NONE',  ( 0.000000000000000000, 0.000000000000000000, -16.00000000000000000 ) ) ;
#314 = AXIS2_PLACEMENT_3D ( 'NONE', #589, #221, #457 ) ;
#315 = AXIS2_PLACEMENT_3D ( 'NONE', #777, #244, #587 ) ;
#316 = VERTEX_POINT ( 'NONE', #644 ) ;
#317 = DIRECTION ( 'NONE',  ( -0.000000000000000000, -0.000000000000000000, -1.000000000000000000 ) ) ;
#318 = EDGE_CURVE ( 'NONE', #437, #413, #237, .T. ) ;
#319 = CARTESIAN_POINT ( 'NONE',  ( -3.499999999999999556, 10.00000000000000000, 16.00000000000000000 ) ) ;
#320 = ADVANCED_FACE ( 'NONE', ( #723 ), #358, .T. ) ;
#321 = VERTEX_POINT ( 'NONE', #166 ) ;
#322 = CARTESIAN_POINT ( 'NONE',  ( -3.499999999999999556, 0.000000000000000000, -15.00000000000000000 ) ) ;
#323 = VERTEX_POINT ( 'NONE', #598 ) ;
#324 = DIRECTION ( 'NONE',  ( -0.000000000000000000, -0.000000000000000000, -1.000000000000000000 ) ) ;
#325 = VERTEX_POINT ( 'NONE', #66 ) ;
#326 = CIRCLE ( 'NONE', #301, 1.000000000000000888 ) ;
#327 = TOROIDAL_SURFACE ( 'NONE', #37, 1.999999999999998224, 0.5000000000000004441 ) ;
#328 = DIRECTION ( 'NONE',  ( 1.000000000000000000, 0.000000000000000000, 0.000000000000000000 ) ) ;
#329 = ORIENTED_EDGE ( 'NONE', *, *, #665, .T. ) ;
#330 = APPLICATION_PROTOCOL_DEFINITION ( 'draft international standard', 'automotive_design', 1998, #706 ) ;
#331 = DIRECTION ( 'NONE',  ( 0.000000000000000000, 0.000000000000000000, 1.000000000000000000 ) ) ;
#332 = CARTESIAN_POINT ( 'NONE',  ( -3.499999999999999556, 0.000000000000000000, 15.00000000000000000 ) ) ;
#333 = ORIENTED_EDGE ( 'NONE', *, *, #578, .T. ) ;
#334 = ADVANCED_FACE ( 'NONE', ( #307 ), #172, .T. ) ;
#335 = APPLICATION_CONTEXT ( 'automotive_design' ) ;
#336 = DIRECTION ( 'NONE',  ( 0.000000000000000000, -1.000000000000000000, -0.000000000000000000 ) ) ;
#337 = EDGE_LOOP ( 'NONE', ( #145, #355, #376, #711 ) ) ;
#338 = AXIS2_PLACEMENT_3D ( 'NONE', #332, #101, #328 ) ;
#339 = VECTOR ( 'NONE', #118, 1000.000000000000000 ) ;
#340 =( GEOMETRIC_REPRESENTATION_CONTEXT ( 3 ) GLOBAL_UNCERTAINTY_ASSIGNED_CONTEXT ( ( #102 ) ) GLOBAL_UNIT_ASSIGNED_CONTEXT ( ( #518, #47, #58 ) ) REPRESENTATION_CONTEXT ( 'NONE', 'WORKASPACE' ) );
#341 = ADVANCED_FACE ( 'NONE', ( #108 ), #124, .T. ) ;
#342 = CARTESIAN_POINT ( 'NONE',  ( 0.000000000000000000, 0.000000000000000000, -16.00000000000000000 ) ) ;
#343 = ADVANCED_FACE ( 'NONE', ( #492 ), #370, .F. ) ;
#344 = VERTEX_POINT ( 'NONE', #262 ) ;
#345 = CARTESIAN_POINT ( 'NONE',  ( 12.50000000000000000, 0.000000000000000000, -15.00000000000000000 ) ) ;
#346 = DIRECTION ( 'NONE',  ( 0.000000000000000000, 0.000000000000000000, -1.000000000000000000 ) ) ;
#347 = DIRECTION ( 'NONE',  ( 0.000000000000000000, 0.000000000000000000, 1.000000000000000000 ) ) ;
#348 = FILL_AREA_STYLE ('',( #104 ) ) ;
#349 = CARTESIAN_POINT ( 'NONE',  ( -2.000000000000015543, 0.000000000000000000, -18.00000000000000355 ) ) ;
#350 = EDGE_LOOP ( 'NONE', ( #153, #444, #254, #380 ) ) ;
#351 = LINE ( 'NONE', #293, #187 ) ;
#352 = AXIS2_PLACEMENT_3D ( 'NONE', #231, #176, #465 ) ;
#353 = VECTOR ( 'NONE', #415, 1000.000000000000000 ) ;
#354 = CIRCLE ( 'NONE', #363, 9.000000000000001776 ) ;
#355 = ORIENTED_EDGE ( 'NONE', *, *, #309, .F. ) ;
#356 = CARTESIAN_POINT ( 'NONE',  ( -2.000000000000012434, 0.000000000000000000, 18.50000000000000355 ) ) ;
#357 = CARTESIAN_POINT ( 'NONE',  ( 3.499999999999999556, 0.000000000000000000, 15.00000000000000000 ) ) ;
#358 = CYLINDRICAL_SURFACE ( 'NONE', #302, 0.5000000000000004441 ) ;
#359 = ORIENTED_EDGE ( 'NONE', *, *, #117, .T. ) ;
#360 = DIRECTION ( 'NONE',  ( 1.000000000000000000, 0.000000000000000000, 6.847592668329505996E-16 ) ) ;
#361 = DIRECTION ( 'NONE',  ( 0.000000000000000000, 0.000000000000000000, -1.000000000000000000 ) ) ;
#362 = AXIS2_PLACEMENT_3D ( 'NONE', #296, #638, #460 ) ;
#363 = AXIS2_PLACEMENT_3D ( 'NONE', #557, #425, #496 ) ;
#364 = EDGE_CURVE ( 'NONE', #452, #580, #434, .T. ) ;
#365 = ORIENTED_EDGE ( 'NONE', *, *, #647, .F. ) ;
#366 = FILL_AREA_STYLE ('',( #659 ) ) ;
#367 = DIRECTION ( 'NONE',  ( 0.000000000000000000, -1.000000000000000000, -0.000000000000000000 ) ) ;
#368 = EDGE_LOOP ( 'NONE', ( #267, #115, #259, #70 ) ) ;
#369 = DIRECTION ( 'NONE',  ( 1.000000000000000000, 0.000000000000000000, 0.000000000000000000 ) ) ;
#370 = PLANE ( 'NONE',  #432 ) ;
#371 = ORIENTED_EDGE ( 'NONE', *, *, #318, .T. ) ;
#372 = EDGE_CURVE ( 'NONE', #174, #321, #99, .T. ) ;
#373 = DIRECTION ( 'NONE',  ( -0.000000000000000000, -0.000000000000000000, -1.000000000000000000 ) ) ;
#374 = COLOUR_RGB ( '',0.7921568627450980005, 0.8196078431372548767, 0.9333333333333333481 ) ;
#375 = CARTESIAN_POINT ( 'NONE',  ( -1.999999999999999556, 0.000000000000000000, -16.00000000000000355 ) ) ;
#376 = ORIENTED_EDGE ( 'NONE', *, *, #93, .T. ) ;
#377 = AXIS2_PLACEMENT_3D ( 'NONE', #616, #84, #69 ) ;
#378 = CARTESIAN_POINT ( 'NONE',  ( -3.499999999999999556, -10.00000000000000000, 16.00000000000000000 ) ) ;
#379 = FACE_OUTER_BOUND ( 'NONE', #368, .T. ) ;
#380 = ORIENTED_EDGE ( 'NONE', *, *, #216, .F. ) ;
#381 = CARTESIAN_POINT ( 'NONE',  ( 3.499999999999997780, -9.000000000000001776, 15.00000000000000000 ) ) ;
#382 = CARTESIAN_POINT ( 'NONE',  ( 3.499999999999999556, 0.000000000000000000, -15.00000000000000000 ) ) ;
#383 = EDGE_CURVE ( 'NONE', #497, #749, #446, .T. ) ;
#384 = EDGE_LOOP ( 'NONE', ( #691, #78, #215, #100 ) ) ;
#385 = CARTESIAN_POINT ( 'NONE',  ( -3.499999999999999556, 0.000000000000000000, 15.00000000000000000 ) ) ;
#386 = MECHANICAL_DESIGN_GEOMETRIC_PRESENTATION_REPRESENTATION (  '', ( #568 ), #49 ) ;
#387 = ORIENTED_EDGE ( 'NONE', *, *, #466, .T. ) ;
#388 = CIRCLE ( 'NONE', #752, 9.000000000000001776 ) ;
#389 = AXIS2_PLACEMENT_3D ( 'NONE', #536, #475, #721 ) ;
#390 = DIRECTION ( 'NONE',  ( -1.000000000000000000, 0.000000000000000000, 0.000000000000000000 ) ) ;
#391 = LINE ( 'NONE', #565, #718 ) ;
#392 = ORIENTED_EDGE ( 'NONE', *, *, #93, .F. ) ;
#393 = EDGE_CURVE ( 'NONE', #323, #24, #354, .T. ) ;
#394 = DIRECTION ( 'NONE',  ( -0.000000000000000000, -0.000000000000000000, -1.000000000000000000 ) ) ;
#395 = CARTESIAN_POINT ( 'NONE',  ( 3.499999999999999556, 0.000000000000000000, -15.00000000000000000 ) ) ;
#396 = ORIENTED_EDGE ( 'NONE', *, *, #113, .T. ) ;
#397 = PRODUCT_RELATED_PRODUCT_CATEGORY ( 'part', '', ( #602 ) ) ;
#398 = CARTESIAN_POINT ( 'NONE',  ( -13.50000000000000000, 0.000000000000000000, -15.00000000000000000 ) ) ;
#399 = ORIENTED_EDGE ( 'NONE', *, *, #745, .F. ) ;
#400 = PRESENTATION_STYLE_ASSIGNMENT (( #480 ) ) ;
#401 = CIRCLE ( 'NONE', #781, 1.499999999999999556 ) ;
#402 = DIRECTION ( 'NONE',  ( -0.000000000000000000, -0.000000000000000000, -1.000000000000000000 ) ) ;
#403 = CIRCLE ( 'NONE', #586, 0.5000000000000004441 ) ;
#404 = DIRECTION ( 'NONE',  ( 1.000000000000000000, 0.000000000000000000, 0.000000000000000000 ) ) ;
#405 = CARTESIAN_POINT ( 'NONE',  ( 12.50000000000000000, 0.000000000000000000, -16.00000000000000000 ) ) ;
#406 = DIRECTION ( 'NONE',  ( 1.000000000000000000, 0.000000000000000000, 0.000000000000000000 ) ) ;
#407 = CARTESIAN_POINT ( 'NONE',  ( 3.499999999999999556, 0.000000000000000000, 15.00000000000000000 ) ) ;
#408 = ORIENTED_EDGE ( 'NONE', *, *, #576, .F. ) ;
#409 = ORIENTED_EDGE ( 'NONE', *, *, #555, .F. ) ;
#410 = DIRECTION ( 'NONE',  ( 0.000000000000000000, 0.000000000000000000, -1.000000000000000000 ) ) ;
#411 = CARTESIAN_POINT ( 'NONE',  ( 13.50000000000000178, 0.000000000000000000, -15.00000000000000000 ) ) ;
#412 = AXIS2_PLACEMENT_3D ( 'NONE', #7, #181, #541 ) ;
#413 = VERTEX_POINT ( 'NONE', #22 ) ;
#414 = CARTESIAN_POINT ( 'NONE',  ( -1.999999999999999556, 0.000000000000000000, -16.00000000000000355 ) ) ;
#415 = DIRECTION ( 'NONE',  ( 1.000000000000000000, 0.000000000000000000, 0.000000000000000000 ) ) ;
#416 = DIRECTION ( 'NONE',  ( 0.000000000000000000, 0.000000000000000000, -1.000000000000000000 ) ) ;
#417 = EDGE_CURVE ( 'NONE', #316, #323, #746, .T. ) ;
#418 = EDGE_CURVE ( 'NONE', #344, #140, #111, .T. ) ;
#419 = CARTESIAN_POINT ( 'NONE',  ( 0.5000000000000004441, 0.000000000000000000, 15.99999999999998579 ) ) ;
#420 = AXIS2_PLACEMENT_3D ( 'NONE', #667, #246, #135 ) ;
#421 = AXIS2_PLACEMENT_3D ( 'NONE', #640, #528, #114 ) ;
#422 = AXIS2_PLACEMENT_3D ( 'NONE', #310, #256, #733 ) ;
#423 = ORIENTED_EDGE ( 'NONE', *, *, #232, .T. ) ;
#424 = DIRECTION ( 'NONE',  ( 0.000000000000000000, 0.000000000000000000, 1.000000000000000000 ) ) ;
#425 = DIRECTION ( 'NONE',  ( -0.000000000000000000, -0.000000000000000000, -1.000000000000000000 ) ) ;
#426 = EDGE_LOOP ( 'NONE', ( #112, #263, #275, #455 ) ) ;
#427 = DIRECTION ( 'NONE',  ( -1.000000000000000000, 0.000000000000000000, 0.000000000000000000 ) ) ;
#428 = VERTEX_POINT ( 'NONE', #419 ) ;
#429 = DIRECTION ( 'NONE',  ( 0.000000000000000000, 0.000000000000000000, -1.000000000000000000 ) ) ;
#430 = CARTESIAN_POINT ( 'NONE',  ( 3.499999999999997780, -10.00000000000000000, 15.00000000000000000 ) ) ;
#431 = CIRCLE ( 'NONE', #730, 0.5000000000000004441 ) ;
#432 = AXIS2_PLACEMENT_3D ( 'NONE', #319, #188, #13 ) ;
#433 = ORIENTED_EDGE ( 'NONE', *, *, #32, .T. ) ;
#434 = CIRCLE ( 'NONE', #769, 10.00000000000000000 ) ;
#435 = ADVANCED_FACE ( 'NONE', ( #379 ), #201, .T. ) ;
#436 = DIRECTION ( 'NONE',  ( 1.000000000000000000, -0.000000000000000000, -0.000000000000000000 ) ) ;
#437 = VERTEX_POINT ( 'NONE', #19 ) ;
#438 = ADVANCED_FACE ( 'NONE', ( #253 ), #87, .T. ) ;
#439 = DIRECTION ( 'NONE',  ( 0.000000000000000000, -1.000000000000000000, -0.000000000000000000 ) ) ;
#440 = ADVANCED_FACE ( 'NONE', ( #487 ), #597, .T. ) ;
#441 = ORIENTED_EDGE ( 'NONE', *, *, #554, .F. ) ;
#442 = FACE_OUTER_BOUND ( 'NONE', #213, .T. ) ;
#443 = AXIS2_PLACEMENT_3D ( 'NONE', #763, #527, #178 ) ;
#444 = ORIENTED_EDGE ( 'NONE', *, *, #530, .T. ) ;
#445 = CIRCLE ( 'NONE', #109, 1.000000000000000888 ) ;
#446 = CIRCLE ( 'NONE', #494, 0.5000000000000004441 ) ;
#447 = DIRECTION ( 'NONE',  ( -1.000000000000000000, 0.000000000000000000, -2.510783978387484809E-16 ) ) ;
#448 = EDGE_CURVE ( 'NONE', #580, #594, #133, .T. ) ;
#449 = ORIENTED_EDGE ( 'NONE', *, *, #647, .T. ) ;
#450 = CARTESIAN_POINT ( 'NONE',  ( -2.000000000000015543, 0.000000000000000000, -18.50000000000000355 ) ) ;
#451 = DIRECTION ( 'NONE',  ( -1.000000000000000000, 0.000000000000000000, 0.000000000000000000 ) ) ;
#452 = VERTEX_POINT ( 'NONE', #195 ) ;
#453 = CARTESIAN_POINT ( 'NONE',  ( -3.499999999999999556, 0.000000000000000000, 16.00000000000000000 ) ) ;
#454 = CARTESIAN_POINT ( 'NONE',  ( -17.99999999999999645, 0.000000000000000000, -18.00000000000000355 ) ) ;
#455 = ORIENTED_EDGE ( 'NONE', *, *, #113, .F. ) ;
#456 = AXIS2_PLACEMENT_3D ( 'NONE', #548, #424, #369 ) ;
#457 = DIRECTION ( 'NONE',  ( -1.000000000000000000, 0.000000000000000000, 0.000000000000000000 ) ) ;
#458 = AXIS2_PLACEMENT_3D ( 'NONE', #655, #707, #410 ) ;
#459 = CARTESIAN_POINT ( 'NONE',  ( 3.499999999999997780, -9.000000000000001776, -15.00000000000000000 ) ) ;
#460 = DIRECTION ( 'NONE',  ( 0.000000000000000000, 0.000000000000000000, -1.000000000000000000 ) ) ;
#461 = CYLINDRICAL_SURFACE ( 'NONE', #651, 10.00000000000000000 ) ;
#462 = CARTESIAN_POINT ( 'NONE',  ( -17.99999999999999645, 6.123233995736772199E-17, -17.50000000000000000 ) ) ;
#463 = CARTESIAN_POINT ( 'NONE',  ( -3.499999999999999556, 10.00000000000000000, -15.00000000000000000 ) ) ;
#464 = VERTEX_POINT ( 'NONE', #430 ) ;
#465 = DIRECTION ( 'NONE',  ( 1.000000000000000000, 0.000000000000000000, 0.000000000000000000 ) ) ;
#466 = EDGE_CURVE ( 'NONE', #476, #67, #732, .T. ) ;
#467 = FACE_OUTER_BOUND ( 'NONE', #350, .T. ) ;
#468 = DIRECTION ( 'NONE',  ( 0.000000000000000000, -1.000000000000000000, -0.000000000000000000 ) ) ;
#469 = TOROIDAL_SURFACE ( 'NONE', #35, 9.000000000000001776, 1.000000000000000000 ) ;
#470 = DIRECTION ( 'NONE',  ( -0.000000000000000000, -0.000000000000000000, -1.000000000000000000 ) ) ;
#471 = AXIS2_PLACEMENT_3D ( 'NONE', #634, #394, #574 ) ;
#472 = EDGE_CURVE ( 'NONE', #526, #491, #650, .T. ) ;
#473 = ADVANCED_FACE ( 'NONE', ( #8 ), #327, .T. ) ;
#474 = DIRECTION ( 'NONE',  ( -1.000000000000000000, -0.000000000000000000, 0.000000000000000000 ) ) ;
#475 = DIRECTION ( 'NONE',  ( -1.000000000000000000, 0.000000000000000000, -2.510783978387484809E-16 ) ) ;
#476 = VERTEX_POINT ( 'NONE', #664 ) ;
#477 =( NAMED_UNIT ( * ) PLANE_ANGLE_UNIT ( ) SI_UNIT ( $, .RADIAN. ) );
#478 = CARTESIAN_POINT ( 'NONE',  ( -3.499999999999999556, 9.000000000000001776, 16.00000000000000000 ) ) ;
#479 = ORIENTED_EDGE ( 'NONE', *, *, #197, .F. ) ;
#480 = SURFACE_STYLE_USAGE ( .BOTH. , #68 ) ;
#481 = EDGE_CURVE ( 'NONE', #594, #677, #261, .T. ) ;
#482 = CARTESIAN_POINT ( 'NONE',  ( -1.999999999999999556, 0.000000000000000000, -16.00000000000000355 ) ) ;
#483 = AXIS2_PLACEMENT_3D ( 'NONE', #54, #703, #522 ) ;
#484 = TOROIDAL_SURFACE ( 'NONE', #338, 9.000000000000001776, 1.000000000000000000 ) ;
#485 = AXIS2_PLACEMENT_3D ( 'NONE', #345, #281, #203 ) ;
#486 = ORIENTED_EDGE ( 'NONE', *, *, #670, .F. ) ;
#487 = FACE_OUTER_BOUND ( 'NONE', #41, .T. ) ;
#488 = VERTEX_POINT ( 'NONE', #510 ) ;
#489 =( NAMED_UNIT ( * ) SI_UNIT ( $, .STERADIAN. ) SOLID_ANGLE_UNIT ( ) );
#490 = CARTESIAN_POINT ( 'NONE',  ( -3.499999999999999556, 9.000000000000001776, -16.00000000000000000 ) ) ;
#491 = VERTEX_POINT ( 'NONE', #689 ) ;
#492 = FACE_OUTER_BOUND ( 'NONE', #144, .T. ) ;
#493 = TOROIDAL_SURFACE ( 'NONE', #362, 1.999999999999999556, 0.5000000000000004441 ) ;
#494 = AXIS2_PLACEMENT_3D ( 'NONE', #605, #139, #80 ) ;
#495 = ORIENTED_EDGE ( 'NONE', *, *, #679, .F. ) ;
#496 = DIRECTION ( 'NONE',  ( 1.000000000000000000, 0.000000000000000000, 0.000000000000000000 ) ) ;
#497 = VERTEX_POINT ( 'NONE', #760 ) ;
#498 = FACE_OUTER_BOUND ( 'NONE', #285, .T. ) ;
#499 = CARTESIAN_POINT ( 'NONE',  ( -18.00000000000000355, 0.000000000000000000, 17.99999999999999645 ) ) ;
#500 = ORIENTED_EDGE ( 'NONE', *, *, #637, .F. ) ;
#501 = CIRCLE ( 'NONE', #314, 0.5000000000000004441 ) ;
#502 = EDGE_CURVE ( 'NONE', #168, #316, #754, .T. ) ;
#503 = CYLINDRICAL_SURFACE ( 'NONE', #570, 0.5000000000000004441 ) ;
#504 = ORIENTED_EDGE ( 'NONE', *, *, #709, .T. ) ;
#505 = AXIS2_PLACEMENT_3D ( 'NONE', #157, #42, #697 ) ;
#506 = CARTESIAN_POINT ( 'NONE',  ( -0.5000000000000004441, 0.000000000000000000, 15.99999999999998579 ) ) ;
#507 = DIRECTION ( 'NONE',  ( 1.000000000000000000, 0.000000000000000000, 0.000000000000000000 ) ) ;
#508 = ADVANCED_BREP_SHAPE_REPRESENTATION ( '\X2\75355bb9\X0\CBB20', ( #283, #558 ), #682 ) ;
#509 = EDGE_LOOP ( 'NONE', ( #185, #219, #728, #560 ) ) ;
#510 = CARTESIAN_POINT ( 'NONE',  ( 3.499999999999997780, -9.000000000000001776, 16.00000000000000000 ) ) ;
#511 = DIRECTION ( 'NONE',  ( 0.000000000000000000, 0.000000000000000000, -1.000000000000000000 ) ) ;
#512 = ORIENTED_EDGE ( 'NONE', *, *, #158, .T. ) ;
#513 = ADVANCED_FACE ( 'NONE', ( #31 ), #217, .T. ) ;
#514 = DIRECTION ( 'NONE',  ( 0.000000000000000000, 0.000000000000000000, -1.000000000000000000 ) ) ;
#515 = DIRECTION ( 'NONE',  ( -1.000000000000000000, 0.000000000000000000, -2.510783978387484809E-16 ) ) ;
#516 = AXIS2_PLACEMENT_3D ( 'NONE', #90, #277, #147 ) ;
#517 = AXIS2_PLACEMENT_3D ( 'NONE', #414, #468, #107 ) ;
#518 =( LENGTH_UNIT ( ) NAMED_UNIT ( * ) SI_UNIT ( .MILLI., .METRE. ) );
#519 = UNCERTAINTY_MEASURE_WITH_UNIT (LENGTH_MEASURE( 1.000000000000000082E-05 ), #688, 'distance_accuracy_value', 'NONE');
#520 = CARTESIAN_POINT ( 'NONE',  ( -3.499999999999999556, 0.000000000000000000, -16.00000000000000000 ) ) ;
#521 = ORIENTED_EDGE ( 'NONE', *, *, #745, .T. ) ;
#522 = DIRECTION ( 'NONE',  ( 0.000000000000000000, 0.000000000000000000, -1.000000000000000000 ) ) ;
#523 = EDGE_CURVE ( 'NONE', #238, #580, #702, .T. ) ;
#524 = SURFACE_STYLE_FILL_AREA ( #348 ) ;
#525 = DIRECTION ( 'NONE',  ( 0.000000000000000000, -1.000000000000000000, 0.000000000000000000 ) ) ;
#526 = VERTEX_POINT ( 'NONE', #450 ) ;
#527 = DIRECTION ( 'NONE',  ( -1.000000000000000000, 0.000000000000000000, -4.336808689942021680E-16 ) ) ;
#528 = DIRECTION ( 'NONE',  ( 1.000000000000000000, 0.000000000000000000, 6.847592668329505996E-16 ) ) ;
#529 = EDGE_CURVE ( 'NONE', #9, #452, #619, .T. ) ;
#530 = EDGE_CURVE ( 'NONE', #24, #67, #610, .T. ) ;
#531 = ORIENTED_EDGE ( 'NONE', *, *, #383, .T. ) ;
#532 = AXIS2_PLACEMENT_3D ( 'NONE', #121, #726, #183 ) ;
#533 = CARTESIAN_POINT ( 'NONE',  ( -3.499999999999999556, -10.00000000000000000, -15.00000000000000000 ) ) ;
#534 = ORIENTED_EDGE ( 'NONE', *, *, #318, .F. ) ;
#535 = CYLINDRICAL_SURFACE ( 'NONE', #420, 1.000000000000000888 ) ;
#536 = CARTESIAN_POINT ( 'NONE',  ( -17.99999999999999645, 0.000000000000000000, -18.00000000000000355 ) ) ;
#537 = ORIENTED_EDGE ( 'NONE', *, *, #61, .T. ) ;
#538 = ADVANCED_FACE ( 'NONE', ( #622 ), #25, .T. ) ;
#539 = CARTESIAN_POINT ( 'NONE',  ( -3.499999999999999556, 0.000000000000000000, -15.00000000000000000 ) ) ;
#540 = ORIENTED_EDGE ( 'NONE', *, *, #137, .F. ) ;
#541 = DIRECTION ( 'NONE',  ( -8.673617379884027583E-16, 0.000000000000000000, 1.000000000000000000 ) ) ;
#542 = CARTESIAN_POINT ( 'NONE',  ( -3.499999999999999556, -9.000000000000001776, -15.00000000000000000 ) ) ;
#543 = VECTOR ( 'NONE', #83, 1000.000000000000000 ) ;
#544 = VECTOR ( 'NONE', #577, 1000.000000000000000 ) ;
#545 = AXIS2_PLACEMENT_3D ( 'NONE', #228, #177, #361 ) ;
#546 = VECTOR ( 'NONE', #474, 1000.000000000000000 ) ;
#547 = VERTEX_POINT ( 'NONE', #506 ) ;
#548 = CARTESIAN_POINT ( 'NONE',  ( 3.499999999999999556, 0.000000000000000000, 16.00000000000000000 ) ) ;
#549 = CARTESIAN_POINT ( 'NONE',  ( -3.499999999999999556, 0.000000000000000000, 15.00000000000000000 ) ) ;
#550 = ADVANCED_FACE ( 'NONE', ( #498 ), #205, .T. ) ;
#551 = ORIENTED_EDGE ( 'NONE', *, *, #502, .T. ) ;
#552 = DIRECTION ( 'NONE',  ( 1.000000000000000000, 0.000000000000000000, 0.000000000000000000 ) ) ;
#553 = DIRECTION ( 'NONE',  ( 1.000000000000000000, 0.000000000000000000, 0.000000000000000000 ) ) ;
#554 = EDGE_CURVE ( 'NONE', #428, #193, #138, .T. ) ;
#555 = EDGE_CURVE ( 'NONE', #526, #174, #771, .T. ) ;
#556 = ORIENTED_EDGE ( 'NONE', *, *, #698, .F. ) ;
#557 = CARTESIAN_POINT ( 'NONE',  ( 3.499999999999999556, 0.000000000000000000, -16.00000000000000000 ) ) ;
#558 = AXIS2_PLACEMENT_3D ( 'NONE', #563, #627, #678 ) ;
#559 = AXIS2_PLACEMENT_3D ( 'NONE', #375, #367, #601 ) ;
#560 = ORIENTED_EDGE ( 'NONE', *, *, #590, .F. ) ;
#561 = FACE_OUTER_BOUND ( 'NONE', #305, .T. ) ;
#562 = ORIENTED_EDGE ( 'NONE', *, *, #127, .T. ) ;
#563 = CARTESIAN_POINT ( 'NONE',  ( 0.000000000000000000, 0.000000000000000000, 0.000000000000000000 ) ) ;
#564 = CARTESIAN_POINT ( 'NONE',  ( -17.99999999999999645, 0.000000000000000000, -18.00000000000000355 ) ) ;
#565 = CARTESIAN_POINT ( 'NONE',  ( 3.499999999999997780, -10.00000000000000000, 16.00000000000000000 ) ) ;
#566 = VERTEX_POINT ( 'NONE', #776 ) ;
#567 = CARTESIAN_POINT ( 'NONE',  ( 3.499999999999999556, 0.000000000000000000, 16.00000000000000000 ) ) ;
#568 = STYLED_ITEM ( 'NONE', ( #400 ), #508 ) ;
#569 = EDGE_LOOP ( 'NONE', ( #399, #297, #134, #680 ) ) ;
#570 = AXIS2_PLACEMENT_3D ( 'NONE', #454, #34, #91 ) ;
#571 = AXIS2_PLACEMENT_3D ( 'NONE', #683, #390, #331 ) ;
#572 = CARTESIAN_POINT ( 'NONE',  ( -18.00000000000000355, 0.000000000000000000, 17.99999999999999645 ) ) ;
#573 = ORIENTED_EDGE ( 'NONE', *, *, #242, .T. ) ;
#574 = DIRECTION ( 'NONE',  ( 1.000000000000000000, 0.000000000000000000, 0.000000000000000000 ) ) ;
#575 = FACE_OUTER_BOUND ( 'NONE', #509, .T. ) ;
#576 = EDGE_CURVE ( 'NONE', #566, #95, #756, .T. ) ;
#577 = DIRECTION ( 'NONE',  ( -1.000000000000000000, 0.000000000000000000, 0.000000000000000000 ) ) ;
#578 = EDGE_CURVE ( 'NONE', #566, #464, #53, .T. ) ;
#579 = SURFACE_STYLE_USAGE ( .BOTH. , #652 ) ;
#580 = VERTEX_POINT ( 'NONE', #65 ) ;
#581 = CIRCLE ( 'NONE', #352, 10.00000000000000000 ) ;
#582 = ORIENTED_EDGE ( 'NONE', *, *, #481, .T. ) ;
#583 = PRESENTATION_LAYER_ASSIGNMENT (  '', '', ( #596 ) ) ;
#584 = ADVANCED_FACE ( 'NONE', ( #239 ), #461, .T. ) ;
#585 = CARTESIAN_POINT ( 'NONE',  ( -1.999999999999900746, 6.123233995736091806E-17, 17.50000000000011369 ) ) ;
#586 = AXIS2_PLACEMENT_3D ( 'NONE', #5, #299, #774 ) ;
#587 = DIRECTION ( 'NONE',  ( 0.000000000000000000, -0.000000000000000000, 1.000000000000000000 ) ) ;
#588 = DIRECTION ( 'NONE',  ( 0.000000000000000000, 0.000000000000000000, 1.000000000000000000 ) ) ;
#589 = CARTESIAN_POINT ( 'NONE',  ( 0.000000000000000000, 0.000000000000000000, 15.99999999999998579 ) ) ;
#590 = EDGE_CURVE ( 'NONE', #677, #238, #351, .T. ) ;
#591 = PLANE ( 'NONE',  #532 ) ;
#592 = CARTESIAN_POINT ( 'NONE',  ( -3.499999999999999556, 0.000000000000000000, 16.00000000000000000 ) ) ;
#593 = DIRECTION ( 'NONE',  ( 1.000000000000000000, -0.000000000000000000, -0.000000000000000000 ) ) ;
#594 = VERTEX_POINT ( 'NONE', #46 ) ;
#595 = LINE ( 'NONE', #719, #10 ) ;
#596 = STYLED_ITEM ( 'NONE', ( #300 ), #283 ) ;
#597 = TOROIDAL_SURFACE ( 'NONE', #559, 1.999999999999998224, 0.5000000000000004441 ) ;
#598 = CARTESIAN_POINT ( 'NONE',  ( 3.499999999999999556, 9.000000000000001776, -16.00000000000000000 ) ) ;
#599 = ORIENTED_EDGE ( 'NONE', *, *, #590, .T. ) ;
#600 = SURFACE_STYLE_FILL_AREA ( #366 ) ;
#601 = DIRECTION ( 'NONE',  ( 0.000000000000000000, 0.000000000000000000, -1.000000000000000000 ) ) ;
#602 = PRODUCT ( '\X2\75355bb9\X0\CBB20', '\X2\75355bb9\X0\CBB20', '', ( #632 ) ) ;
#603 = VERTEX_POINT ( 'NONE', #585 ) ;
#604 = DIRECTION ( 'NONE',  ( -1.000000000000000000, 0.000000000000000000, -4.336808689942021680E-16 ) ) ;
#605 = CARTESIAN_POINT ( 'NONE',  ( -17.99999999999999645, 0.000000000000000000, -18.00000000000000355 ) ) ;
#606 = ORIENTED_EDGE ( 'NONE', *, *, #679, .T. ) ;
#607 = CIRCLE ( 'NONE', #483, 1.000000000000000888 ) ;
#608 = DIRECTION ( 'NONE',  ( 0.000000000000000000, 0.000000000000000000, 1.000000000000000000 ) ) ;
#609 = PRESENTATION_LAYER_ASSIGNMENT (  '', '', ( #568 ) ) ;
#610 = CIRCLE ( 'NONE', #485, 1.000000000000000888 ) ;
#611 = ORIENTED_EDGE ( 'NONE', *, *, #127, .F. ) ;
#612 = FACE_OUTER_BOUND ( 'NONE', #669, .T. ) ;
#613 = EDGE_CURVE ( 'NONE', #325, #168, #286, .T. ) ;
#614 = ORIENTED_EDGE ( 'NONE', *, *, #137, .T. ) ;
#615 = FACE_OUTER_BOUND ( 'NONE', #662, .T. ) ;
#616 = CARTESIAN_POINT ( 'NONE',  ( -2.000000000000015543, 0.000000000000000000, -18.00000000000000355 ) ) ;
#617 = EDGE_LOOP ( 'NONE', ( #92, #531 ) ) ;
#618 = AXIS2_PLACEMENT_3D ( 'NONE', #132, #79, #552 ) ;
#619 = CIRCLE ( 'NONE', #51, 10.00000000000000000 ) ;
#620 = EDGE_CURVE ( 'NONE', #24, #325, #200, .T. ) ;
#621 = ORIENTED_EDGE ( 'NONE', *, *, #417, .T. ) ;
#622 = FACE_OUTER_BOUND ( 'NONE', #617, .T. ) ;
#623 = LINE ( 'NONE', #628, #288 ) ;
#624 = EDGE_LOOP ( 'NONE', ( #408, #611, #582, #630 ) ) ;
#625 = CARTESIAN_POINT ( 'NONE',  ( 3.499999999999999556, 0.000000000000000000, 16.00000000000000000 ) ) ;
#626 = EDGE_LOOP ( 'NONE', ( #695, #737, #666, #780 ) ) ;
#627 = DIRECTION ( 'NONE',  ( 0.000000000000000000, 0.000000000000000000, 1.000000000000000000 ) ) ;
#628 = CARTESIAN_POINT ( 'NONE',  ( -17.99999999999999645, 0.000000000000000000, -18.50000000000000355 ) ) ;
#629 = AXIS2_PLACEMENT_3D ( 'NONE', #768, #525, #233 ) ;
#630 = ORIENTED_EDGE ( 'NONE', *, *, #696, .F. ) ;
#631 = VECTOR ( 'NONE', #676, 1000.000000000000000 ) ;
#632 = PRODUCT_CONTEXT ( 'NONE', #335, 'mechanical' ) ;
#633 = AXIS2_PLACEMENT_3D ( 'NONE', #162, #649, #406 ) ;
#634 = CARTESIAN_POINT ( 'NONE',  ( -3.499999999999999556, 0.000000000000000000, -16.00000000000000000 ) ) ;
#635 = EDGE_CURVE ( 'NONE', #193, #413, #654, .T. ) ;
#636 = FACE_OUTER_BOUND ( 'NONE', #337, .T. ) ;
#637 = EDGE_CURVE ( 'NONE', #603, #193, #304, .T. ) ;
#638 = DIRECTION ( 'NONE',  ( 0.000000000000000000, -1.000000000000000000, 0.000000000000000000 ) ) ;
#639 = CARTESIAN_POINT ( 'NONE',  ( 3.499999999999999556, 9.000000000000001776, 16.00000000000000000 ) ) ;
#640 = CARTESIAN_POINT ( 'NONE',  ( -1.999999999999901190, 0.000000000000000000, 18.00000000000011369 ) ) ;
#641 = CARTESIAN_POINT ( 'NONE',  ( 3.499999999999999556, 0.000000000000000000, -15.00000000000000000 ) ) ;
#642 = ORIENTED_EDGE ( 'NONE', *, *, #61, .F. ) ;
#643 = CYLINDRICAL_SURFACE ( 'NONE', #443, 0.5000000000000004441 ) ;
#644 = CARTESIAN_POINT ( 'NONE',  ( -3.499999999999999556, 9.000000000000001776, -16.00000000000000000 ) ) ;
#645 = AXIS2_PLACEMENT_3D ( 'NONE', #169, #360, #722 ) ;
#646 = CARTESIAN_POINT ( 'NONE',  ( -3.499999999999999556, -10.00000000000000000, -15.00000000000000000 ) ) ;
#647 = EDGE_CURVE ( 'NONE', #658, #488, #595, .T. ) ;
#648 = ORIENTED_EDGE ( 'NONE', *, *, #637, .T. ) ;
#649 = DIRECTION ( 'NONE',  ( -0.000000000000000000, -0.000000000000000000, -1.000000000000000000 ) ) ;
#650 = CIRCLE ( 'NONE', #377, 0.5000000000000004441 ) ;
#651 = AXIS2_PLACEMENT_3D ( 'NONE', #592, #712, #772 ) ;
#652 = SURFACE_SIDE_STYLE ('',( #524 ) ) ;
#653 = ORIENTED_EDGE ( 'NONE', *, *, #696, .T. ) ;
#654 = LINE ( 'NONE', #356, #290 ) ;
#655 = CARTESIAN_POINT ( 'NONE',  ( 12.50000000000000000, 0.000000000000000000, 15.00000000000000000 ) ) ;
#656 = ADVANCED_FACE ( 'NONE', ( #227 ), #643, .T. ) ;
#657 = DIRECTION ( 'NONE',  ( 0.000000000000000000, 0.000000000000000000, -1.000000000000000000 ) ) ;
#658 = VERTEX_POINT ( 'NONE', #165 ) ;
#659 = FILL_AREA_STYLE_COLOUR ( '', #374 ) ;
#660 = AXIS2_PLACEMENT_3D ( 'NONE', #520, #775, #164 ) ;
#661 = DIRECTION ( 'NONE',  ( 0.000000000000000000, 0.000000000000000000, 1.000000000000000000 ) ) ;
#662 = EDGE_LOOP ( 'NONE', ( #486, #204, #642, #739 ) ) ;
#663 = CARTESIAN_POINT ( 'NONE',  ( -3.499999999999999556, -10.00000000000000000, 15.00000000000000000 ) ) ;
#664 = CARTESIAN_POINT ( 'NONE',  ( 3.499999999999997780, -10.00000000000000000, -15.00000000000000000 ) ) ;
#665 = EDGE_CURVE ( 'NONE', #547, #428, #501, .T. ) ;
#666 = ORIENTED_EDGE ( 'NONE', *, *, #279, .T. ) ;
#667 = CARTESIAN_POINT ( 'NONE',  ( -3.499999999999999556, 9.000000000000001776, -15.00000000000000000 ) ) ;
#668 = DIRECTION ( 'NONE',  ( -0.000000000000000000, -0.000000000000000000, -1.000000000000000000 ) ) ;
#669 = EDGE_LOOP ( 'NONE', ( #500, #521, #371, #14 ) ) ;
#670 = EDGE_CURVE ( 'NONE', #323, #747, #607, .T. ) ;
#671 = PRODUCT_DEFINITION ( '未知', '', #33, #765 ) ;
#672 = DIRECTION ( 'NONE',  ( 1.000000000000000000, 0.000000000000000000, 0.000000000000000000 ) ) ;
#673 = AXIS2_PLACEMENT_3D ( 'NONE', #572, #152, #514 ) ;
#674 = AXIS2_PLACEMENT_3D ( 'NONE', #28, #154, #416 ) ;
#675 = EDGE_LOOP ( 'NONE', ( #89, #269, #250, #551, #621 ) ) ;
#676 = DIRECTION ( 'NONE',  ( 1.000000000000000000, -0.000000000000000000, -0.000000000000000000 ) ) ;
#677 = VERTEX_POINT ( 'NONE', #639 ) ;
#678 = DIRECTION ( 'NONE',  ( 1.000000000000000000, 0.000000000000000000, 0.000000000000000000 ) ) ;
#679 = EDGE_CURVE ( 'NONE', #140, #52, #581, .T. ) ;
#680 = ORIENTED_EDGE ( 'NONE', *, *, #173, .T. ) ;
#681 =( NAMED_UNIT ( * ) PLANE_ANGLE_UNIT ( ) SI_UNIT ( $, .RADIAN. ) );
#682 =( GEOMETRIC_REPRESENTATION_CONTEXT ( 3 ) GLOBAL_UNCERTAINTY_ASSIGNED_CONTEXT ( ( #48 ) ) GLOBAL_UNIT_ASSIGNED_CONTEXT ( ( #243, #477, #489 ) ) REPRESENTATION_CONTEXT ( 'NONE', 'WORKASPACE' ) );
#683 = CARTESIAN_POINT ( 'NONE',  ( -3.499999999999999556, -9.000000000000001776, 15.00000000000000000 ) ) ;
#684 = CIRCLE ( 'NONE', #456, 9.000000000000001776 ) ;
#685 = PLANE ( 'NONE',  #315 ) ;
#686 = AXIS2_PLACEMENT_3D ( 'NONE', #625, #160, #451 ) ;
#687 = ORIENTED_EDGE ( 'NONE', *, *, #758, .F. ) ;
#688 =( LENGTH_UNIT ( ) NAMED_UNIT ( * ) SI_UNIT ( .MILLI., .METRE. ) );
#689 = CARTESIAN_POINT ( 'NONE',  ( -2.000000000000015543, 6.123233995736772199E-17, -17.50000000000000000 ) ) ;
#690 = CYLINDRICAL_SURFACE ( 'NONE', #686, 10.00000000000000000 ) ;
#691 = ORIENTED_EDGE ( 'NONE', *, *, #578, .F. ) ;
#692 = ADVANCED_FACE ( 'NONE', ( #57 ), #750, .T. ) ;
#693 = SHAPE_DEFINITION_REPRESENTATION ( #731, #508 ) ;
#694 = DIRECTION ( 'NONE',  ( 1.000000000000000000, 0.000000000000000000, 0.000000000000000000 ) ) ;
#695 = ORIENTED_EDGE ( 'NONE', *, *, #294, .F. ) ;
#696 = EDGE_CURVE ( 'NONE', #95, #677, #684, .T. ) ;
#697 = DIRECTION ( 'NONE',  ( 0.000000000000000000, 0.000000000000000000, 1.000000000000000000 ) ) ;
#698 = EDGE_CURVE ( 'NONE', #580, #344, #4, .T. ) ;
#699 = CARTESIAN_POINT ( 'NONE',  ( -3.499999999999999556, 0.000000000000000000, 16.00000000000000000 ) ) ;
#700 = MECHANICAL_DESIGN_GEOMETRIC_PRESENTATION_REPRESENTATION (  '', ( #596 ), #340 ) ;
#701 = ORIENTED_EDGE ( 'NONE', *, *, #523, .T. ) ;
#702 = CIRCLE ( 'NONE', #505, 1.000000000000000888 ) ;
#703 = DIRECTION ( 'NONE',  ( 1.000000000000000000, -0.000000000000000000, 0.000000000000000000 ) ) ;
#704 = DIRECTION ( 'NONE',  ( -1.000000000000000000, -0.000000000000000000, -0.000000000000000000 ) ) ;
#705 = LINE ( 'NONE', #463, #544 ) ;
#706 = APPLICATION_CONTEXT ( 'automotive_design' ) ;
#707 = DIRECTION ( 'NONE',  ( 0.000000000000000000, -1.000000000000000000, 0.000000000000000000 ) ) ;
#708 = CARTESIAN_POINT ( 'NONE',  ( -17.99999999999999645, 0.000000000000000000, -18.00000000000000355 ) ) ;
#709 = EDGE_CURVE ( 'NONE', #464, #9, #18, .T. ) ;
#710 = DIRECTION ( 'NONE',  ( 0.000000000000000000, 0.000000000000000000, 1.000000000000000000 ) ) ;
#711 = ORIENTED_EDGE ( 'NONE', *, *, #472, .T. ) ;
#712 = DIRECTION ( 'NONE',  ( -0.000000000000000000, -0.000000000000000000, -1.000000000000000000 ) ) ;
#713 = CARTESIAN_POINT ( 'NONE',  ( 3.499999999999999556, 10.00000000000000000, 16.00000000000000000 ) ) ;
#714 = VECTOR ( 'NONE', #194, 1000.000000000000000 ) ;
#715 = DIRECTION ( 'NONE',  ( 1.000000000000000000, 0.000000000000000000, 0.000000000000000000 ) ) ;
#716 = VECTOR ( 'NONE', #317, 1000.000000000000000 ) ;
#717 = ORIENTED_EDGE ( 'NONE', *, *, #383, .F. ) ;
#718 = VECTOR ( 'NONE', #218, 1000.000000000000000 ) ;
#719 = CARTESIAN_POINT ( 'NONE',  ( 3.499999999999997780, -9.000000000000001776, 16.00000000000000000 ) ) ;
#720 = CIRCLE ( 'NONE', #389, 0.5000000000000004441 ) ;
#721 = DIRECTION ( 'NONE',  ( 0.000000000000000000, 0.000000000000000000, 1.000000000000000000 ) ) ;
#722 = DIRECTION ( 'NONE',  ( 8.673617379884027583E-16, 0.000000000000000000, -1.000000000000000000 ) ) ;
#723 = FACE_OUTER_BOUND ( 'NONE', #245, .T. ) ;
#724 = ORIENTED_EDGE ( 'NONE', *, *, #734, .T. ) ;
#725 = EDGE_CURVE ( 'NONE', #658, #9, #270, .T. ) ;
#726 = DIRECTION ( 'NONE',  ( 0.000000000000000000, 0.000000000000000000, 1.000000000000000000 ) ) ;
#727 = EDGE_CURVE ( 'NONE', #464, #488, #247, .T. ) ;
#728 = ORIENTED_EDGE ( 'NONE', *, *, #523, .F. ) ;
#729 = CARTESIAN_POINT ( 'NONE',  ( -3.499999999999999556, -9.000000000000001776, 15.00000000000000000 ) ) ;
#730 = AXIS2_PLACEMENT_3D ( 'NONE', #342, #278, #507 ) ;
#731 = PRODUCT_DEFINITION_SHAPE ( 'NONE', 'NONE',  #671 ) ;
#732 = CIRCLE ( 'NONE', #199, 10.00000000000000000 ) ;
#733 = DIRECTION ( 'NONE',  ( 1.000000000000000000, 0.000000000000000000, 0.000000000000000000 ) ) ;
#734 = EDGE_CURVE ( 'NONE', #452, #140, #252, .T. ) ;
#735 = ORIENTED_EDGE ( 'NONE', *, *, #372, .F. ) ;
#736 = DIRECTION ( 'NONE',  ( 1.000000000000000000, 0.000000000000000000, 0.000000000000000000 ) ) ;
#737 = ORIENTED_EDGE ( 'NONE', *, *, #554, .T. ) ;
#738 = CARTESIAN_POINT ( 'NONE',  ( 3.499999999999999556, 10.00000000000000000, 15.00000000000000000 ) ) ;
#739 = ORIENTED_EDGE ( 'NONE', *, *, #71, .F. ) ;
#740 = CARTESIAN_POINT ( 'NONE',  ( 3.499999999999999556, 10.00000000000000000, -15.00000000000000000 ) ) ;
#741 = DIRECTION ( 'NONE',  ( 0.000000000000000000, 0.000000000000000000, -1.000000000000000000 ) ) ;
#742 = AXIS2_PLACEMENT_3D ( 'NONE', #395, #149, #155 ) ;
#743 = AXIS2_PLACEMENT_3D ( 'NONE', #539, #661, #736 ) ;
#744 = ORIENTED_EDGE ( 'NONE', *, *, #665, .F. ) ;
#745 = EDGE_CURVE ( 'NONE', #603, #437, #190, .T. ) ;
#746 = LINE ( 'NONE', #490, #631 ) ;
#747 = VERTEX_POINT ( 'NONE', #740 ) ;
#748 = DIRECTION ( 'NONE',  ( 1.000000000000000000, 0.000000000000000000, 6.847592668329505996E-16 ) ) ;
#749 = VERTEX_POINT ( 'NONE', #72 ) ;
#750 = TOROIDAL_SURFACE ( 'NONE', #618, 9.000000000000001776, 1.000000000000000000 ) ;
#751 = CARTESIAN_POINT ( 'NONE',  ( 0.4999999999999997780, 0.000000000000000000, -16.00000000000000000 ) ) ;
#752 = AXIS2_PLACEMENT_3D ( 'NONE', #699, #757, #404 ) ;
#753 = ADVANCED_FACE ( 'NONE', ( #615 ), #535, .T. ) ;
#754 = CIRCLE ( 'NONE', #471, 9.000000000000001776 ) ;
#755 = ORIENTED_EDGE ( 'NONE', *, *, #725, .F. ) ;
#756 = CIRCLE ( 'NONE', #458, 1.000000000000000888 ) ;
#757 = DIRECTION ( 'NONE',  ( 0.000000000000000000, 0.000000000000000000, 1.000000000000000000 ) ) ;
#758 = EDGE_CURVE ( 'NONE', #9, #52, #312, .T. ) ;
#759 = ORIENTED_EDGE ( 'NONE', *, *, #698, .T. ) ;
#760 = CARTESIAN_POINT ( 'NONE',  ( -17.99999999999999645, 6.123233995736772199E-17, -17.50000000000000000 ) ) ;
#761 = FACE_OUTER_BOUND ( 'NONE', #257, .T. ) ;
#762 = ORIENTED_EDGE ( 'NONE', *, *, #85, .F. ) ;
#763 = CARTESIAN_POINT ( 'NONE',  ( -2.000000000000011990, 0.000000000000000000, 18.00000000000000355 ) ) ;
#764 = DIRECTION ( 'NONE',  ( 1.000000000000000000, -0.000000000000000000, -0.000000000000000000 ) ) ;
#765 = PRODUCT_DEFINITION_CONTEXT ( 'detailed design', #706, 'design' ) ;
#766 = AXIS2_PLACEMENT_3D ( 'NONE', #729, #15, #429 ) ;
#767 = AXIS2_PLACEMENT_3D ( 'NONE', #214, #282, #511 ) ;
#768 = CARTESIAN_POINT ( 'NONE',  ( -1.999999999999999556, 0.000000000000000000, 16.00000000000000355 ) ) ;
#769 = AXIS2_PLACEMENT_3D ( 'NONE', #549, #668, #672 ) ;
#770 = EDGE_LOOP ( 'NONE', ( #701, #180, #6, #755, #479 ) ) ;
#771 = CIRCLE ( 'NONE', #517, 2.499999999999998668 ) ;
#772 = DIRECTION ( 'NONE',  ( -1.000000000000000000, 0.000000000000000000, 0.000000000000000000 ) ) ;
#773 = ADVANCED_FACE ( 'NONE', ( #612 ), #141, .T. ) ;
#774 = DIRECTION ( 'NONE',  ( -1.000000000000000000, 0.000000000000000000, 0.000000000000000000 ) ) ;
#775 = DIRECTION ( 'NONE',  ( 0.000000000000000000, 0.000000000000000000, 1.000000000000000000 ) ) ;
#776 = CARTESIAN_POINT ( 'NONE',  ( 13.50000000000000178, 0.000000000000000000, 15.00000000000000000 ) ) ;
#777 = CARTESIAN_POINT ( 'NONE',  ( -3.499999999999999556, -10.00000000000000000, 16.00000000000000000 ) ) ;
#778 = DIRECTION ( 'NONE',  ( -1.000000000000000000, 0.000000000000000000, 0.000000000000000000 ) ) ;
#779 = FACE_BOUND ( 'NONE', #17, .T. ) ;
#780 = ORIENTED_EDGE ( 'NONE', *, *, #242, .F. ) ;
#781 = AXIS2_PLACEMENT_3D ( 'NONE', #60, #179, #240 ) ;
ENDSEC;
END-ISO-10303-21;
