ISO-10303-21;
HEADER;
FILE_DESCRIPTION (( 'STEP AP214' ),
    '1' );
FILE_NAME ('E70-900MT14S.STEP',
    '2026-07-15T02:17:15',
    ( '' ),
    ( '' ),
    'SwSTEP 2.0',
    'SolidWorks 2020',
    '' );
FILE_SCHEMA (( 'AUTOMOTIVE_DESIGN' ));
ENDSEC;

DATA;
#1 = ADVANCED_FACE ( 'NONE', ( #242 ), #113, .F. ) ;
#2 = LINE ( 'NONE', #102, #28 ) ;
#3 = DIRECTION ( 'NONE',  ( 0.000000000000000000, 0.000000000000000000, -1.000000000000000000 ) ) ;
#4 = EDGE_LOOP ( 'NONE', ( #7, #344, #34, #312 ) ) ;
#5 = CARTESIAN_POINT ( 'NONE',  ( -4.500000000000000000, 2.500000000000000000, 4.500000000000000000 ) ) ;
#6 = DIRECTION ( 'NONE',  ( 0.000000000000000000, 0.000000000000000000, 1.000000000000000000 ) ) ;
#7 = ORIENTED_EDGE ( 'NONE', *, *, #247, .T. ) ;
#8 = VECTOR ( 'NONE', #331, 1000.000000000000000 ) ;
#9 = LINE ( 'NONE', #112, #281 ) ;
#10 = VERTEX_POINT ( 'NONE', #147 ) ;
#11 = CARTESIAN_POINT ( 'NONE',  ( 5.000000000000000000, 0.000000000000000000, -5.000000000000000000 ) ) ;
#12 = EDGE_CURVE ( 'NONE', #160, #202, #62, .T. ) ;
#13 =( GEOMETRIC_REPRESENTATION_CONTEXT ( 3 ) GLOBAL_UNCERTAINTY_ASSIGNED_CONTEXT ( ( #31 ) ) GLOBAL_UNIT_ASSIGNED_CONTEXT ( ( #301, #105, #70 ) ) REPRESENTATION_CONTEXT ( 'NONE', 'WORKASPACE' ) );
#14 = PLANE ( 'NONE',  #67 ) ;
#15 = PLANE ( 'NONE',  #46 ) ;
#16 = PRODUCT_DEFINITION_CONTEXT ( 'detailed design', #310, 'design' ) ;
#17 = DIRECTION ( 'NONE',  ( 0.000000000000000000, -1.000000000000000000, 0.000000000000000000 ) ) ;
#18 = EDGE_CURVE ( 'NONE', #66, #55, #280, .T. ) ;
#19 = ORIENTED_EDGE ( 'NONE', *, *, #176, .F. ) ;
#20 = ORIENTED_EDGE ( 'NONE', *, *, #152, .F. ) ;
#21 = APPLICATION_PROTOCOL_DEFINITION ( 'draft international standard', 'automotive_design', 1998, #310 ) ;
#22 = AXIS2_PLACEMENT_3D ( 'NONE', #119, #171, #195 ) ;
#23 = FILL_AREA_STYLE ('',( #286 ) ) ;
#24 = VECTOR ( 'NONE', #59, 1000.000000000000000 ) ;
#25 = PRODUCT_DEFINITION ( '未知', '', #211, #16 ) ;
#26 = DIRECTION ( 'NONE',  ( -0.000000000000000000, -0.000000000000000000, -1.000000000000000000 ) ) ;
#27 = ORIENTED_EDGE ( 'NONE', *, *, #317, .T. ) ;
#28 = VECTOR ( 'NONE', #87, 1000.000000000000000 ) ;
#29 = DIRECTION ( 'NONE',  ( -0.000000000000000000, -1.000000000000000000, -0.000000000000000000 ) ) ;
#30 = ORIENTED_EDGE ( 'NONE', *, *, #48, .T. ) ;
#31 = UNCERTAINTY_MEASURE_WITH_UNIT (LENGTH_MEASURE( 1.000000000000000082E-05 ), #301, 'distance_accuracy_value', 'NONE');
#32 = DIRECTION ( 'NONE',  ( 0.000000000000000000, 0.000000000000000000, 1.000000000000000000 ) ) ;
#33 = CARTESIAN_POINT ( 'NONE',  ( 0.000000000000000000, 2.500000000000000000, 0.000000000000000000 ) ) ;
#34 = ORIENTED_EDGE ( 'NONE', *, *, #152, .T. ) ;
#35 = CARTESIAN_POINT ( 'NONE',  ( -5.000000000000000000, 1.000000000000000000, -5.000000000000000000 ) ) ;
#36 = VERTEX_POINT ( 'NONE', #93 ) ;
#37 = CARTESIAN_POINT ( 'NONE',  ( 5.000000000000000000, 1.000000000000000000, -5.000000000000000000 ) ) ;
#38 = FACE_OUTER_BOUND ( 'NONE', #257, .T. ) ;
#39 = EDGE_CURVE ( 'NONE', #187, #106, #306, .T. ) ;
#40 = DIRECTION ( 'NONE',  ( -0.000000000000000000, -1.000000000000000000, -0.000000000000000000 ) ) ;
#41 = PLANE ( 'NONE',  #307 ) ;
#42 = ADVANCED_FACE ( 'NONE', ( #175 ), #200, .F. ) ;
#43 = PLANE ( 'NONE',  #237 ) ;
#44 = ORIENTED_EDGE ( 'NONE', *, *, #99, .T. ) ;
#45 = VERTEX_POINT ( 'NONE', #220 ) ;
#46 = AXIS2_PLACEMENT_3D ( 'NONE', #117, #17, #172 ) ;
#47 = FACE_OUTER_BOUND ( 'NONE', #122, .T. ) ;
#48 = EDGE_CURVE ( 'NONE', #287, #103, #282, .T. ) ;
#49 = VECTOR ( 'NONE', #6, 1000.000000000000000 ) ;
#50 = VERTEX_POINT ( 'NONE', #260 ) ;
#51 = CARTESIAN_POINT ( 'NONE',  ( 4.500000000000000000, 1.000000000000000000, 4.500000000000000000 ) ) ;
#52 = DIRECTION ( 'NONE',  ( 0.000000000000000000, -1.000000000000000000, 0.000000000000000000 ) ) ;
#53 = ORIENTED_EDGE ( 'NONE', *, *, #126, .T. ) ;
#54 = DIRECTION ( 'NONE',  ( 0.000000000000000000, 0.000000000000000000, -1.000000000000000000 ) ) ;
#55 = VERTEX_POINT ( 'NONE', #253 ) ;
#56 = LINE ( 'NONE', #276, #292 ) ;
#57 = ORIENTED_EDGE ( 'NONE', *, *, #322, .F. ) ;
#58 = ADVANCED_FACE ( 'NONE', ( #284, #197 ), #15, .F. ) ;
#59 = DIRECTION ( 'NONE',  ( -0.000000000000000000, -1.000000000000000000, -0.000000000000000000 ) ) ;
#60 = LINE ( 'NONE', #135, #180 ) ;
#61 = CARTESIAN_POINT ( 'NONE',  ( 4.500000000000000000, 2.500000000000000000, -4.500000000000000000 ) ) ;
#62 = LINE ( 'NONE', #332, #170 ) ;
#63 = SURFACE_STYLE_USAGE ( .BOTH. , #224 ) ;
#64 = ADVANCED_FACE ( 'NONE', ( #196 ), #41, .F. ) ;
#65 = CARTESIAN_POINT ( 'NONE',  ( 4.500000000000000000, 2.500000000000000000, -4.500000000000000000 ) ) ;
#66 = VERTEX_POINT ( 'NONE', #226 ) ;
#67 = AXIS2_PLACEMENT_3D ( 'NONE', #221, #191, #144 ) ;
#68 = CARTESIAN_POINT ( 'NONE',  ( -5.000000000000000000, 1.000000000000000000, -5.000000000000000000 ) ) ;
#69 = ORIENTED_EDGE ( 'NONE', *, *, #262, .F. ) ;
#70 =( NAMED_UNIT ( * ) SI_UNIT ( $, .STERADIAN. ) SOLID_ANGLE_UNIT ( ) );
#71 = PRESENTATION_STYLE_ASSIGNMENT (( #203 ) ) ;
#72 = PRODUCT_CONTEXT ( 'NONE', #269, 'mechanical' ) ;
#73 = COLOUR_RGB ( '',0.3803921568627450789, 0.4784313725490195734, 0.7882352941176470340 ) ;
#74 = ADVANCED_FACE ( 'NONE', ( #47 ), #43, .F. ) ;
#75 = ORIENTED_EDGE ( 'NONE', *, *, #275, .F. ) ;
#76 = VECTOR ( 'NONE', #142, 1000.000000000000000 ) ;
#77 = FACE_OUTER_BOUND ( 'NONE', #334, .T. ) ;
#78 = ORIENTED_EDGE ( 'NONE', *, *, #258, .T. ) ;
#79 = MANIFOLD_SOLID_BREP ( '凸台-拉伸2', #194 ) ;
#80 = LINE ( 'NONE', #107, #133 ) ;
#81 = PLANE ( 'NONE',  #229 ) ;
#82 = ORIENTED_EDGE ( 'NONE', *, *, #161, .T. ) ;
#83 = DIRECTION ( 'NONE',  ( -0.000000000000000000, -1.000000000000000000, -0.000000000000000000 ) ) ;
#84 = DIRECTION ( 'NONE',  ( 1.000000000000000000, -0.000000000000000000, -0.000000000000000000 ) ) ;
#85 = ORIENTED_EDGE ( 'NONE', *, *, #161, .F. ) ;
#86 = EDGE_CURVE ( 'NONE', #274, #10, #80, .T. ) ;
#87 = DIRECTION ( 'NONE',  ( 0.000000000000000000, 0.000000000000000000, -1.000000000000000000 ) ) ;
#88 = DIRECTION ( 'NONE',  ( 1.000000000000000000, -0.000000000000000000, -0.000000000000000000 ) ) ;
#89 = CARTESIAN_POINT ( 'NONE',  ( 4.500000000000000000, 2.500000000000000000, -4.500000000000000000 ) ) ;
#90 = LINE ( 'NONE', #37, #8 ) ;
#91 = DIRECTION ( 'NONE',  ( -1.000000000000000000, 0.000000000000000000, -0.000000000000000000 ) ) ;
#92 = LINE ( 'NONE', #164, #263 ) ;
#93 = CARTESIAN_POINT ( 'NONE',  ( -5.000000000000000000, 0.000000000000000000, 5.000000000000000000 ) ) ;
#94 = EDGE_LOOP ( 'NONE', ( #213, #256, #199, #245 ) ) ;
#95 = SURFACE_SIDE_STYLE ('',( #124 ) ) ;
#96 = FILL_AREA_STYLE_COLOUR ( '', #294 ) ;
#97 = VECTOR ( 'NONE', #26, 1000.000000000000000 ) ;
#98 = PRESENTATION_STYLE_ASSIGNMENT (( #63 ) ) ;
#99 = EDGE_CURVE ( 'NONE', #106, #36, #295, .T. ) ;
#100 = VECTOR ( 'NONE', #154, 1000.000000000000000 ) ;
#101 = ORIENTED_EDGE ( 'NONE', *, *, #258, .F. ) ;
#102 = CARTESIAN_POINT ( 'NONE',  ( 4.500000000000000000, 1.000000000000000000, 0.000000000000000000 ) ) ;
#103 = VERTEX_POINT ( 'NONE', #51 ) ;
#104 = CARTESIAN_POINT ( 'NONE',  ( -4.500000000000000000, 2.500000000000000000, -4.500000000000000000 ) ) ;
#105 =( NAMED_UNIT ( * ) PLANE_ANGLE_UNIT ( ) SI_UNIT ( $, .RADIAN. ) );
#106 = VERTEX_POINT ( 'NONE', #145 ) ;
#107 = CARTESIAN_POINT ( 'NONE',  ( 5.000000000000000000, 0.000000000000000000, -5.000000000000000000 ) ) ;
#108 = EDGE_CURVE ( 'NONE', #167, #287, #60, .T. ) ;
#109 = CARTESIAN_POINT ( 'NONE',  ( 5.000000000000000000, 1.000000000000000000, 5.000000000000000000 ) ) ;
#110 = EDGE_LOOP ( 'NONE', ( #143, #85, #57, #44 ) ) ;
#111 = VECTOR ( 'NONE', #329, 1000.000000000000000 ) ;
#112 = CARTESIAN_POINT ( 'NONE',  ( 5.000000000000000000, 1.000000000000000000, -5.000000000000000000 ) ) ;
#113 = PLANE ( 'NONE',  #267 ) ;
#114 = LINE ( 'NONE', #61, #209 ) ;
#115 =( NAMED_UNIT ( * ) PLANE_ANGLE_UNIT ( ) SI_UNIT ( $, .RADIAN. ) );
#116 = LINE ( 'NONE', #193, #155 ) ;
#117 = CARTESIAN_POINT ( 'NONE',  ( 0.000000000000000000, 1.000000000000000000, 0.000000000000000000 ) ) ;
#118 = AXIS2_PLACEMENT_3D ( 'NONE', #149, #174, #91 ) ;
#119 = CARTESIAN_POINT ( 'NONE',  ( 0.000000000000000000, 0.000000000000000000, 0.000000000000000000 ) ) ;
#120 = ORIENTED_EDGE ( 'NONE', *, *, #39, .F. ) ;
#121 = DIRECTION ( 'NONE',  ( 1.000000000000000000, 0.000000000000000000, 0.000000000000000000 ) ) ;
#122 = EDGE_LOOP ( 'NONE', ( #227, #141, #323, #150 ) ) ;
#123 = DIRECTION ( 'NONE',  ( 0.000000000000000000, 0.000000000000000000, 1.000000000000000000 ) ) ;
#124 = SURFACE_STYLE_FILL_AREA ( #338 ) ;
#125 = ADVANCED_BREP_SHAPE_REPRESENTATION ( 'E70-900MT14S', ( #79, #264 ), #13 ) ;
#126 = EDGE_CURVE ( 'NONE', #103, #160, #2, .T. ) ;
#127 = CARTESIAN_POINT ( 'NONE',  ( -5.000000000000000000, 1.000000000000000000, -5.000000000000000000 ) ) ;
#128 = EDGE_CURVE ( 'NONE', #131, #103, #169, .T. ) ;
#129 =( NAMED_UNIT ( * ) PLANE_ANGLE_UNIT ( ) SI_UNIT ( $, .RADIAN. ) );
#130 = ADVANCED_FACE ( 'NONE', ( #38 ), #218, .F. ) ;
#131 = VERTEX_POINT ( 'NONE', #212 ) ;
#132 = DIRECTION ( 'NONE',  ( -0.000000000000000000, -1.000000000000000000, -0.000000000000000000 ) ) ;
#133 = VECTOR ( 'NONE', #304, 1000.000000000000000 ) ;
#134 = ORIENTED_EDGE ( 'NONE', *, *, #198, .F. ) ;
#135 = CARTESIAN_POINT ( 'NONE',  ( 4.500000000000000000, 2.500000000000000000, 4.500000000000000000 ) ) ;
#136 = CARTESIAN_POINT ( 'NONE',  ( -5.000000000000000000, 0.000000000000000000, -5.000000000000000000 ) ) ;
#137 = ORIENTED_EDGE ( 'NONE', *, *, #99, .F. ) ;
#138 = ADVANCED_FACE ( 'NONE', ( #77 ), #163, .F. ) ;
#139 = CARTESIAN_POINT ( 'NONE',  ( -4.500000000000000000, 2.500000000000000000, 4.500000000000000000 ) ) ;
#140 = PLANE ( 'NONE',  #201 ) ;
#141 = ORIENTED_EDGE ( 'NONE', *, *, #12, .T. ) ;
#142 = DIRECTION ( 'NONE',  ( -0.000000000000000000, -1.000000000000000000, -0.000000000000000000 ) ) ;
#143 = ORIENTED_EDGE ( 'NONE', *, *, #262, .T. ) ;
#144 = DIRECTION ( 'NONE',  ( 0.000000000000000000, 0.000000000000000000, 1.000000000000000000 ) ) ;
#145 = CARTESIAN_POINT ( 'NONE',  ( -5.000000000000000000, 1.000000000000000000, 5.000000000000000000 ) ) ;
#146 = CARTESIAN_POINT ( 'NONE',  ( -4.500000000000000000, 2.500000000000000000, -4.500000000000000000 ) ) ;
#147 = CARTESIAN_POINT ( 'NONE',  ( 5.000000000000000000, 0.000000000000000000, -5.000000000000000000 ) ) ;
#148 = STYLED_ITEM ( 'NONE', ( #71 ), #125 ) ;
#149 = CARTESIAN_POINT ( 'NONE',  ( 5.000000000000000000, 1.000000000000000000, 5.000000000000000000 ) ) ;
#150 = ORIENTED_EDGE ( 'NONE', *, *, #18, .F. ) ;
#151 = DIRECTION ( 'NONE',  ( 1.000000000000000000, 0.000000000000000000, 0.000000000000000000 ) ) ;
#152 = EDGE_CURVE ( 'NONE', #287, #66, #268, .T. ) ;
#153 = EDGE_LOOP ( 'NONE', ( #217, #277, #179, #225 ) ) ;
#154 = DIRECTION ( 'NONE',  ( -0.000000000000000000, -1.000000000000000000, -0.000000000000000000 ) ) ;
#155 = VECTOR ( 'NONE', #88, 1000.000000000000000 ) ;
#156 = ORIENTED_EDGE ( 'NONE', *, *, #235, .F. ) ;
#157 = DIRECTION ( 'NONE',  ( 1.000000000000000000, 0.000000000000000000, 0.000000000000000000 ) ) ;
#158 = FACE_OUTER_BOUND ( 'NONE', #153, .T. ) ;
#159 = VECTOR ( 'NONE', #335, 1000.000000000000000 ) ;
#160 = VERTEX_POINT ( 'NONE', #326 ) ;
#161 = EDGE_CURVE ( 'NONE', #50, #274, #166, .T. ) ;
#162 = UNCERTAINTY_MEASURE_WITH_UNIT (LENGTH_MEASURE( 1.000000000000000082E-05 ), #255, 'distance_accuracy_value', 'NONE');
#163 = PLANE ( 'NONE',  #251 ) ;
#164 = CARTESIAN_POINT ( 'NONE',  ( -4.500000000000000000, 1.000000000000000000, 0.000000000000000000 ) ) ;
#165 = ORIENTED_EDGE ( 'NONE', *, *, #291, .T. ) ;
#166 = LINE ( 'NONE', #272, #173 ) ;
#167 = VERTEX_POINT ( 'NONE', #139 ) ;
#168 = LINE ( 'NONE', #146, #24 ) ;
#169 = LINE ( 'NONE', #185, #181 ) ;
#170 = VECTOR ( 'NONE', #178, 1000.000000000000000 ) ;
#171 = DIRECTION ( 'NONE',  ( 0.000000000000000000, -1.000000000000000000, 0.000000000000000000 ) ) ;
#172 = DIRECTION ( 'NONE',  ( 0.000000000000000000, -0.000000000000000000, -1.000000000000000000 ) ) ;
#173 = VECTOR ( 'NONE', #29, 1000.000000000000000 ) ;
#174 = DIRECTION ( 'NONE',  ( 0.000000000000000000, 0.000000000000000000, -1.000000000000000000 ) ) ;
#175 = FACE_OUTER_BOUND ( 'NONE', #110, .T. ) ;
#176 = EDGE_CURVE ( 'NONE', #167, #131, #243, .T. ) ;
#177 = ORIENTED_EDGE ( 'NONE', *, *, #291, .F. ) ;
#178 = DIRECTION ( 'NONE',  ( -1.000000000000000000, 0.000000000000000000, 0.000000000000000000 ) ) ;
#179 = ORIENTED_EDGE ( 'NONE', *, *, #48, .F. ) ;
#180 = VECTOR ( 'NONE', #240, 1000.000000000000000 ) ;
#181 = VECTOR ( 'NONE', #214, 1000.000000000000000 ) ;
#182 = ORIENTED_EDGE ( 'NONE', *, *, #86, .T. ) ;
#183 = EDGE_CURVE ( 'NONE', #45, #187, #56, .T. ) ;
#184 = ORIENTED_EDGE ( 'NONE', *, *, #223, .F. ) ;
#185 = CARTESIAN_POINT ( 'NONE',  ( 0.000000000000000000, 1.000000000000000000, 4.500000000000000000 ) ) ;
#186 = LINE ( 'NONE', #241, #49 ) ;
#187 = VERTEX_POINT ( 'NONE', #300 ) ;
#188 = DIRECTION ( 'NONE',  ( -0.000000000000000000, -1.000000000000000000, -0.000000000000000000 ) ) ;
#189 = CARTESIAN_POINT ( 'NONE',  ( 4.500000000000000000, 2.500000000000000000, 4.500000000000000000 ) ) ;
#190 = EDGE_LOOP ( 'NONE', ( #27, #137, #120, #266 ) ) ;
#191 = DIRECTION ( 'NONE',  ( -1.000000000000000000, 0.000000000000000000, 0.000000000000000000 ) ) ;
#192 = CARTESIAN_POINT ( 'NONE',  ( -4.500000000000000000, 1.000000000000000000, -4.500000000000000000 ) ) ;
#193 = CARTESIAN_POINT ( 'NONE',  ( 5.000000000000000000, 0.000000000000000000, 5.000000000000000000 ) ) ;
#194 = CLOSED_SHELL ( 'NONE', ( #58, #64, #42, #288, #1, #231, #130, #336, #138, #74, #299 ) ) ;
#195 = DIRECTION ( 'NONE',  ( 0.000000000000000000, -0.000000000000000000, -1.000000000000000000 ) ) ;
#196 = FACE_OUTER_BOUND ( 'NONE', #190, .T. ) ;
#197 = FACE_BOUND ( 'NONE', #236, .T. ) ;
#198 = EDGE_CURVE ( 'NONE', #187, #293, #343, .T. ) ;
#199 = ORIENTED_EDGE ( 'NONE', *, *, #275, .T. ) ;
#200 = PLANE ( 'NONE',  #118 ) ;
#201 = AXIS2_PLACEMENT_3D ( 'NONE', #33, #52, #327 ) ;
#202 = VERTEX_POINT ( 'NONE', #192 ) ;
#203 = SURFACE_STYLE_USAGE ( .BOTH. , #95 ) ;
#204 = PRODUCT ( 'E70-900MT14S', 'E70-900MT14S', '', ( #72 ) ) ;
#205 = SHAPE_DEFINITION_REPRESENTATION ( #232, #125 ) ;
#206 = MECHANICAL_DESIGN_GEOMETRIC_PRESENTATION_REPRESENTATION (  '', ( #148 ), #261 ) ;
#207 = DIRECTION ( 'NONE',  ( 0.000000000000000000, -0.000000000000000000, 1.000000000000000000 ) ) ;
#208 = PLANE ( 'NONE',  #22 ) ;
#209 = VECTOR ( 'NONE', #40, 1000.000000000000000 ) ;
#210 = ORIENTED_EDGE ( 'NONE', *, *, #254, .T. ) ;
#211 = PRODUCT_DEFINITION_FORMATION_WITH_SPECIFIED_SOURCE ( '任何', '', #204, .NOT_KNOWN. ) ;
#212 = CARTESIAN_POINT ( 'NONE',  ( -4.500000000000000000, 1.000000000000000000, 4.500000000000000000 ) ) ;
#213 = ORIENTED_EDGE ( 'NONE', *, *, #39, .T. ) ;
#214 = DIRECTION ( 'NONE',  ( 1.000000000000000000, 0.000000000000000000, 0.000000000000000000 ) ) ;
#215 = VECTOR ( 'NONE', #84, 1000.000000000000000 ) ;
#216 = DIRECTION ( 'NONE',  ( -0.000000000000000000, 0.000000000000000000, 1.000000000000000000 ) ) ;
#217 = ORIENTED_EDGE ( 'NONE', *, *, #176, .T. ) ;
#218 = PLANE ( 'NONE',  #309 ) ;
#219 = CARTESIAN_POINT ( 'NONE',  ( 4.500000000000000000, 2.500000000000000000, 4.500000000000000000 ) ) ;
#220 = CARTESIAN_POINT ( 'NONE',  ( 5.000000000000000000, 1.000000000000000000, -5.000000000000000000 ) ) ;
#221 = CARTESIAN_POINT ( 'NONE',  ( 5.000000000000000000, 1.000000000000000000, -5.000000000000000000 ) ) ;
#222 = DIRECTION ( 'NONE',  ( 1.000000000000000000, 0.000000000000000000, -0.000000000000000000 ) ) ;
#223 = EDGE_CURVE ( 'NONE', #45, #10, #9, .T. ) ;
#224 = SURFACE_SIDE_STYLE ('',( #308 ) ) ;
#225 = ORIENTED_EDGE ( 'NONE', *, *, #108, .F. ) ;
#226 = CARTESIAN_POINT ( 'NONE',  ( 4.500000000000000000, 2.500000000000000000, -4.500000000000000000 ) ) ;
#227 = ORIENTED_EDGE ( 'NONE', *, *, #235, .T. ) ;
#228 =( NAMED_UNIT ( * ) SI_UNIT ( $, .STERADIAN. ) SOLID_ANGLE_UNIT ( ) );
#229 = AXIS2_PLACEMENT_3D ( 'NONE', #189, #3, #270 ) ;
#230 = CARTESIAN_POINT ( 'NONE',  ( 0.000000000000000000, 0.000000000000000000, 0.000000000000000000 ) ) ;
#231 = ADVANCED_FACE ( 'NONE', ( #238 ), #208, .T. ) ;
#232 = PRODUCT_DEFINITION_SHAPE ( 'NONE', 'NONE',  #25 ) ;
#233 = VECTOR ( 'NONE', #188, 1000.000000000000000 ) ;
#234 = DIRECTION ( 'NONE',  ( 0.000000000000000000, -0.000000000000000000, 1.000000000000000000 ) ) ;
#235 = EDGE_CURVE ( 'NONE', #66, #160, #114, .T. ) ;
#236 = EDGE_LOOP ( 'NONE', ( #177, #296, #298, #318 ) ) ;
#237 = AXIS2_PLACEMENT_3D ( 'NONE', #89, #234, #222 ) ;
#238 = FACE_OUTER_BOUND ( 'NONE', #320, .T. ) ;
#239 = ORIENTED_EDGE ( 'NONE', *, *, #247, .F. ) ;
#240 = DIRECTION ( 'NONE',  ( 1.000000000000000000, -0.000000000000000000, -0.000000000000000000 ) ) ;
#241 = CARTESIAN_POINT ( 'NONE',  ( -5.000000000000000000, 0.000000000000000000, -5.000000000000000000 ) ) ;
#242 = FACE_OUTER_BOUND ( 'NONE', #302, .T. ) ;
#243 = LINE ( 'NONE', #5, #233 ) ;
#244 = FACE_OUTER_BOUND ( 'NONE', #4, .T. ) ;
#245 = ORIENTED_EDGE ( 'NONE', *, *, #183, .T. ) ;
#246 =( NAMED_UNIT ( * ) SI_UNIT ( $, .STERADIAN. ) SOLID_ANGLE_UNIT ( ) );
#247 = EDGE_CURVE ( 'NONE', #55, #167, #279, .T. ) ;
#248 = ORIENTED_EDGE ( 'NONE', *, *, #86, .F. ) ;
#249 = DIRECTION ( 'NONE',  ( 0.000000000000000000, 0.000000000000000000, 1.000000000000000000 ) ) ;
#250 = DIRECTION ( 'NONE',  ( -1.000000000000000000, 0.000000000000000000, 0.000000000000000000 ) ) ;
#251 = AXIS2_PLACEMENT_3D ( 'NONE', #321, #250, #32 ) ;
#252 = CARTESIAN_POINT ( 'NONE',  ( 5.000000000000000000, 0.000000000000000000, 5.000000000000000000 ) ) ;
#253 = CARTESIAN_POINT ( 'NONE',  ( -4.500000000000000000, 2.500000000000000000, -4.500000000000000000 ) ) ;
#254 = EDGE_CURVE ( 'NONE', #55, #202, #168, .T. ) ;
#255 =( LENGTH_UNIT ( ) NAMED_UNIT ( * ) SI_UNIT ( .MILLI., .METRE. ) );
#256 = ORIENTED_EDGE ( 'NONE', *, *, #322, .T. ) ;
#257 = EDGE_LOOP ( 'NONE', ( #210, #165, #19, #239 ) ) ;
#258 = EDGE_CURVE ( 'NONE', #10, #293, #278, .T. ) ;
#259 = VECTOR ( 'NONE', #339, 1000.000000000000000 ) ;
#260 = CARTESIAN_POINT ( 'NONE',  ( 5.000000000000000000, 1.000000000000000000, 5.000000000000000000 ) ) ;
#261 =( GEOMETRIC_REPRESENTATION_CONTEXT ( 3 ) GLOBAL_UNCERTAINTY_ASSIGNED_CONTEXT ( ( #324 ) ) GLOBAL_UNIT_ASSIGNED_CONTEXT ( ( #290, #129, #228 ) ) REPRESENTATION_CONTEXT ( 'NONE', 'WORKASPACE' ) );
#262 = EDGE_CURVE ( 'NONE', #36, #274, #116, .T. ) ;
#263 = VECTOR ( 'NONE', #216, 1000.000000000000000 ) ;
#264 = AXIS2_PLACEMENT_3D ( 'NONE', #230, #123, #151 ) ;
#265 = CARTESIAN_POINT ( 'NONE',  ( 4.500000000000000000, 2.500000000000000000, -4.500000000000000000 ) ) ;
#266 = ORIENTED_EDGE ( 'NONE', *, *, #198, .T. ) ;
#267 = AXIS2_PLACEMENT_3D ( 'NONE', #341, #207, #330 ) ;
#268 = LINE ( 'NONE', #265, #97 ) ;
#269 = APPLICATION_CONTEXT ( 'automotive_design' ) ;
#270 = DIRECTION ( 'NONE',  ( -1.000000000000000000, 0.000000000000000000, -0.000000000000000000 ) ) ;
#271 = EDGE_LOOP ( 'NONE', ( #182, #184, #75, #82 ) ) ;
#272 = CARTESIAN_POINT ( 'NONE',  ( 5.000000000000000000, 1.000000000000000000, 5.000000000000000000 ) ) ;
#273 = LINE ( 'NONE', #109, #215 ) ;
#274 = VERTEX_POINT ( 'NONE', #252 ) ;
#275 = EDGE_CURVE ( 'NONE', #50, #45, #90, .T. ) ;
#276 = CARTESIAN_POINT ( 'NONE',  ( 5.000000000000000000, 1.000000000000000000, -5.000000000000000000 ) ) ;
#277 = ORIENTED_EDGE ( 'NONE', *, *, #128, .T. ) ;
#278 = LINE ( 'NONE', #11, #111 ) ;
#279 = LINE ( 'NONE', #303, #325 ) ;
#280 = LINE ( 'NONE', #65, #159 ) ;
#281 = VECTOR ( 'NONE', #132, 1000.000000000000000 ) ;
#282 = LINE ( 'NONE', #311, #100 ) ;
#283 = PRESENTATION_LAYER_ASSIGNMENT (  '', '', ( #148 ) ) ;
#284 = FACE_OUTER_BOUND ( 'NONE', #94, .T. ) ;
#285 = ORIENTED_EDGE ( 'NONE', *, *, #317, .F. ) ;
#286 = FILL_AREA_STYLE_COLOUR ( '', #73 ) ;
#287 = VERTEX_POINT ( 'NONE', #219 ) ;
#288 = ADVANCED_FACE ( 'NONE', ( #305 ), #14, .F. ) ;
#289 =( GEOMETRIC_REPRESENTATION_CONTEXT ( 3 ) GLOBAL_UNCERTAINTY_ASSIGNED_CONTEXT ( ( #162 ) ) GLOBAL_UNIT_ASSIGNED_CONTEXT ( ( #255, #115, #246 ) ) REPRESENTATION_CONTEXT ( 'NONE', 'WORKASPACE' ) );
#290 =( LENGTH_UNIT ( ) NAMED_UNIT ( * ) SI_UNIT ( .MILLI., .METRE. ) );
#291 = EDGE_CURVE ( 'NONE', #202, #131, #92, .T. ) ;
#292 = VECTOR ( 'NONE', #319, 1000.000000000000000 ) ;
#293 = VERTEX_POINT ( 'NONE', #136 ) ;
#294 = COLOUR_RGB ( '',1.000000000000000000, 1.000000000000000000, 1.000000000000000000 ) ;
#295 = LINE ( 'NONE', #297, #333 ) ;
#296 = ORIENTED_EDGE ( 'NONE', *, *, #12, .F. ) ;
#297 = CARTESIAN_POINT ( 'NONE',  ( -5.000000000000000000, 1.000000000000000000, 5.000000000000000000 ) ) ;
#298 = ORIENTED_EDGE ( 'NONE', *, *, #126, .F. ) ;
#299 = ADVANCED_FACE ( 'NONE', ( #244 ), #140, .F. ) ;
#300 = CARTESIAN_POINT ( 'NONE',  ( -5.000000000000000000, 1.000000000000000000, -5.000000000000000000 ) ) ;
#301 =( LENGTH_UNIT ( ) NAMED_UNIT ( * ) SI_UNIT ( .MILLI., .METRE. ) );
#302 = EDGE_LOOP ( 'NONE', ( #78, #134, #337, #328 ) ) ;
#303 = CARTESIAN_POINT ( 'NONE',  ( -4.500000000000000000, 2.500000000000000000, -4.500000000000000000 ) ) ;
#304 = DIRECTION ( 'NONE',  ( -0.000000000000000000, -0.000000000000000000, -1.000000000000000000 ) ) ;
#305 = FACE_OUTER_BOUND ( 'NONE', #271, .T. ) ;
#306 = LINE ( 'NONE', #127, #259 ) ;
#307 = AXIS2_PLACEMENT_3D ( 'NONE', #68, #121, #313 ) ;
#308 = SURFACE_STYLE_FILL_AREA ( #23 ) ;
#309 = AXIS2_PLACEMENT_3D ( 'NONE', #104, #157, #54 ) ;
#310 = APPLICATION_CONTEXT ( 'automotive_design' ) ;
#311 = CARTESIAN_POINT ( 'NONE',  ( 4.500000000000000000, 2.500000000000000000, 4.500000000000000000 ) ) ;
#312 = ORIENTED_EDGE ( 'NONE', *, *, #18, .T. ) ;
#313 = DIRECTION ( 'NONE',  ( 0.000000000000000000, 0.000000000000000000, -1.000000000000000000 ) ) ;
#314 = APPLICATION_PROTOCOL_DEFINITION ( 'draft international standard', 'automotive_design', 1998, #269 ) ;
#315 = PRESENTATION_LAYER_ASSIGNMENT (  '', '', ( #342 ) ) ;
#316 = MECHANICAL_DESIGN_GEOMETRIC_PRESENTATION_REPRESENTATION (  '', ( #342 ), #289 ) ;
#317 = EDGE_CURVE ( 'NONE', #293, #36, #186, .T. ) ;
#318 = ORIENTED_EDGE ( 'NONE', *, *, #128, .F. ) ;
#319 = DIRECTION ( 'NONE',  ( -1.000000000000000000, 0.000000000000000000, 0.000000000000000000 ) ) ;
#320 = EDGE_LOOP ( 'NONE', ( #285, #101, #248, #69 ) ) ;
#321 = CARTESIAN_POINT ( 'NONE',  ( 4.500000000000000000, 2.500000000000000000, -4.500000000000000000 ) ) ;
#322 = EDGE_CURVE ( 'NONE', #106, #50, #273, .T. ) ;
#323 = ORIENTED_EDGE ( 'NONE', *, *, #254, .F. ) ;
#324 = UNCERTAINTY_MEASURE_WITH_UNIT (LENGTH_MEASURE( 1.000000000000000082E-05 ), #290, 'distance_accuracy_value', 'NONE');
#325 = VECTOR ( 'NONE', #249, 1000.000000000000000 ) ;
#326 = CARTESIAN_POINT ( 'NONE',  ( 4.500000000000000000, 1.000000000000000000, -4.500000000000000000 ) ) ;
#327 = DIRECTION ( 'NONE',  ( 0.000000000000000000, -0.000000000000000000, -1.000000000000000000 ) ) ;
#328 = ORIENTED_EDGE ( 'NONE', *, *, #223, .T. ) ;
#329 = DIRECTION ( 'NONE',  ( -1.000000000000000000, 0.000000000000000000, 0.000000000000000000 ) ) ;
#330 = DIRECTION ( 'NONE',  ( 1.000000000000000000, 0.000000000000000000, -0.000000000000000000 ) ) ;
#331 = DIRECTION ( 'NONE',  ( -0.000000000000000000, -0.000000000000000000, -1.000000000000000000 ) ) ;
#332 = CARTESIAN_POINT ( 'NONE',  ( 0.000000000000000000, 1.000000000000000000, -4.500000000000000000 ) ) ;
#333 = VECTOR ( 'NONE', #83, 1000.000000000000000 ) ;
#334 = EDGE_LOOP ( 'NONE', ( #30, #53, #156, #20 ) ) ;
#335 = DIRECTION ( 'NONE',  ( -1.000000000000000000, 0.000000000000000000, 0.000000000000000000 ) ) ;
#336 = ADVANCED_FACE ( 'NONE', ( #158 ), #81, .F. ) ;
#337 = ORIENTED_EDGE ( 'NONE', *, *, #183, .F. ) ;
#338 = FILL_AREA_STYLE ('',( #96 ) ) ;
#339 = DIRECTION ( 'NONE',  ( 0.000000000000000000, 0.000000000000000000, 1.000000000000000000 ) ) ;
#340 = PRODUCT_RELATED_PRODUCT_CATEGORY ( 'part', '', ( #204 ) ) ;
#341 = CARTESIAN_POINT ( 'NONE',  ( 5.000000000000000000, 1.000000000000000000, -5.000000000000000000 ) ) ;
#342 = STYLED_ITEM ( 'NONE', ( #98 ), #79 ) ;
#343 = LINE ( 'NONE', #35, #76 ) ;
#344 = ORIENTED_EDGE ( 'NONE', *, *, #108, .T. ) ;
ENDSEC;
END-ISO-10303-21;
