ISO-10303-21;
HEADER;
FILE_DESCRIPTION (( 'STEP AP214' ),
    '1' );
FILE_NAME ('电阻A.STEP',
    '2026-06-03T09:19:26',
    ( '' ),
    ( '' ),
    'SwSTEP 2.0',
    'SolidWorks 2022',
    '' );
FILE_SCHEMA (( 'AUTOMOTIVE_DESIGN' ));
ENDSEC;

DATA;
#1 = DIRECTION ( 'NONE',  ( 0.000000000000000000, 0.000000000000000000, -1.000000000000000000 ) ) ;
#2 = EDGE_CURVE ( 'NONE', #164, #20, #442, .T. ) ;
#3 = SURFACE_SIDE_STYLE ('',( #506 ) ) ;
#4 = DIRECTION ( 'NONE',  ( 0.000000000000000000, -0.000000000000000000, 1.000000000000000000 ) ) ;
#5 = DIRECTION ( 'NONE',  ( 0.000000000000000000, 2.191229653865440499E-15, -1.000000000000000000 ) ) ;
#6 = DIRECTION ( 'NONE',  ( 1.000000000000000000, -0.000000000000000000, 1.224646799147353207E-16 ) ) ;
#7 = CARTESIAN_POINT ( 'NONE',  ( 6.123233995736759873E-17, -15.49999999999998579, 0.4999999999999896194 ) ) ;
#8 = AXIS2_PLACEMENT_3D ( 'NONE', #527, #111, #434 ) ;
#9 = CARTESIAN_POINT ( 'NONE',  ( 0.000000000000000000, 17.00000000000000000, 6.499999999999997335 ) ) ;
#10 = AXIS2_PLACEMENT_3D ( 'NONE', #557, #264, #44 ) ;
#11 = DIRECTION ( 'NONE',  ( 0.000000000000000000, -1.387778780781448831E-15, -1.000000000000000000 ) ) ;
#12 = CIRCLE ( 'NONE', #341, 0.5000000000000004441 ) ;
#13 = ADVANCED_FACE ( 'NONE', ( #224, #407 ), #604, .T. ) ;
#14 = DIRECTION ( 'NONE',  ( 0.000000000000000000, 1.278217298088178423E-15, 1.000000000000000000 ) ) ;
#15 = CYLINDRICAL_SURFACE ( 'NONE', #163, 0.5000000000000004441 ) ;
#16 = LINE ( 'NONE', #510, #149 ) ;
#17 = ORIENTED_EDGE ( 'NONE', *, *, #542, .F. ) ;
#18 = DIRECTION ( 'NONE',  ( 0.000000000000000000, -1.000000000000000000, -2.168404344971006896E-15 ) ) ;
#19 = AXIS2_PLACEMENT_3D ( 'NONE', #548, #449, #599 ) ;
#20 = VERTEX_POINT ( 'NONE', #418 ) ;
#21 = CIRCLE ( 'NONE', #596, 0.5000000000000004441 ) ;
#22 = CIRCLE ( 'NONE', #276, 0.5000000000000004441 ) ;
#23 = DIRECTION ( 'NONE',  ( 0.000000000000000000, 1.278217298088178423E-15, 1.000000000000000000 ) ) ;
#24 = ORIENTED_EDGE ( 'NONE', *, *, #503, .F. ) ;
#25 = DIRECTION ( 'NONE',  ( 0.000000000000000000, -1.000000000000000000, 1.278217298088178423E-15 ) ) ;
#26 = EDGE_LOOP ( 'NONE', ( #543, #50, #387, #218 ) ) ;
#27 = DIRECTION ( 'NONE',  ( 0.000000000000000000, -2.081668171172170485E-15, 1.000000000000000000 ) ) ;
#28 = LINE ( 'NONE', #106, #46 ) ;
#29 = CLOSED_SHELL ( 'NONE', ( #401, #509, #59, #388, #601, #258, #408, #255, #168, #310, #13, #494, #212, #382, #95, #237, #427, #232, #395, #361, #121, #171 ) ) ;
#30 = EDGE_LOOP ( 'NONE', ( #297, #178, #102, #308 ) ) ;
#31 = CIRCLE ( 'NONE', #313, 0.5000000000000000000 ) ;
#32 = CARTESIAN_POINT ( 'NONE',  ( 6.123233995736801781E-17, 16.49999999999999289, 1.500000000000010658 ) ) ;
#33 = ORIENTED_EDGE ( 'NONE', *, *, #69, .T. ) ;
#34 = DIRECTION ( 'NONE',  ( -1.000000000000000000, -0.000000000000000000, 0.000000000000000000 ) ) ;
#35 = VERTEX_POINT ( 'NONE', #466 ) ;
#36 = DIRECTION ( 'NONE',  ( 0.000000000000000000, 1.000000000000000000, 4.157231824801086726E-16 ) ) ;
#37 = AXIS2_PLACEMENT_3D ( 'NONE', #366, #93, #195 ) ;
#38 = VERTEX_POINT ( 'NONE', #459 ) ;
#39 = AXIS2_PLACEMENT_3D ( 'NONE', #587, #166, #343 ) ;
#40 = DIRECTION ( 'NONE',  ( 1.224646799147351482E-16, 0.000000000000000000, -1.000000000000000000 ) ) ;
#41 = ORIENTED_EDGE ( 'NONE', *, *, #274, .T. ) ;
#42 = ORIENTED_EDGE ( 'NONE', *, *, #474, .T. ) ;
#43 = DIRECTION ( 'NONE',  ( 0.000000000000000000, 1.278217298088178423E-15, 1.000000000000000000 ) ) ;
#44 = DIRECTION ( 'NONE',  ( 0.000000000000000000, 0.000000000000000000, 1.000000000000000000 ) ) ;
#45 = EDGE_CURVE ( 'NONE', #70, #35, #16, .T. ) ;
#46 = VECTOR ( 'NONE', #284, 1000.000000000000000 ) ;
#47 = AXIS2_PLACEMENT_3D ( 'NONE', #242, #5, #280 ) ;
#48 = DIRECTION ( 'NONE',  ( -1.000000000000000000, 0.000000000000000000, 0.000000000000000000 ) ) ;
#49 = AXIS2_PLACEMENT_3D ( 'NONE', #498, #261, #551 ) ;
#50 = ORIENTED_EDGE ( 'NONE', *, *, #467, .F. ) ;
#51 = DIRECTION ( 'NONE',  ( 0.000000000000000000, 1.000000000000000000, -6.829332421213964281E-15 ) ) ;
#52 = CARTESIAN_POINT ( 'NONE',  ( 0.000000000000000000, -17.49999999999999645, 1.499999999999996003 ) ) ;
#53 = CARTESIAN_POINT ( 'NONE',  ( 0.000000000000000000, -15.00000000000000000, -0.5000000000000093259 ) ) ;
#54 = DIRECTION ( 'NONE',  ( 0.000000000000000000, -1.000000000000000000, -3.061616997868382155E-16 ) ) ;
#55 = DIRECTION ( 'NONE',  ( 0.000000000000000000, 2.191229653865440499E-15, -1.000000000000000000 ) ) ;
#56 = AXIS2_PLACEMENT_3D ( 'NONE', #150, #328, #194 ) ;
#57 = CIRCLE ( 'NONE', #453, 4.499999999999999112 ) ;
#58 = LINE ( 'NONE', #579, #451 ) ;
#59 = ADVANCED_FACE ( 'NONE', ( #369 ), #182, .T. ) ;
#60 = ORIENTED_EDGE ( 'NONE', *, *, #423, .T. ) ;
#61 = CARTESIAN_POINT ( 'NONE',  ( 0.000000000000000000, 14.49999999999999822, -4.499999999999999112 ) ) ;
#62 = CARTESIAN_POINT ( 'NONE',  ( 0.000000000000000000, 15.00000000000000000, 0.000000000000000000 ) ) ;
#63 = EDGE_CURVE ( 'NONE', #354, #525, #479, .T. ) ;
#64 = CARTESIAN_POINT ( 'NONE',  ( 0.000000000000000000, -15.00000000000000000, -9.337931843498561358E-15 ) ) ;
#65 = DIRECTION ( 'NONE',  ( 0.000000000000000000, 0.000000000000000000, 1.000000000000000000 ) ) ;
#66 = VERTEX_POINT ( 'NONE', #53 ) ;
#67 = EDGE_CURVE ( 'NONE', #588, #272, #523, .T. ) ;
#68 = DIRECTION ( 'NONE',  ( 0.000000000000000000, 1.000000000000000000, 0.000000000000000000 ) ) ;
#69 = EDGE_CURVE ( 'NONE', #20, #38, #58, .T. ) ;
#70 = VERTEX_POINT ( 'NONE', #530 ) ;
#71 = DIRECTION ( 'NONE',  ( 0.000000000000000000, 0.000000000000000000, 1.000000000000000000 ) ) ;
#72 = ORIENTED_EDGE ( 'NONE', *, *, #227, .F. ) ;
#73 = CARTESIAN_POINT ( 'NONE',  ( 6.123233995736759873E-17, 16.50000000000000000, 6.499999999999998224 ) ) ;
#74 = EDGE_CURVE ( 'NONE', #519, #66, #253, .T. ) ;
#75 = EDGE_LOOP ( 'NONE', ( #344, #488 ) ) ;
#76 = DIRECTION ( 'NONE',  ( 0.000000000000000000, 0.000000000000000000, 1.000000000000000000 ) ) ;
#77 = ORIENTED_EDGE ( 'NONE', *, *, #198, .F. ) ;
#78 = EDGE_LOOP ( 'NONE', ( #201, #220, #104, #398 ) ) ;
#79 = DIRECTION ( 'NONE',  ( 0.000000000000000000, 2.191229653865440499E-15, -1.000000000000000000 ) ) ;
#80 = DIRECTION ( 'NONE',  ( 0.000000000000000000, 0.000000000000000000, 1.000000000000000000 ) ) ;
#81 = DIRECTION ( 'NONE',  ( 0.000000000000000000, 1.000000000000000000, -6.829332421213964281E-15 ) ) ;
#82 = CARTESIAN_POINT ( 'NONE',  ( 5.204748896376249713E-16, 15.00000000000000000, -3.999999999999998224 ) ) ;
#83 = ORIENTED_EDGE ( 'NONE', *, *, #299, .T. ) ;
#84 = ADVANCED_BREP_SHAPE_REPRESENTATION ( '\X2\7535963b\X0\A', ( #210, #203 ), #391 ) ;
#85 = FACE_OUTER_BOUND ( 'NONE', #167, .T. ) ;
#86 = UNCERTAINTY_MEASURE_WITH_UNIT (LENGTH_MEASURE( 1.000000000000000082E-05 ), #563, 'distance_accuracy_value', 'NONE');
#87 = AXIS2_PLACEMENT_3D ( 'NONE', #565, #562, #140 ) ;
#88 = DIRECTION ( 'NONE',  ( 0.000000000000000000, -1.000000000000000000, 1.734723475976805517E-15 ) ) ;
#89 = STYLED_ITEM ( 'NONE', ( #365 ), #210 ) ;
#90 = LINE ( 'NONE', #277, #118 ) ;
#91 = TOROIDAL_SURFACE ( 'NONE', #176, 3.999999999999998224, 0.5000000000000000000 ) ;
#92 =( GEOMETRIC_REPRESENTATION_CONTEXT ( 3 ) GLOBAL_UNCERTAINTY_ASSIGNED_CONTEXT ( ( #86 ) ) GLOBAL_UNIT_ASSIGNED_CONTEXT ( ( #563, #515, #100 ) ) REPRESENTATION_CONTEXT ( 'NONE', 'WORKASPACE' ) );
#93 = DIRECTION ( 'NONE',  ( 0.000000000000000000, 1.000000000000000000, 0.000000000000000000 ) ) ;
#94 = SURFACE_STYLE_USAGE ( .BOTH. , #517 ) ;
#95 = ADVANCED_FACE ( 'NONE', ( #424 ), #263, .T. ) ;
#96 =( NAMED_UNIT ( * ) PLANE_ANGLE_UNIT ( ) SI_UNIT ( $, .RADIAN. ) );
#97 = EDGE_LOOP ( 'NONE', ( #582, #598, #266, #17 ) ) ;
#98 = DIRECTION ( 'NONE',  ( 0.000000000000000000, -1.000000000000000000, 1.301042606982604138E-15 ) ) ;
#99 = ORIENTED_EDGE ( 'NONE', *, *, #463, .T. ) ;
#100 =( NAMED_UNIT ( * ) SI_UNIT ( $, .STERADIAN. ) SOLID_ANGLE_UNIT ( ) );
#101 = EDGE_CURVE ( 'NONE', #426, #385, #28, .T. ) ;
#102 = ORIENTED_EDGE ( 'NONE', *, *, #290, .T. ) ;
#103 = DIRECTION ( 'NONE',  ( 0.000000000000000000, 0.000000000000000000, -1.000000000000000000 ) ) ;
#104 = ORIENTED_EDGE ( 'NONE', *, *, #577, .T. ) ;
#105 = DIRECTION ( 'NONE',  ( -1.000000000000000000, -0.000000000000000000, 0.000000000000000000 ) ) ;
#106 = CARTESIAN_POINT ( 'NONE',  ( 6.123233995736766036E-17, 16.50000000000000000, 6.499999999999998224 ) ) ;
#107 = ORIENTED_EDGE ( 'NONE', *, *, #186, .F. ) ;
#108 = MECHANICAL_DESIGN_GEOMETRIC_PRESENTATION_REPRESENTATION (  '', ( #444 ), #92 ) ;
#109 = EDGE_CURVE ( 'NONE', #496, #531, #338, .T. ) ;
#110 = DIRECTION ( 'NONE',  ( 0.000000000000000000, 0.000000000000000000, -1.000000000000000000 ) ) ;
#111 = DIRECTION ( 'NONE',  ( -1.000000000000000000, -0.000000000000000000, 0.000000000000000000 ) ) ;
#112 = ORIENTED_EDGE ( 'NONE', *, *, #487, .T. ) ;
#113 = CARTESIAN_POINT ( 'NONE',  ( 0.000000000000000000, 15.49999999999998579, 0.000000000000000000 ) ) ;
#114 = ORIENTED_EDGE ( 'NONE', *, *, #274, .F. ) ;
#115 = EDGE_CURVE ( 'NONE', #485, #170, #141, .T. ) ;
#116 = CARTESIAN_POINT ( 'NONE',  ( 0.000000000000000000, 14.49999999999999822, 0.000000000000000000 ) ) ;
#117 = EDGE_LOOP ( 'NONE', ( #476, #127 ) ) ;
#118 = VECTOR ( 'NONE', #372, 1000.000000000000000 ) ;
#119 = EDGE_CURVE ( 'NONE', #66, #519, #544, .T. ) ;
#120 = ORIENTED_EDGE ( 'NONE', *, *, #425, .T. ) ;
#121 = ADVANCED_FACE ( 'NONE', ( #281 ), #594, .T. ) ;
#122 = CARTESIAN_POINT ( 'NONE',  ( 4.898587196589410857E-16, 14.49999999999999822, -3.999999999999998224 ) ) ;
#123 = DIRECTION ( 'NONE',  ( -0.000000000000000000, -1.000000000000000000, -0.000000000000000000 ) ) ;
#124 = VERTEX_POINT ( 'NONE', #473 ) ;
#125 = DIRECTION ( 'NONE',  ( 0.000000000000000000, -2.081668171172170485E-15, 1.000000000000000000 ) ) ;
#126 = FILL_AREA_STYLE ('',( #413 ) ) ;
#127 = ORIENTED_EDGE ( 'NONE', *, *, #109, .T. ) ;
#128 = PRODUCT_RELATED_PRODUCT_CATEGORY ( 'part', '', ( #234 ) ) ;
#129 = CIRCLE ( 'NONE', #291, 4.499999999999999112 ) ;
#130 = CIRCLE ( 'NONE', #154, 0.5000000000000004441 ) ;
#131 = CIRCLE ( 'NONE', #371, 0.5000000000000000000 ) ;
#132 = EDGE_CURVE ( 'NONE', #588, #304, #411, .T. ) ;
#133 = LINE ( 'NONE', #352, #228 ) ;
#134 = CARTESIAN_POINT ( 'NONE',  ( 0.000000000000000000, 15.49999999999998401, 0.000000000000000000 ) ) ;
#135 = DIRECTION ( 'NONE',  ( -1.000000000000000000, -0.000000000000000000, 0.000000000000000000 ) ) ;
#136 = CARTESIAN_POINT ( 'NONE',  ( 0.000000000000000000, -14.49999999999999822, 0.000000000000000000 ) ) ;
#137 = CARTESIAN_POINT ( 'NONE',  ( 0.000000000000000000, 15.00000000000000000, 0.000000000000000000 ) ) ;
#138 = EDGE_CURVE ( 'NONE', #531, #496, #524, .T. ) ;
#139 = CARTESIAN_POINT ( 'NONE',  ( 0.000000000000000000, 14.49999999999999822, 3.999999999999998224 ) ) ;
#140 = DIRECTION ( 'NONE',  ( 0.000000000000000000, 0.000000000000000000, 1.000000000000000000 ) ) ;
#141 = CIRCLE ( 'NONE', #502, 0.5000000000000004441 ) ;
#142 = CIRCLE ( 'NONE', #481, 0.5000000000000004441 ) ;
#143 = CIRCLE ( 'NONE', #574, 3.999999999999998224 ) ;
#144 = FACE_OUTER_BOUND ( 'NONE', #180, .T. ) ;
#145 = ORIENTED_EDGE ( 'NONE', *, *, #417, .F. ) ;
#146 = FILL_AREA_STYLE_COLOUR ( '', #607 ) ;
#147 = CARTESIAN_POINT ( 'NONE',  ( 0.000000000000000000, 15.49999999999998579, -0.5000000000000000000 ) ) ;
#148 = CARTESIAN_POINT ( 'NONE',  ( 0.000000000000000000, 14.49999999999999822, 0.000000000000000000 ) ) ;
#149 = VECTOR ( 'NONE', #11, 1000.000000000000000 ) ;
#150 = CARTESIAN_POINT ( 'NONE',  ( 0.000000000000000000, 15.49999999999999645, 1.499999999999999556 ) ) ;
#151 = AXIS2_PLACEMENT_3D ( 'NONE', #230, #561, #452 ) ;
#152 = EDGE_CURVE ( 'NONE', #385, #20, #339, .T. ) ;
#153 = CIRCLE ( 'NONE', #303, 3.999999999999998224 ) ;
#154 = AXIS2_PLACEMENT_3D ( 'NONE', #605, #412, #270 ) ;
#155 = ORIENTED_EDGE ( 'NONE', *, *, #240, .F. ) ;
#156 = DIRECTION ( 'NONE',  ( 0.000000000000000000, -1.000000000000000000, -3.061616997868382155E-16 ) ) ;
#157 = ORIENTED_EDGE ( 'NONE', *, *, #63, .F. ) ;
#158 = DIRECTION ( 'NONE',  ( 0.000000000000000000, 0.000000000000000000, 1.000000000000000000 ) ) ;
#159 = CARTESIAN_POINT ( 'NONE',  ( 0.000000000000000000, 15.00000000000000000, -0.5000000000000001110 ) ) ;
#160 = AXIS2_PLACEMENT_3D ( 'NONE', #137, #414, #4 ) ;
#161 = DIRECTION ( 'NONE',  ( 0.000000000000000000, 1.000000000000000000, 2.168404344971006896E-15 ) ) ;
#162 = COLOUR_RGB ( '',0.7921568627450980005, 0.8196078431372548767, 0.9333333333333333481 ) ;
#163 = AXIS2_PLACEMENT_3D ( 'NONE', #9, #380, #511 ) ;
#164 = VERTEX_POINT ( 'NONE', #597 ) ;
#165 = CIRCLE ( 'NONE', #381, 0.5000000000000004441 ) ;
#166 = DIRECTION ( 'NONE',  ( 0.000000000000000000, -1.387778780781448831E-15, -1.000000000000000000 ) ) ;
#167 = EDGE_LOOP ( 'NONE', ( #392, #60, #209, #107 ) ) ;
#168 = ADVANCED_FACE ( 'NONE', ( #85 ), #405, .T. ) ;
#169 = DIRECTION ( 'NONE',  ( 0.000000000000000000, -1.000000000000000000, -3.061616997868382155E-16 ) ) ;
#170 = VERTEX_POINT ( 'NONE', #268 ) ;
#171 = ADVANCED_FACE ( 'NONE', ( #456 ), #389, .T. ) ;
#172 = CARTESIAN_POINT ( 'NONE',  ( 6.123233995736766036E-17, -16.49999999999999645, 1.499999999999998002 ) ) ;
#173 = EDGE_CURVE ( 'NONE', #251, #531, #142, .T. ) ;
#174 = ORIENTED_EDGE ( 'NONE', *, *, #474, .F. ) ;
#175 = UNCERTAINTY_MEASURE_WITH_UNIT (LENGTH_MEASURE( 1.000000000000000082E-05 ), #374, 'distance_accuracy_value', 'NONE');
#176 = AXIS2_PLACEMENT_3D ( 'NONE', #440, #68, #211 ) ;
#177 = CARTESIAN_POINT ( 'NONE',  ( 0.000000000000000000, -17.00000000000000711, 6.499999999999993783 ) ) ;
#178 = ORIENTED_EDGE ( 'NONE', *, *, #589, .F. ) ;
#179 = CARTESIAN_POINT ( 'NONE',  ( 0.000000000000000000, -14.49999999999999822, 3.999999999999998224 ) ) ;
#180 = EDGE_LOOP ( 'NONE', ( #114, #262, #257, #42 ) ) ;
#181 = FACE_OUTER_BOUND ( 'NONE', #204, .T. ) ;
#182 = TOROIDAL_SURFACE ( 'NONE', #87, 3.999999999999998224, 0.5000000000000000000 ) ;
#183 = ORIENTED_EDGE ( 'NONE', *, *, #109, .F. ) ;
#184 = FACE_OUTER_BOUND ( 'NONE', #213, .T. ) ;
#185 = DIRECTION ( 'NONE',  ( 0.000000000000000000, 0.000000000000000000, 1.000000000000000000 ) ) ;
#186 = EDGE_CURVE ( 'NONE', #248, #525, #133, .T. ) ;
#187 = CARTESIAN_POINT ( 'NONE',  ( 0.000000000000000000, 15.00000000000000000, 3.999999999999998224 ) ) ;
#188 = SURFACE_STYLE_USAGE ( .BOTH. , #3 ) ;
#189 = CARTESIAN_POINT ( 'NONE',  ( 0.000000000000000000, 17.00000000000000000, 6.499999999999997335 ) ) ;
#190 = DIRECTION ( 'NONE',  ( 0.000000000000000000, 0.000000000000000000, 1.000000000000000000 ) ) ;
#191 = EDGE_CURVE ( 'NONE', #457, #507, #143, .T. ) ;
#192 = FACE_OUTER_BOUND ( 'NONE', #312, .T. ) ;
#193 = VECTOR ( 'NONE', #541, 1000.000000000000000 ) ;
#194 = DIRECTION ( 'NONE',  ( 0.000000000000000000, 0.000000000000000000, 1.000000000000000000 ) ) ;
#195 = DIRECTION ( 'NONE',  ( 0.000000000000000000, 0.000000000000000000, 1.000000000000000000 ) ) ;
#196 = DIRECTION ( 'NONE',  ( 0.000000000000000000, 6.938893903907228378E-15, 1.000000000000000000 ) ) ;
#197 = LINE ( 'NONE', #52, #464 ) ;
#198 = EDGE_CURVE ( 'NONE', #457, #354, #556, .T. ) ;
#199 = DIRECTION ( 'NONE',  ( -0.000000000000000000, -1.000000000000000000, -0.000000000000000000 ) ) ;
#200 = FACE_OUTER_BOUND ( 'NONE', #285, .T. ) ;
#201 = ORIENTED_EDGE ( 'NONE', *, *, #549, .F. ) ;
#202 = AXIS2_PLACEMENT_3D ( 'NONE', #428, #469, #18 ) ;
#203 = AXIS2_PLACEMENT_3D ( 'NONE', #432, #158, #436 ) ;
#204 = EDGE_LOOP ( 'NONE', ( #363, #334 ) ) ;
#205 = PRODUCT_CONTEXT ( 'NONE', #396, 'mechanical' ) ;
#206 = ORIENTED_EDGE ( 'NONE', *, *, #319, .T. ) ;
#207 = APPLICATION_PROTOCOL_DEFINITION ( 'draft international standard', 'automotive_design', 1998, #560 ) ;
#208 = CYLINDRICAL_SURFACE ( 'NONE', #585, 4.499999999999999112 ) ;
#209 = ORIENTED_EDGE ( 'NONE', *, *, #63, .T. ) ;
#210 = MANIFOLD_SOLID_BREP ( '圆角1', #29 ) ;
#211 = DIRECTION ( 'NONE',  ( 0.000000000000000000, 0.000000000000000000, 1.000000000000000000 ) ) ;
#212 = ADVANCED_FACE ( 'NONE', ( #200 ), #552, .F. ) ;
#213 = EDGE_LOOP ( 'NONE', ( #174, #99, #349, #309 ) ) ;
#214 = DIRECTION ( 'NONE',  ( 0.000000000000000000, 0.000000000000000000, 1.000000000000000000 ) ) ;
#215 = ORIENTED_EDGE ( 'NONE', *, *, #173, .T. ) ;
#216 = EDGE_CURVE ( 'NONE', #66, #304, #454, .T. ) ;
#217 = PLANE ( 'NONE',  #348 ) ;
#218 = ORIENTED_EDGE ( 'NONE', *, *, #430, .T. ) ;
#219 = AXIS2_PLACEMENT_3D ( 'NONE', #179, #48, #76 ) ;
#220 = ORIENTED_EDGE ( 'NONE', *, *, #101, .T. ) ;
#221 = AXIS2_PLACEMENT_3D ( 'NONE', #252, #384, #214 ) ;
#222 = DIRECTION ( 'NONE',  ( 0.000000000000000000, 0.000000000000000000, -1.000000000000000000 ) ) ;
#223 = ORIENTED_EDGE ( 'NONE', *, *, #119, .F. ) ;
#224 = FACE_OUTER_BOUND ( 'NONE', #117, .T. ) ;
#225 = CARTESIAN_POINT ( 'NONE',  ( 0.000000000000000000, -15.00000000000000000, 0.000000000000000000 ) ) ;
#226 = DIRECTION ( 'NONE',  ( 0.000000000000000000, 0.000000000000000000, 1.000000000000000000 ) ) ;
#227 = EDGE_CURVE ( 'NONE', #248, #251, #129, .T. ) ;
#228 = VECTOR ( 'NONE', #123, 1000.000000000000000 ) ;
#229 = CIRCLE ( 'NONE', #49, 0.5000000000000000000 ) ;
#230 = CARTESIAN_POINT ( 'NONE',  ( 6.123233995736766036E-17, 15.49999999999999645, 1.499999999999999556 ) ) ;
#231 = CARTESIAN_POINT ( 'NONE',  ( 0.000000000000000000, 15.49999999999998579, 0.000000000000000000 ) ) ;
#232 = ADVANCED_FACE ( 'NONE', ( #368 ), #311, .T. ) ;
#233 = DIRECTION ( 'NONE',  ( 0.000000000000000000, -2.081668171172170485E-15, 1.000000000000000000 ) ) ;
#234 = PRODUCT ( '\X2\7535963b\X0\A', '\X2\7535963b\X0\A', '', ( #205 ) ) ;
#235 = AXIS2_PLACEMENT_3D ( 'NONE', #472, #55, #521 ) ;
#236 =( NAMED_UNIT ( * ) SI_UNIT ( $, .STERADIAN. ) SOLID_ANGLE_UNIT ( ) );
#237 = ADVANCED_FACE ( 'NONE', ( #144 ), #572, .T. ) ;
#238 = FACE_OUTER_BOUND ( 'NONE', #480, .T. ) ;
#239 = AXIS2_PLACEMENT_3D ( 'NONE', #231, #468, #1 ) ;
#240 = EDGE_CURVE ( 'NONE', #507, #457, #153, .T. ) ;
#241 = ORIENTED_EDGE ( 'NONE', *, *, #314, .F. ) ;
#242 = CARTESIAN_POINT ( 'NONE',  ( 0.000000000000000000, -17.00000000000004619, 1.499999999999872990 ) ) ;
#243 = CARTESIAN_POINT ( 'NONE',  ( 5.510910596163087583E-16, 14.49999999999999822, 4.499999999999999112 ) ) ;
#244 = DIRECTION ( 'NONE',  ( 0.000000000000000000, 0.000000000000000000, 1.000000000000000000 ) ) ;
#245 = EDGE_LOOP ( 'NONE', ( #553, #41, #357, #540 ) ) ;
#246 = AXIS2_PLACEMENT_3D ( 'NONE', #64, #522, #438 ) ;
#247 = LINE ( 'NONE', #345, #193 ) ;
#248 = VERTEX_POINT ( 'NONE', #61 ) ;
#249 = DIRECTION ( 'NONE',  ( -0.000000000000000000, -1.000000000000000000, -0.000000000000000000 ) ) ;
#250 = DIRECTION ( 'NONE',  ( 0.000000000000000000, 1.000000000000000000, 1.734723475976805517E-15 ) ) ;
#251 = VERTEX_POINT ( 'NONE', #243 ) ;
#252 = CARTESIAN_POINT ( 'NONE',  ( 0.000000000000000000, -14.49999999999999822, 0.000000000000000000 ) ) ;
#253 = CIRCLE ( 'NONE', #573, 0.5000000000000000000 ) ;
#254 = FACE_OUTER_BOUND ( 'NONE', #534, .T. ) ;
#255 = ADVANCED_FACE ( 'NONE', ( #238 ), #324, .T. ) ;
#256 = TOROIDAL_SURFACE ( 'NONE', #513, 1.499999999999997780, 0.5000000000000000000 ) ;
#257 = ORIENTED_EDGE ( 'NONE', *, *, #216, .T. ) ;
#258 = ADVANCED_FACE ( 'NONE', ( #422 ), #15, .T. ) ;
#259 = FACE_OUTER_BOUND ( 'NONE', #245, .T. ) ;
#260 = ORIENTED_EDGE ( 'NONE', *, *, #191, .F. ) ;
#261 = DIRECTION ( 'NONE',  ( 0.000000000000000000, 1.000000000000000000, 4.157231824801086726E-16 ) ) ;
#262 = ORIENTED_EDGE ( 'NONE', *, *, #74, .T. ) ;
#263 = TOROIDAL_SURFACE ( 'NONE', #8, 1.499999999999999778, 0.5000000000000000000 ) ;
#264 = DIRECTION ( 'NONE',  ( 0.000000000000000000, 1.000000000000000000, 0.000000000000000000 ) ) ;
#265 = AXIS2_PLACEMENT_3D ( 'NONE', #136, #271, #185 ) ;
#266 = ORIENTED_EDGE ( 'NONE', *, *, #569, .T. ) ;
#267 = CIRCLE ( 'NONE', #350, 0.5000000000000004441 ) ;
#268 = CARTESIAN_POINT ( 'NONE',  ( 6.123233995736759873E-17, -16.50000000000000711, 6.499999999999994671 ) ) ;
#269 = DIRECTION ( 'NONE',  ( 0.000000000000000000, 6.938893903907228378E-15, 1.000000000000000000 ) ) ;
#270 = DIRECTION ( 'NONE',  ( 0.000000000000000000, -1.000000000000000000, 1.301042606982604138E-15 ) ) ;
#271 = DIRECTION ( 'NONE',  ( 0.000000000000000000, 1.000000000000000000, 0.000000000000000000 ) ) ;
#272 = VERTEX_POINT ( 'NONE', #578 ) ;
#273 = DIRECTION ( 'NONE',  ( 0.000000000000000000, 1.000000000000000000, 1.734723475976805517E-15 ) ) ;
#274 = EDGE_CURVE ( 'NONE', #519, #588, #90, .T. ) ;
#275 = CARTESIAN_POINT ( 'NONE',  ( 0.000000000000000000, 15.49999999999998401, 0.000000000000000000 ) ) ;
#276 = AXIS2_PLACEMENT_3D ( 'NONE', #547, #43, #458 ) ;
#277 = CARTESIAN_POINT ( 'NONE',  ( 6.123233995736766036E-17, 15.49999999999998579, 0.5000000000000000000 ) ) ;
#278 = DIRECTION ( 'NONE',  ( -0.000000000000000000, -1.000000000000000000, -0.000000000000000000 ) ) ;
#279 = DIRECTION ( 'NONE',  ( -0.000000000000000000, -1.000000000000000000, -0.000000000000000000 ) ) ;
#280 = DIRECTION ( 'NONE',  ( 0.000000000000000000, 1.000000000000000000, 2.168404344971006896E-15 ) ) ;
#281 = FACE_OUTER_BOUND ( 'NONE', #575, .T. ) ;
#282 = DIRECTION ( 'NONE',  ( 0.000000000000000000, 0.000000000000000000, 1.000000000000000000 ) ) ;
#283 = CARTESIAN_POINT ( 'NONE',  ( 0.000000000000000000, -15.00000000000000000, 0.000000000000000000 ) ) ;
#284 = DIRECTION ( 'NONE',  ( 0.000000000000000000, -1.387778780781448831E-15, -1.000000000000000000 ) ) ;
#285 = EDGE_LOOP ( 'NONE', ( #538, #429 ) ) ;
#286 = CARTESIAN_POINT ( 'NONE',  ( 0.000000000000000000, -15.49999999999998579, -0.5000000000000104361 ) ) ;
#287 = DIRECTION ( 'NONE',  ( -1.000000000000000000, -0.000000000000000000, 0.000000000000000000 ) ) ;
#288 = EDGE_LOOP ( 'NONE', ( #567, #499 ) ) ;
#289 = AXIS2_PLACEMENT_3D ( 'NONE', #134, #81, #269 ) ;
#290 = EDGE_CURVE ( 'NONE', #124, #485, #197, .T. ) ;
#291 = AXIS2_PLACEMENT_3D ( 'NONE', #148, #278, #190 ) ;
#292 = FACE_OUTER_BOUND ( 'NONE', #26, .T. ) ;
#293 = DIRECTION ( 'NONE',  ( 0.000000000000000000, 0.000000000000000000, 1.000000000000000000 ) ) ;
#294 = CIRCLE ( 'NONE', #221, 4.499999999999999112 ) ;
#295 = ORIENTED_EDGE ( 'NONE', *, *, #138, .F. ) ;
#296 = CARTESIAN_POINT ( 'NONE',  ( 0.000000000000000000, -16.99999999999999645, 1.499999999999996891 ) ) ;
#297 = ORIENTED_EDGE ( 'NONE', *, *, #487, .F. ) ;
#298 = CARTESIAN_POINT ( 'NONE',  ( 0.000000000000000000, 15.49999999999999645, 1.499999999999999556 ) ) ;
#299 = EDGE_CURVE ( 'NONE', #507, #525, #566, .T. ) ;
#300 = ORIENTED_EDGE ( 'NONE', *, *, #186, .T. ) ;
#301 = SHAPE_DEFINITION_REPRESENTATION ( #307, #84 ) ;
#302 = DIRECTION ( 'NONE',  ( -0.000000000000000000, -1.000000000000000000, -0.000000000000000000 ) ) ;
#303 = AXIS2_PLACEMENT_3D ( 'NONE', #283, #279, #416 ) ;
#304 = VERTEX_POINT ( 'NONE', #286 ) ;
#305 = VECTOR ( 'NONE', #475, 1000.000000000000000 ) ;
#306 = DIRECTION ( 'NONE',  ( 0.000000000000000000, -1.000000000000000000, -3.061616997868382155E-16 ) ) ;
#307 = PRODUCT_DEFINITION_SHAPE ( 'NONE', 'NONE',  #608 ) ;
#308 = ORIENTED_EDGE ( 'NONE', *, *, #115, .T. ) ;
#309 = ORIENTED_EDGE ( 'NONE', *, *, #67, .F. ) ;
#310 = ADVANCED_FACE ( 'NONE', ( #335 ), #208, .T. ) ;
#311 = TOROIDAL_SURFACE ( 'NONE', #56, 1.499999999999997780, 0.5000000000000000000 ) ;
#312 = EDGE_LOOP ( 'NONE', ( #558, #33, #241, #441 ) ) ;
#313 = AXIS2_PLACEMENT_3D ( 'NONE', #590, #249, #529 ) ;
#314 = EDGE_CURVE ( 'NONE', #337, #38, #31, .T. ) ;
#315 = DIRECTION ( 'NONE',  ( 0.000000000000000000, -0.000000000000000000, 1.000000000000000000 ) ) ;
#316 = DIRECTION ( 'NONE',  ( 0.000000000000000000, 0.000000000000000000, 1.000000000000000000 ) ) ;
#317 = ORIENTED_EDGE ( 'NONE', *, *, #581, .T. ) ;
#318 = DIRECTION ( 'NONE',  ( 0.000000000000000000, 0.000000000000000000, 1.000000000000000000 ) ) ;
#319 = EDGE_CURVE ( 'NONE', #272, #124, #21, .T. ) ;
#320 = PRESENTATION_STYLE_ASSIGNMENT (( #94 ) ) ;
#321 =( GEOMETRIC_REPRESENTATION_CONTEXT ( 3 ) GLOBAL_UNCERTAINTY_ASSIGNED_CONTEXT ( ( #554 ) ) GLOBAL_UNIT_ASSIGNED_CONTEXT ( ( #516, #96, #375 ) ) REPRESENTATION_CONTEXT ( 'NONE', 'WORKASPACE' ) );
#322 = CIRCLE ( 'NONE', #402, 1.999999999999997780 ) ;
#323 = FILL_AREA_STYLE ('',( #146 ) ) ;
#324 = CYLINDRICAL_SURFACE ( 'NONE', #202, 0.5000000000000004441 ) ;
#325 = ORIENTED_EDGE ( 'NONE', *, *, #577, .F. ) ;
#326 = CYLINDRICAL_SURFACE ( 'NONE', #239, 0.5000000000000000000 ) ;
#327 = CARTESIAN_POINT ( 'NONE',  ( 0.000000000000000000, -14.49999999999999822, -4.499999999999999112 ) ) ;
#328 = DIRECTION ( 'NONE',  ( -1.000000000000000000, -0.000000000000000000, 0.000000000000000000 ) ) ;
#329 = DIRECTION ( 'NONE',  ( 0.000000000000000000, 1.000000000000000000, 0.000000000000000000 ) ) ;
#330 = ORIENTED_EDGE ( 'NONE', *, *, #67, .T. ) ;
#331 = CARTESIAN_POINT ( 'NONE',  ( 0.000000000000000000, 15.49999999999998579, 0.000000000000000000 ) ) ;
#332 = CARTESIAN_POINT ( 'NONE',  ( 0.000000000000000000, -15.00000000000000000, -9.337931843498561358E-15 ) ) ;
#333 = EDGE_LOOP ( 'NONE', ( #501, #546, #330, #206 ) ) ;
#334 = ORIENTED_EDGE ( 'NONE', *, *, #240, .T. ) ;
#335 = FACE_OUTER_BOUND ( 'NONE', #353, .T. ) ;
#336 = CARTESIAN_POINT ( 'NONE',  ( 6.123233995736766036E-17, -15.49999999999999822, 1.499999999999989342 ) ) ;
#337 = VERTEX_POINT ( 'NONE', #159 ) ;
#338 = CIRCLE ( 'NONE', #461, 3.999999999999998224 ) ;
#339 = CIRCLE ( 'NONE', #151, 0.9999999999999978906 ) ;
#340 = DIRECTION ( 'NONE',  ( 0.000000000000000000, 2.191229653865440499E-15, -1.000000000000000000 ) ) ;
#341 = AXIS2_PLACEMENT_3D ( 'NONE', #471, #14, #98 ) ;
#342 = ORIENTED_EDGE ( 'NONE', *, *, #423, .F. ) ;
#343 = DIRECTION ( 'NONE',  ( 0.000000000000000000, 1.000000000000000000, -1.734723475976805517E-15 ) ) ;
#344 = ORIENTED_EDGE ( 'NONE', *, *, #314, .T. ) ;
#345 = CARTESIAN_POINT ( 'NONE',  ( 5.510910596163087583E-16, 15.00000000000000000, 4.499999999999999112 ) ) ;
#346 = ORIENTED_EDGE ( 'NONE', *, *, #319, .F. ) ;
#347 = AXIS2_PLACEMENT_3D ( 'NONE', #462, #603, #226 ) ;
#348 = AXIS2_PLACEMENT_3D ( 'NONE', #443, #23, #25 ) ;
#349 = ORIENTED_EDGE ( 'NONE', *, *, #589, .T. ) ;
#350 = AXIS2_PLACEMENT_3D ( 'NONE', #177, #79, #273 ) ;
#351 = LINE ( 'NONE', #172, #504 ) ;
#352 = CARTESIAN_POINT ( 'NONE',  ( 0.000000000000000000, 15.00000000000000000, -4.499999999999999112 ) ) ;
#353 = EDGE_LOOP ( 'NONE', ( #342, #120, #300, #394 ) ) ;
#354 = VERTEX_POINT ( 'NONE', #592 ) ;
#355 = DIRECTION ( 'NONE',  ( 0.000000000000000000, 1.000000000000000000, 0.000000000000000000 ) ) ;
#356 = DIRECTION ( 'NONE',  ( 0.000000000000000000, 0.000000000000000000, 1.000000000000000000 ) ) ;
#357 = ORIENTED_EDGE ( 'NONE', *, *, #132, .T. ) ;
#358 = AXIS2_PLACEMENT_3D ( 'NONE', #296, #27, #486 ) ;
#359 = CIRCLE ( 'NONE', #586, 0.5000000000000004441 ) ;
#360 = CARTESIAN_POINT ( 'NONE',  ( 6.123233995736767268E-17, -15.00000000000000000, 0.4999999999999906741 ) ) ;
#361 = ADVANCED_FACE ( 'NONE', ( #386 ), #217, .T. ) ;
#362 = DIRECTION ( 'NONE',  ( -0.000000000000000000, -1.000000000000000000, -0.000000000000000000 ) ) ;
#363 = ORIENTED_EDGE ( 'NONE', *, *, #191, .T. ) ;
#364 = CARTESIAN_POINT ( 'NONE',  ( 0.000000000000000000, 15.00000000000000000, -1.530808498934149909E-16 ) ) ;
#365 = PRESENTATION_STYLE_ASSIGNMENT (( #188 ) ) ;
#366 = CARTESIAN_POINT ( 'NONE',  ( 0.000000000000000000, -14.49999999999999822, 0.000000000000000000 ) ) ;
#367 = APPLICATION_PROTOCOL_DEFINITION ( 'draft international standard', 'automotive_design', 1998, #396 ) ;
#368 = FACE_OUTER_BOUND ( 'NONE', #505, .T. ) ;
#369 = FACE_OUTER_BOUND ( 'NONE', #435, .T. ) ;
#370 = ORIENTED_EDGE ( 'NONE', *, *, #290, .F. ) ;
#371 = AXIS2_PLACEMENT_3D ( 'NONE', #364, #199, #282 ) ;
#372 = DIRECTION ( 'NONE',  ( 0.000000000000000000, -1.000000000000000000, -3.061616997868382155E-16 ) ) ;
#373 = EDGE_CURVE ( 'NONE', #525, #354, #294, .T. ) ;
#374 =( LENGTH_UNIT ( ) NAMED_UNIT ( * ) SI_UNIT ( .MILLI., .METRE. ) );
#375 =( NAMED_UNIT ( * ) SI_UNIT ( $, .STERADIAN. ) SOLID_ANGLE_UNIT ( ) );
#376 = SURFACE_STYLE_FILL_AREA ( #323 ) ;
#377 = CARTESIAN_POINT ( 'NONE',  ( 0.000000000000000000, 15.49999999999998579, -0.5000000000000000000 ) ) ;
#378 = PRODUCT_DEFINITION_CONTEXT ( 'detailed design', #560, 'design' ) ;
#379 = ORIENTED_EDGE ( 'NONE', *, *, #373, .F. ) ;
#380 = DIRECTION ( 'NONE',  ( 0.000000000000000000, -1.387778780781448831E-15, -1.000000000000000000 ) ) ;
#381 = AXIS2_PLACEMENT_3D ( 'NONE', #189, #520, #88 ) ;
#382 = ADVANCED_FACE ( 'NONE', ( #537 ), #397, .T. ) ;
#383 = ORIENTED_EDGE ( 'NONE', *, *, #152, .F. ) ;
#384 = DIRECTION ( 'NONE',  ( 0.000000000000000000, 1.000000000000000000, 0.000000000000000000 ) ) ;
#385 = VERTEX_POINT ( 'NONE', #32 ) ;
#386 = FACE_OUTER_BOUND ( 'NONE', #288, .T. ) ;
#387 = ORIENTED_EDGE ( 'NONE', *, *, #45, .T. ) ;
#388 = ADVANCED_FACE ( 'NONE', ( #254 ), #91, .T. ) ;
#389 = TOROIDAL_SURFACE ( 'NONE', #347, 3.999999999999998224, 0.5000000000000000000 ) ;
#390 = CYLINDRICAL_SURFACE ( 'NONE', #39, 0.5000000000000004441 ) ;
#391 =( GEOMETRIC_REPRESENTATION_CONTEXT ( 3 ) GLOBAL_UNCERTAINTY_ASSIGNED_CONTEXT ( ( #175 ) ) GLOBAL_UNIT_ASSIGNED_CONTEXT ( ( #374, #570, #236 ) ) REPRESENTATION_CONTEXT ( 'NONE', 'WORKASPACE' ) );
#392 = ORIENTED_EDGE ( 'NONE', *, *, #227, .T. ) ;
#393 = FACE_OUTER_BOUND ( 'NONE', #583, .T. ) ;
#394 = ORIENTED_EDGE ( 'NONE', *, *, #373, .T. ) ;
#395 = ADVANCED_FACE ( 'NONE', ( #292 ), #390, .T. ) ;
#396 = APPLICATION_CONTEXT ( 'automotive_design' ) ;
#397 = CYLINDRICAL_SURFACE ( 'NONE', #358, 0.5000000000000004441 ) ;
#398 = ORIENTED_EDGE ( 'NONE', *, *, #45, .F. ) ;
#399 = CARTESIAN_POINT ( 'NONE',  ( 0.000000000000000000, -15.00000000000000000, 3.999999999999998224 ) ) ;
#400 = CARTESIAN_POINT ( 'NONE',  ( 0.000000000000000000, -15.49999999999998579, -1.040834085586084257E-14 ) ) ;
#401 = ADVANCED_FACE ( 'NONE', ( #393 ), #256, .T. ) ;
#402 = AXIS2_PLACEMENT_3D ( 'NONE', #298, #105, #71 ) ;
#403 = ORIENTED_EDGE ( 'NONE', *, *, #497, .T. ) ;
#404 = AXIS2_PLACEMENT_3D ( 'NONE', #559, #135, #460 ) ;
#405 = CYLINDRICAL_SURFACE ( 'NONE', #19, 4.499999999999999112 ) ;
#406 = ORIENTED_EDGE ( 'NONE', *, *, #173, .F. ) ;
#407 = FACE_BOUND ( 'NONE', #75, .T. ) ;
#408 = ADVANCED_FACE ( 'NONE', ( #259 ), #532, .T. ) ;
#409 = CARTESIAN_POINT ( 'NONE',  ( 5.204748896376249713E-16, -15.00000000000000000, -3.999999999999998224 ) ) ;
#410 = DIRECTION ( 'NONE',  ( -1.000000000000000000, 0.000000000000000000, 0.000000000000000000 ) ) ;
#411 = CIRCLE ( 'NONE', #492, 0.5000000000000000000 ) ;
#412 = DIRECTION ( 'NONE',  ( 0.000000000000000000, 1.278217298088178423E-15, 1.000000000000000000 ) ) ;
#413 = FILL_AREA_STYLE_COLOUR ( '', #162 ) ;
#414 = DIRECTION ( 'NONE',  ( 0.000000000000000000, 1.000000000000000000, 0.000000000000000000 ) ) ;
#415 = CARTESIAN_POINT ( 'NONE',  ( 4.898587196589410857E-16, -14.49999999999999822, -3.999999999999998224 ) ) ;
#416 = DIRECTION ( 'NONE',  ( 0.000000000000000000, 0.000000000000000000, 1.000000000000000000 ) ) ;
#417 = EDGE_CURVE ( 'NONE', #35, #164, #322, .T. ) ;
#418 = CARTESIAN_POINT ( 'NONE',  ( 6.123233995736766036E-17, 15.49999999999998757, 0.5000000000000000000 ) ) ;
#419 = AXIS2_PLACEMENT_3D ( 'NONE', #331, #54, #564 ) ;
#420 = CIRCLE ( 'NONE', #495, 2.000000000000000000 ) ;
#421 = LINE ( 'NONE', #147, #305 ) ;
#422 = FACE_OUTER_BOUND ( 'NONE', #78, .T. ) ;
#423 = EDGE_CURVE ( 'NONE', #251, #354, #247, .T. ) ;
#424 = FACE_OUTER_BOUND ( 'NONE', #333, .T. ) ;
#425 = EDGE_CURVE ( 'NONE', #251, #248, #57, .T. ) ;
#426 = VERTEX_POINT ( 'NONE', #73 ) ;
#427 = ADVANCED_FACE ( 'NONE', ( #446 ), #437, .T. ) ;
#428 = CARTESIAN_POINT ( 'NONE',  ( 0.000000000000000000, -16.99999999999999645, 1.499999999999996891 ) ) ;
#429 = ORIENTED_EDGE ( 'NONE', *, *, #497, .F. ) ;
#430 = EDGE_CURVE ( 'NONE', #35, #385, #130, .T. ) ;
#431 = PRESENTATION_LAYER_ASSIGNMENT (  '', '', ( #89 ) ) ;
#432 = CARTESIAN_POINT ( 'NONE',  ( 0.000000000000000000, 0.000000000000000000, 0.000000000000000000 ) ) ;
#433 = AXIS2_PLACEMENT_3D ( 'NONE', #415, #6, #568 ) ;
#434 = DIRECTION ( 'NONE',  ( 0.000000000000000000, 0.000000000000000000, 1.000000000000000000 ) ) ;
#435 = EDGE_LOOP ( 'NONE', ( #72, #439, #295, #406 ) ) ;
#436 = DIRECTION ( 'NONE',  ( 1.000000000000000000, 0.000000000000000000, 0.000000000000000000 ) ) ;
#437 = CYLINDRICAL_SURFACE ( 'NONE', #545, 0.5000000000000000000 ) ;
#438 = DIRECTION ( 'NONE',  ( 0.000000000000000000, 0.000000000000000000, 1.000000000000000000 ) ) ;
#439 = ORIENTED_EDGE ( 'NONE', *, *, #503, .T. ) ;
#440 = CARTESIAN_POINT ( 'NONE',  ( 0.000000000000000000, -14.49999999999999822, 0.000000000000000000 ) ) ;
#441 = ORIENTED_EDGE ( 'NONE', *, *, #569, .F. ) ;
#442 = CIRCLE ( 'NONE', #289, 0.5000000000000000000 ) ;
#443 = CARTESIAN_POINT ( 'NONE',  ( 0.000000000000000000, 17.00000000000000000, 6.499999999999997335 ) ) ;
#444 = STYLED_ITEM ( 'NONE', ( #320 ), #84 ) ;
#445 = ORIENTED_EDGE ( 'NONE', *, *, #152, .T. ) ;
#446 = FACE_OUTER_BOUND ( 'NONE', #97, .T. ) ;
#447 = ORIENTED_EDGE ( 'NONE', *, *, #299, .F. ) ;
#448 = PLANE ( 'NONE',  #536 ) ;
#449 = DIRECTION ( 'NONE',  ( -0.000000000000000000, -1.000000000000000000, -0.000000000000000000 ) ) ;
#450 = EDGE_LOOP ( 'NONE', ( #223, #580 ) ) ;
#451 = VECTOR ( 'NONE', #156, 1000.000000000000000 ) ;
#452 = DIRECTION ( 'NONE',  ( 0.000000000000000000, 0.000000000000000000, 1.000000000000000000 ) ) ;
#453 = AXIS2_PLACEMENT_3D ( 'NONE', #116, #302, #65 ) ;
#454 = LINE ( 'NONE', #377, #584 ) ;
#455 = CARTESIAN_POINT ( 'NONE',  ( 0.000000000000000000, -17.50000000000000711, 6.499999999999992895 ) ) ;
#456 = FACE_OUTER_BOUND ( 'NONE', #550, .T. ) ;
#457 = VERTEX_POINT ( 'NONE', #399 ) ;
#458 = DIRECTION ( 'NONE',  ( 0.000000000000000000, -1.000000000000000000, 1.734723475976805517E-15 ) ) ;
#459 = CARTESIAN_POINT ( 'NONE',  ( 6.123233995736766036E-17, 15.00000000000000000, 0.4999999999999998890 ) ) ;
#460 = DIRECTION ( 'NONE',  ( 0.000000000000000000, 0.000000000000000000, 1.000000000000000000 ) ) ;
#461 = AXIS2_PLACEMENT_3D ( 'NONE', #62, #329, #244 ) ;
#462 = CARTESIAN_POINT ( 'NONE',  ( 0.000000000000000000, 14.49999999999999822, 0.000000000000000000 ) ) ;
#463 = EDGE_CURVE ( 'NONE', #304, #124, #420, .T. ) ;
#464 = VECTOR ( 'NONE', #233, 1000.000000000000000 ) ;
#465 = AXIS2_PLACEMENT_3D ( 'NONE', #275, #51, #196 ) ;
#466 = CARTESIAN_POINT ( 'NONE',  ( 0.000000000000000000, 17.49999999999999645, 1.500000000000009326 ) ) ;
#467 = EDGE_CURVE ( 'NONE', #70, #426, #22, .T. ) ;
#468 = DIRECTION ( 'NONE',  ( 0.000000000000000000, -1.000000000000000000, -3.061616997868382155E-16 ) ) ;
#469 = DIRECTION ( 'NONE',  ( 0.000000000000000000, -2.081668171172170485E-15, 1.000000000000000000 ) ) ;
#470 = CIRCLE ( 'NONE', #47, 0.5000000000000004441 ) ;
#471 = CARTESIAN_POINT ( 'NONE',  ( 0.000000000000000000, 16.99999999999999289, 1.500000000000009992 ) ) ;
#472 = CARTESIAN_POINT ( 'NONE',  ( 0.000000000000000000, -17.00000000000000711, 6.499999999999993783 ) ) ;
#473 = CARTESIAN_POINT ( 'NONE',  ( 0.000000000000000000, -17.50000000000004619, 1.499999999999871880 ) ) ;
#474 = EDGE_CURVE ( 'NONE', #304, #588, #229, .T. ) ;
#475 = DIRECTION ( 'NONE',  ( 0.000000000000000000, -1.000000000000000000, -3.061616997868382155E-16 ) ) ;
#476 = ORIENTED_EDGE ( 'NONE', *, *, #138, .T. ) ;
#477 = DIRECTION ( 'NONE',  ( 0.000000000000000000, 0.000000000000000000, 1.000000000000000000 ) ) ;
#478 = CARTESIAN_POINT ( 'NONE',  ( 0.000000000000000000, -17.00000000000000711, 6.499999999999993783 ) ) ;
#479 = CIRCLE ( 'NONE', #37, 4.499999999999999112 ) ;
#480 = EDGE_LOOP ( 'NONE', ( #346, #112, #403, #370 ) ) ;
#481 = AXIS2_PLACEMENT_3D ( 'NONE', #139, #410, #356 ) ;
#482 = CARTESIAN_POINT ( 'NONE',  ( 0.000000000000000000, 15.00000000000000000, 0.000000000000000000 ) ) ;
#483 = PRESENTATION_LAYER_ASSIGNMENT (  '', '', ( #444 ) ) ;
#484 = DIRECTION ( 'NONE',  ( 0.000000000000000000, 0.000000000000000000, 1.000000000000000000 ) ) ;
#485 = VERTEX_POINT ( 'NONE', #455 ) ;
#486 = DIRECTION ( 'NONE',  ( 0.000000000000000000, -1.000000000000000000, -2.168404344971006896E-15 ) ) ;
#487 = EDGE_CURVE ( 'NONE', #272, #170, #351, .T. ) ;
#488 = ORIENTED_EDGE ( 'NONE', *, *, #542, .T. ) ;
#489 = DIRECTION ( 'NONE',  ( -0.000000000000000000, -1.000000000000000000, -0.000000000000000000 ) ) ;
#490 = ORIENTED_EDGE ( 'NONE', *, *, #417, .T. ) ;
#491 = AXIS2_PLACEMENT_3D ( 'NONE', #336, #287, #484 ) ;
#492 = AXIS2_PLACEMENT_3D ( 'NONE', #400, #36, #80 ) ;
#493 = CARTESIAN_POINT ( 'NONE',  ( 0.000000000000000000, -17.00000000000004619, 1.499999999999872990 ) ) ;
#494 = ADVANCED_FACE ( 'NONE', ( #181, #555 ), #448, .F. ) ;
#495 = AXIS2_PLACEMENT_3D ( 'NONE', #508, #602, #318 ) ;
#496 = VERTEX_POINT ( 'NONE', #82 ) ;
#497 = EDGE_CURVE ( 'NONE', #170, #485, #267, .T. ) ;
#498 = CARTESIAN_POINT ( 'NONE',  ( 0.000000000000000000, -15.49999999999998579, -1.040834085586084257E-14 ) ) ;
#499 = ORIENTED_EDGE ( 'NONE', *, *, #549, .T. ) ;
#500 = DIRECTION ( 'NONE',  ( 1.000000000000000000, -0.000000000000000000, 1.224646799147353207E-16 ) ) ;
#501 = ORIENTED_EDGE ( 'NONE', *, *, #463, .F. ) ;
#502 = AXIS2_PLACEMENT_3D ( 'NONE', #478, #571, #250 ) ;
#503 = EDGE_CURVE ( 'NONE', #248, #496, #359, .T. ) ;
#504 = VECTOR ( 'NONE', #125, 1000.000000000000000 ) ;
#505 = EDGE_LOOP ( 'NONE', ( #145, #325, #445, #317 ) ) ;
#506 = SURFACE_STYLE_FILL_AREA ( #126 ) ;
#507 = VERTEX_POINT ( 'NONE', #409 ) ;
#508 = CARTESIAN_POINT ( 'NONE',  ( 0.000000000000000000, -15.49999999999999822, 1.499999999999989342 ) ) ;
#509 = ADVANCED_FACE ( 'NONE', ( #184 ), #576, .T. ) ;
#510 = CARTESIAN_POINT ( 'NONE',  ( 0.000000000000000000, 17.50000000000000000, 6.499999999999996447 ) ) ;
#511 = DIRECTION ( 'NONE',  ( 0.000000000000000000, 1.000000000000000000, -1.734723475976805517E-15 ) ) ;
#512 = MECHANICAL_DESIGN_GEOMETRIC_PRESENTATION_REPRESENTATION (  '', ( #89 ), #321 ) ;
#513 = AXIS2_PLACEMENT_3D ( 'NONE', #539, #34, #477 ) ;
#514 = CIRCLE ( 'NONE', #465, 0.5000000000000000000 ) ;
#515 =( NAMED_UNIT ( * ) PLANE_ANGLE_UNIT ( ) SI_UNIT ( $, .RADIAN. ) );
#516 =( LENGTH_UNIT ( ) NAMED_UNIT ( * ) SI_UNIT ( .MILLI., .METRE. ) );
#517 = SURFACE_SIDE_STYLE ('',( #376 ) ) ;
#518 = DIRECTION ( 'NONE',  ( 0.000000000000000000, -1.000000000000000000, -3.061616997868382155E-16 ) ) ;
#519 = VERTEX_POINT ( 'NONE', #360 ) ;
#520 = DIRECTION ( 'NONE',  ( 0.000000000000000000, 1.278217298088178423E-15, 1.000000000000000000 ) ) ;
#521 = DIRECTION ( 'NONE',  ( 0.000000000000000000, 1.000000000000000000, 2.191229653865440499E-15 ) ) ;
#522 = DIRECTION ( 'NONE',  ( -0.000000000000000000, -1.000000000000000000, -0.000000000000000000 ) ) ;
#523 = CIRCLE ( 'NONE', #491, 0.9999999999999997780 ) ;
#524 = CIRCLE ( 'NONE', #10, 3.999999999999998224 ) ;
#525 = VERTEX_POINT ( 'NONE', #327 ) ;
#526 = PRODUCT_DEFINITION_FORMATION_WITH_SPECIFIED_SOURCE ( '任何', '', #234, .NOT_KNOWN. ) ;
#527 = CARTESIAN_POINT ( 'NONE',  ( 0.000000000000000000, -15.49999999999999822, 1.499999999999989342 ) ) ;
#528 = ORIENTED_EDGE ( 'NONE', *, *, #430, .F. ) ;
#529 = DIRECTION ( 'NONE',  ( 0.000000000000000000, 0.000000000000000000, 1.000000000000000000 ) ) ;
#530 = CARTESIAN_POINT ( 'NONE',  ( 0.000000000000000000, 17.50000000000000000, 6.499999999999996447 ) ) ;
#531 = VERTEX_POINT ( 'NONE', #187 ) ;
#532 = CYLINDRICAL_SURFACE ( 'NONE', #535, 0.5000000000000000000 ) ;
#533 = DIRECTION ( 'NONE',  ( -0.000000000000000000, -1.000000000000000000, -0.000000000000000000 ) ) ;
#534 = EDGE_LOOP ( 'NONE', ( #155, #83, #157, #77 ) ) ;
#535 = AXIS2_PLACEMENT_3D ( 'NONE', #113, #169, #103 ) ;
#536 = AXIS2_PLACEMENT_3D ( 'NONE', #225, #355, #315 ) ;
#537 = FACE_OUTER_BOUND ( 'NONE', #30, .T. ) ;
#538 = ORIENTED_EDGE ( 'NONE', *, *, #115, .F. ) ;
#539 = CARTESIAN_POINT ( 'NONE',  ( 0.000000000000000000, 15.49999999999999645, 1.499999999999999556 ) ) ;
#540 = ORIENTED_EDGE ( 'NONE', *, *, #216, .F. ) ;
#541 = DIRECTION ( 'NONE',  ( -0.000000000000000000, -1.000000000000000000, -0.000000000000000000 ) ) ;
#542 = EDGE_CURVE ( 'NONE', #38, #337, #131, .T. ) ;
#543 = ORIENTED_EDGE ( 'NONE', *, *, #101, .F. ) ;
#544 = CIRCLE ( 'NONE', #246, 0.5000000000000000000 ) ;
#545 = AXIS2_PLACEMENT_3D ( 'NONE', #595, #306, #222 ) ;
#546 = ORIENTED_EDGE ( 'NONE', *, *, #132, .F. ) ;
#547 = CARTESIAN_POINT ( 'NONE',  ( 0.000000000000000000, 17.00000000000000000, 6.499999999999997335 ) ) ;
#548 = CARTESIAN_POINT ( 'NONE',  ( 0.000000000000000000, 15.00000000000000000, 0.000000000000000000 ) ) ;
#549 = EDGE_CURVE ( 'NONE', #426, #70, #165, .T. ) ;
#550 = EDGE_LOOP ( 'NONE', ( #24, #600, #215, #183 ) ) ;
#551 = DIRECTION ( 'NONE',  ( 0.000000000000000000, 0.000000000000000000, 1.000000000000000000 ) ) ;
#552 = PLANE ( 'NONE',  #235 ) ;
#553 = ORIENTED_EDGE ( 'NONE', *, *, #119, .T. ) ;
#554 = UNCERTAINTY_MEASURE_WITH_UNIT (LENGTH_MEASURE( 1.000000000000000082E-05 ), #516, 'distance_accuracy_value', 'NONE');
#555 = FACE_BOUND ( 'NONE', #450, .T. ) ;
#556 = CIRCLE ( 'NONE', #219, 0.5000000000000004441 ) ;
#557 = CARTESIAN_POINT ( 'NONE',  ( 0.000000000000000000, 15.00000000000000000, 0.000000000000000000 ) ) ;
#558 = ORIENTED_EDGE ( 'NONE', *, *, #581, .F. ) ;
#559 = CARTESIAN_POINT ( 'NONE',  ( 0.000000000000000000, -15.49999999999999822, 1.499999999999989342 ) ) ;
#560 = APPLICATION_CONTEXT ( 'automotive_design' ) ;
#561 = DIRECTION ( 'NONE',  ( -1.000000000000000000, -0.000000000000000000, 0.000000000000000000 ) ) ;
#562 = DIRECTION ( 'NONE',  ( 0.000000000000000000, 1.000000000000000000, 0.000000000000000000 ) ) ;
#563 =( LENGTH_UNIT ( ) NAMED_UNIT ( * ) SI_UNIT ( .MILLI., .METRE. ) );
#564 = DIRECTION ( 'NONE',  ( 0.000000000000000000, 0.000000000000000000, -1.000000000000000000 ) ) ;
#565 = CARTESIAN_POINT ( 'NONE',  ( 0.000000000000000000, 14.49999999999999822, 0.000000000000000000 ) ) ;
#566 = CIRCLE ( 'NONE', #433, 0.5000000000000004441 ) ;
#567 = ORIENTED_EDGE ( 'NONE', *, *, #467, .T. ) ;
#568 = DIRECTION ( 'NONE',  ( 1.224646799147351482E-16, 0.000000000000000000, -1.000000000000000000 ) ) ;
#569 = EDGE_CURVE ( 'NONE', #164, #337, #421, .T. ) ;
#570 =( NAMED_UNIT ( * ) PLANE_ANGLE_UNIT ( ) SI_UNIT ( $, .RADIAN. ) );
#571 = DIRECTION ( 'NONE',  ( 0.000000000000000000, 2.191229653865440499E-15, -1.000000000000000000 ) ) ;
#572 = CYLINDRICAL_SURFACE ( 'NONE', #419, 0.5000000000000000000 ) ;
#573 = AXIS2_PLACEMENT_3D ( 'NONE', #332, #533, #293 ) ;
#574 = AXIS2_PLACEMENT_3D ( 'NONE', #606, #362, #316 ) ;
#575 = EDGE_LOOP ( 'NONE', ( #447, #260, #591, #379 ) ) ;
#576 = TOROIDAL_SURFACE ( 'NONE', #404, 1.499999999999999778, 0.5000000000000000000 ) ;
#577 = EDGE_CURVE ( 'NONE', #385, #35, #12, .T. ) ;
#578 = CARTESIAN_POINT ( 'NONE',  ( 6.123233995736547867E-17, -16.50000000000004619, 1.499999999999874101 ) ) ;
#579 = CARTESIAN_POINT ( 'NONE',  ( 6.123233995736766036E-17, 15.49999999999998579, 0.5000000000000000000 ) ) ;
#580 = ORIENTED_EDGE ( 'NONE', *, *, #74, .F. ) ;
#581 = EDGE_CURVE ( 'NONE', #20, #164, #514, .T. ) ;
#582 = ORIENTED_EDGE ( 'NONE', *, *, #69, .F. ) ;
#583 = EDGE_LOOP ( 'NONE', ( #528, #490, #593, #383 ) ) ;
#584 = VECTOR ( 'NONE', #518, 1000.000000000000000 ) ;
#585 = AXIS2_PLACEMENT_3D ( 'NONE', #482, #489, #110 ) ;
#586 = AXIS2_PLACEMENT_3D ( 'NONE', #122, #500, #40 ) ;
#587 = CARTESIAN_POINT ( 'NONE',  ( 0.000000000000000000, 17.00000000000000000, 6.499999999999997335 ) ) ;
#588 = VERTEX_POINT ( 'NONE', #7 ) ;
#589 = EDGE_CURVE ( 'NONE', #124, #272, #470, .T. ) ;
#590 = CARTESIAN_POINT ( 'NONE',  ( 0.000000000000000000, 15.00000000000000000, -1.530808498934149909E-16 ) ) ;
#591 = ORIENTED_EDGE ( 'NONE', *, *, #198, .T. ) ;
#592 = CARTESIAN_POINT ( 'NONE',  ( 5.510910596163087583E-16, -14.49999999999999822, 4.499999999999999112 ) ) ;
#593 = ORIENTED_EDGE ( 'NONE', *, *, #2, .T. ) ;
#594 = TOROIDAL_SURFACE ( 'NONE', #265, 3.999999999999998224, 0.5000000000000000000 ) ;
#595 = CARTESIAN_POINT ( 'NONE',  ( 0.000000000000000000, 15.49999999999998579, 0.000000000000000000 ) ) ;
#596 = AXIS2_PLACEMENT_3D ( 'NONE', #493, #340, #161 ) ;
#597 = CARTESIAN_POINT ( 'NONE',  ( 0.000000000000000000, 15.49999999999998046, -0.5000000000000000000 ) ) ;
#598 = ORIENTED_EDGE ( 'NONE', *, *, #2, .F. ) ;
#599 = DIRECTION ( 'NONE',  ( 0.000000000000000000, 0.000000000000000000, -1.000000000000000000 ) ) ;
#600 = ORIENTED_EDGE ( 'NONE', *, *, #425, .F. ) ;
#601 = ADVANCED_FACE ( 'NONE', ( #192 ), #326, .T. ) ;
#602 = DIRECTION ( 'NONE',  ( -1.000000000000000000, -0.000000000000000000, 0.000000000000000000 ) ) ;
#603 = DIRECTION ( 'NONE',  ( 0.000000000000000000, 1.000000000000000000, 0.000000000000000000 ) ) ;
#604 = PLANE ( 'NONE',  #160 ) ;
#605 = CARTESIAN_POINT ( 'NONE',  ( 0.000000000000000000, 16.99999999999999289, 1.500000000000009992 ) ) ;
#606 = CARTESIAN_POINT ( 'NONE',  ( 0.000000000000000000, -15.00000000000000000, 0.000000000000000000 ) ) ;
#607 = COLOUR_RGB ( '',0.7921568627450980005, 0.8196078431372548767, 0.9333333333333333481 ) ;
#608 = PRODUCT_DEFINITION ( '未知', '', #526, #378 ) ;
ENDSEC;
END-ISO-10303-21;
